<svg width="136" height="56" viewBox="0 0 136 56" fill="none" xmlns="http://www.w3.org/2000/svg">
<rect x="0.5" y="0.5" width="135" height="55" rx="27.5" stroke="#1A1A13"/>
<path d="M67.7124 17.6455C70.1404 17.6455 72.2705 16.6966 74.1025 14.7987C75.9344 12.9008 76.8505 10.6939 76.8505 8.178C76.8505 7.90168 76.8286 7.50901 76.785 7C76.4652 7.04363 76.2252 7.07999 76.0653 7.10907C73.8262 7.42902 71.8561 8.52703 70.155 10.4031C68.4539 12.2791 67.6033 14.2861 67.6033 16.4239C67.6033 16.6711 67.6397 17.0784 67.7124 17.6455ZM76.4143 51C78.1445 51 80.0564 49.8148 82.1501 47.4442C84.2438 45.0737 85.8431 42.2887 86.9481 39.0892C82.8335 36.9659 80.7761 33.9192 80.7761 29.9489C80.7761 26.6331 82.4409 23.7973 85.7705 21.4413C83.4587 18.5472 80.4054 17.1001 76.6106 17.1001C75.0112 17.1001 73.55 17.3401 72.2269 17.82L71.3982 18.1254L70.2859 18.5617C69.5589 18.838 68.8973 18.9762 68.3012 18.9762C67.8359 18.9762 67.2252 18.8162 66.4692 18.4963L65.6187 18.1472L64.8117 17.82C63.634 17.3255 62.3691 17.0783 61.0169 17.0783C57.3966 17.0783 54.4887 18.2999 52.2932 20.7432C50.0977 23.1864 49 26.4077 49 30.407C49 36.0352 50.7593 41.2344 54.2778 46.0045C56.7205 49.3348 58.9523 51 60.9733 51C61.8311 51 62.6817 50.8328 63.525 50.4983L64.5936 50.062L65.4442 49.7566C66.6364 49.3348 67.7342 49.1239 68.7374 49.1239C69.7988 49.1239 71.0201 49.393 72.4014 49.9311L73.0775 50.1929C74.4877 50.731 75.6001 51 76.4143 51Z" fill="black"/>
</svg>
