<svg width="80" height="80" viewBox="0 0 80 80" fill="none" xmlns="http://www.w3.org/2000/svg">
<path d="M32.5 5C28.3587 5 25 8.35584 25 12.4988V15H7.5C3.35787 15 0 18.3579 0 22.5V62.5C0 66.6421 3.35787 70 7.5 70H72.5C76.6421 70 80 66.6421 80 62.5V22.5C80 18.3579 76.6421 15 72.5 15H55V12.4988C55 8.35585 51.6413 5 47.5 5H32.5ZM32.5 10H47.5C48.8815 10 50 11.1232 50 12.5031V15H30V12.4988C30 11.1189 31.1185 10 32.5 10ZM41.9325 44.572L75 35.754V62.5C75 63.8807 73.8807 65 72.5 65H7.5C6.11929 65 5 63.8807 5 62.5V35.754L38.0675 44.572C39.3337 44.9097 40.6663 44.9097 41.9325 44.572ZM7.5 20H72.5C73.8807 20 75 21.1193 75 22.5V30.5793L40.6442 39.7409C40.2221 39.8534 39.7779 39.8534 39.3558 39.7409L5 30.5793V22.5C5 21.1193 6.11929 20 7.5 20Z" fill="black"/>
</svg>
