<svg width="135" height="55" viewBox="0 0 135 55" fill="none" xmlns="http://www.w3.org/2000/svg">
<rect x="0.5" y="0.5" width="133.667" height="54.0001" rx="27" stroke="#1A1A13"/>
<path d="M38.4279 33.1109L38.3728 33.1645C37.48 34.0737 36.4468 34.5556 35.382 34.5556C33.1597 34.5556 31.5466 32.8889 31.5466 30.5889C31.5466 28.2932 33.1597 26.624 35.382 26.624C36.4465 26.624 37.48 27.108 38.3728 28.0198L38.4279 28.0749L39.8574 26.3469L39.8191 26.3003C38.6305 24.8958 37.2044 24.2124 35.4511 24.2124C33.6917 24.2124 32.0835 24.8043 30.9242 25.8718C29.6649 27.028 29 28.6581 29 30.5889C29 32.5186 29.6649 34.1532 30.9244 35.3097C32.0835 36.3817 33.6917 36.9706 35.4511 36.9706C37.2044 36.9706 38.6305 36.2875 39.8191 34.8826L39.8574 34.8389L38.4279 33.1109ZM41.3016 36.7355H43.8265V24.4125H41.3016V36.7355ZM53.7165 34.056C53.043 34.466 52.4162 34.6724 51.8531 34.6724C51.0373 34.6724 50.6687 34.2417 50.6687 33.2831V26.7444H53.2401V24.4237H50.6687V20.5893L48.1939 21.9134V24.4237H46.0591V26.7442H48.1939V33.7C48.1939 35.595 49.3167 36.8898 50.9927 36.9235C52.1308 36.9457 52.8169 36.6068 53.2337 36.3589L53.258 36.3408L53.8659 33.9649L53.7165 34.056ZM55.8077 36.7355H58.3343V24.4125H55.8074L55.8077 36.7355ZM98.6035 19.7236V31.4787L99.3901 30.2546C99.3896 30.2598 102.924 25.1431 103.377 24.4907H104.952C104.617 24.9413 101.838 28.7645 101.838 28.7645C101.838 28.7645 105.458 36.3059 105.667 36.7355H104.12C104.035 36.5594 100.925 29.978 100.925 29.978L98.6037 33.2302V36.7355H97.1626V20.5463C97.2888 20.4738 98.2642 19.9147 98.6035 19.7236ZM86.766 25.9505C87.5094 24.8396 88.6739 24.2269 90.0365 24.2269C92.7535 24.2269 94.1936 25.9593 94.1936 29.2377V36.7355H92.7489V29.5484C92.7489 26.7592 91.7802 25.4644 89.6817 25.4644C87.673 25.4644 86.4738 26.9917 86.4738 29.5481V36.7355H85.0332V24.4907H86.4738V26.3897L86.766 25.9505ZM77.9089 24.2269C80.7047 24.2269 82.064 25.5053 82.064 28.1355V36.7355H80.6228V34.9492L80.3423 35.2581C79.2817 36.4281 78.0643 37.0001 76.6149 37.0001C75.4789 37.0001 72.836 36.6244 72.836 33.1386C72.836 30.2893 75.1888 29.2778 77.3925 29.2778C78.4992 29.2778 79.5922 29.5326 80.3856 29.977L80.6228 30.1085V28.3505C80.6228 26.4016 79.6707 25.4144 77.7893 25.4144C76.6289 25.4144 75.582 25.7071 74.5084 26.3122C74.4136 26.0947 74.0808 25.3585 73.9878 25.1485C75.1101 24.5573 76.4958 24.2269 77.9089 24.2269ZM74.2491 33.0184C74.2491 34.849 75.1979 35.8576 76.9213 35.8576C78.3884 35.8576 79.6912 35.1649 80.5956 33.9048L80.6228 33.8616V31.177L80.5425 31.1304C79.623 30.6062 78.6808 30.3949 77.2961 30.3949C75.3898 30.3949 74.2491 31.3753 74.2491 33.0184ZM63.1218 19.7236V26.2739L63.4008 25.9683C64.462 24.7966 65.6368 24.2269 66.9876 24.2269C69.6903 24.2269 71.2418 26.4793 71.2418 30.4076C71.2418 34.4124 69.4797 37.0001 66.7516 37.0001C65.4224 37.0001 64.3581 36.4848 63.4021 35.3793L63.1218 35.053V36.7355H61.6836V20.5463C61.8061 20.4738 62.7836 19.9147 63.1218 19.7236ZM63.156 27.3408L63.1218 27.3861V33.7601L63.1475 33.7989C63.9424 35.0289 65.2374 35.7644 66.6156 35.7644C68.7444 35.7644 69.8232 33.9706 69.8232 30.4338C69.8232 27.2743 68.6279 25.4644 66.5436 25.4644C65.2804 25.4644 64.1408 26.0955 63.156 27.3408Z" fill="#003B70"/>
<path fill-rule="evenodd" clip-rule="evenodd" d="M59.8467 23.2257C57.5351 19.953 53.6971 18 49.792 18C45.888 18 42.0489 19.9528 39.7414 23.2257L39.623 23.3943H42.5333L42.5654 23.3593C44.5463 21.3154 47.1317 20.2345 49.7917 20.2345C52.4518 20.2345 55.0367 21.3154 57.0212 23.3593L57.0536 23.3943H59.9628L59.8467 23.2257Z" fill="#D9261C"/>
</svg>
