<svg width="136" height="56" viewBox="0 0 136 56" fill="none" xmlns="http://www.w3.org/2000/svg">
<rect x="0.5" y="0.5" width="135" height="55" rx="27.5" stroke="#1A1A13"/>
<path fill-rule="evenodd" clip-rule="evenodd" d="M66 7C78.1503 7 88 16.8497 88 29C88 41.1503 78.1503 51 66 51C65.5928 51 65.1883 50.9881 64.7865 50.9662L69.4138 37.9702H74.2247C75.6218 37.9702 77.0919 36.8272 77.4915 35.43L81.5537 24.021C82.3784 21.7046 80.8355 20.3383 79.0649 20.3333L71.1387 20.3309L60.4686 50.2984C50.9959 47.8452 44 39.2398 44 29C44 18.5457 51.2919 9.79469 61.0671 7.55562L50.4904 37.261H55.0461L60.169 22.8729H62.7866L57.6744 37.2307H62.2301L66.9335 24.021C67.7582 21.7046 66.2153 20.3383 64.4447 20.3333L61.0767 20.3236L65.8198 7.00227C65.88 7.00179 65.9398 7 66 7Z" fill="#015294"/>
<path fill-rule="evenodd" clip-rule="evenodd" d="M70.3184 35.4304L74.7894 22.8733H77.4069L72.9359 35.4304H70.3184Z" fill="#015294"/>
</svg>
