<svg width="136" height="56" viewBox="0 0 136 56" fill="none" xmlns="http://www.w3.org/2000/svg">
<rect x="0.5" y="0.5" width="134.602" height="55" rx="27.5" stroke="#1A1A13"/>
<path fill-rule="evenodd" clip-rule="evenodd" d="M17.0958 39.8134C16.2714 39.7418 14.0751 40.4917 13.1943 38.5914C12.758 37.3708 13.0928 36.3534 13.8361 35.7424C14.7182 34.9903 16.0177 34.6504 17.9115 35.3996L17.0958 39.8134ZM14.8564 29.4312C14.863 29.4838 17.9509 26.1532 26.7625 33.1814C33.5707 38.6118 37.5364 35.8396 37.5196 35.8155L36.8348 39.16C36.8348 39.16 33.6693 42.5462 24.9623 35.7212C17.7682 30.0766 14.1818 32.6778 14.1818 32.6778C14.1818 32.6778 14.8432 29.2799 14.8564 29.4312ZM16.15 23.0615C16.1515 23.1193 19.2395 19.7857 28.0525 26.8168C34.8577 32.2495 38.8264 29.4743 38.8096 29.4487L38.1277 32.7903C38.1277 32.7903 34.9623 36.1809 26.2582 29.3559C19.0546 23.7047 15.4681 26.3118 15.4681 26.3118C15.4681 26.3118 16.1332 22.9095 16.15 23.0615ZM17.4196 16.7387C17.4262 16.7971 20.5156 13.4643 29.3257 20.4969C36.1339 25.9259 40.0967 23.1485 40.0799 23.1266L39.3951 26.4667C39.3951 26.4667 36.2355 29.8558 27.5314 23.033C20.3285 17.3877 16.7442 19.9904 16.7442 19.9904C16.7442 19.9904 17.4072 16.5881 17.4196 16.7387ZM119.067 35.3864C119.067 35.1542 119.113 34.9242 119.203 34.7098C119.292 34.4953 119.422 34.3006 119.587 34.1367C119.752 33.9728 119.947 33.843 120.162 33.7547C120.377 33.6664 120.607 33.6213 120.839 33.6221C121.306 33.6236 121.754 33.8101 122.084 34.1406C122.415 34.4712 122.601 34.9191 122.602 35.3864C122.589 35.8464 122.397 36.283 122.067 36.6036C121.737 36.9243 121.295 37.1036 120.835 37.1036C120.374 37.1036 119.932 36.9243 119.602 36.6036C119.272 36.283 119.08 35.8464 119.067 35.3864ZM122.127 35.3864C122.127 34.6044 121.588 34.0445 120.838 34.0445C120.062 34.0445 119.531 34.6044 119.531 35.3864C119.531 36.1758 120.062 36.7357 120.838 36.7357C121.588 36.7357 122.127 36.1758 122.127 35.3864ZM121.709 36.349H121.245L120.827 35.5436H120.506V36.349H120.104V34.4436H121.026C121.529 34.4436 121.772 34.5752 121.772 35.0276C121.772 35.3784 121.581 35.5246 121.245 35.5443L121.709 36.349ZM121.036 35.2571C121.245 35.2658 121.397 35.2125 121.397 34.9728C121.397 34.7184 121.12 34.736 120.935 34.736H120.506V35.2571H121.036ZM116.916 37.1113C116.196 37.1113 114.135 37.1281 113.536 37.1245L116.955 21.3827C118.08 21.3842 119.238 21.3842 120.361 21.3842L116.916 37.1113ZM80.1345 21.379C80.0059 21.925 79.5418 24.0534 79.4395 24.6008C78.8087 24.5701 76.983 24.5898 76.0021 24.5898C76.1819 23.9043 76.5846 21.9374 76.6987 21.3783C77.4697 21.3944 79.1281 21.3981 80.1345 21.379ZM74.0704 22.2035C73.9089 22.8364 73.5624 24.6424 73.4009 25.3668L75.1952 25.3836C75.0337 26.1751 74.8371 27.1742 74.6887 27.7326L72.9083 27.7458L71.5065 34.2119C71.4633 34.38 71.4962 34.5671 71.7389 34.57C72.1643 34.5547 72.8739 34.5627 73.2664 34.5744L72.6971 37.1011L69.2122 37.1179C68.6626 37.1077 68.1356 36.6925 67.8959 36.1955C67.6591 35.526 67.7775 34.7783 67.8988 34.1096L69.3109 27.7304C68.8599 27.745 68.4031 27.7377 68.0048 27.7377C68.1393 27.0836 68.4031 25.6949 68.5018 25.3587L69.8305 25.3624C70.025 24.2865 70.3604 22.8218 70.4854 22.2013L74.0704 22.2035ZM101.935 26.1144C102.899 27.4498 102.021 29.1973 101.85 30.6101L100.405 37.1011C99.6024 37.1084 98.1252 37.1084 96.999 37.1084C97.4046 34.3588 98.1669 31.6085 98.6902 28.8194C98.7304 28.4028 98.6106 27.984 98.2064 27.8598C97.3695 27.7326 96.3309 27.6464 95.7294 28.3977L95.4071 29.0614L93.6785 37.1084C92.952 37.0726 91.3558 37.1281 90.1915 37.1281C90.3589 36.4316 92.6195 25.9061 92.7313 25.3836C93.134 25.3733 95.1696 25.3931 95.9735 25.3668C95.9538 25.6832 95.9867 26.0735 95.9633 26.6071C96.9997 25.0247 98.8927 24.9414 100.62 25.2388C101.098 25.4457 101.656 25.6138 101.935 26.1144ZM79.2882 25.3836C78.5186 29.296 77.5984 33.2384 76.7557 37.1113L73.3198 37.1142C74.0762 33.2486 75.0344 29.2572 75.8435 25.3836C76.505 25.3594 78.3972 25.3865 79.2882 25.3836ZM87.2855 25.2228C84.446 24.929 81.4414 25.5093 79.954 28.2128C78.7963 30.3777 77.8681 33.2099 79.0236 35.6671C79.5433 36.6289 80.5497 37.0032 81.5071 37.21C83.9921 37.4673 86.7929 37.4673 88.5989 35.2615C90.2777 33.1434 91.1256 30.1811 90.4444 27.392C90.0059 25.9734 88.5682 25.3909 87.2855 25.2228ZM86.8009 28.0959C87.4821 29.0555 87.075 30.5136 86.8411 31.5522C86.5517 32.8028 86.0342 34.5503 84.5111 34.7155C83.672 34.7586 82.5954 34.8829 82.1511 33.9619C81.7958 32.1289 82.3155 30.5049 83.0361 28.9225C83.7217 27.7165 85.1177 27.593 86.3237 27.8452L86.8009 28.0959ZM67.317 26.9053C67.5239 27.6091 67.4384 28.4862 67.2812 29.1542L66.152 34.3588L66.6717 34.5671C66.5664 35.1255 66.2704 36.493 66.1483 37.0251C65.1083 37.0251 63.5457 37.476 63.0282 36.2284C62.9851 36.1027 62.923 35.9631 62.9003 35.8557C62.1862 36.6794 61.1038 37.0719 60.0243 37.1303C59.0222 37.2531 57.8974 37.0974 57.016 36.7196C56.3772 36.4696 55.9503 35.7928 55.8582 35.1752C55.7793 33.5534 56.22 31.9316 57.6248 30.9756C59.3489 29.8946 61.6724 30.2279 63.6341 29.6877C63.8636 29.7521 64.1962 28.609 63.917 28.0652C63.235 27.479 61.9757 27.5704 61.3954 27.8956C60.9525 28.1426 60.7975 28.6448 60.5892 29.106L57.4698 29.0986C57.6679 27.68 58.5062 26.1839 59.9146 25.7249C61.8829 25.1058 64.2393 24.9414 66.2002 25.6956C66.6797 25.9032 67.127 26.4031 67.317 26.9053ZM63.1568 31.8548C62.032 32.3927 60.1894 31.8117 59.5083 33.2252C59.3467 33.6038 59.3073 34.1001 59.5872 34.4341C60.2684 34.9749 61.2288 34.6855 61.907 34.353C62.7885 33.9006 63.1941 32.8554 63.2263 31.8994L63.1568 31.8548ZM113.631 26.9053C113.825 27.6091 113.746 28.4862 113.581 29.1542L112.459 34.3588L112.979 34.5671C112.871 35.1255 112.578 36.493 112.456 37.0251C111.413 37.0251 109.853 37.476 109.337 36.2284C109.292 36.1027 109.234 35.9631 109.217 35.8557C108.491 36.6794 107.414 37.0719 106.332 37.1303C105.329 37.2531 104.21 37.0974 103.328 36.7196C102.69 36.4696 102.261 35.7928 102.173 35.1752C102.087 33.5534 102.531 31.9316 103.933 30.9756C105.657 29.8946 107.984 30.2279 109.936 29.6877C110.169 29.7521 110.502 28.609 110.223 28.0652C109.542 27.479 108.287 27.5704 107.699 27.8956C107.263 28.1426 107.1 28.6448 106.9 29.106L103.779 29.0986C103.98 27.68 104.822 26.1839 106.22 25.7249C108.184 25.1058 110.544 24.9414 112.507 25.6956C112.989 25.9032 113.424 26.4031 113.631 26.9053ZM109.458 31.8548C108.339 32.3927 106.493 31.8117 105.816 33.2252C105.654 33.6038 105.609 34.1001 105.894 34.4341C106.575 34.9749 107.53 34.6855 108.215 34.353C109.097 33.9006 109.497 32.8554 109.537 31.8994L109.458 31.8548ZM46.9086 27.5419L44.819 37.1113C44.0881 37.1011 41.9919 37.1216 41.1762 37.1281L44.599 21.379L48.4032 21.382L52.0321 30.8827L54.1297 21.3878C55.3261 21.3484 56.5635 21.4207 57.8112 21.382L54.3921 37.1237L50.7457 37.1011L46.9086 27.5419ZM37.076 16.5274C37.9011 16.6013 40.0967 15.8499 40.9789 17.7517C41.413 18.9701 41.0841 19.9831 40.3372 20.6014C39.4521 21.3454 38.1555 21.6868 36.2596 20.942L37.076 16.5274Z" fill="#23835A"/>
</svg>
