<svg width="136" height="56" viewBox="0 0 136 56" fill="none" xmlns="http://www.w3.org/2000/svg">
<rect x="0.5" y="0.5" width="135" height="55" rx="27.5" stroke="#1A1A13"/>
<path fill-rule="evenodd" clip-rule="evenodd" d="M23 15V43H111.887V15H23Z" fill="#23835A"/>
<path fill-rule="evenodd" clip-rule="evenodd" d="M33.0637 36.3123C32.4932 36.2627 30.9734 36.7817 30.364 35.4667C30.062 34.622 30.2937 33.918 30.808 33.4952C31.4185 32.9748 32.3177 32.7396 33.6282 33.258L33.0637 36.3123ZM31.5141 29.128C31.5186 29.1644 33.6555 26.8596 39.7529 31.723C44.4641 35.4808 47.2084 33.5625 47.1967 33.5458L46.7228 35.8602C46.7228 35.8602 44.5324 38.2033 38.5073 33.4805C33.529 29.5745 31.0473 31.3745 31.0473 31.3745C31.0473 31.3745 31.505 29.0233 31.5141 29.128ZM32.4093 24.7202C32.4103 24.7602 34.5471 22.4534 40.6456 27.3188C45.3548 31.0782 48.1011 29.1578 48.0894 29.1401L47.6175 31.4524C47.6175 31.4524 45.4271 33.7987 39.404 29.0759C34.4192 25.1653 31.9374 26.9694 31.9374 26.9694C31.9374 26.9694 32.3976 24.615 32.4093 24.7202ZM33.2878 20.3449C33.2923 20.3853 35.4302 18.0791 41.5266 22.9455C46.2378 26.7023 48.9801 24.7804 48.9684 24.7652L48.4945 27.0766C48.4945 27.0766 46.3081 29.4218 40.285 24.7005C35.3007 20.794 32.8205 22.595 32.8205 22.595C32.8205 22.595 33.2792 20.2407 33.2878 20.3449ZM103.627 33.2489C103.627 33.0882 103.659 32.9291 103.72 32.7807C103.782 32.6323 103.872 32.4975 103.986 32.3841C104.1 32.2707 104.235 32.1809 104.384 32.1197C104.533 32.0586 104.692 32.0275 104.853 32.028C105.176 32.0291 105.486 32.1581 105.714 32.3868C105.943 32.6156 106.072 32.9255 106.073 33.2489C106.063 33.5672 105.93 33.8693 105.702 34.0912C105.474 34.3131 105.168 34.4372 104.85 34.4372C104.531 34.4372 104.225 34.3131 103.997 34.0912C103.769 33.8693 103.636 33.5672 103.627 33.2489ZM105.744 33.2489C105.744 32.7077 105.371 32.3203 104.852 32.3203C104.315 32.3203 103.947 32.7077 103.947 33.2489C103.947 33.7951 104.315 34.1825 104.852 34.1825C105.371 34.1825 105.744 33.7951 105.744 33.2489ZM105.455 33.915H105.134L104.845 33.3576H104.622V33.915H104.344V32.5965H104.982C105.33 32.5965 105.498 32.6875 105.498 33.0006C105.498 33.2433 105.366 33.3445 105.134 33.3581L105.455 33.915ZM104.989 33.1594C105.134 33.1655 105.239 33.1285 105.239 32.9626C105.239 32.7866 105.047 32.7988 104.919 32.7988H104.622V33.1594H104.989ZM102.138 34.4425C101.64 34.4425 100.214 34.4541 99.799 34.4516L102.165 23.5585C102.943 23.5595 103.744 23.5595 104.522 23.5595L102.138 34.4425ZM76.6857 23.556C76.5967 23.9338 76.2755 25.4066 76.2047 25.7854C75.7683 25.7641 74.5049 25.7778 73.8261 25.7778C73.9505 25.3034 74.2292 23.9424 74.3081 23.5555C74.8417 23.5666 75.9893 23.5691 76.6857 23.556ZM72.4894 24.1265C72.3776 24.5645 72.1379 25.8142 72.0261 26.3154L73.2678 26.327C73.156 26.8748 73.0199 27.5662 72.9173 27.9526L71.6852 27.9617L70.7152 32.4361C70.6853 32.5525 70.7081 32.6819 70.876 32.684C71.1704 32.6733 71.6615 32.6789 71.9331 32.687L71.5391 34.4354L69.1276 34.4471C68.7473 34.44 68.3826 34.1527 68.2167 33.8088C68.0529 33.3455 68.1348 32.8281 68.2187 32.3653L69.1959 27.951C68.8838 27.9612 68.5677 27.9561 68.2921 27.9561C68.3851 27.5034 68.5677 26.5425 68.636 26.3098L69.5555 26.3124C69.69 25.5679 69.9222 24.5543 70.0086 24.125L72.4894 24.1265ZM91.7716 26.8328C92.4382 27.7568 91.8308 28.9661 91.7124 29.9437L90.7125 34.4354C90.1572 34.4405 89.135 34.4405 88.3557 34.4405C88.6364 32.5378 89.1639 30.6346 89.526 28.7046C89.5538 28.4163 89.4709 28.1265 89.1912 28.0406C88.6121 27.9526 87.8934 27.8929 87.4772 28.4128L87.2541 28.872L86.058 34.4405C85.5553 34.4157 84.4507 34.4541 83.645 34.4541C83.7608 33.9721 85.3251 26.6887 85.4025 26.327C85.6812 26.32 87.0897 26.3336 87.6461 26.3154C87.6324 26.5344 87.6552 26.8045 87.639 27.1737C88.3562 26.0787 89.6661 26.0211 90.8612 26.2269C91.192 26.37 91.5784 26.4864 91.7716 26.8328ZM76.1 26.327C75.5675 29.0344 74.9307 31.7625 74.3476 34.4425L71.97 34.4445C72.4935 31.7695 73.1565 29.0076 73.7164 26.327C74.1741 26.3104 75.4835 26.3291 76.1 26.327ZM81.6341 26.2158C79.6692 26.0125 77.59 26.414 76.5608 28.2848C75.7597 29.7829 75.1173 31.7427 75.917 33.4431C76.2766 34.1087 76.973 34.3676 77.6355 34.5108C79.3551 34.6888 81.2932 34.6888 82.5429 33.1624C83.7047 31.6967 84.2914 29.6469 83.82 27.7169C83.5165 26.7352 82.5217 26.3321 81.6341 26.2158ZM81.2988 28.2039C81.7701 28.868 81.4884 29.877 81.3266 30.5957C81.1263 31.461 80.7682 32.6703 79.7142 32.7846C79.1336 32.8145 78.3886 32.9004 78.0811 32.2632C77.8353 30.9947 78.1949 29.8709 78.6936 28.7759C79.168 27.9414 80.134 27.856 80.9685 28.0304L81.2988 28.2039ZM67.8162 27.38C67.9593 27.8671 67.9001 28.474 67.7914 28.9363L67.01 32.5378L67.3696 32.6819C67.2967 33.0683 67.0919 34.0146 67.0074 34.3828C66.2877 34.3828 65.2064 34.6949 64.8484 33.8315C64.8185 33.7445 64.7755 33.6479 64.7598 33.5736C64.2657 34.1436 63.5167 34.4152 62.7697 34.4557C62.0763 34.5406 61.2979 34.4329 60.688 34.1714C60.2459 33.9984 59.9505 33.5301 59.8868 33.1027C59.8322 31.9805 60.1372 30.8582 61.1092 30.1966C62.3023 29.4486 63.9102 29.6792 65.2676 29.3055C65.4264 29.35 65.6566 28.559 65.4634 28.1827C64.9915 27.7771 64.1201 27.8403 63.7185 28.0653C63.412 28.2363 63.3048 28.5838 63.1606 28.9029L61.002 28.8978C61.1391 27.9161 61.7192 26.8809 62.6938 26.5632C64.0558 26.1349 65.6864 26.0211 67.0434 26.543C67.3751 26.6866 67.6847 27.0326 67.8162 27.38ZM64.9374 30.8051C64.159 31.1773 62.884 30.7752 62.4126 31.7534C62.3008 32.0153 62.2735 32.3588 62.4672 32.5899C62.9386 32.9642 63.6032 32.7639 64.0725 32.5338C64.6825 32.2207 64.9632 31.4975 64.9854 30.8359L64.9374 30.8051ZM99.8648 27.38C99.9993 27.8671 99.9447 28.474 99.8304 28.9363L99.054 32.5378L99.4136 32.6819C99.3388 33.0683 99.136 34.0146 99.052 34.3828C98.3298 34.3828 97.2505 34.6949 96.8934 33.8315C96.8626 33.7445 96.8221 33.6479 96.8105 33.5736C96.3078 34.1436 95.5628 34.4152 94.8142 34.4557C94.1198 34.5406 93.3455 34.4329 92.7351 34.1714C92.2935 33.9984 91.9971 33.5301 91.9359 33.1027C91.8768 31.9805 92.1838 30.8582 93.1538 30.1966C94.3469 29.4486 95.9573 29.6792 97.3076 29.3055C97.4695 29.35 97.6996 28.559 97.5064 28.1827C97.035 27.7771 96.1672 27.8403 95.76 28.0653C95.4586 28.2363 95.3453 28.5838 95.2067 28.9029L93.0471 28.8978C93.1862 27.9161 93.7693 26.8809 94.7364 26.5632C96.0958 26.1349 97.7284 26.0211 99.0869 26.543C99.4207 26.6866 99.7217 27.0326 99.8648 27.38ZM96.9774 30.8051C96.2031 31.1773 94.9255 30.7752 94.4567 31.7534C94.3449 32.0153 94.3135 32.3588 94.5108 32.5899C94.9822 32.9642 95.6427 32.7639 96.1171 32.5338C96.7275 32.2207 97.0042 31.4975 97.032 30.8359L96.9774 30.8051ZM53.6938 27.8206L52.2478 34.4425C51.742 34.4354 50.2915 34.4496 49.7271 34.4541L52.0956 23.556L54.7281 23.558L57.2392 30.1324L58.6907 23.562C59.5186 23.5347 60.3749 23.5848 61.2382 23.558L58.8723 34.4511L56.349 34.4354L53.6938 27.8206ZM46.8898 20.1987C47.4608 20.2498 48.9801 19.7299 49.5905 21.0459C49.8909 21.889 49.6634 22.59 49.1465 23.0178C48.534 23.5327 47.6368 23.7689 46.3248 23.2535L46.8898 20.1987Z" fill="white"/>
</svg>
