<svg width="80" height="80" viewBox="0 0 80 80" fill="none" xmlns="http://www.w3.org/2000/svg">
<path d="M75 70C75 70 80 70 80 65C80 60 75 45 55 45C35 45 30 60 30 65C30 70 35 70 35 70H75ZM35.1117 65C35.0944 64.998 35.0702 64.9948 35.0407 64.9899C35.0269 64.9876 35.0133 64.9851 35 64.9826C35.0073 63.6624 35.8344 59.8345 38.7963 56.379C41.5667 53.1468 46.4134 50 55 50C63.5866 50 68.4333 53.1468 71.2037 56.379C74.1656 59.8345 74.9927 63.6624 75 64.9826C74.9867 64.9851 74.9731 64.9876 74.9593 64.9899C74.9298 64.9948 74.9056 64.998 74.8883 65H35.1117Z" fill="black"/>
<path d="M55 35C60.5228 35 65 30.5228 65 25C65 19.4772 60.5228 15 55 15C49.4772 15 45 19.4772 45 25C45 30.5228 49.4772 35 55 35ZM70 25C70 33.2843 63.2843 40 55 40C46.7157 40 40 33.2843 40 25C40 16.7157 46.7157 10 55 10C63.2843 10 70 16.7157 70 25Z" fill="black"/>
<path d="M34.6797 46.3998C32.8407 45.8116 30.7977 45.384 28.5314 45.1653C27.4097 45.0571 26.2334 45 25 45C5 45 0 60 0 65C0 68.3333 1.66667 70 5 70H26.0818C25.3778 68.5796 25 66.8957 25 65C25 59.9486 26.8862 54.7901 30.4491 50.481C31.6664 49.0087 33.0793 47.6356 34.6797 46.3998ZM24.6002 50.0023C21.6128 54.5681 20 59.7734 20 65H5C5 63.6963 5.82122 59.8499 8.79628 56.379C11.5234 53.1973 16.2625 50.0984 24.6002 50.0023Z" fill="black"/>
<path d="M7.5 27.5C7.5 19.2157 14.2157 12.5 22.5 12.5C30.7843 12.5 37.5 19.2157 37.5 27.5C37.5 35.7843 30.7843 42.5 22.5 42.5C14.2157 42.5 7.5 35.7843 7.5 27.5ZM22.5 17.5C16.9772 17.5 12.5 21.9772 12.5 27.5C12.5 33.0228 16.9772 37.5 22.5 37.5C28.0228 37.5 32.5 33.0228 32.5 27.5C32.5 21.9772 28.0228 17.5 22.5 17.5Z" fill="black"/>
</svg>
