<svg width="138" height="118" viewBox="0 0 138 118" fill="none" xmlns="http://www.w3.org/2000/svg">
<path d="M136.168 77.1794C132.796 75.1855 128.575 74.8631 124.807 76.534C124.807 76.534 124.792 76.5491 124.734 76.5634C124.719 76.578 124.69 76.578 124.675 76.5928C124.689 76.5928 124.675 76.5928 124.631 76.6074L124.601 76.622L124.587 76.6365C124.528 76.6511 124.469 76.6805 124.396 76.7099C123.018 77.3254 117.638 79.7151 99.344 87.8069V87.7775C95.2393 81.958 88.0125 86.2528 78.2203 87.103C63.0336 79.3193 48.697 71.6966 32.968 72.1801V103.331H35.5773L68.2377 116.231C73.5737 118.341 79.6277 117.799 84.5239 114.794L136.197 82.911C138.322 81.5916 138.337 78.4545 136.168 77.1794ZM26.9814 68.3442H24.36V66.3833C24.36 64.8505 23.1178 63.6083 21.585 63.6083H2.77499C1.2422 63.6083 0 64.8505 0 66.3833V110.832C0 112.365 1.2422 113.607 2.77499 113.607H21.585C23.1178 113.607 24.36 112.365 24.36 110.832V108.871H26.9814C28.6713 108.871 30.0411 107.501 30.0411 105.811V71.4041C30.0413 69.7143 28.6713 68.3442 26.9814 68.3442ZM15.8712 109.351C13.9853 109.351 12.4404 107.806 12.4404 105.92C12.4404 104.035 13.9853 102.49 15.8712 102.49C17.7569 102.49 19.3019 104.035 19.3019 105.92C19.3019 107.806 17.7569 109.351 15.8712 109.351Z" fill="black"/>
<path d="M52.0321 42.4089L57.8937 43.0828C58.5971 46.1309 59.7986 49.0618 61.4693 51.6997L57.7764 56.3305C56.8094 57.5613 56.9265 59.2905 58.0108 60.3749L62.0553 64.4193C63.1396 65.5037 64.8688 65.6211 66.0997 64.6538L70.7304 60.9612C73.3681 62.6319 76.2988 63.8333 79.3471 64.5364L80.021 70.3983C80.4803 74.4557 85.806 72.7036 88.7256 73.0945C90.2789 73.0945 91.5686 71.9513 91.7445 70.3983L92.4185 64.5364C95.4668 63.8333 98.3975 62.6313 101.035 60.9607L105.666 64.6538C106.897 65.6208 108.626 65.5037 109.71 64.4193L113.755 60.3749C114.839 59.2905 114.956 57.5613 113.989 56.3302L110.297 51.6995C111.967 49.0618 113.169 46.1311 113.872 43.0831L119.734 42.4089C121.287 42.2332 122.43 40.9438 122.43 39.39V33.7043C122.43 32.151 121.287 30.8616 119.734 30.6854L113.872 30.0111C113.169 26.9634 111.967 24.0322 110.297 21.3948L113.989 16.764C114.956 15.5332 114.839 13.804 113.755 12.7196L109.71 8.67517C108.626 7.59081 106.897 7.47344 105.666 8.44071L101.035 12.1333C98.3975 10.4627 95.4668 9.2612 92.4185 8.55807L91.7445 2.6962C91.5686 1.14264 90.2792 0 88.7256 0H83.0399C81.4867 0 80.197 1.14318 80.021 2.6962L79.3471 8.55807C76.2988 9.2612 73.3681 10.4627 70.7304 12.1333L66.0997 8.44071C64.8688 7.47371 63.1396 7.59108 62.0553 8.67544L58.0108 12.7199C56.9265 13.8042 56.8094 15.5332 57.7764 16.7643L61.4693 21.3948C59.7986 24.0327 58.5971 26.9634 57.8937 30.0117L52.0321 30.6859C50.4788 30.8616 49.3359 32.1515 49.3359 33.7048V39.3905C49.3359 40.9438 50.4788 42.2332 52.0321 42.4089ZM76.4515 27.1455C81.6591 21.9379 90.0822 21.9379 95.2898 27.1455C100.462 32.318 100.462 40.776 95.2898 45.9487C90.0822 51.1563 81.6591 51.1563 76.4515 45.9487C71.2439 40.7762 71.2439 32.318 76.4515 27.1455Z" fill="black"/>
</svg>
