<svg width="968" height="244" viewBox="0 0 968 244" fill="none" xmlns="http://www.w3.org/2000/svg">
<rect x="12" y="72" width="32" height="100" rx="16" fill="#004D80"/>
<rect x="84" y="42" width="32" height="160" rx="16" fill="#0076BA"/>
<rect x="156" y="12" width="32" height="220" rx="16" fill="#00A2FF"/>
<path d="M261.94 109.24H276.78L276.92 121C278.693 117.08 281.493 113.86 285.32 111.34C289.147 108.82 293.627 107.56 298.76 107.56C305.387 107.56 310.473 108.96 314.02 111.76C317.567 114.467 319.947 118.293 321.16 123.24C322.373 128.187 322.98 134.627 322.98 142.56V173.5H307.86V142.98C307.86 134.86 307.067 129.027 305.48 125.48C303.893 121.84 300.627 120.02 295.68 120.02C292.88 120.02 290.033 120.907 287.14 122.68C284.247 124.36 281.82 126.833 279.86 130.1C277.993 133.367 277.06 137.193 277.06 141.58V173.5H261.94V109.24ZM365.847 174.9C358.194 174.9 351.801 173.407 346.667 170.42C341.534 167.34 337.754 163.28 335.327 158.24C332.901 153.107 331.687 147.507 331.687 141.44C331.687 134.627 333.087 128.653 335.887 123.52C338.781 118.387 342.747 114.467 347.787 111.76C352.827 108.96 358.521 107.56 364.867 107.56C374.761 107.56 382.087 110.313 386.847 115.82C391.701 121.233 394.127 128.887 394.127 138.78C394.127 141.3 393.987 143.913 393.707 146.62H347.507C348.534 152.313 350.541 156.42 353.527 158.94C356.607 161.46 360.854 162.72 366.267 162.72C370.747 162.72 374.434 162.347 377.327 161.6C380.221 160.853 382.881 159.827 385.307 158.52L389.927 169.3C387.594 170.793 384.421 172.1 380.407 173.22C376.394 174.34 371.541 174.9 365.847 174.9ZM379.427 136.12C379.521 130.333 378.261 126.273 375.647 123.94C373.034 121.513 369.301 120.3 364.447 120.3C354.647 120.3 349.001 125.573 347.507 136.12H379.427ZM431.399 174.9C425.612 174.9 420.246 173.547 415.299 170.84C410.446 168.04 406.526 164.12 403.539 159.08C400.646 153.947 399.199 147.973 399.199 141.16C399.199 134.44 400.459 128.56 402.979 123.52C405.592 118.48 409.279 114.56 414.039 111.76C418.799 108.96 424.399 107.56 430.839 107.56C434.572 107.56 438.072 108.213 441.339 109.52C444.606 110.827 447.359 112.46 449.599 114.42C451.839 116.287 453.332 118.153 454.079 120.02L454.359 109.24H468.779V173.5H454.499L454.219 162.16C452.632 165.52 449.739 168.507 445.539 171.12C441.339 173.64 436.626 174.9 431.399 174.9ZM433.919 162.3C439.239 162.3 443.719 160.48 447.359 156.84C450.999 153.107 452.819 148.253 452.819 142.28V141.3C452.819 137.287 451.979 133.693 450.299 130.52C448.619 127.347 446.332 124.873 443.439 123.1C440.546 121.327 437.372 120.44 433.919 120.44C427.946 120.44 423.326 122.4 420.059 126.32C416.792 130.147 415.159 135.14 415.159 141.3C415.159 147.553 416.746 152.64 419.919 156.56C423.186 160.387 427.852 162.3 433.919 162.3ZM481.692 109.24H496.812V121.84C498.305 117.547 500.732 114.093 504.092 111.48C507.452 108.867 511.279 107.56 515.572 107.56C518.559 107.56 520.612 107.84 521.732 108.4L519.632 123.66C518.792 123.1 516.972 122.82 514.172 122.82C509.785 122.82 505.772 124.22 502.132 127.02C498.585 129.82 496.812 134.3 496.812 140.46V173.5H481.692V109.24Z" fill="black"/>
<path d="M546.54 121.56H535.2V109.24H546.54V83.06L561.8 79.7V109.24H576.64V121.56H561.8V173.5H546.54V121.56ZM612.308 174.9C604.655 174.9 598.262 173.407 593.128 170.42C587.995 167.34 584.215 163.28 581.788 158.24C579.362 153.107 578.148 147.507 578.148 141.44C578.148 134.627 579.548 128.653 582.348 123.52C585.242 118.387 589.208 114.467 594.248 111.76C599.288 108.96 604.982 107.56 611.328 107.56C621.222 107.56 628.548 110.313 633.308 115.82C638.162 121.233 640.588 128.887 640.588 138.78C640.588 141.3 640.448 143.913 640.168 146.62H593.968C594.995 152.313 597.002 156.42 599.988 158.94C603.068 161.46 607.315 162.72 612.728 162.72C617.208 162.72 620.895 162.347 623.788 161.6C626.682 160.853 629.342 159.827 631.768 158.52L636.388 169.3C634.055 170.793 630.882 172.1 626.868 173.22C622.855 174.34 618.002 174.9 612.308 174.9ZM625.888 136.12C625.982 130.333 624.722 126.273 622.108 123.94C619.495 121.513 615.762 120.3 610.908 120.3C601.108 120.3 595.462 125.573 593.968 136.12H625.888ZM707.54 173.5H689.76L676.74 152.5L673.1 145.36L664.7 154.46V173.5H650.14V70.6H664.56V127.02L664.28 137.94L688.78 109.24H707.4L683.18 136.12L707.54 173.5Z" fill="#00A2FF"/>
<path d="M728.22 109.24H742.78V121.14C747.913 112.087 755.94 107.56 766.86 107.56C775.913 107.56 783.24 110.453 788.84 116.24C794.44 121.933 797.24 130.193 797.24 141.02C797.24 147.74 795.84 153.667 793.04 158.8C790.333 163.933 786.6 167.9 781.84 170.7C777.173 173.5 771.947 174.9 766.16 174.9C760.747 174.9 756.033 173.967 752.02 172.1C748.1 170.14 745.02 167.387 742.78 163.84L742.92 207.52H728.22V109.24ZM762.66 162.16C768.727 162.16 773.393 160.247 776.66 156.42C779.927 152.5 781.56 147.507 781.56 141.44C781.56 135.093 779.927 130.053 776.66 126.32C773.487 122.493 768.82 120.58 762.66 120.58C759.3 120.58 756.127 121.42 753.14 123.1C750.247 124.687 747.913 127.02 746.14 130.1C744.46 133.087 743.62 136.587 743.62 140.6V141.58C743.62 145.593 744.46 149.187 746.14 152.36C747.913 155.44 750.247 157.867 753.14 159.64C756.033 161.32 759.207 162.16 762.66 162.16ZM836.349 174.9C829.723 174.9 823.843 173.407 818.709 170.42C813.576 167.433 809.609 163.373 806.809 158.24C804.009 153.107 802.609 147.413 802.609 141.16C802.609 135 803.963 129.353 806.669 124.22C809.469 119.087 813.436 115.027 818.569 112.04C823.703 109.053 829.629 107.56 836.349 107.56C843.069 107.56 848.949 109.053 853.989 112.04C859.123 115.027 863.043 119.087 865.749 124.22C868.549 129.353 869.949 135 869.949 141.16C869.949 147.413 868.549 153.107 865.749 158.24C862.949 163.373 858.983 167.433 853.849 170.42C848.809 173.407 842.976 174.9 836.349 174.9ZM836.769 162.58C842.183 162.58 846.429 160.573 849.509 156.56C852.683 152.547 854.269 147.507 854.269 141.44C854.269 135.373 852.589 130.287 849.229 126.18C845.869 121.98 841.436 119.88 835.929 119.88C830.609 119.88 826.316 121.933 823.049 126.04C819.876 130.147 818.289 135.28 818.289 141.44C818.289 147.413 820.016 152.453 823.469 156.56C826.923 160.573 831.356 162.58 836.769 162.58ZM907.516 174.9C901.73 174.9 896.363 173.547 891.416 170.84C886.563 168.04 882.643 164.12 879.656 159.08C876.763 153.947 875.316 147.973 875.316 141.16C875.316 130.987 878.163 122.867 883.856 116.8C889.55 110.64 897.25 107.56 906.956 107.56C912.37 107.56 917.316 108.913 921.796 111.62C926.276 114.233 929.31 117.407 930.896 121.14L930.196 110.22V70.6H945.036V173.5H930.616L930.336 162.16C928.75 165.52 925.856 168.507 921.656 171.12C917.456 173.64 912.743 174.9 907.516 174.9ZM910.036 162.16C915.356 162.16 919.836 160.34 923.476 156.7C927.116 152.967 928.936 148.113 928.936 142.14V141.16C928.936 137.147 928.096 133.553 926.416 130.38C924.736 127.207 922.45 124.733 919.556 122.96C916.663 121.187 913.49 120.3 910.036 120.3C904.063 120.3 899.443 122.26 896.176 126.18C892.91 130.007 891.276 135 891.276 141.16C891.276 147.413 892.863 152.5 896.036 156.42C899.303 160.247 903.97 162.16 910.036 162.16Z" fill="black"/>
</svg>
