<svg width="61" height="51" viewBox="0 0 61 51" fill="none" xmlns="http://www.w3.org/2000/svg">
<path d="M60.4499 9.22095L57.4249 7.28595L60.3839 5.57795C60.5887 5.4598 60.7381 5.26515 60.7993 5.03682C60.8605 4.8085 60.8286 4.5652 60.7104 4.36045C60.5923 4.15571 60.3976 4.00628 60.1693 3.94505C59.941 3.88382 59.6977 3.9158 59.4929 4.03395L56.4809 5.77295L56.0669 1.57295C56.0525 1.4245 56.001 1.28205 55.9172 1.15865C55.8334 1.03526 55.72 0.934873 55.5873 0.866701C55.4547 0.798528 55.307 0.764751 55.1579 0.768465C55.0088 0.772178 54.863 0.813263 54.7339 0.887954L46.6999 5.53395C46.5927 5.59656 46.4996 5.68067 46.4264 5.781C46.3533 5.88134 46.3017 5.99572 46.2749 6.11695L44.8999 12.459L42.0599 14.1C38.6169 9.15826 33.3729 5.76424 27.4546 4.64713C21.5363 3.53002 15.4159 4.77895 10.4084 8.12559C5.40097 11.4722 1.90603 16.6495 0.674511 22.5451C-0.557012 28.4407 0.573151 34.5841 3.82218 39.6554C7.07121 44.7268 12.1798 48.3213 18.0505 49.6668C23.9211 51.0123 30.0853 50.0013 35.2186 46.8511C40.3519 43.7009 44.0447 38.6628 45.5036 32.8194C46.9625 26.9759 46.0711 20.7933 43.0209 15.6L45.7879 14L51.7199 15.474C51.7903 15.4908 51.8625 15.4991 51.9349 15.499C52.0911 15.4992 52.2447 15.4582 52.3799 15.38L60.4149 10.741C60.5476 10.6646 60.6583 10.5552 60.7365 10.4236C60.8146 10.2919 60.8575 10.1424 60.861 9.9893C60.8645 9.83624 60.8286 9.68486 60.7566 9.54975C60.6845 9.41465 60.5789 9.30037 60.4499 9.21795V9.22095ZM44.3999 27.211C44.4177 32.2981 42.6142 37.2237 39.3156 41.0965C36.0171 44.9694 31.4413 47.5338 26.4162 48.3258C21.391 49.1178 16.2483 48.0851 11.9184 45.4145C7.58859 42.744 4.35753 38.6119 2.80978 33.7659C1.26203 28.9199 1.49983 23.6799 3.48014 18.994C5.46045 14.308 9.05249 10.4856 13.6064 8.21821C18.1604 5.9508 23.3755 5.38815 28.3082 6.63205C33.241 7.87595 37.5657 10.8442 40.4999 15L35.9079 17.651C33.4085 14.3315 29.7129 12.1178 25.6069 11.4804C21.5008 10.843 17.3081 11.8323 13.92 14.2378C10.5319 16.6433 8.21555 20.2754 7.46348 24.362C6.7114 28.4486 7.58286 32.6674 9.89259 36.1216C12.2023 39.5757 15.7682 41.9928 19.8321 42.859C23.8961 43.7251 28.1376 42.9721 31.655 40.76C35.1725 38.5479 37.6884 35.0511 38.668 31.013C39.6477 26.9749 39.0137 22.7139 36.9009 19.136L41.4629 16.5C43.3824 19.7433 44.3967 23.4422 44.3999 27.211ZM22.3629 26.5C22.4212 26.6015 22.499 26.6904 22.5918 26.7618C22.6846 26.8331 22.7906 26.8855 22.9037 26.9158C23.0168 26.9461 23.1347 26.9537 23.2508 26.9383C23.3668 26.9229 23.4787 26.8847 23.5799 26.826L29.2669 23.543C30.1957 25.0974 30.4975 26.9473 30.111 28.7164C29.7244 30.4855 28.6784 32.0409 27.1859 33.0662C25.6933 34.0916 23.8662 34.5099 22.0762 34.2361C20.2862 33.9623 18.6677 33.0169 17.55 31.5923C16.4322 30.1676 15.899 28.3707 16.059 26.5669C16.2189 24.7632 17.0599 23.0881 18.411 21.8824C19.762 20.6766 21.5216 20.0308 23.3318 20.0762C25.1421 20.1217 26.8671 20.855 28.1559 22.127L22.6889 25.283C22.5875 25.3414 22.4986 25.4192 22.4273 25.512C22.3561 25.6048 22.3038 25.7108 22.2735 25.8238C22.2432 25.9369 22.2355 26.0548 22.2509 26.1708C22.2662 26.2868 22.3043 26.3987 22.3629 26.5ZM23.1499 18.292C21.1716 18.2858 19.247 18.9349 17.6765 20.1379C16.1061 21.3409 14.9781 23.03 14.4689 24.9416C13.9596 26.8532 14.0977 28.8797 14.8615 30.7045C15.6253 32.5294 16.9719 34.05 18.6911 35.0288C20.4102 36.0077 22.4051 36.3898 24.3642 36.1153C26.3234 35.8409 28.1365 34.9255 29.5206 33.512C30.9046 32.0985 31.7816 30.2665 32.0147 28.302C32.2478 26.3375 31.8238 24.3511 30.8089 22.653L35.3599 20.026C37.2349 23.2131 37.796 27.0048 36.9245 30.5984C36.0529 34.192 33.8171 37.3054 30.6903 39.2794C27.5636 41.2535 23.7913 41.9333 20.1722 41.1749C16.553 40.4165 13.371 38.2795 11.2998 35.2162C9.22866 32.1529 8.43086 28.4038 9.07534 24.7627C9.71981 21.1215 11.756 17.874 14.7528 15.7078C17.7496 13.5415 21.4718 12.6265 25.1314 13.1564C28.791 13.6863 32.1007 15.6196 34.3599 18.547L29.7409 21.214C28.9071 20.2937 27.8899 19.5582 26.7548 19.0546C25.6197 18.551 24.3917 18.2905 23.1499 18.29V18.292ZM47.9329 6.87995L54.4329 3.12695L54.7899 6.75095L46.9899 11.251L47.9329 6.87995ZM51.7999 13.66L48.0129 12.719L55.6849 8.28995L58.2539 9.93295L51.7999 13.66Z" fill="#0989FB"/>
</svg>
