<svg width="213" height="212" viewBox="0 0 213 212" fill="none" xmlns="http://www.w3.org/2000/svg">
<rect width="213" height="212" rx="106" fill="#00A2FF"/>
<path fill-rule="evenodd" clip-rule="evenodd" d="M67 87.3968C67 75.5784 76.5784 66 88.3968 66H125.603C137.422 66 147 75.5784 147 87.3968V124.603C147 136.422 137.422 146 125.603 146H88.3968C76.5784 146 67 136.422 67 124.603V87.3968ZM88.3968 71.5808C79.6624 71.5808 72.5808 78.6621 72.5808 87.3968V124.603C72.5808 133.338 79.6621 140.419 88.3968 140.419H125.603C134.338 140.419 141.419 133.338 141.419 124.603V108.79H115.522L110.191 111.528C107.6 112.862 105.491 114.972 104.157 117.562L100.697 124.3C99.8318 125.984 97.4255 125.984 96.5598 124.3L93.0974 117.562C91.7661 114.972 89.6567 112.862 87.0661 111.528L80.3286 108.069C78.6442 107.203 78.6442 104.797 80.3286 103.931L87.0661 100.472C89.6567 99.1373 91.7661 97.0279 93.0974 94.4373L96.5598 87.6998C97.4254 86.0154 99.8317 86.0154 100.697 87.6998L104.157 94.4373C105.491 97.0279 107.6 99.1373 110.191 100.472L115.522 103.209H141.419V87.3964C141.419 78.662 134.338 71.5804 125.603 71.5804L88.3968 71.5808ZM109.79 86.4648C109.79 84.9242 111.04 83.6742 112.581 83.6742H131.187C132.728 83.6742 133.978 84.9242 133.978 86.4648C133.978 88.0054 132.728 89.2554 131.187 89.2554H112.581C111.04 89.2554 109.79 88.0054 109.79 86.4648ZM112.581 122.743C111.04 122.743 109.79 123.993 109.79 125.534C109.79 127.074 111.04 128.324 112.581 128.324H131.187C132.728 128.324 133.978 127.074 133.978 125.534C133.978 123.993 132.728 122.743 131.187 122.743H112.581Z" fill="white"/>
</svg>
