<svg width="136" height="56" viewBox="0 0 136 56" fill="none" xmlns="http://www.w3.org/2000/svg">
<rect x="0.5" y="0.5" width="135" height="55" rx="27.5" stroke="#1A1A13"/>
<path d="M44.9759 24.7273V32.444C44.9759 32.5691 44.9262 32.6891 44.8377 32.7775C44.7493 32.866 44.6293 32.9157 44.5042 32.9157H42.0683C41.9432 32.9156 41.8233 32.8659 41.7349 32.7775C41.6464 32.689 41.5967 32.5691 41.5967 32.444V19.8924C41.5967 19.7673 41.6463 19.6474 41.7348 19.5589C41.8232 19.4705 41.9432 19.4208 42.0683 19.4208H44.3225C44.4476 19.4208 44.5675 19.4705 44.656 19.5589C44.7444 19.6474 44.7941 19.7673 44.7941 19.8924V21.66C44.7941 21.66 45.6 19.1386 47.9914 19.1386C47.9914 19.1386 50.3569 18.8526 51.3187 21.4781C51.3187 21.4781 52.1245 19.1386 54.5679 19.1386C54.5679 19.1386 58.2017 18.9225 58.2017 22.6825L58.2293 24.7533V32.47C58.2293 32.5951 58.1797 32.7151 58.0912 32.8035C58.0028 32.892 57.8828 32.9417 57.7577 32.9417H55.3215C55.1965 32.9416 55.0765 32.8919 54.9881 32.8035C54.8997 32.715 54.85 32.5951 54.8499 32.47L54.8277 24.0515C54.8969 22.1452 53.3547 22.2839 53.3547 22.2839C51.4139 22.3186 51.6006 24.7533 51.6006 24.7533V32.47C51.6006 32.5951 51.551 32.7151 51.4625 32.8035C51.3741 32.892 51.2541 32.9417 51.129 32.9417H48.693C48.568 32.9416 48.448 32.8919 48.3596 32.8035C48.2712 32.715 48.2215 32.5951 48.2214 32.47V24.242C48.2214 24.242 48.3639 22.2664 46.6308 22.2664C46.631 22.2664 44.9154 22.0412 44.9759 24.7273ZM107.768 24.7042V32.4207C107.768 32.5458 107.719 32.6657 107.63 32.7542C107.542 32.8426 107.422 32.8923 107.297 32.8924L104.763 32.9415C104.638 32.9414 104.518 32.8917 104.43 32.8033C104.341 32.7148 104.292 32.5949 104.292 32.4698V24.242C104.292 24.242 104.434 22.2664 102.701 22.2664C102.701 22.2664 101.046 22.1849 101.046 25.2823V32.4438C101.046 32.5689 100.996 32.6888 100.908 32.7773C100.819 32.8657 100.699 32.9154 100.574 32.9155H98.1382C98.0132 32.9154 97.8932 32.8657 97.8048 32.7773C97.7163 32.6888 97.6666 32.5689 97.6666 32.4438V19.8924C97.6666 19.7673 97.7163 19.6474 97.8048 19.559C97.8932 19.4705 98.0132 19.4208 98.1382 19.4208H100.392C100.518 19.4208 100.637 19.4705 100.726 19.5589C100.814 19.6474 100.864 19.7673 100.864 19.8924V21.66C100.864 21.66 101.67 19.1386 104.061 19.1386C104.061 19.1386 106.623 18.7499 107.486 21.4292C107.486 21.429 107.768 21.9817 107.768 24.7042ZM90.1797 19.0866C87.0645 19.0866 84.5389 21.712 84.5389 26.131C84.5389 30.0216 86.4885 33.1754 90.1797 33.1754C93.6629 33.1754 95.8204 30.0216 95.8204 26.131C95.8204 21.79 93.295 19.0866 90.1797 19.0866ZM92.1459 26.287C92.1459 27.9506 91.9379 28.8344 91.9379 28.8344C91.642 30.593 90.3654 30.5955 90.1772 30.5862C89.974 30.5943 88.6866 30.576 88.4202 28.8344C88.4202 28.8344 88.2122 27.9506 88.2122 26.287V26.0098C88.2122 24.3461 88.4202 23.4623 88.4202 23.4623C88.6866 21.7207 89.9742 21.7024 90.1772 21.7103C90.3654 21.701 91.642 21.7033 91.9379 23.4623C91.9379 23.4623 92.1459 24.3461 92.1459 26.0098V26.287ZM83.1251 21.6425V19.8417C83.125 19.7166 83.0753 19.5967 82.9869 19.5082C82.8984 19.4198 82.7785 19.3701 82.6534 19.37H74.6015C74.4764 19.37 74.3564 19.4197 74.268 19.5082C74.1795 19.5966 74.1298 19.7166 74.1298 19.8417V21.6286C74.1299 21.7537 74.1796 21.8736 74.268 21.962C74.3565 22.0505 74.4764 22.1002 74.6015 22.1002H78.8015L73.8302 29.3121C73.8302 29.3121 73.6343 29.6044 73.6407 29.9274V32.1211C73.6407 32.1211 73.6083 32.8732 74.4613 32.4368C74.4613 32.4368 75.9765 31.5213 78.517 31.5213C78.517 31.5213 81.026 31.4902 82.6988 32.5156C82.6988 32.5156 83.3931 32.8312 83.3931 32.1371V30.2277C83.3931 30.2277 83.4561 29.7223 82.7934 29.4069C82.7934 29.4069 80.8681 28.3496 78.3434 28.5231L83.1251 21.6425ZM39.7166 30.671L38.954 29.5102C38.7113 29.0769 38.7288 28.5915 38.7288 28.5915V23.2369C38.8328 18.61 33.7032 19.0086 33.7032 19.0086C29.1432 19.0086 28.4696 22.5573 28.4696 22.5573C28.2796 23.2708 28.8323 23.2881 28.8323 23.2881L31.0605 23.5141C31.0605 23.5141 31.4404 23.601 31.5787 23.1487C31.5787 23.1487 31.8722 21.6005 33.5131 21.6005C35.2986 21.6005 35.2801 23.1329 35.2801 23.1329V24.4158C31.7158 24.535 30.064 25.5244 30.064 25.5244C27.8632 26.7721 28.0017 29.2503 28.0017 29.2503C28.0017 33.2879 31.8489 33.1145 31.8489 33.1145C34.3096 33.1145 35.7652 31.3124 35.7652 31.3124C36.1984 32.0751 36.9957 32.8025 36.9957 32.8025C37.3945 33.2351 37.8102 32.872 37.8102 32.872L39.6126 31.3298C40.011 31.0349 39.7166 30.671 39.7166 30.671ZM33.0498 30.6211C31.8923 30.6211 31.4621 29.4709 31.6542 28.3405C31.8466 27.2101 32.8456 26.3217 35.2803 26.3477V27.035C35.3666 30.0374 34.0132 30.6211 33.0498 30.6211ZM72.0877 30.671L71.3254 29.5102C71.0827 29.0769 71.1 28.5915 71.1 28.5915V23.2369C71.2039 18.61 66.0744 19.0086 66.0744 19.0086C61.5144 19.0086 60.8408 22.5573 60.8408 22.5573C60.6508 23.2708 61.2035 23.2881 61.2035 23.2881L63.4317 23.5141C63.4317 23.5141 63.8116 23.601 63.9499 23.1487C63.9499 23.1487 64.2433 21.6005 65.8843 21.6005C67.6698 21.6005 67.6513 23.1329 67.6513 23.1329V24.4158C64.0872 24.535 62.4352 25.5244 62.4352 25.5244C60.2344 26.7721 60.3729 29.2503 60.3729 29.2503C60.3729 33.2879 64.2201 33.1145 64.2201 33.1145C66.6808 33.1145 68.1364 31.3124 68.1364 31.3124C68.5698 32.0751 69.3667 32.8025 69.3667 32.8025C69.7655 33.2351 70.1814 32.872 70.1814 32.872L71.9836 31.3298C72.3822 31.0349 72.0877 30.671 72.0877 30.671ZM65.421 30.6211C64.2635 30.6211 63.8333 29.4709 64.0254 28.3405C64.2178 27.2101 65.2168 26.3217 67.6513 26.3477V27.035C67.7378 30.0374 66.3846 30.6211 65.421 30.6211Z" fill="black"/>
<path d="M78.2233 40.8062C78.2233 40.8062 78.0195 41.1607 78.2698 41.24C78.2698 41.24 78.5526 41.3504 78.9053 41.0231C78.9053 41.0231 81.4775 38.7761 81.5395 34.6853C81.5395 34.6853 81.5584 34.1743 81.3534 34.0346C81.3534 34.0346 80.5475 33.3217 77.6499 33.5386C77.6499 33.5386 75.1241 33.7091 73.7452 34.9334C73.7452 34.9334 73.6213 35.0417 73.6213 35.181C73.6213 35.181 73.5915 35.4819 74.3495 35.3516C74.3495 35.3516 76.8751 34.9949 78.3782 35.181C78.3782 35.181 79.1532 35.274 79.3701 35.5377C79.3701 35.5377 79.7265 35.8321 79.5404 36.8081C79.5404 36.8085 79.0289 39.2877 78.2233 40.8062Z" fill="#F3971B"/>
<path d="M77.7128 36.8816C77.7128 36.8816 78.09 37.3703 77.4813 37.7918C77.4813 37.7918 70.9792 42.9927 60.0617 42.9927C60.0617 42.9927 48.8235 43.5472 39.4396 35.0211C39.4396 35.0211 39.1107 34.7322 39.3149 34.4638C39.3149 34.4638 39.4975 34.2167 39.9701 34.4854C39.9701 34.4854 48.7975 39.986 60.3909 39.986C60.3909 39.986 68.4491 40.2979 76.7152 36.7627C76.7152 36.7627 77.3738 36.4214 77.7128 36.8816Z" fill="#F3971B"/>
</svg>
