<svg width="327" height="274" viewBox="0 0 327 274" fill="none" xmlns="http://www.w3.org/2000/svg">
<g filter="url(#filter0_dddd_662_220)">
<rect x="6" y="31" width="213" height="212" rx="106" fill="#00A2FF"/>
</g>
<path d="M112.977 121.351C108.86 121.351 105.512 118.003 105.512 113.886C105.512 109.769 108.86 106.421 112.977 106.421C117.094 106.421 120.442 109.769 120.442 113.886C120.442 118.003 117.094 121.351 112.977 121.351ZM112.977 108.347C109.922 108.347 107.434 110.831 107.434 113.89C107.434 116.944 109.918 119.433 112.977 119.433C116.032 119.433 118.52 116.948 118.52 113.89C118.52 110.831 116.036 108.347 112.977 108.347Z" fill="white"/>
<path d="M126.922 127.855H99.0309C98.6559 127.855 98.3161 127.64 98.1599 127.3C98.0036 126.96 98.0544 126.562 98.2966 126.277C101.953 121.925 107.304 119.429 112.977 119.429C118.649 119.429 124 121.925 127.657 126.277C127.899 126.562 127.95 126.964 127.793 127.3C127.637 127.64 127.297 127.855 126.922 127.855ZM101.274 125.933H124.68C121.508 122.999 117.348 121.351 112.977 121.351C108.606 121.351 104.446 122.999 101.274 125.933Z" fill="white"/>
<path d="M128.36 139.109H97.594C97.0627 139.109 96.6331 138.679 96.6331 138.148V132.378C96.6331 131.847 97.0627 131.417 97.594 131.417H128.36C128.891 131.417 129.321 131.847 129.321 132.378V138.148C129.321 138.679 128.891 139.109 128.36 139.109ZM98.559 137.187H127.399V133.343H98.559V137.187Z" fill="white"/>
<path d="M105.285 139.109C104.754 139.109 104.324 138.679 104.324 138.148V132.378C104.324 131.847 104.754 131.417 105.285 131.417C105.816 131.417 106.246 131.847 106.246 132.378V138.148C106.246 138.679 105.816 139.109 105.285 139.109Z" fill="white"/>
<path d="M128.36 150.648H97.594C97.0627 150.648 96.6331 150.218 96.6331 149.687V143.917C96.6331 143.386 97.0627 142.956 97.594 142.956H128.36C128.891 142.956 129.321 143.386 129.321 143.917V149.687C129.321 150.214 128.891 150.648 128.36 150.648ZM98.559 148.722H127.399V144.878H98.559V148.722Z" fill="white"/>
<path d="M105.285 150.648C104.754 150.648 104.324 150.218 104.324 149.687V143.917C104.324 143.386 104.754 142.956 105.285 142.956C105.816 142.956 106.246 143.386 106.246 143.917V149.687C106.246 150.214 105.816 150.648 105.285 150.648Z" fill="white"/>
<path d="M131.149 182.371H94.7109C89.3554 182.371 85 178.015 85 172.66V101.711C85 96.3554 89.3555 92 94.7109 92H131.149C136.504 92 140.86 96.3555 140.86 101.711V172.66C140.86 178.015 136.504 182.371 131.149 182.371ZM94.7109 93.9258C90.4179 93.9258 86.9218 97.418 86.9218 101.715V172.664C86.9218 176.957 90.414 180.453 94.7109 180.453H131.149C135.442 180.453 138.938 176.961 138.938 172.664L138.934 101.711C138.934 97.4179 135.442 93.9218 131.145 93.9218L94.7109 93.9258Z" fill="white"/>
<path d="M133.168 170.835H92.6909C92.1597 170.835 91.73 170.405 91.73 169.874V108.292C91.73 107.761 92.1597 107.331 92.6909 107.331C93.2222 107.331 93.6519 107.761 93.6519 108.292V168.913H132.203L132.207 101.561H92.6948C92.1635 101.561 91.7338 101.131 91.7338 100.6C91.7338 100.069 92.1635 99.6389 92.6948 99.6389H133.168C133.699 99.6389 134.129 100.069 134.129 100.6V169.873C134.129 170.404 133.699 170.835 133.168 170.835Z" fill="white"/>
<path d="M125.477 158.339H92.6919C92.1606 158.339 91.731 157.909 91.731 157.378C91.731 156.847 92.1606 156.417 92.6919 156.417H125.477C126.008 156.417 126.438 156.847 126.438 157.378C126.438 157.905 126.008 158.339 125.477 158.339Z" fill="white"/>
<path d="M93.6529 104.445C93.6529 105.73 91.731 105.73 91.731 104.445C91.731 103.164 93.6529 103.164 93.6529 104.445Z" fill="white"/>
<path d="M130.282 157.375C130.282 158.66 128.36 158.66 128.36 157.375C128.36 156.094 130.282 156.094 130.282 157.375Z" fill="white"/>
<defs>
<filter id="filter0_dddd_662_220" x="0" y="0" width="327" height="274" filterUnits="userSpaceOnUse" color-interpolation-filters="sRGB">
<feFlood flood-opacity="0" result="BackgroundImageFix"/>
<feColorMatrix in="SourceAlpha" type="matrix" values="0 0 0 0 0 0 0 0 0 0 0 0 0 0 0 0 0 0 127 0" result="hardAlpha"/>
<feOffset dx="5"/>
<feGaussianBlur stdDeviation="5.5"/>
<feColorMatrix type="matrix" values="0 0 0 0 0 0 0 0 0 0 0 0 0 0 0 0 0 0 0.1 0"/>
<feBlend mode="normal" in2="BackgroundImageFix" result="effect1_dropShadow_662_220"/>
<feColorMatrix in="SourceAlpha" type="matrix" values="0 0 0 0 0 0 0 0 0 0 0 0 0 0 0 0 0 0 127 0" result="hardAlpha"/>
<feOffset dx="19"/>
<feGaussianBlur stdDeviation="9.5"/>
<feColorMatrix type="matrix" values="0 0 0 0 0 0 0 0 0 0 0 0 0 0 0 0 0 0 0.09 0"/>
<feBlend mode="normal" in2="effect1_dropShadow_662_220" result="effect2_dropShadow_662_220"/>
<feColorMatrix in="SourceAlpha" type="matrix" values="0 0 0 0 0 0 0 0 0 0 0 0 0 0 0 0 0 0 127 0" result="hardAlpha"/>
<feOffset dx="43"/>
<feGaussianBlur stdDeviation="13"/>
<feColorMatrix type="matrix" values="0 0 0 0 0 0 0 0 0 0 0 0 0 0 0 0 0 0 0.05 0"/>
<feBlend mode="normal" in2="effect2_dropShadow_662_220" result="effect3_dropShadow_662_220"/>
<feColorMatrix in="SourceAlpha" type="matrix" values="0 0 0 0 0 0 0 0 0 0 0 0 0 0 0 0 0 0 127 0" result="hardAlpha"/>
<feOffset dx="77"/>
<feGaussianBlur stdDeviation="15.5"/>
<feColorMatrix type="matrix" values="0 0 0 0 0 0 0 0 0 0 0 0 0 0 0 0 0 0 0.01 0"/>
<feBlend mode="normal" in2="effect3_dropShadow_662_220" result="effect4_dropShadow_662_220"/>
<feBlend mode="normal" in="SourceGraphic" in2="effect4_dropShadow_662_220" result="shape"/>
</filter>
</defs>
</svg>
