<svg width="213" height="213" viewBox="0 0 213 213" fill="none" xmlns="http://www.w3.org/2000/svg">
<rect width="213" height="213" rx="106.5" fill="#00A2FF"/>
<path d="M155.327 69.4922H115.334C113.663 69.4922 112.23 70.8054 112.23 72.5961V84.2954C112.23 86.2055 114.021 87.3993 115.573 87.2799C119.154 87.0411 121.303 88.5931 122.019 90.8613C123.571 95.2784 119.393 98.9792 115.812 98.0242C113.902 97.5466 112.111 98.8598 112.111 100.77V112.111H100.77C98.8596 112.111 97.427 113.902 98.0239 115.812C98.979 119.393 95.2782 123.452 90.8611 122.02C88.8316 121.303 87.2797 119.393 87.2797 116.767C87.2797 115.573 87.5184 114.737 86.8021 113.782C86.2052 112.827 85.3696 112.23 84.2951 112.23H72.5958C70.9245 112.23 69.4919 113.544 69.4919 115.334V155.446C69.4919 157.118 70.8051 158.55 72.5958 158.55C74.8641 158.55 156.52 158.55 155.327 158.55C156.998 158.55 158.43 157.237 158.43 155.446V72.7155C158.43 70.8054 157.117 69.4922 155.327 69.4922ZM125.959 92.652C125.959 87.9962 122.378 83.4597 115.812 83.5791V72.9542H154.849V111.992H144.702C143.866 107.694 140.046 104.471 135.39 104.471C130.734 104.471 126.914 107.694 126.078 111.992H115.812V101.606C120.587 102.441 125.959 98.3823 125.959 92.652ZM113.066 141.121C110.32 140.643 108.291 138.255 108.291 135.271C108.291 132.286 110.32 129.899 113.066 129.421C114.618 129.182 115.812 127.75 115.812 126.198V115.692H126.317C127.988 115.692 129.302 114.499 129.54 112.947C130.018 110.201 132.406 108.172 135.39 108.172C138.375 108.172 140.762 110.201 141.24 112.947C141.478 114.499 142.792 115.692 144.463 115.692H154.849V154.73H115.812V144.344C115.812 142.792 114.618 141.359 113.066 141.121ZM92.7712 125.84C98.5014 125.84 102.56 120.468 101.725 115.692H112.23V125.959C107.932 126.795 104.709 130.615 104.709 135.271C104.709 139.927 107.932 143.747 112.23 144.583V154.73H73.1927V115.692H83.8176C83.5789 122.139 87.9959 125.84 92.7712 125.84Z" fill="white"/>
<path d="M68.2981 100.65C69.1338 104.948 72.9539 108.171 77.6098 108.171C82.2656 108.171 86.0858 104.948 86.9215 100.65H97.7851C99.4564 100.65 100.889 99.3373 100.889 97.5466V86.683C105.187 85.8473 108.41 82.0271 108.41 77.3713C108.41 72.7154 105.187 68.8952 100.889 68.0596V57.5541C100.889 55.8828 99.5758 54.4502 97.7851 54.4502H57.6732C56.0019 54.4502 54.5693 55.7634 54.5693 57.5541V97.666C54.5693 99.3373 55.8825 100.77 57.6732 100.77L68.2981 100.65ZM104.709 77.4907C104.709 80.4752 102.68 82.8628 99.934 83.3403C98.382 83.5791 97.1882 85.0116 97.1882 86.5636V97.0691H86.6827C85.0114 97.0691 83.6982 98.2629 83.4594 99.8148C82.9819 102.561 80.5943 104.59 77.6098 104.59C74.6253 104.59 72.2377 102.561 71.7601 99.8148C71.5214 98.2629 70.2082 97.0691 68.5369 97.0691H58.1508V58.0316H97.1882V68.4177C97.1882 70.0891 98.382 71.4022 99.934 71.641C102.68 71.9991 104.709 74.5061 104.709 77.4907Z" fill="white"/>
</svg>
