<svg width="327" height="275" viewBox="0 0 327 275" fill="none" xmlns="http://www.w3.org/2000/svg">
<g filter="url(#filter0_dddd_341_92)">
<rect x="6" y="31" width="213" height="213" rx="106.5" fill="#00A2FF"/>
</g>
<path d="M161.327 100.492H121.334C119.663 100.492 118.23 101.805 118.23 103.596V115.295C118.23 117.205 120.021 118.399 121.573 118.28C125.155 118.041 127.303 119.593 128.02 121.861C129.572 126.278 125.393 129.979 121.812 129.024C119.902 128.547 118.111 129.86 118.111 131.77V143.111H106.77C104.86 143.111 103.427 144.902 104.024 146.812C104.979 150.393 101.278 154.452 96.8613 153.02C94.8318 152.303 93.2799 150.393 93.2799 147.767C93.2799 146.573 93.5187 145.737 92.8024 144.782C92.2055 143.827 91.3698 143.23 90.2954 143.23H78.5961C76.9248 143.23 75.4922 144.544 75.4922 146.334V186.446C75.4922 188.118 76.8054 189.55 78.5961 189.55C80.8643 189.55 162.521 189.55 161.327 189.55C162.998 189.55 164.431 188.237 164.431 186.446V103.715C164.431 101.805 163.118 100.492 161.327 100.492ZM131.959 123.652C131.959 118.996 128.378 114.46 121.812 114.579V103.954H160.849V142.992H150.702C149.866 138.694 146.046 135.471 141.39 135.471C136.734 135.471 132.914 138.694 132.079 142.992H121.812V132.606C126.587 133.441 131.959 129.382 131.959 123.652ZM119.066 172.121C116.32 171.643 114.291 169.255 114.291 166.271C114.291 163.286 116.32 160.899 119.066 160.421C120.618 160.182 121.812 158.75 121.812 157.198V146.692H132.317C133.989 146.692 135.302 145.499 135.541 143.947C136.018 141.201 138.406 139.172 141.39 139.172C144.375 139.172 146.762 141.201 147.24 143.947C147.479 145.499 148.792 146.692 150.463 146.692H160.849V185.73H121.812V175.344C121.812 173.792 120.618 172.359 119.066 172.121ZM98.7714 156.84C104.502 156.84 108.561 151.468 107.725 146.692H118.23V156.959C113.933 157.795 110.709 161.615 110.709 166.271C110.709 170.927 113.933 174.747 118.23 175.583V185.73H79.193V146.692H89.8179C89.5791 153.139 93.9962 156.84 98.7714 156.84Z" fill="white"/>
<path d="M74.2982 131.65C75.1339 135.948 78.9541 139.171 83.6099 139.171C88.2658 139.171 92.0859 135.948 92.9216 131.65H103.785C105.457 131.65 106.889 130.337 106.889 128.547V117.683C111.187 116.847 114.41 113.027 114.41 108.371C114.41 103.715 111.187 99.8952 106.889 99.0596V88.5541C106.889 86.8828 105.576 85.4502 103.785 85.4502H63.6734C62.002 85.4502 60.5695 86.7634 60.5695 88.5541V128.666C60.5695 130.337 61.8826 131.77 63.6734 131.77L74.2982 131.65ZM110.709 108.491C110.709 111.475 108.68 113.863 105.934 114.34C104.382 114.579 103.188 116.012 103.188 117.564V128.069H92.6828C91.0115 128.069 89.6983 129.263 89.4596 130.815C88.982 133.561 86.5944 135.59 83.6099 135.59C80.6254 135.59 78.2378 133.561 77.7603 130.815C77.5215 129.263 76.2083 128.069 74.537 128.069H64.1509V89.0316H103.188V99.4177C103.188 101.089 104.382 102.402 105.934 102.641C108.68 102.999 110.709 105.506 110.709 108.491Z" fill="white"/>
<defs>
<filter id="filter0_dddd_341_92" x="0" y="0" width="327" height="275" filterUnits="userSpaceOnUse" color-interpolation-filters="sRGB">
<feFlood flood-opacity="0" result="BackgroundImageFix"/>
<feColorMatrix in="SourceAlpha" type="matrix" values="0 0 0 0 0 0 0 0 0 0 0 0 0 0 0 0 0 0 127 0" result="hardAlpha"/>
<feOffset dx="5"/>
<feGaussianBlur stdDeviation="5.5"/>
<feColorMatrix type="matrix" values="0 0 0 0 0 0 0 0 0 0 0 0 0 0 0 0 0 0 0.1 0"/>
<feBlend mode="normal" in2="BackgroundImageFix" result="effect1_dropShadow_341_92"/>
<feColorMatrix in="SourceAlpha" type="matrix" values="0 0 0 0 0 0 0 0 0 0 0 0 0 0 0 0 0 0 127 0" result="hardAlpha"/>
<feOffset dx="19"/>
<feGaussianBlur stdDeviation="9.5"/>
<feColorMatrix type="matrix" values="0 0 0 0 0 0 0 0 0 0 0 0 0 0 0 0 0 0 0.09 0"/>
<feBlend mode="normal" in2="effect1_dropShadow_341_92" result="effect2_dropShadow_341_92"/>
<feColorMatrix in="SourceAlpha" type="matrix" values="0 0 0 0 0 0 0 0 0 0 0 0 0 0 0 0 0 0 127 0" result="hardAlpha"/>
<feOffset dx="43"/>
<feGaussianBlur stdDeviation="13"/>
<feColorMatrix type="matrix" values="0 0 0 0 0 0 0 0 0 0 0 0 0 0 0 0 0 0 0.05 0"/>
<feBlend mode="normal" in2="effect2_dropShadow_341_92" result="effect3_dropShadow_341_92"/>
<feColorMatrix in="SourceAlpha" type="matrix" values="0 0 0 0 0 0 0 0 0 0 0 0 0 0 0 0 0 0 127 0" result="hardAlpha"/>
<feOffset dx="77"/>
<feGaussianBlur stdDeviation="15.5"/>
<feColorMatrix type="matrix" values="0 0 0 0 0 0 0 0 0 0 0 0 0 0 0 0 0 0 0.01 0"/>
<feBlend mode="normal" in2="effect3_dropShadow_341_92" result="effect4_dropShadow_341_92"/>
<feBlend mode="normal" in="SourceGraphic" in2="effect4_dropShadow_341_92" result="shape"/>
</filter>
</defs>
</svg>
