<svg width="213" height="212" viewBox="0 0 213 212" fill="none" xmlns="http://www.w3.org/2000/svg">
<rect width="213" height="212" rx="106" fill="#00A2FF"/>
<path d="M106.977 90.3505C102.86 90.3505 99.5122 87.0028 99.5122 82.8857C99.5122 78.7685 102.86 75.4209 106.977 75.4209C111.094 75.4209 114.442 78.7686 114.442 82.8857C114.442 87.0029 111.094 90.3505 106.977 90.3505ZM106.977 77.3465C103.922 77.3465 101.434 79.8309 101.434 82.8895C101.434 85.9442 103.918 88.4325 106.977 88.4325C110.032 88.4325 112.52 85.9481 112.52 82.8895C112.52 79.8309 110.036 77.3465 106.977 77.3465Z" fill="white"/>
<path d="M120.922 96.8545H93.0309C92.6559 96.8545 92.3161 96.6397 92.1599 96.2998C92.0036 95.96 92.0544 95.5615 92.2966 95.2764C95.9528 90.9248 101.304 88.4287 106.977 88.4287C112.649 88.4287 118 90.9248 121.657 95.2764C121.899 95.5616 121.95 95.9639 121.793 96.2998C121.637 96.6397 121.297 96.8545 120.922 96.8545ZM95.2739 94.9326H118.68C115.508 91.999 111.348 90.3506 106.977 90.3506C102.606 90.3506 98.4457 91.999 95.2739 94.9326Z" fill="white"/>
<path d="M122.36 108.109H91.594C91.0627 108.109 90.6331 107.679 90.6331 107.148V101.378C90.6331 100.847 91.0627 100.417 91.594 100.417H122.36C122.891 100.417 123.321 100.847 123.321 101.378V107.148C123.321 107.679 122.891 108.109 122.36 108.109ZM92.559 106.187H121.399V102.343H92.559V106.187Z" fill="white"/>
<path d="M99.2849 108.109C98.7537 108.109 98.324 107.679 98.324 107.148V101.378C98.324 100.847 98.7537 100.417 99.2849 100.417C99.8162 100.417 100.246 100.847 100.246 101.378V107.148C100.246 107.679 99.8162 108.109 99.2849 108.109Z" fill="white"/>
<path d="M122.36 119.647H91.594C91.0627 119.647 90.6331 119.218 90.6331 118.686V112.917C90.6331 112.386 91.0627 111.956 91.594 111.956H122.36C122.891 111.956 123.321 112.386 123.321 112.917V118.686C123.321 119.214 122.891 119.647 122.36 119.647ZM92.559 117.722H121.399V113.878H92.559V117.722Z" fill="white"/>
<path d="M99.2849 119.647C98.7537 119.647 98.324 119.218 98.324 118.686V112.917C98.324 112.386 98.7537 111.956 99.2849 111.956C99.8162 111.956 100.246 112.386 100.246 112.917V118.686C100.246 119.214 99.8162 119.647 99.2849 119.647Z" fill="white"/>
<path d="M125.149 151.371H88.7109C83.3554 151.371 79 147.015 79 141.66V70.7109C79 65.3554 83.3555 61 88.7109 61H125.149C130.504 61 134.86 65.3555 134.86 70.7109V141.66C134.86 147.015 130.504 151.371 125.149 151.371ZM88.7109 62.9258C84.4179 62.9258 80.9218 66.418 80.9218 70.7149V141.664C80.9218 145.957 84.414 149.453 88.7109 149.453H125.149C129.442 149.453 132.938 145.961 132.938 141.664L132.934 70.7109C132.934 66.4179 129.442 62.9218 125.145 62.9218L88.7109 62.9258Z" fill="white"/>
<path d="M127.168 139.834H86.6909C86.1597 139.834 85.73 139.405 85.73 138.874V77.2916C85.73 76.7603 86.1597 76.3306 86.6909 76.3306C87.2222 76.3306 87.6519 76.7603 87.6519 77.2916V137.913H126.203L126.207 70.5606H86.6948C86.1635 70.5606 85.7338 70.1309 85.7338 69.5996C85.7338 69.0684 86.1635 68.6387 86.6948 68.6387H127.168C127.699 68.6387 128.129 69.0684 128.129 69.5996V138.873C128.129 139.404 127.699 139.834 127.168 139.834Z" fill="white"/>
<path d="M119.477 127.339H86.6919C86.1606 127.339 85.731 126.909 85.731 126.378C85.731 125.847 86.1606 125.417 86.6919 125.417H119.477C120.008 125.417 120.438 125.847 120.438 126.378C120.438 126.905 120.008 127.339 119.477 127.339Z" fill="white"/>
<path d="M87.6529 73.4448C87.6529 74.73 85.731 74.73 85.731 73.4448C85.731 72.1636 87.6529 72.1636 87.6529 73.4448Z" fill="white"/>
<path d="M124.282 126.375C124.282 127.66 122.36 127.66 122.36 126.375C122.36 125.094 124.282 125.094 124.282 126.375Z" fill="white"/>
</svg>
