<svg width="137" height="56" viewBox="0 0 137 56" fill="none" xmlns="http://www.w3.org/2000/svg">
<rect x="0.5" y="0.5" width="135.296" height="55" rx="27.5" stroke="#1A1A13"/>
<path fill-rule="evenodd" clip-rule="evenodd" d="M56.9083 6.60949L49.8988 6V6.12197L36.967 17.4572L36 32.8142L46.6356 45.8567L50.6237 46.2222L97.0327 50L100.296 10.1437L56.9083 6.60949Z" fill="#F1E04A" stroke="#272727" stroke-width="0.1" stroke-miterlimit="2.613"/>
<path fill-rule="evenodd" clip-rule="evenodd" d="M42.2834 25.6237C42.2834 26.5991 41.4373 27.4521 40.4707 27.4521C39.3828 27.4521 38.5371 26.5991 38.5371 25.6237C38.5371 24.5266 39.3832 23.6736 40.4707 23.6736C41.4377 23.6736 42.2834 24.5266 42.2834 25.6237Z" fill="white" stroke="#272727" stroke-width="0.1" stroke-miterlimit="2.613"/>
<path fill-rule="evenodd" clip-rule="evenodd" d="M52.6783 18.3104L52.7988 16.6039L53.2823 16.7259C54.0072 16.7259 55.095 16.7259 54.9741 17.7009C54.9741 18.4323 54.0072 18.4323 53.1614 18.4323L52.6783 18.3104ZM46.998 25.258L54.4914 25.8674C57.2711 26.111 60.1713 25.5015 60.413 23.0639C60.5339 21.6014 59.5669 20.6264 57.8751 20.0169V19.8949C59.3255 19.6513 60.0504 18.6763 60.1713 17.7009C60.413 14.8978 57.3916 14.1663 54.3701 13.9227L47.9647 13.3132L46.998 25.258ZM52.5571 20.8699H53.0406C54.0075 20.9919 55.3368 21.1139 55.3368 22.0889C55.2159 23.0639 53.8867 22.942 52.9197 22.942L52.3157 22.8204L52.5571 20.8699ZM61.8631 14.5322L72.1365 15.3853L71.8944 18.5543L67.1811 18.1888L67.0602 19.4074L71.4109 19.7733L71.1692 22.8204L66.8185 22.4545L66.6973 23.6734L71.6527 24.039L71.4109 27.33L60.8965 26.355L61.8631 14.5322ZM73.9492 23.1859L74.191 23.4299C75.1576 24.0393 76.2447 24.6488 77.5747 24.7708C78.0574 24.7708 79.0248 24.7708 79.0248 24.1613C79.1456 23.6738 78.4204 23.5518 77.8164 23.4299L76.7282 23.1859C74.5529 22.6984 72.8606 21.4794 72.9815 19.6513C73.2233 16.8478 76.7282 15.5072 79.9917 15.8728C81.8037 15.9948 83.3754 16.4823 84.8255 17.2137L83.0128 20.1388C82.1663 19.6513 81.0792 19.1638 79.8709 19.0418C79.3874 18.9199 78.6618 19.0418 78.6618 19.5294C78.5409 20.0169 79.2661 20.1388 79.75 20.2608L80.9583 20.5044C83.2549 21.1142 84.9468 22.3329 84.705 24.2829C84.4633 27.0861 81.0796 28.3054 77.6955 27.9391C75.7619 27.8175 73.5862 27.208 71.8944 26.4766L73.9492 23.1859Z" fill="#272727"/>
<path fill-rule="evenodd" clip-rule="evenodd" d="M85.0685 16.3604L96.7916 17.3354L96.429 21.2359L93.4079 20.87L92.6823 29.0365L87.1233 28.5487L87.8485 20.3828L84.7059 20.2609L85.0685 16.3604ZM54.1293 32.3272L54.2501 30.6211H54.6127C55.4588 30.7427 56.4255 30.7427 56.4255 31.5961C56.3042 32.4488 55.4585 32.4488 54.6127 32.3272H54.1293ZM48.3281 39.2744L55.942 39.8839C58.6008 40.1278 61.6222 39.5183 61.7431 37.0804C61.864 35.6182 60.897 34.5216 59.326 34.0337V33.9121C60.6552 33.6681 61.3801 32.6931 61.5014 31.5965C61.7431 28.9153 58.7217 28.0619 55.8211 27.8179L49.2947 27.3304L48.3281 39.2744ZM53.8875 34.8871H54.371C55.338 35.0087 56.7881 35.0087 56.6676 36.1061C56.5463 37.0804 55.2171 36.9588 54.371 36.8372H53.7666L53.8875 34.8871ZM77.4546 29.646L76.8503 36.7148C76.6085 40.1278 73.5875 41.4688 69.3573 41.1029C65.0063 40.8589 62.3475 39.0305 62.5892 35.4962L63.1936 28.4267L68.7529 28.9146L68.2695 35.6178C68.1486 36.4713 68.1486 37.324 69.599 37.4463C71.17 37.5679 71.2909 36.7145 71.2909 35.8618L71.8953 29.1578L77.4546 29.646Z" fill="#272727"/>
<path fill-rule="evenodd" clip-rule="evenodd" d="M83.7391 30.1329L85.1892 33.4236H85.4309C85.5518 33.058 85.7935 32.6925 86.0353 32.3269L87.2436 30.4984L93.5275 30.9863L87.7264 37.3241L87.2436 42.4435L81.8044 41.9564L82.2879 36.8369L77.4541 29.6458L83.7391 30.1329Z" fill="#272727"/>
</svg>
