<svg width="41" height="40" viewBox="0 0 41 40" fill="none" xmlns="http://www.w3.org/2000/svg">
<path d="M36.9213 0.615356H36.9207C34.7753 0.615356 33.0361 2.34977 33.0361 4.48929V35.4849C33.0361 37.6244 34.7753 39.3589 36.9207 39.3589H36.9213C39.0667 39.3589 40.8059 37.6244 40.8059 35.4849V4.48929C40.8059 2.34977 39.0667 0.615356 36.9213 0.615356Z" fill="#00A2FF"/>
<path d="M18.5852 5.7876H18.5846C17.0121 5.7876 15.7373 7.05888 15.7373 8.62709V31.3478C15.7373 32.916 17.0121 34.1873 18.5846 34.1873H18.5852C20.1577 34.1873 21.4325 32.916 21.4325 31.3478V8.62709C21.4325 7.05888 20.1577 5.7876 18.5852 5.7876Z" fill="#0076BA"/>
<path d="M3.04628 9.57837H3.04568C1.89296 9.57837 0.958496 10.5103 0.958496 11.6598V28.3144C0.958496 29.464 1.89296 30.3959 3.04568 30.3959H3.04628C4.19901 30.3959 5.13347 29.464 5.13347 28.3144V11.6598C5.13347 10.5103 4.19901 9.57837 3.04628 9.57837Z" fill="#004D80"/>
</svg>
