<svg width="327" height="275" viewBox="0 0 327 275" fill="none" xmlns="http://www.w3.org/2000/svg">
<g filter="url(#filter0_dddd_341_75)">
<rect x="6" y="31" width="213" height="213" rx="106.5" fill="#00A2FF"/>
</g>
<path d="M106.008 126.807C99.8181 126.227 93.6081 127.697 87.4281 124.967C86.7081 124.647 85.6581 124.267 85.6881 129.267C85.7081 133.367 86.6981 132.907 87.3681 132.927C90.3981 133.007 93.4281 132.437 96.4581 132.437C99.4881 132.437 102.798 132.457 105.958 132.417C106.478 132.417 107.258 133.397 107.288 129.717C107.328 125.737 106.518 126.857 106.018 126.807H106.008Z" fill="white"/>
<path d="M105.948 155.458C106.468 155.458 107.248 156.438 107.278 152.758C107.318 148.778 106.508 149.898 106.008 149.848C99.8181 149.268 93.6081 150.738 87.4281 148.008C86.7081 147.688 85.6581 147.308 85.6881 152.308C85.7081 156.408 86.6981 155.948 87.3681 155.968C90.3981 156.048 93.4281 155.478 96.4581 155.478C99.4881 155.478 102.798 155.498 105.958 155.458H105.948Z" fill="white"/>
<path d="M145.108 179.918L146.908 179.898L147.888 179.868C148.248 179.868 148.558 179.828 148.898 179.788C149.598 179.688 150.228 179.648 151.278 179.218L151.478 179.118L151.608 179.048L151.878 178.898C152.058 178.798 152.228 178.688 152.398 178.568C152.738 178.338 153.048 178.078 153.348 177.788C153.938 177.218 154.438 176.568 154.828 175.848C154.908 175.708 155.068 175.388 155.148 175.148C155.238 174.908 155.298 174.688 155.348 174.488C155.448 174.088 155.498 173.728 155.548 173.388C155.588 173.048 155.628 172.708 155.648 172.388L155.668 171.478L155.708 169.648L155.788 165.998L155.898 151.708L156.008 144.568C156.038 142.178 156.088 139.778 155.988 137.268C155.928 136.008 155.838 134.728 155.538 133.288C155.388 132.578 155.148 131.788 154.768 131.008C154.588 130.628 154.358 130.238 154.168 129.948C153.978 129.648 153.778 129.358 153.568 129.068C152.738 127.918 151.758 126.878 150.658 125.958C150.098 125.508 149.588 125.078 148.768 124.618C147.988 124.178 147.178 123.888 146.458 123.678C144.998 123.268 143.698 123.088 142.428 122.928C141.158 122.778 139.928 122.668 138.708 122.578L131.518 122.078C129.238 121.918 126.438 121.738 124.268 122.278C124.268 120.758 124.268 119.238 124.268 117.728V105.608C124.218 104.568 124.328 103.728 124.148 102.258C123.948 100.948 123.468 99.6679 122.698 98.5479C121.938 97.4279 120.868 96.4779 119.618 95.8479C118.368 95.2279 116.998 94.9479 115.628 95.0079C115.288 95.0179 114.948 95.0579 114.608 95.1179C114.438 95.1479 114.268 95.1779 114.108 95.2179L113.738 95.3079L112.258 95.6479L109.308 96.3279L103.408 97.6879L91.5979 100.398C89.6179 100.858 87.6779 101.268 85.6779 101.768L79.6879 103.238C78.6879 103.478 77.6979 103.698 76.6379 104.098C75.5979 104.478 74.4179 104.978 73.3379 105.838C72.3579 106.638 71.5879 107.448 70.8579 108.388C70.4979 108.848 70.1679 109.338 69.8579 109.838C69.6979 110.088 69.5579 110.338 69.4079 110.608C69.2579 110.888 69.1079 111.208 68.9779 111.518C68.0379 114.108 68.1079 116.158 68.0379 118.198L67.8679 124.368L67.6979 136.488C67.5679 144.558 67.3979 152.638 67.1779 160.708C67.0579 164.718 66.9579 168.828 67.0179 173.198C67.0779 173.828 67.1279 174.428 67.3979 175.368C67.4679 175.608 67.5679 175.888 67.7179 176.188C67.8379 176.428 67.9079 176.568 68.0079 176.758C68.2079 177.108 68.4279 177.458 68.6679 177.778C69.1579 178.428 69.7279 179.018 70.3679 179.528C70.6879 179.778 71.0279 180.018 71.3779 180.228C71.5579 180.328 71.6979 180.428 72.0479 180.588C72.3379 180.718 72.5979 180.808 72.8279 180.878C73.7179 181.148 74.3279 181.238 74.9479 181.328C75.5879 181.428 76.0479 181.428 76.5879 181.468L79.7379 181.658C80.7179 181.708 81.7579 181.768 82.8179 181.828C83.8479 181.858 84.8779 181.878 85.9179 181.888C87.9979 181.888 90.0579 181.808 91.8779 181.568C95.5179 181.078 98.1879 179.928 98.0579 177.428C97.9579 175.378 95.3279 174.468 91.8479 174.068C90.1079 173.868 88.1579 173.798 86.2179 173.778C85.2479 173.778 84.2679 173.778 83.3179 173.778C82.4079 173.768 81.5179 173.748 80.6879 173.738L77.8679 173.678C76.9579 173.658 75.8779 173.678 75.2979 173.558C75.2279 173.548 75.1579 173.538 75.0979 173.528C74.9979 173.468 74.8979 173.408 74.8179 173.328C74.7079 173.228 74.6179 173.118 74.5379 172.988V172.968C74.4779 172.758 74.4279 172.378 74.3979 171.988L74.3679 170.588L74.3079 167.768L74.2479 164.928V161.968L74.0579 138.268C74.0179 130.418 73.8079 122.248 74.1579 115.088C74.2079 114.698 74.2679 114.358 74.3479 114.088C74.4179 113.808 74.4779 113.648 74.5979 113.418C74.9079 112.818 75.3279 112.178 75.7879 111.628C76.0179 111.348 76.2679 111.078 76.5279 110.828L76.9079 110.478C77.0079 110.398 77.0879 110.328 77.1779 110.268C77.5279 110.018 78.2179 109.708 79.0179 109.438C79.4079 109.298 79.8379 109.168 80.3179 109.058L81.7079 108.708L84.4979 108.008C86.3579 107.538 88.1979 107.068 90.1479 106.638L114.298 101.098L115.048 100.928L115.408 100.848L115.568 100.818C115.778 100.788 115.998 100.778 116.208 100.798C116.648 100.838 117.048 100.998 117.348 101.218C117.988 101.668 118.498 102.628 118.488 103.668V116.058L118.508 165.608C118.488 168.288 118.208 171.578 118.398 174.278L106.228 174.308C103.028 174.308 98.2779 173.328 98.0779 177.008C97.8579 180.988 102.828 179.868 105.868 179.918C115.378 180.058 124.888 180.068 134.408 180.028L141.548 179.988L145.118 179.958L145.108 179.918ZM124.088 174.238C124.238 171.648 124.058 168.578 124.098 166.218C124.218 154.038 124.258 141.868 124.258 129.698C126.338 130.148 128.968 130.028 131.088 130.038L137.998 130.068C140.228 130.098 142.538 130.148 144.268 130.448C144.688 130.518 145.038 130.608 145.278 130.698C145.538 130.798 145.578 130.808 145.958 131.058C146.648 131.528 147.298 132.078 147.858 132.698C148.138 133.008 148.408 133.338 148.648 133.688C148.878 134.008 148.908 134.068 149.028 134.348C149.238 134.858 149.418 135.828 149.528 136.818C149.758 138.858 149.818 141.148 149.868 143.438L149.968 150.388C150.018 155.038 150.058 159.688 150.058 164.338L149.938 171.368C149.938 171.978 149.888 172.478 149.828 172.868C149.808 172.978 149.788 173.078 149.778 173.148L149.728 173.238C149.608 173.438 149.448 173.608 149.268 173.758C149.178 173.828 149.088 173.898 148.978 173.958H148.948C148.778 174.018 148.308 174.088 147.848 174.128L147.188 174.148H146.288L142.668 174.188L135.388 174.218L124.088 174.238Z" fill="white"/>
<defs>
<filter id="filter0_dddd_341_75" x="0" y="0" width="327" height="275" filterUnits="userSpaceOnUse" color-interpolation-filters="sRGB">
<feFlood flood-opacity="0" result="BackgroundImageFix"/>
<feColorMatrix in="SourceAlpha" type="matrix" values="0 0 0 0 0 0 0 0 0 0 0 0 0 0 0 0 0 0 127 0" result="hardAlpha"/>
<feOffset dx="5"/>
<feGaussianBlur stdDeviation="5.5"/>
<feColorMatrix type="matrix" values="0 0 0 0 0 0 0 0 0 0 0 0 0 0 0 0 0 0 0.1 0"/>
<feBlend mode="normal" in2="BackgroundImageFix" result="effect1_dropShadow_341_75"/>
<feColorMatrix in="SourceAlpha" type="matrix" values="0 0 0 0 0 0 0 0 0 0 0 0 0 0 0 0 0 0 127 0" result="hardAlpha"/>
<feOffset dx="19"/>
<feGaussianBlur stdDeviation="9.5"/>
<feColorMatrix type="matrix" values="0 0 0 0 0 0 0 0 0 0 0 0 0 0 0 0 0 0 0.09 0"/>
<feBlend mode="normal" in2="effect1_dropShadow_341_75" result="effect2_dropShadow_341_75"/>
<feColorMatrix in="SourceAlpha" type="matrix" values="0 0 0 0 0 0 0 0 0 0 0 0 0 0 0 0 0 0 127 0" result="hardAlpha"/>
<feOffset dx="43"/>
<feGaussianBlur stdDeviation="13"/>
<feColorMatrix type="matrix" values="0 0 0 0 0 0 0 0 0 0 0 0 0 0 0 0 0 0 0.05 0"/>
<feBlend mode="normal" in2="effect2_dropShadow_341_75" result="effect3_dropShadow_341_75"/>
<feColorMatrix in="SourceAlpha" type="matrix" values="0 0 0 0 0 0 0 0 0 0 0 0 0 0 0 0 0 0 127 0" result="hardAlpha"/>
<feOffset dx="77"/>
<feGaussianBlur stdDeviation="15.5"/>
<feColorMatrix type="matrix" values="0 0 0 0 0 0 0 0 0 0 0 0 0 0 0 0 0 0 0.01 0"/>
<feBlend mode="normal" in2="effect3_dropShadow_341_75" result="effect4_dropShadow_341_75"/>
<feBlend mode="normal" in="SourceGraphic" in2="effect4_dropShadow_341_75" result="shape"/>
</filter>
</defs>
</svg>
