<svg width="213" height="213" viewBox="0 0 213 213" fill="none" xmlns="http://www.w3.org/2000/svg">
<rect width="213" height="213" rx="106.5" fill="#00A2FF"/>
<path d="M101.008 110.807C94.8181 110.227 88.6081 111.697 82.4281 108.967C81.7081 108.647 80.6581 108.267 80.6881 113.267C80.7081 117.367 81.6981 116.907 82.3681 116.927C85.3981 117.007 88.4281 116.437 91.4581 116.437C94.4881 116.437 97.7981 116.457 100.958 116.417C101.478 116.417 102.258 117.397 102.288 113.717C102.328 109.737 101.518 110.857 101.018 110.807H101.008Z" fill="white"/>
<path d="M100.948 139.458C101.468 139.458 102.248 140.438 102.278 136.758C102.318 132.778 101.508 133.898 101.008 133.848C94.8181 133.268 88.6081 134.738 82.4281 132.008C81.7081 131.688 80.6581 131.308 80.6881 136.308C80.7081 140.408 81.6981 139.948 82.3681 139.968C85.3981 140.048 88.4281 139.478 91.4581 139.478C94.4881 139.478 97.7981 139.498 100.958 139.458H100.948Z" fill="white"/>
<path d="M140.108 148.918L141.908 148.898L142.888 148.868C143.248 148.868 143.558 148.828 143.898 148.788C144.598 148.688 145.228 148.648 146.278 148.218L146.478 148.118L146.608 148.048L146.878 147.898C147.058 147.798 147.228 147.688 147.398 147.568C147.738 147.338 148.048 147.078 148.348 146.788C148.938 146.218 149.438 145.568 149.828 144.848C149.908 144.708 150.068 144.388 150.148 144.148C150.238 143.908 150.298 143.688 150.348 143.488C150.448 143.088 150.498 142.728 150.548 142.388C150.588 142.048 150.628 141.708 150.648 141.388L150.668 140.478L150.708 138.648L150.788 134.998L150.898 120.708L151.008 113.568C151.038 111.178 151.088 108.778 150.988 106.268C150.928 105.008 150.838 103.728 150.538 102.288C150.388 101.578 150.148 100.788 149.768 100.008C149.588 99.6279 149.358 99.2379 149.168 98.9479C148.978 98.6479 148.778 98.3579 148.568 98.0679C147.738 96.9179 146.758 95.8779 145.658 94.9579C145.098 94.5079 144.588 94.0779 143.768 93.6179C142.988 93.1779 142.178 92.8879 141.458 92.6779C139.998 92.2679 138.698 92.0879 137.428 91.9279C136.158 91.7779 134.928 91.6679 133.708 91.5779L126.518 91.0779C124.238 90.9179 121.438 90.7379 119.268 91.2779C119.268 89.7579 119.268 88.2379 119.268 86.7279V74.6079C119.218 73.5679 119.328 72.7279 119.148 71.2579C118.948 69.9479 118.468 68.6679 117.698 67.5479C116.938 66.4279 115.868 65.4779 114.618 64.8479C113.368 64.2279 111.998 63.9479 110.628 64.0079C110.288 64.0179 109.948 64.0579 109.608 64.1179C109.438 64.1479 109.268 64.1779 109.108 64.2179L108.738 64.3079L107.258 64.6479L104.308 65.3279L98.4079 66.6879L86.5979 69.3979C84.6179 69.8579 82.6779 70.2679 80.6779 70.7679L74.6879 72.2379C73.6879 72.4779 72.6979 72.6979 71.6379 73.0979C70.5979 73.4779 69.4179 73.9779 68.3379 74.8379C67.3579 75.6379 66.5879 76.4479 65.8579 77.3879C65.4979 77.8479 65.1679 78.3379 64.8579 78.8379C64.6979 79.0879 64.5579 79.3379 64.4079 79.6079C64.2579 79.8879 64.1079 80.2079 63.9779 80.5179C63.0379 83.1079 63.1079 85.1579 63.0379 87.1979L62.8679 93.3679L62.6979 105.488C62.5679 113.558 62.3979 121.638 62.1779 129.708C62.0579 133.718 61.9579 137.828 62.0179 142.198C62.0779 142.828 62.1279 143.428 62.3979 144.368C62.4679 144.608 62.5679 144.888 62.7179 145.188C62.8379 145.428 62.9079 145.568 63.0079 145.758C63.2079 146.108 63.4279 146.458 63.6679 146.778C64.1579 147.428 64.7279 148.018 65.3679 148.528C65.6879 148.778 66.0279 149.018 66.3779 149.228C66.5579 149.328 66.6979 149.428 67.0479 149.588C67.3379 149.718 67.5979 149.808 67.8279 149.878C68.7179 150.148 69.3279 150.238 69.9479 150.328C70.5879 150.428 71.0479 150.428 71.5879 150.468L74.7379 150.658C75.7179 150.708 76.7579 150.768 77.8179 150.828C78.8479 150.858 79.8779 150.878 80.9179 150.888C82.9979 150.888 85.0579 150.808 86.8779 150.568C90.5179 150.078 93.1879 148.928 93.0579 146.428C92.9579 144.378 90.3279 143.468 86.8479 143.068C85.1079 142.868 83.1579 142.798 81.2179 142.778C80.2479 142.778 79.2679 142.778 78.3179 142.778C77.4079 142.768 76.5179 142.748 75.6879 142.738L72.8679 142.678C71.9579 142.658 70.8779 142.678 70.2979 142.558C70.2279 142.548 70.1579 142.538 70.0979 142.528C69.9979 142.468 69.8979 142.408 69.8179 142.328C69.7079 142.228 69.6179 142.118 69.5379 141.988V141.968C69.4779 141.758 69.4279 141.378 69.3979 140.988L69.3679 139.588L69.3079 136.768L69.2479 133.928V130.968L69.0579 107.268C69.0179 99.4179 68.8079 91.2479 69.1579 84.0879C69.2079 83.6979 69.2679 83.3579 69.3479 83.0879C69.4179 82.8079 69.4779 82.6479 69.5979 82.4179C69.9079 81.8179 70.3279 81.1779 70.7879 80.6279C71.0179 80.3479 71.2679 80.0779 71.5279 79.8279L71.9079 79.4779C72.0079 79.3979 72.0879 79.3279 72.1779 79.2679C72.5279 79.0179 73.2179 78.7079 74.0179 78.4379C74.4079 78.2979 74.8379 78.1679 75.3179 78.0579L76.7079 77.7079L79.4979 77.0079C81.3579 76.5379 83.1979 76.0679 85.1479 75.6379L109.298 70.0979L110.048 69.9279L110.408 69.8479L110.568 69.8179C110.778 69.7879 110.998 69.7779 111.208 69.7979C111.648 69.8379 112.048 69.9979 112.348 70.2179C112.988 70.6679 113.498 71.6279 113.488 72.6679V85.0579L113.508 134.608C113.488 137.288 113.208 140.578 113.398 143.278L101.228 143.308C98.0279 143.308 93.2779 142.328 93.0779 146.008C92.8579 149.988 97.8279 148.868 100.868 148.918C110.378 149.058 119.888 149.068 129.408 149.028L136.548 148.988L140.118 148.958L140.108 148.918ZM119.088 143.238C119.238 140.648 119.058 137.578 119.098 135.218C119.218 123.038 119.258 110.868 119.258 98.6979C121.338 99.1479 123.968 99.0279 126.088 99.0379L132.998 99.0679C135.228 99.0979 137.538 99.1479 139.268 99.4479C139.688 99.5179 140.038 99.6079 140.278 99.6979C140.538 99.7979 140.578 99.8079 140.958 100.058C141.648 100.528 142.298 101.078 142.858 101.698C143.138 102.008 143.408 102.338 143.648 102.688C143.878 103.008 143.908 103.068 144.028 103.348C144.238 103.858 144.418 104.828 144.528 105.818C144.758 107.858 144.818 110.148 144.868 112.438L144.968 119.388C145.018 124.038 145.058 128.688 145.058 133.338L144.938 140.368C144.938 140.978 144.888 141.478 144.828 141.868C144.808 141.978 144.788 142.078 144.778 142.148L144.728 142.238C144.608 142.438 144.448 142.608 144.268 142.758C144.178 142.828 144.088 142.898 143.978 142.958H143.948C143.778 143.018 143.308 143.088 142.848 143.128L142.188 143.148H141.288L137.668 143.188L130.388 143.218L119.088 143.238Z" fill="white"/>
</svg>
