<svg width="36" height="36" viewBox="0 0 36 36" fill="none" xmlns="http://www.w3.org/2000/svg">
<rect width="35.987" height="35.987" rx="17.9935" fill="white"/>
<path d="M13.724 11.1512C14.9988 10.3996 16.4962 9.98338 17.9415 9.98338C19.3377 9.98338 20.6559 10.3534 21.8613 11.0847L20.4651 11.3998C20.3639 11.4229 20.2743 11.4836 20.2194 11.5732C20.1644 11.66 20.1442 11.7669 20.1673 11.8681C20.2078 12.0473 20.3639 12.1745 20.5489 12.1745C20.5778 12.1745 20.6067 12.1716 20.6356 12.1658L22.8961 11.6542H22.9221L22.9308 11.6484C22.9713 11.6368 23.0117 11.6166 23.0609 11.5848C23.0927 11.5617 23.1187 11.5357 23.1389 11.5096C23.1447 11.501 23.1505 11.4923 23.1476 11.4923L23.1592 11.4807L23.1649 11.4692C23.1736 11.4518 23.1794 11.4374 23.1823 11.4229C23.191 11.4027 23.2025 11.3738 23.2112 11.342C23.2141 11.3189 23.217 11.2986 23.217 11.2668C23.2199 11.2553 23.2199 11.2379 23.2112 11.2003V11.1772L22.5984 9.03235C22.5492 8.85891 22.3931 8.74329 22.2197 8.74329C22.1821 8.74329 22.1445 8.74907 22.1099 8.75774C22.0087 8.78665 21.9249 8.85313 21.8757 8.94274C21.8237 9.03524 21.8121 9.13931 21.841 9.24048L22.159 10.3534C20.8553 9.58736 19.436 9.19712 17.9415 9.19712C16.3545 9.19712 14.7155 9.65095 13.3222 10.4748C10.4229 12.1918 8.89376 15.1432 9.33603 18.1784C9.36493 18.3692 9.5297 18.5137 9.72338 18.5137H9.72916L9.78119 18.5108C9.99221 18.479 10.1425 18.2796 10.1107 18.0686C9.7147 15.3513 11.0993 12.7035 13.724 11.1512Z" fill="#00A2FF"/>
<path d="M26.6193 17.5023C26.5441 17.4242 26.4429 17.3809 26.3244 17.3809C26.1452 17.3924 25.9515 17.5427 25.9457 17.7624C25.8793 20.9306 24.2807 23.6247 21.6733 24.9688C20.5749 25.5354 19.3868 25.8245 18.1381 25.8245C16.739 25.8245 15.3052 25.4487 13.9784 24.7318L15.1202 24.5352C15.3312 24.4977 15.4758 24.2953 15.4411 24.0814C15.4093 23.8935 15.2445 23.7577 15.048 23.7577C15.048 23.7577 15.0017 23.7605 14.993 23.7605L12.7961 24.1421C12.7528 24.1508 12.7123 24.1681 12.6718 24.1913L12.6487 24.2086C12.614 24.2346 12.588 24.2606 12.562 24.2924L12.5591 24.2953L12.5504 24.3069L12.5273 24.356L12.5244 24.3676C12.5128 24.3907 12.4984 24.4167 12.4926 24.4485L12.4897 24.5063V24.5179C12.4897 24.5439 12.4868 24.5699 12.4955 24.6104L13.0447 26.9345C13.0881 27.1195 13.2442 27.2438 13.4263 27.2438C13.4581 27.2438 13.4899 27.2409 13.5159 27.2322C13.7269 27.1831 13.857 26.9721 13.805 26.7611L13.4725 25.3533C14.9468 26.1742 16.554 26.6078 18.1352 26.6078C19.5111 26.6078 20.8206 26.2899 22.0318 25.6655C24.8964 24.1855 26.6511 21.237 26.7262 17.7798C26.7291 17.6757 26.6886 17.5774 26.6193 17.5023Z" fill="#00A2FF"/>
<path d="M21.3182 20.4564C21.6217 20.5229 22.2114 20.6558 22.2114 20.6558C22.2345 20.6645 22.2605 20.6645 22.2836 20.6645C22.4079 20.6645 22.5207 20.5922 22.5669 20.4766L22.989 19.4475C23.0439 19.3059 22.9947 19.1498 22.8676 19.0717L22.0842 18.5803C22.142 18.1843 22.142 17.7854 22.0813 17.3894L22.8589 16.898C22.9861 16.817 23.0352 16.658 22.9774 16.5193L22.5496 15.4931C22.5004 15.3775 22.3935 15.3052 22.2663 15.3052C22.2432 15.3052 22.2172 15.3081 22.1969 15.3139L21.3008 15.5191C21.0609 15.1983 20.7776 14.915 20.4539 14.675L20.6562 13.7761C20.6909 13.6286 20.61 13.4841 20.4741 13.4234L19.4421 12.9985C19.4045 12.984 19.3641 12.9753 19.3236 12.9753C19.2167 12.9753 19.1213 13.0274 19.0634 13.1228L18.5778 13.9032C18.3841 13.8743 18.1876 13.8541 17.9939 13.8541C17.7916 13.8541 17.5892 13.8772 17.3898 13.9061L16.8955 13.1285C16.8376 13.0418 16.7422 12.9869 16.6382 12.9869C16.5948 12.9869 16.5572 12.9956 16.5197 13.01L15.4877 13.4407C15.349 13.4957 15.2738 13.646 15.3085 13.7934L15.5137 14.6895C15.19 14.9323 14.9096 15.2156 14.6725 15.5394C14.3661 15.47 13.7793 15.337 13.7793 15.337C13.7533 15.3312 13.7302 15.3283 13.7071 15.3283C13.5828 15.3283 13.4729 15.4035 13.4267 15.5191L13.0017 16.5482C12.9468 16.6898 12.996 16.8459 13.1231 16.924L13.9007 17.4096C13.8458 17.8027 13.8458 18.2045 13.9065 18.6035L13.1289 19.0978C13.0017 19.1758 12.9526 19.3377 13.0104 19.4735L13.4411 20.5026C13.4903 20.6182 13.6001 20.6905 13.7244 20.6905C13.7504 20.6905 13.7735 20.6876 13.7909 20.6818L14.6899 20.4766C14.9298 20.7946 15.2073 21.0692 15.5397 21.3149L15.3345 22.2168C15.2998 22.3642 15.3807 22.5116 15.5166 22.5694L16.5486 22.9944C16.5862 23.0088 16.6237 23.0175 16.6642 23.0175C16.7712 23.0175 16.8665 22.9655 16.9215 22.873L17.4129 22.0896C17.6066 22.1185 17.8031 22.1387 17.9968 22.1387C18.1991 22.1387 18.4015 22.1185 18.6038 22.0867L19.0981 22.8643C19.1531 22.9539 19.2513 23.0088 19.3554 23.0088C19.3959 23.0088 19.4363 23.0001 19.4739 22.9828L20.5001 22.5521C20.6417 22.4972 20.7169 22.3469 20.6793 22.1994L20.4741 21.3033C20.7921 21.0663 21.0725 20.783 21.3182 20.4564ZM20.211 18.9041C19.9653 19.4967 19.5086 19.9592 18.9189 20.2049C18.6241 20.3292 18.3119 20.3899 17.9968 20.3899C17.6846 20.3899 17.3782 20.3292 17.0862 20.2107C16.4937 19.965 16.0311 19.5082 15.7854 18.9185C15.5368 18.326 15.5368 17.6756 15.7797 17.083C16.0254 16.4933 16.4821 16.0308 17.0718 15.7851C17.3695 15.6608 17.6788 15.6001 17.9939 15.6001C18.309 15.6001 18.6154 15.6579 18.9045 15.7793C19.497 16.025 19.9596 16.4817 20.2053 17.0714C20.451 17.6611 20.451 18.3144 20.211 18.9041Z" fill="#00A2FF"/>
</svg>
