<svg width="36" height="37" viewBox="0 0 36 37" fill="none" xmlns="http://www.w3.org/2000/svg">
<rect y="0.5" width="35.987" height="35.987" rx="17.9935" fill="white"/>
<g clip-path="url(#clip0_96_380)">
<path d="M23.8977 21.5919C23.4709 21.594 23.0721 21.7148 22.7335 21.9225L22.7431 21.9171L21.2972 20.6027C21.6858 20.0096 21.9166 19.2828 21.9166 18.5024C21.9166 17.6587 21.6466 16.8777 21.1877 16.2417L21.1957 16.2529L22.8392 14.6094C23.1451 14.779 23.5096 14.8794 23.8971 14.8821H23.8982C25.1579 14.8821 26.1793 13.8607 26.1793 12.601C26.1793 11.3412 25.1579 10.3198 23.8982 10.3198C22.6385 10.3198 21.6171 11.3412 21.6171 12.601C21.6197 12.9896 21.7206 13.354 21.8956 13.6718L21.8897 13.6599L20.2462 15.3034C19.6306 14.8526 18.8577 14.5821 18.022 14.5821C17.5561 14.5821 17.1101 14.6663 16.6978 14.8198L16.7241 14.8113L16.3785 14.1833C16.7682 13.777 17.0081 13.2241 17.0081 12.6155C17.0081 11.3638 15.9931 10.3488 14.7414 10.3488C13.4898 10.3488 12.4748 11.3638 12.4748 12.6155C12.4748 13.8671 13.4898 14.8821 14.7414 14.8821C14.9057 14.8821 15.0662 14.8644 15.2207 14.8311L15.2057 14.8338L15.5503 15.4596C14.6459 16.1654 14.07 17.255 14.07 18.4799C14.07 18.8046 14.1108 19.1202 14.187 19.4213L14.1811 19.395L13.8231 19.5469C13.4044 19.0617 12.7888 18.7557 12.1018 18.7557C10.849 18.7557 9.8335 19.7713 9.8335 21.024C9.8335 22.2767 10.849 23.2923 12.1018 23.2923C13.3545 23.2923 14.37 22.2767 14.37 21.024C14.37 21.0197 14.37 21.0149 14.37 21.0106C14.3657 20.9252 14.3577 20.8463 14.3453 20.769L14.3469 20.7819L14.7049 20.63C15.4043 21.7175 16.6087 22.4276 17.979 22.4276C18.8931 22.4276 19.7331 22.1114 20.396 21.5827L20.3879 21.5886L21.8382 22.9063C21.6997 23.1887 21.6181 23.5204 21.616 23.8709C21.616 25.1306 22.6374 26.1525 23.8971 26.1525C25.1568 26.1525 26.1783 25.1311 26.1783 23.8714C26.1783 22.6117 25.1568 21.5903 23.8971 21.5903L23.8977 21.5919ZM13.8016 12.6015C13.8016 12.083 14.2224 11.6622 14.7409 11.6622C15.2594 11.6622 15.6802 12.083 15.6802 12.6015C15.6802 13.12 15.2594 13.5408 14.7409 13.5408C14.2224 13.5403 13.8021 13.12 13.8016 12.6015ZM12.0894 21.9515C11.5709 21.9509 11.1512 21.5312 11.1512 21.0127C11.1512 20.4942 11.5715 20.074 12.0899 20.074C12.6084 20.074 13.0282 20.4937 13.0287 21.0122C13.0282 21.5307 12.6079 21.9509 12.0894 21.9515ZM23.8977 11.6622C24.4161 11.6622 24.8369 12.083 24.8369 12.6015C24.8369 13.12 24.4161 13.5408 23.8977 13.5408C23.3792 13.5408 22.9584 13.12 22.9584 12.6015C22.9589 12.083 23.3792 11.6627 23.8977 11.6622ZM15.4118 18.5056C15.4118 18.5051 15.4118 18.5045 15.4118 18.504C15.4118 17.079 16.5669 15.9239 17.9919 15.9239C18.7047 15.9239 19.3499 16.2132 19.8168 16.6802L19.8174 16.6807L19.8179 16.6812C20.2849 17.1482 20.5731 17.7934 20.5731 18.5056C20.5731 19.9312 19.4175 21.0863 17.9925 21.0863C16.5674 21.0863 15.4118 19.9307 15.4118 18.5056ZM23.8977 24.8123C23.3792 24.8123 22.9584 24.3915 22.9584 23.873C22.9584 23.3545 23.3792 22.9337 23.8977 22.9337C24.4161 22.9337 24.8369 23.3545 24.8369 23.873C24.8364 24.3915 24.4161 24.8118 23.8977 24.8123Z" fill="#00A2FF"/>
</g>
<defs>
<clipPath id="clip0_96_380">
<rect width="17.1756" height="17.1756" fill="white" transform="translate(9.40576 9.90576)"/>
</clipPath>
</defs>
</svg>
