<svg width="148" height="40" viewBox="0 0 148 40" fill="none" xmlns="http://www.w3.org/2000/svg">
<g clip-path="url(#clip0_433_5612)">
<path d="M53.019 0.00292569L67.8449 0L67.7529 0.119953L34.0474 39.921L19.4844 39.9466L53.019 0.00292569ZM88.1135 32.0209V24.1947L96.9062 24.2093L105.699 24.2225L106.052 24.3395C106.81 24.5926 107.407 25.0805 107.748 25.727C108.11 26.4146 108.089 25.9421 108.089 33.2578V39.8464H104.114V34.2781C104.114 28.287 104.124 28.5116 103.86 28.1444C103.803 28.0639 103.649 27.9359 103.519 27.8599L103.284 27.7224L101.636 27.7077L99.9883 27.6931V39.8464H96.1149L96.1024 34.1808L96.0891 28.5145L95.9368 28.2702C95.8345 28.1107 95.6983 27.9753 95.5378 27.8738L95.2919 27.7224L93.6902 27.7077L92.0892 27.6931V39.8464H88.1142V32.0202L88.1135 32.0209ZM53.6167 39.4478C52.4463 39.1428 51.5578 38.2877 51.1994 37.1218C51.1125 36.8395 51.1066 36.5294 51.1066 31.8724V26.9229L51.2487 26.5228C51.4474 25.9633 51.694 25.5807 52.1232 25.1624C52.3941 24.8983 52.6039 24.7477 52.9071 24.5999C53.7389 24.1954 53.1132 24.2269 60.6539 24.2101L67.3841 24.1947V27.647H61.5122C55.6543 27.647 55.641 27.6477 55.4231 27.7523C55.2722 27.8255 55.1633 27.9279 55.0676 28.0895L54.9299 28.3221V31.9719C54.9299 35.5764 54.9314 35.6239 55.0352 35.8214C55.0934 35.9311 55.2362 36.0891 55.3539 36.1717L55.5674 36.3217L61.4754 36.3348L67.3833 36.348V39.5465L60.6789 39.5436C54.3006 39.5407 53.9568 39.5363 53.616 39.447L53.6167 39.4478ZM71.3782 39.4478C70.9085 39.3256 70.394 39.0623 70.051 38.769C69.6078 38.3909 69.3877 38.1027 69.1411 37.579C68.8408 36.9427 68.8445 37.0121 68.8445 31.8973C68.8445 26.6259 68.8298 26.8476 69.2273 26.0481C69.531 25.4255 70.033 24.9198 70.6553 24.6094C71.4952 24.1925 70.8364 24.2225 78.9313 24.2225H86.1267L86.14 25.934L86.1532 27.6463L79.7204 27.6594L73.2883 27.6726L73.1065 27.797C72.9875 27.8856 72.8864 27.9958 72.8084 28.1217L72.6921 28.3221V31.9719C72.6921 35.5764 72.6936 35.6239 72.7974 35.8214C72.8548 35.9311 72.9983 36.0891 73.1161 36.1717L73.3296 36.3217L79.741 36.3348L86.1517 36.348V39.5465L78.9438 39.5436C72.0745 39.5407 71.7197 39.537 71.3782 39.4478ZM112.618 39.469C112.132 39.3651 111.535 39.0506 111.142 38.6929C110.647 38.2541 110.292 37.6818 110.119 37.0458C110.032 36.7415 110.027 36.4285 110.027 31.8966C110.027 26.5067 110.005 26.8425 110.387 26.0496C110.641 25.5215 111.324 24.8442 111.862 24.586C112.67 24.1984 111.996 24.2291 120.077 24.2108L127.309 24.194V27.6477H120.942C114.794 27.6477 114.569 27.6514 114.389 27.7428C114.158 27.8599 114.052 27.9732 113.953 28.2109C113.885 28.3704 113.876 28.8692 113.876 31.9975C113.876 34.9108 113.888 35.6319 113.943 35.7621C114.033 35.9757 114.329 36.2295 114.566 36.2946C114.693 36.3297 116.808 36.3473 121.033 36.3473H127.309V39.5472L120.127 39.5436C114.181 39.5399 112.888 39.5268 112.618 39.469ZM129.071 37.6587V35.8214L129.194 35.5595C129.431 35.0549 129.621 34.9115 132.135 33.347C133.438 32.5351 134.505 31.8607 134.505 31.8476C134.505 31.8227 131.369 29.8171 130.255 29.1289C129.592 28.7185 129.412 28.5576 129.246 28.227L129.121 27.9783V24.1969H132.995L132.997 25.3599L133 26.5221L135.725 28.2197C137.223 29.1537 138.485 29.9181 138.528 29.9181C138.57 29.9181 139.845 29.1428 141.358 28.1948L144.111 26.4716L144.113 25.3343L144.115 24.1969H147.99V25.9947C147.99 27.7136 147.984 27.8057 147.881 28.0822C147.694 28.584 147.414 28.7961 144.871 30.3716C143.611 31.1505 142.583 31.8066 142.585 31.83C142.589 31.8688 146.326 34.2752 147.033 34.6943C147.432 34.9305 147.699 35.1975 147.835 35.4959C147.931 35.7095 147.937 35.8192 147.938 37.6082L147.939 39.4953H146.945C146.399 39.4953 145.527 39.4807 145.008 39.4624L144.065 39.4295V37.1592L141.329 35.4527C139.825 34.5143 138.565 33.7463 138.529 33.7463C138.494 33.7463 137.223 34.5282 135.705 35.4835L132.946 37.2206V38.358L132.944 39.4968H129.069L129.07 37.6594L129.071 37.6587ZM76.3402 31.9975V30.4469H86.1517V33.5467H76.3402V31.9975ZM117.498 31.9975V30.4469H127.309V33.5467H117.498V31.9975Z" fill="#293064"/>
<path d="M0.0832965 39.9122L33.551 0.0533905H48.3952L48.2671 0.190898L14.5485 40H7.27797C0.358599 40 0.0111584 39.9956 0.0832965 39.9122Z" fill="#DF343D"/>
</g>
<defs>
<clipPath id="clip0_433_5612">
<rect width="148" height="40" fill="white"/>
</clipPath>
</defs>
</svg>
