<svg width="136" height="56" viewBox="0 0 136 56" fill="none" xmlns="http://www.w3.org/2000/svg">
<rect x="0.5" y="0.5" width="135" height="54.9999" rx="27.4999" stroke="#1A1A13"/>
<path d="M52.823 14.002L63.1351 14L63.0711 14.084L39.6274 41.9447L29.498 41.9626L52.823 14.002ZM77.2329 36.4146V30.9363L83.3487 30.9465L89.4645 30.9557L89.7097 31.0377C90.2371 31.2148 90.6523 31.5563 90.8899 32.0089C91.1418 32.4902 91.1269 32.1595 91.1269 37.2804V41.8925H88.3622V37.9947C88.3622 33.8009 88.3688 33.9581 88.1855 33.7011C88.1456 33.6447 88.0386 33.5551 87.9485 33.5019L87.7846 33.4056L86.6388 33.3954L85.4924 33.3852V41.8925H82.7983L82.7896 37.9266L82.7804 33.9601L82.6744 33.7891C82.6033 33.6775 82.5086 33.5827 82.3969 33.5116L82.2259 33.4056L81.1118 33.3954L79.9982 33.3852V41.8925H77.2334V36.4141L77.2329 36.4146ZM53.2388 41.6134C52.4247 41.3999 51.8067 40.8014 51.5574 39.9853C51.4969 39.7877 51.4929 39.5706 51.4929 36.3107V32.846L51.5917 32.566C51.7299 32.1743 51.9014 31.9065 52.1999 31.6137C52.3883 31.4288 52.5343 31.3234 52.7452 31.2199C53.3237 30.9368 52.8886 30.9588 58.1334 30.947L62.8146 30.9363V33.3529H58.7304C54.656 33.3529 54.6467 33.3534 54.4952 33.4266C54.3902 33.4778 54.3145 33.5495 54.2479 33.6627L54.1522 33.8255V36.3803C54.1522 38.9035 54.1532 38.9367 54.2254 39.075C54.2658 39.1518 54.3651 39.2624 54.4471 39.3202L54.5955 39.4252L58.7048 39.4344L62.8141 39.4436V41.6826L58.1508 41.6805C53.7144 41.6785 53.4753 41.6754 53.2382 41.6129L53.2388 41.6134ZM65.5927 41.6134C65.266 41.5279 64.9082 41.3436 64.6696 41.1383C64.3613 40.8736 64.2083 40.6719 64.0367 40.3053C63.8278 39.8599 63.8304 39.9085 63.8304 36.3281C63.8304 32.6382 63.8202 32.7933 64.0966 32.2337C64.3079 31.7978 64.657 31.4439 65.0899 31.2266C65.6741 30.9348 65.2159 30.9557 70.8463 30.9557H75.851L75.8602 32.1538L75.8695 33.3524L71.3951 33.3616L66.9213 33.3708L66.7949 33.4579C66.7121 33.52 66.6417 33.5971 66.5875 33.6852L66.5066 33.8255V36.3803C66.5066 38.9035 66.5076 38.9367 66.5798 39.075C66.6198 39.1518 66.7196 39.2624 66.8015 39.3202L66.95 39.4252L71.4095 39.4344L75.8684 39.4436V41.6826L70.855 41.6805C66.077 41.6785 65.8303 41.6759 65.5927 41.6134ZM94.2767 41.6283C93.9393 41.5556 93.5236 41.3354 93.2502 41.0851C92.9062 40.7778 92.6589 40.3773 92.5385 39.932C92.4781 39.7191 92.4745 39.4999 92.4745 36.3276C92.4745 32.5547 92.4596 32.7897 92.7254 32.2347C92.902 31.8651 93.3771 31.3909 93.7514 31.2102C94.3131 30.9389 93.8441 30.9604 99.4653 30.9476L104.496 30.9358V33.3534H100.067C95.7907 33.3534 95.634 33.356 95.5086 33.42C95.3483 33.5019 95.2746 33.5813 95.2055 33.7477C95.1584 33.8593 95.1517 34.2085 95.1517 36.3983C95.1517 38.4375 95.1604 38.9424 95.1988 39.0335C95.2613 39.183 95.4671 39.3607 95.632 39.4062C95.7205 39.4308 97.1915 39.4431 100.13 39.4431H104.496V41.6831L99.4996 41.6805C95.3642 41.678 94.4651 41.6687 94.2767 41.6283ZM105.721 40.3611V39.075L105.806 38.8917C105.971 38.5384 106.103 38.438 107.852 37.3429C108.758 36.7746 109.5 36.3025 109.5 36.2933C109.5 36.2759 107.319 34.872 106.545 34.3902C106.083 34.103 105.958 33.9903 105.843 33.7589L105.756 33.5848V30.9378H108.45L108.452 31.7519L108.453 32.5655L110.349 33.7538C111.391 34.4076 112.269 34.9427 112.298 34.9427C112.328 34.9427 113.214 34.3999 114.267 33.7364L116.182 32.5301L116.183 31.734L116.185 30.9378H118.88V32.1963C118.88 33.3995 118.876 33.464 118.804 33.6575C118.674 34.0088 118.479 34.1573 116.71 35.2601C115.834 35.8054 115.119 36.2646 115.121 36.281C115.124 36.3081 117.723 37.9926 118.215 38.286C118.492 38.4514 118.677 38.6382 118.772 38.8471C118.839 38.9966 118.843 39.0734 118.844 40.3258L118.844 41.6467H118.153C117.773 41.6467 117.166 41.6365 116.806 41.6237L116.15 41.6006V40.0114L114.247 38.8169C113.201 38.16 112.325 37.6224 112.299 37.6224C112.275 37.6224 111.391 38.1698 110.335 38.8384L108.416 40.0544V40.8506L108.415 41.6477H105.72L105.72 40.3616L105.721 40.3611ZM69.0441 36.3983V35.3128H75.8684V37.4827H69.0441V36.3983ZM97.6712 36.3983V35.3128H104.496V37.4827H97.6712V36.3983Z" fill="#293064"/>
<path d="M16.005 41.9385L39.2833 14.0374H49.6082L49.5191 14.1336L26.0662 42H21.0092C16.1964 42 15.9548 41.9969 16.005 41.9385Z" fill="#DF343D"/>
</svg>
