<svg width="140" height="56" viewBox="0 0 140 56" fill="none" xmlns="http://www.w3.org/2000/svg">
<rect x="0.5" y="0.5" width="139" height="55" rx="27.5" stroke="black"/>
<g clip-path="url(#clip0_1079_3090)">
<path d="M30.8567 37.8268C25.9424 37.8268 23.8281 33.8268 23.8281 30.7411C23.8281 26.6268 26.4567 23.3125 30.8567 23.3125C32.3996 23.3125 33.7138 23.5982 35.1996 24.1696V27.1982C34.571 26.9125 32.9138 26.2839 31.4281 26.2839C28.6281 26.2839 27.3138 28.9125 27.3138 30.3982C27.3138 32.3411 28.2853 34.8554 31.5424 34.8554C33.2567 34.8554 34.7424 34.1125 35.1996 33.8839V36.8554C33.771 37.5411 32.171 37.8268 30.8567 37.8268Z" fill="#31394C"/>
<path d="M39.5977 37.5429V20.0571L43.1405 18C43.1405 18 43.1405 23.4286 43.1405 24.4C43.8262 24 45.2548 23.3143 47.1405 23.3143C50.6834 23.3143 52.3405 25.8857 52.3405 28.6857V37.5429H48.8548V29.2571C48.8548 28.2286 48.3405 26.2286 45.9405 26.2286C45.0262 26.2286 43.1977 27.1429 43.1977 28.4571L43.1405 37.4857L39.5977 37.5429Z" fill="#31394C"/>
<path d="M64.686 26.8576C63.3146 25.9433 59.7718 26.629 57.886 27.4861V24.5147C59.486 23.7147 63.8289 22.629 66.3432 23.8861C68.4575 24.9147 69.0289 26.3433 69.0289 28.0576V36.6861C69.0289 36.6861 65.7718 38.0004 62.5146 38.0004C58.6289 38.0004 56.6289 36.1718 56.6289 33.429C56.6289 32.4576 56.9718 30.4004 58.9146 29.5433C60.7432 28.7433 63.5432 28.6861 65.6003 28.9718C65.5432 27.6004 65.2575 27.2004 64.686 26.8576ZM65.5432 31.7147C64.686 31.4861 63.6003 31.429 62.9146 31.429C60.7432 31.429 60.0003 32.4576 60.0003 33.3718C60.0003 33.829 60.1146 34.1718 60.4003 34.5147C60.6861 34.8004 61.6003 35.429 62.9146 35.429C63.9432 35.429 64.686 35.3147 65.486 35.029V31.7147H65.5432Z" fill="#31394C"/>
<path d="M73.3711 37.544V29.6011C73.3711 26.0011 76.5711 23.4297 79.8282 23.4297C80.8568 23.4297 82.1139 23.4297 82.1139 23.4297V26.4583C80.7425 26.4583 80.3997 26.4583 79.8854 26.4583C77.714 26.4583 76.8568 28.4583 76.8568 29.4297V37.4868L73.3711 37.544Z" fill="#31394C"/>
<path d="M90.9156 37.941C89.4871 37.941 88.4013 37.5981 87.6585 36.9124C86.9156 36.2267 86.5156 35.1981 86.5156 33.8267V21.8267L90.1728 19.7695V23.1981H93.3728V26.341H90.1728V33.1981C90.1728 35.2552 92.4585 34.7981 93.3728 34.341V37.4267C92.9728 37.6552 91.7156 37.941 90.9156 37.941Z" fill="#31394C"/>
<path d="M110.172 37.944C109.2 37.944 108.343 37.8297 107.657 37.6011C106.972 37.3725 106.286 37.144 105.657 36.8583V33.7154C107.257 34.5725 108.914 35.3154 110.286 35.3154C111.657 35.3154 112.4 34.6868 112.4 33.8868C112.4 32.344 110 32.344 108.114 31.6011C106.286 30.9154 105.543 29.4868 105.543 27.8868C105.543 25.2583 107.657 23.4297 110.972 23.4297C113.372 23.4297 114.743 24.2868 115.314 24.5725V27.4297C114.686 27.0868 113.029 26.0583 111.372 26.0583C110.686 26.0583 109.086 26.4583 109.086 27.4297C109.086 28.2297 109.543 28.744 111.657 29.3154C113.886 29.8868 115.886 30.6868 115.886 33.4868C115.943 36.2297 113.772 37.944 110.172 37.944Z" fill="#31394C"/>
<path d="M97.7148 37.5421V25.2564L101.201 23.1992L101.258 37.5421H97.7148Z" fill="#31394C"/>
<path d="M99.4863 21.9413C100.465 21.9413 101.258 21.1482 101.258 20.1699C101.258 19.1915 100.465 18.3984 99.4863 18.3984C98.5079 18.3984 97.7148 19.1915 97.7148 20.1699C97.7148 21.1482 98.5079 21.9413 99.4863 21.9413Z" fill="#31394C"/>
</g>
<defs>
<clipPath id="clip0_1079_3090">
<rect width="92" height="20" fill="white" transform="translate(24 18)"/>
</clipPath>
</defs>
</svg>
