<svg width="92" height="20" viewBox="0 0 92 20" fill="none" xmlns="http://www.w3.org/2000/svg">
<g clip-path="url(#clip0_1047_4970)">
<path d="M6.8567 19.8268C1.94241 19.8268 -0.171875 15.8268 -0.171875 12.7411C-0.171875 8.62679 2.4567 5.3125 6.8567 5.3125C8.39955 5.3125 9.71384 5.59821 11.1996 6.16964V9.19821C10.571 8.9125 8.91384 8.28393 7.42813 8.28393C4.62813 8.28393 3.31384 10.9125 3.31384 12.3982C3.31384 14.3411 4.28527 16.8554 7.54241 16.8554C9.2567 16.8554 10.7424 16.1125 11.1996 15.8839V18.8554C9.77098 19.5411 8.17098 19.8268 6.8567 19.8268Z" fill="#31394C"/>
<path d="M15.5977 19.5429V2.05714L19.1405 0C19.1405 0 19.1405 5.42857 19.1405 6.4C19.8262 6 21.2548 5.31429 23.1405 5.31429C26.6834 5.31429 28.3405 7.88572 28.3405 10.6857V19.5429H24.8548V11.2571C24.8548 10.2286 24.3405 8.22857 21.9405 8.22857C21.0262 8.22857 19.1977 9.14286 19.1977 10.4571L19.1405 19.4857L15.5977 19.5429Z" fill="#31394C"/>
<path d="M40.686 8.85756C39.3146 7.94327 35.7718 8.62898 33.886 9.48613V6.5147C35.486 5.7147 39.8289 4.62898 42.3432 5.88613C44.4575 6.9147 45.0289 8.34327 45.0289 10.0576V18.6861C45.0289 18.6861 41.7718 20.0004 38.5146 20.0004C34.6289 20.0004 32.6289 18.1718 32.6289 15.429C32.6289 14.4576 32.9718 12.4004 34.9146 11.5433C36.7432 10.7433 39.5432 10.6861 41.6003 10.9718C41.5432 9.60041 41.2575 9.20041 40.686 8.85756ZM41.5432 13.7147C40.686 13.4861 39.6003 13.429 38.9146 13.429C36.7432 13.429 36.0003 14.4576 36.0003 15.3718C36.0003 15.829 36.1146 16.1718 36.4003 16.5147C36.6861 16.8004 37.6003 17.429 38.9146 17.429C39.9432 17.429 40.686 17.3147 41.486 17.029V13.7147H41.5432Z" fill="#31394C"/>
<path d="M49.3711 19.544V11.6011C49.3711 8.00112 52.5711 5.42969 55.8282 5.42969C56.8568 5.42969 58.1139 5.42969 58.1139 5.42969V8.45826C56.7425 8.45826 56.3997 8.45826 55.8854 8.45826C53.714 8.45826 52.8568 10.4583 52.8568 11.4297V19.4868L49.3711 19.544Z" fill="#31394C"/>
<path d="M66.9156 19.941C65.4871 19.941 64.4013 19.5981 63.6585 18.9124C62.9156 18.2267 62.5156 17.1981 62.5156 15.8267V3.82667L66.1728 1.76953V5.1981H69.3728V8.34096H66.1728V15.1981C66.1728 17.2552 68.4585 16.7981 69.3728 16.341V19.4267C68.9728 19.6552 67.7156 19.941 66.9156 19.941Z" fill="#31394C"/>
<path d="M86.1715 19.944C85.2001 19.944 84.343 19.8297 83.6573 19.6011C82.9715 19.3725 82.2858 19.144 81.6573 18.8583V15.7154C83.2573 16.5725 84.9144 17.3154 86.2858 17.3154C87.6573 17.3154 88.4001 16.6868 88.4001 15.8868C88.4001 14.344 86.0001 14.344 84.1144 13.6011C82.2858 12.9154 81.543 11.4868 81.543 9.88683C81.543 7.25826 83.6573 5.42969 86.9715 5.42969C89.3715 5.42969 90.743 6.28683 91.3144 6.57254V9.42969C90.6858 9.08683 89.0287 8.05826 87.3715 8.05826C86.6858 8.05826 85.0858 8.45826 85.0858 9.42969C85.0858 10.2297 85.543 10.744 87.6573 11.3154C89.8858 11.8868 91.8858 12.6868 91.8858 15.4868C91.943 18.2297 89.7715 19.944 86.1715 19.944Z" fill="#31394C"/>
<path d="M73.7148 19.5421V7.25636L77.2006 5.19922L77.2577 19.5421H73.7148Z" fill="#31394C"/>
<path d="M75.4863 3.94129C76.4646 3.94129 77.2577 3.1482 77.2577 2.16987C77.2577 1.19153 76.4646 0.398438 75.4863 0.398438C74.5079 0.398438 73.7148 1.19153 73.7148 2.16987C73.7148 3.1482 74.5079 3.94129 75.4863 3.94129Z" fill="#31394C"/>
</g>
<defs>
<clipPath id="clip0_1047_4970">
<rect width="92" height="20" fill="white"/>
</clipPath>
</defs>
</svg>
