<svg width="136" height="56" viewBox="0 0 136 56" fill="none" xmlns="http://www.w3.org/2000/svg">
<rect x="0.5" y="0.5" width="135" height="55" rx="27.5" stroke="#1A1A13"/>
<path d="M38.4279 34.1109L38.3728 34.1645C37.48 35.0737 36.4468 35.5556 35.382 35.5556C33.1597 35.5556 31.5466 33.8889 31.5466 31.5889C31.5466 29.2932 33.1597 27.624 35.382 27.624C36.4465 27.624 37.48 28.108 38.3728 29.0198L38.4279 29.0749L39.8574 27.3469L39.8191 27.3003C38.6305 25.8958 37.2044 25.2124 35.4511 25.2124C33.6917 25.2124 32.0835 25.8043 30.9242 26.8718C29.6649 28.028 29 29.6581 29 31.5889C29 33.5186 29.6649 35.1532 30.9244 36.3097C32.0835 37.3817 33.6917 37.9706 35.4511 37.9706C37.2044 37.9706 38.6305 37.2875 39.8191 35.8826L39.8574 35.8389L38.4279 34.1109ZM41.3016 37.7355H43.8265V25.4125H41.3016V37.7355ZM53.7165 35.056C53.043 35.466 52.4162 35.6724 51.8531 35.6724C51.0373 35.6724 50.6687 35.2417 50.6687 34.2831V27.7444H53.2401V25.4237H50.6687V21.5893L48.1939 22.9134V25.4237H46.0591V27.7442H48.1939V34.7C48.1939 36.595 49.3167 37.8898 50.9927 37.9235C52.1308 37.9457 52.8169 37.6068 53.2337 37.3589L53.258 37.3408L53.8659 34.9649L53.7165 35.056ZM55.8077 37.7355H58.3343V25.4125H55.8074L55.8077 37.7355ZM98.6035 20.7236V32.4787L99.3901 31.2546C99.3896 31.2598 102.924 26.1431 103.377 25.4907H104.952C104.617 25.9413 101.838 29.7645 101.838 29.7645C101.838 29.7645 105.458 37.3059 105.667 37.7355H104.12C104.035 37.5594 100.925 30.978 100.925 30.978L98.6037 34.2302V37.7355H97.1626V21.5463C97.2888 21.4738 98.2642 20.9147 98.6035 20.7236ZM86.766 26.9505C87.5094 25.8396 88.6739 25.2269 90.0365 25.2269C92.7535 25.2269 94.1936 26.9593 94.1936 30.2377V37.7355H92.7489V30.5484C92.7489 27.7592 91.7802 26.4644 89.6817 26.4644C87.673 26.4644 86.4738 27.9917 86.4738 30.5481V37.7355H85.0332V25.4907H86.4738V27.3897L86.766 26.9505ZM77.9089 25.2269C80.7047 25.2269 82.064 26.5053 82.064 29.1355V37.7355H80.6228V35.9492L80.3423 36.2581C79.2817 37.4281 78.0643 38.0001 76.6149 38.0001C75.4789 38.0001 72.836 37.6244 72.836 34.1386C72.836 31.2893 75.1888 30.2778 77.3925 30.2778C78.4992 30.2778 79.5922 30.5326 80.3856 30.977L80.6228 31.1085V29.3505C80.6228 27.4016 79.6707 26.4144 77.7893 26.4144C76.6289 26.4144 75.582 26.7071 74.5084 27.3122C74.4136 27.0947 74.0808 26.3585 73.9878 26.1485C75.1101 25.5573 76.4958 25.2269 77.9089 25.2269ZM74.2491 34.0184C74.2491 35.849 75.1979 36.8576 76.9213 36.8576C78.3884 36.8576 79.6912 36.1649 80.5956 34.9048L80.6228 34.8616V32.177L80.5425 32.1304C79.623 31.6062 78.6808 31.3949 77.2961 31.3949C75.3898 31.3949 74.2491 32.3753 74.2491 34.0184ZM63.1218 20.7236V27.2739L63.4008 26.9683C64.462 25.7966 65.6368 25.2269 66.9876 25.2269C69.6903 25.2269 71.2418 27.4793 71.2418 31.4076C71.2418 35.4124 69.4797 38.0001 66.7516 38.0001C65.4224 38.0001 64.3581 37.4848 63.4021 36.3793L63.1218 36.053V37.7355H61.6836V21.5463C61.8061 21.4738 62.7836 20.9147 63.1218 20.7236ZM63.156 28.3408L63.1218 28.3861V34.7601L63.1475 34.7989C63.9424 36.0289 65.2374 36.7644 66.6156 36.7644C68.7444 36.7644 69.8232 34.9706 69.8232 31.4338C69.8232 28.2743 68.6279 26.4644 66.5436 26.4644C65.2804 26.4644 64.1408 27.0955 63.156 28.3408Z" fill="#003B70"/>
<path fill-rule="evenodd" clip-rule="evenodd" d="M59.8467 24.2257C57.5351 20.953 53.6971 19 49.792 19C45.888 19 42.0489 20.9528 39.7414 24.2257L39.623 24.3943H42.5333L42.5654 24.3593C44.5463 22.3154 47.1317 21.2345 49.7917 21.2345C52.4518 21.2345 55.0367 22.3154 57.0212 24.3593L57.0536 24.3943H59.9628L59.8467 24.2257Z" fill="#D9261C"/>
</svg>
