<svg width="25" height="24" viewBox="0 0 25 24" fill="none" xmlns="http://www.w3.org/2000/svg">
<path d="M22.5521 15.7487C22.1218 15.5462 21.5903 15.7487 21.3878 16.179C19.7173 19.8491 16.0472 22.2283 12.0227 22.2283C6.35306 22.2283 1.74646 17.6217 1.74646 11.9521C1.74646 7.09236 5.18875 2.86542 9.94722 1.8783C10.4281 1.77705 10.7319 1.32145 10.6306 0.840545C10.5294 0.359637 10.0738 0.0559048 9.59287 0.157149C4.04976 1.32145 0 6.28241 0 11.9774C0 18.6089 5.39124 24.0001 12.0227 24.0001C16.7306 24.0001 21.0334 21.2159 22.9824 16.9383C23.1849 16.4827 22.9824 15.9512 22.5521 15.7487Z" fill="#00A2FF"/>
<path d="M21.6406 8.3572C21.7671 8.71155 22.0962 8.91404 22.4505 8.91404C22.5518 8.91404 22.653 8.88873 22.7543 8.86342C23.2099 8.68624 23.4377 8.18002 23.2605 7.74973C23.0327 7.16758 22.7796 6.58543 22.4505 6.0539C22.2227 5.62361 21.6912 5.49706 21.2609 5.72485C20.8306 5.95265 20.7041 6.5095 20.9319 6.91447C21.2356 7.37007 21.4634 7.85098 21.6406 8.3572Z" fill="#00A2FF"/>
<path d="M13.1918 1.75128C13.7233 1.8019 14.2549 1.90315 14.7611 2.05501C14.837 2.08032 14.9129 2.08032 14.9889 2.08032C15.3685 2.08032 15.7229 1.82721 15.8241 1.44755C15.9507 0.991951 15.6723 0.511042 15.2167 0.359177C14.6092 0.182 14.0018 0.0807557 13.369 0.0048227C12.8881 -0.0457993 12.4578 0.308555 12.4072 0.764152C12.3565 1.27037 12.7109 1.70066 13.1918 1.75128Z" fill="#00A2FF"/>
<path d="M17.6913 3.3965C18.1469 3.70023 18.5772 4.02928 18.9569 4.38363C19.1341 4.53549 19.3366 4.61143 19.539 4.61143C19.7668 4.61143 20.02 4.51018 20.1971 4.33301C20.5262 3.97865 20.5009 3.42181 20.1465 3.09277C19.6909 2.66248 19.1847 2.28282 18.6532 1.92846C18.2482 1.65004 17.7166 1.7766 17.4382 2.18157C17.1598 2.58655 17.2864 3.11808 17.6913 3.3965Z" fill="#00A2FF"/>
<path d="M24.048 11.4206C24.0227 10.9397 23.6177 10.5347 23.1368 10.5853C22.6559 10.6107 22.2762 11.0156 22.3015 11.4965C22.3015 11.6484 22.3015 11.8003 22.3015 11.9774C22.3015 12.3571 22.2762 12.7368 22.2509 13.1164C22.2003 13.5973 22.5546 14.0276 23.0356 14.0783C23.0609 14.0783 23.1115 14.0783 23.1368 14.0783C23.5671 14.0783 23.9467 13.7492 23.9974 13.2936C24.048 12.8633 24.0733 12.4077 24.0733 11.9774C24.048 11.775 24.048 11.5978 24.048 11.4206Z" fill="#00A2FF"/>
<path d="M11.8455 12.8383L16.3255 13.7242C16.3762 13.7242 16.4268 13.7495 16.5027 13.7495C16.9077 13.7495 17.2873 13.4711 17.3633 13.0408C17.4645 12.5599 17.1355 12.1043 16.6799 12.003L12.9085 11.2437V5.82717C12.9085 5.34626 12.5289 4.94128 12.0227 4.94128C11.5164 4.94128 11.1368 5.32095 11.1368 5.82717V11.9524C11.1368 12.3827 11.4405 12.7371 11.8455 12.8383Z" fill="#00A2FF"/>
</svg>
