<svg width="1120" height="943" viewBox="0 0 1120 943" fill="none" xmlns="http://www.w3.org/2000/svg">
<g filter="url(#filter0_dddd_82_57210)">
<rect x="21" y="107" width="729" height="729" rx="364.5" fill="#00A2FF"/>
</g>
<g clip-path="url(#clip0_82_57210)">
<path d="M452.689 343.951C449.127 343.951 445.628 344.32 442.189 344.995C442.189 344.811 442.189 344.565 442.189 344.381C442.189 312.699 417.015 286.911 386.07 286.911C355.125 286.911 329.951 312.699 329.951 344.381C329.951 344.565 329.951 344.811 329.951 344.995C326.451 344.32 322.951 343.951 319.451 343.951C288.506 343.951 263.332 369.739 263.332 401.421C263.332 433.104 288.506 458.892 319.451 458.892H452.75C483.695 458.892 508.869 433.104 508.869 401.421C508.869 369.739 483.695 343.951 452.75 343.951H452.689ZM452.689 446.55H319.39C295.198 446.55 275.551 426.288 275.551 401.36C275.551 376.432 295.198 356.17 319.39 356.17C324.547 356.17 329.705 357.152 334.678 359.056C336.705 359.854 339.038 359.486 340.757 358.073C342.476 356.661 343.274 354.451 342.906 352.302C342.415 349.477 342.169 346.837 342.169 344.381C342.169 319.453 361.817 299.191 386.009 299.191C410.2 299.191 429.848 319.453 429.848 344.381C429.848 346.899 429.602 349.477 429.111 352.302C428.743 354.451 429.541 356.661 431.26 358.073C432.979 359.486 435.312 359.854 437.339 359.056C442.312 357.152 447.47 356.17 452.627 356.17C476.819 356.17 496.467 376.432 496.467 401.36C496.467 426.288 476.819 446.55 452.627 446.55H452.689Z" fill="white"/>
<path d="M452.689 540.44C449.127 540.44 445.628 540.808 442.189 541.483C442.189 541.299 442.189 541.054 442.189 540.869C442.189 509.187 417.015 483.399 386.07 483.399C355.125 483.399 329.951 509.187 329.951 540.869C329.951 541.054 329.951 541.299 329.951 541.483C326.451 540.808 322.951 540.44 319.451 540.44C288.506 540.44 263.332 566.228 263.332 597.91C263.332 629.592 288.506 655.38 319.451 655.38H452.75C483.695 655.38 508.869 629.592 508.869 597.91C508.869 566.228 483.695 540.44 452.75 540.44H452.689Z" fill="white"/>
<path d="M551.8 544.797H538.169C558.922 525.456 570.22 502.309 570.22 478.363C570.22 454.417 558.922 430.901 537.555 411.314C535.038 409.043 531.17 409.227 528.898 411.683C526.626 414.2 526.749 418.068 529.266 420.34C548.055 437.532 558.001 457.61 558.001 478.363C558.001 499.116 547.195 520.667 527.301 538.105V520.176C527.301 516.799 524.538 514.036 521.161 514.036C517.784 514.036 515.021 516.799 515.021 520.176V550.876C515.021 550.876 515.144 551.306 515.144 551.551C515.144 551.981 515.267 552.349 515.39 552.779C515.513 553.209 515.697 553.577 515.881 553.946C516.004 554.13 516.004 554.376 516.127 554.56C516.188 554.683 516.372 554.683 516.434 554.805C516.863 555.297 517.355 555.726 517.907 556.095C518.091 556.218 518.276 556.402 518.521 556.525C519.319 556.893 520.179 557.139 521.1 557.139H551.8C555.177 557.139 557.94 554.376 557.94 550.999C557.94 547.622 555.177 544.859 551.8 544.859V544.797Z" fill="white"/>
<path d="M250.917 514.109C247.54 514.109 244.777 516.872 244.777 520.249V538.178C224.883 520.679 214.077 499.803 214.077 478.436C214.077 457.069 224.024 437.605 242.812 420.413C245.329 418.142 245.514 414.274 243.18 411.756C240.909 409.239 236.979 409.055 234.523 411.388C213.156 430.974 201.858 454.183 201.858 478.436C201.858 502.689 213.156 525.468 233.909 544.871H220.278C216.901 544.871 214.138 547.634 214.138 551.011C214.138 554.388 216.901 557.15 220.278 557.15H250.978C251.899 557.15 252.759 556.905 253.557 556.537C253.803 556.414 253.925 556.291 254.171 556.107C254.723 555.738 255.215 555.37 255.644 554.817C255.706 554.695 255.89 554.695 255.951 554.572C256.074 554.388 256.136 554.142 256.197 553.958C256.381 553.589 256.565 553.221 256.688 552.791C256.811 552.361 256.872 551.993 256.934 551.563C256.934 551.318 257.057 551.133 257.057 550.888V520.188C257.057 516.811 254.294 514.048 250.917 514.048V514.109Z" fill="white"/>
</g>
<defs>
<filter id="filter0_dddd_82_57210" x="0.464788" y="0.901413" width="1119.17" height="941.197" filterUnits="userSpaceOnUse" color-interpolation-filters="sRGB">
<feFlood flood-opacity="0" result="BackgroundImageFix"/>
<feColorMatrix in="SourceAlpha" type="matrix" values="0 0 0 0 0 0 0 0 0 0 0 0 0 0 0 0 0 0 127 0" result="hardAlpha"/>
<feOffset dx="17.1127"/>
<feGaussianBlur stdDeviation="18.8239"/>
<feColorMatrix type="matrix" values="0 0 0 0 0 0 0 0 0 0 0 0 0 0 0 0 0 0 0.1 0"/>
<feBlend mode="normal" in2="BackgroundImageFix" result="effect1_dropShadow_82_57210"/>
<feColorMatrix in="SourceAlpha" type="matrix" values="0 0 0 0 0 0 0 0 0 0 0 0 0 0 0 0 0 0 127 0" result="hardAlpha"/>
<feOffset dx="65.0282"/>
<feGaussianBlur stdDeviation="32.5141"/>
<feColorMatrix type="matrix" values="0 0 0 0 0 0 0 0 0 0 0 0 0 0 0 0 0 0 0.09 0"/>
<feBlend mode="normal" in2="effect1_dropShadow_82_57210" result="effect2_dropShadow_82_57210"/>
<feColorMatrix in="SourceAlpha" type="matrix" values="0 0 0 0 0 0 0 0 0 0 0 0 0 0 0 0 0 0 127 0" result="hardAlpha"/>
<feOffset dx="147.169"/>
<feGaussianBlur stdDeviation="44.493"/>
<feColorMatrix type="matrix" values="0 0 0 0 0 0 0 0 0 0 0 0 0 0 0 0 0 0 0.05 0"/>
<feBlend mode="normal" in2="effect2_dropShadow_82_57210" result="effect3_dropShadow_82_57210"/>
<feColorMatrix in="SourceAlpha" type="matrix" values="0 0 0 0 0 0 0 0 0 0 0 0 0 0 0 0 0 0 127 0" result="hardAlpha"/>
<feOffset dx="263.535"/>
<feGaussianBlur stdDeviation="53.0493"/>
<feColorMatrix type="matrix" values="0 0 0 0 0 0 0 0 0 0 0 0 0 0 0 0 0 0 0.01 0"/>
<feBlend mode="normal" in2="effect3_dropShadow_82_57210" result="effect4_dropShadow_82_57210"/>
<feBlend mode="normal" in="SourceGraphic" in2="effect4_dropShadow_82_57210" result="shape"/>
</filter>
<clipPath id="clip0_82_57210">
<rect width="373.056" height="369.634" fill="white" transform="translate(198.972 286.684)"/>
</clipPath>
</defs>
</svg>
