<svg width="200" height="200" viewBox="0 0 200 200" fill="none" xmlns="http://www.w3.org/2000/svg">
<rect width="200" height="200" rx="100" fill="#00A2FF"/>
<path fill-rule="evenodd" clip-rule="evenodd" d="M141.55 125.458H58.4499C57.0069 125.444 55.6271 124.859 54.6077 123.83C53.5883 122.801 53.0109 121.41 53 119.956V63.4384C53.0138 61.9912 53.5941 60.608 54.6146 59.5896C55.6352 58.5712 57.0135 57.9999 58.4499 58H141.55C142.986 57.9999 144.365 58.5712 145.385 59.5896C146.406 60.608 146.986 61.9912 147 63.4384V119.956C146.989 121.41 146.412 122.801 145.392 123.83C144.373 124.859 142.993 125.444 141.55 125.458ZM58.4499 60.7139C58.0917 60.7098 57.7362 60.7771 57.4039 60.912C57.0716 61.0469 56.7691 61.2467 56.5138 61.5C56.2586 61.7533 56.0556 62.055 55.9166 62.3877C55.7776 62.7203 55.7053 63.0775 55.704 63.4384V119.956C55.6998 120.321 55.7679 120.683 55.9043 121.021C56.0406 121.359 56.2426 121.667 56.4982 121.925C56.7539 122.184 57.0582 122.389 57.3933 122.527C57.7284 122.666 58.0876 122.736 58.4499 122.733H141.55C141.913 122.736 142.273 122.666 142.608 122.527C142.944 122.389 143.249 122.184 143.505 121.926C143.762 121.668 143.965 121.36 144.102 121.022C144.24 120.684 144.309 120.321 144.306 119.956V63.4384C144.304 63.077 144.23 62.7196 144.09 62.3869C143.95 62.0541 143.746 61.7525 143.49 61.4994C143.234 61.2462 142.931 61.0466 142.598 60.9118C142.265 60.777 141.909 60.7098 141.55 60.7139H58.4499Z" fill="white"/>
<path fill-rule="evenodd" clip-rule="evenodd" d="M110.631 141.995H89.3135C89.1074 141.998 88.9037 141.949 88.7208 141.853C88.5379 141.757 88.3815 141.617 88.2654 141.446C88.1397 141.281 88.0496 141.092 88.0009 140.89C87.9521 140.688 87.9459 140.478 87.9825 140.273L92.1223 123.736C92.1911 123.436 92.3593 123.167 92.5992 122.976C92.8391 122.784 93.1365 122.68 93.4428 122.68H106.554C106.86 122.68 107.158 122.784 107.398 122.976C107.638 123.167 107.806 123.436 107.875 123.736L111.899 140.273C111.947 140.473 111.952 140.681 111.915 140.883C111.877 141.086 111.796 141.277 111.679 141.446C111.554 141.608 111.395 141.741 111.215 141.836C111.034 141.93 110.835 141.985 110.631 141.995ZM91.0742 139.281H108.891L105.506 125.458H94.4909L91.0742 139.281Z" fill="white"/>
<path fill-rule="evenodd" clip-rule="evenodd" d="M120.223 141.995H79.6737C79.4826 142.012 79.2901 141.988 79.1085 141.926C78.9268 141.864 78.76 141.764 78.6186 141.634C78.4772 141.503 78.3643 141.344 78.2871 141.167C78.2098 140.991 78.1699 140.799 78.1699 140.606C78.1699 140.413 78.2098 140.222 78.2871 140.045C78.3643 139.868 78.4772 139.709 78.6186 139.578C78.76 139.448 78.9268 139.348 79.1085 139.286C79.2901 139.224 79.4826 139.201 79.6737 139.217H120.223C120.414 139.201 120.606 139.224 120.788 139.286C120.97 139.348 121.137 139.448 121.278 139.578C121.419 139.709 121.532 139.868 121.609 140.045C121.687 140.222 121.727 140.413 121.727 140.606C121.727 140.799 121.687 140.991 121.609 141.167C121.532 141.344 121.419 141.503 121.278 141.634C121.137 141.764 120.97 141.864 120.788 141.926C120.606 141.988 120.414 142.012 120.223 141.995Z" fill="white"/>
<path fill-rule="evenodd" clip-rule="evenodd" d="M145.628 114.961H54.3217C53.977 114.931 53.656 114.771 53.4221 114.514C53.1883 114.257 53.0586 113.921 53.0586 113.572C53.0586 113.224 53.1883 112.888 53.4221 112.63C53.656 112.373 53.977 112.214 54.3217 112.184H145.628C145.973 112.214 146.294 112.373 146.528 112.63C146.762 112.888 146.891 113.224 146.891 113.572C146.891 113.921 146.762 114.257 146.528 114.514C146.294 114.771 145.973 114.931 145.628 114.961Z" fill="white"/>
<path fill-rule="evenodd" clip-rule="evenodd" d="M137.797 120.178H135.156C134.811 120.147 134.49 119.988 134.256 119.731C134.022 119.474 133.893 119.138 133.893 118.789C133.893 118.44 134.022 118.104 134.256 117.847C134.49 117.59 134.811 117.431 135.156 117.4H137.797C137.988 117.384 138.18 117.407 138.362 117.469C138.544 117.531 138.71 117.631 138.852 117.761C138.993 117.892 139.106 118.051 139.183 118.228C139.261 118.405 139.301 118.596 139.301 118.789C139.301 118.982 139.261 119.173 139.183 119.35C139.106 119.527 138.993 119.686 138.852 119.817C138.71 119.947 138.544 120.047 138.362 120.109C138.18 120.171 137.988 120.194 137.797 120.178Z" fill="white"/>
<path fill-rule="evenodd" clip-rule="evenodd" d="M78.6786 83.3125H64.0058C63.8251 83.3139 63.646 83.2791 63.4788 83.21C63.3115 83.141 63.1596 83.0392 63.0319 82.9104C62.9041 82.7817 62.803 82.6286 62.7345 82.4602C62.666 82.2917 62.6315 82.1112 62.6329 81.9291V67.2612C62.6383 66.896 62.7847 66.5473 63.041 66.289C63.2973 66.0308 63.6434 65.8833 64.0058 65.8778H78.6786C79.0318 65.8965 79.3648 66.0499 79.61 66.3067C79.8552 66.5636 79.9943 66.9048 79.9991 67.2612V82.0453C79.9804 82.3862 79.8334 82.7071 79.5881 82.9425C79.3427 83.178 79.0174 83.3103 78.6786 83.3125ZM65.3892 80.6513H77.3056V68.5495H65.3892V80.6513Z" fill="white"/>
<path fill-rule="evenodd" clip-rule="evenodd" d="M107.306 83.3124H92.6331C92.4524 83.3138 92.2732 83.279 92.106 83.21C91.9388 83.1409 91.7869 83.0391 91.6591 82.9104C91.5314 82.7816 91.4303 82.6286 91.3618 82.4601C91.2933 82.2916 91.2587 82.1111 91.2601 81.929V67.2611C91.256 67.0758 91.2882 66.8915 91.3551 66.7188C91.422 66.5461 91.5221 66.3884 91.6498 66.2549C91.7774 66.1214 91.93 66.0147 92.0988 65.9409C92.2675 65.8671 92.4491 65.8277 92.6331 65.825H107.306C107.492 65.8249 107.675 65.8623 107.847 65.9348C108.018 66.0074 108.173 66.1137 108.303 66.2475C108.433 66.3812 108.535 66.5398 108.603 66.7139C108.671 66.888 108.704 67.074 108.7 67.2611V82.0452C108.678 82.3982 108.52 82.7285 108.259 82.9654C107.999 83.2023 107.657 83.3269 107.306 83.3124ZM94.0479 80.6513H106.059V68.5494H94.0479V80.6513Z" fill="white"/>
<path fill-rule="evenodd" clip-rule="evenodd" d="M136.035 83.3125H121.362C121.18 83.3153 121 83.2815 120.832 83.2131C120.663 83.1447 120.51 83.0431 120.381 82.9142C120.252 82.7853 120.15 82.6318 120.081 82.4626C120.012 82.2935 119.977 82.1121 119.979 81.9291V67.2612C119.987 66.895 120.135 66.5463 120.393 66.2883C120.651 66.0303 120.999 65.8832 121.362 65.8778H136.035C136.398 65.8832 136.745 66.0303 137.003 66.2883C137.261 66.5463 137.41 66.895 137.418 67.2612V82.0453C137.394 82.3954 137.237 82.7226 136.979 82.9586C136.721 83.1947 136.383 83.3215 136.035 83.3125ZM122.704 80.6513H134.662V68.5495H122.704V80.6513Z" fill="white"/>
<path fill-rule="evenodd" clip-rule="evenodd" d="M107.307 107.02H63.9591C63.7784 107.021 63.5992 106.986 63.432 106.917C63.2648 106.848 63.1129 106.747 62.9851 106.618C62.8573 106.489 62.7563 106.336 62.6878 106.167C62.6193 105.999 62.5847 105.818 62.5861 105.636V89.4373C62.5833 89.2544 62.6168 89.0727 62.6847 88.903C62.7526 88.7333 62.8534 88.579 62.9813 88.4491C63.1093 88.3193 63.2616 88.2165 63.4295 88.1468C63.5974 88.0771 63.7775 88.0419 63.9591 88.0434H107.307C107.486 88.0461 107.662 88.0844 107.826 88.1559C107.991 88.2275 108.139 88.3309 108.264 88.4604C108.388 88.5898 108.487 88.7427 108.552 88.9103C108.618 89.0779 108.651 89.257 108.648 89.4373V105.594C108.663 105.779 108.639 105.965 108.578 106.139C108.517 106.314 108.419 106.474 108.293 106.609C108.166 106.743 108.013 106.849 107.843 106.92C107.673 106.991 107.49 107.025 107.307 107.02ZM65.3844 104.359H105.944V90.8629H65.3844V104.359Z" fill="white"/>
<path fill-rule="evenodd" clip-rule="evenodd" d="M135.988 90.8629H121.388C121.197 90.8797 121.005 90.8563 120.823 90.7941C120.642 90.732 120.475 90.6325 120.333 90.5019C120.192 90.3713 120.079 90.2125 120.002 90.0356C119.925 89.8587 119.885 89.6675 119.885 89.4742C119.885 89.281 119.925 89.0898 120.002 88.9129C120.079 88.736 120.192 88.5772 120.333 88.4466C120.475 88.316 120.642 88.2165 120.823 88.1544C121.005 88.0922 121.197 88.0688 121.388 88.0856H135.988C136.333 88.1159 136.654 88.2754 136.887 88.5324C137.121 88.7895 137.251 89.1255 137.251 89.4742C137.251 89.823 137.121 90.159 136.887 90.4161C136.654 90.6731 136.333 90.8326 135.988 90.8629Z" fill="white"/>
<path fill-rule="evenodd" clip-rule="evenodd" d="M135.988 98.9414H121.388C121.197 98.9582 121.005 98.9348 120.823 98.8726C120.642 98.8105 120.475 98.7109 120.333 98.5804C120.192 98.4498 120.079 98.291 120.002 98.1141C119.925 97.9372 119.885 97.746 119.885 97.5527C119.885 97.3595 119.925 97.1683 120.002 96.9914C120.079 96.8145 120.192 96.6557 120.333 96.5251C120.475 96.3945 120.642 96.295 120.823 96.2329C121.005 96.1707 121.197 96.1473 121.388 96.1641H135.988C136.333 96.1944 136.654 96.3538 136.887 96.6109C137.121 96.868 137.251 97.204 137.251 97.5527C137.251 97.9015 137.121 98.2375 136.887 98.4946C136.654 98.7516 136.333 98.9111 135.988 98.9414Z" fill="white"/>
<path fill-rule="evenodd" clip-rule="evenodd" d="M135.988 107.02H121.388C121.197 107.037 121.005 107.013 120.823 106.951C120.642 106.889 120.475 106.789 120.333 106.659C120.192 106.528 120.079 106.369 120.002 106.192C119.925 106.016 119.885 105.824 119.885 105.631C119.885 105.438 119.925 105.247 120.002 105.07C120.079 104.893 120.192 104.734 120.333 104.603C120.475 104.473 120.642 104.373 120.823 104.311C121.005 104.249 121.197 104.226 121.388 104.242H135.988C136.333 104.273 136.654 104.432 136.887 104.689C137.121 104.946 137.251 105.282 137.251 105.631C137.251 105.98 137.121 106.316 136.887 106.573C136.654 106.83 136.333 106.989 135.988 107.02Z" fill="white"/>
</svg>
