<svg width="36" height="36" viewBox="0 0 36 36" fill="none" xmlns="http://www.w3.org/2000/svg">
<rect width="36" height="36" rx="18" fill="white"/>
<path d="M25.2694 22.2937C26.118 20.8823 27.2792 18.9488 26.9394 14.9896C26.5887 10.8921 23.9501 8.09483 18.8823 8.00165C13.9979 7.91288 11.3766 11.4193 10.7926 13.9804C10.3928 15.7372 10.5764 16.4411 10.6972 16.9099C10.739 17.0715 10.769 17.1869 10.7599 17.3032C10.7463 17.4807 10.3483 18.1163 10.0294 18.6276C9.32893 19.7461 8.91281 20.4527 9.01547 20.846C9.13449 21.296 9.73687 21.4185 10.2693 21.5251C10.4528 21.5615 10.7253 21.6183 10.818 21.6707C10.8062 22.2796 10.8389 22.7368 10.9134 23.0271C10.9416 23.1318 11.0225 23.2153 11.1597 23.2818C10.9825 23.439 10.9779 23.5526 11.0134 23.6547C11.0388 23.7275 11.0897 23.7958 11.1878 23.921C11.2623 24.0142 11.4322 24.2343 11.4368 24.3142V24.387C11.4231 25.1709 11.4713 26.2459 12.0391 26.5415C12.7741 26.9259 14.0134 26.7048 15.0118 26.5282C15.4143 26.458 15.9095 26.3693 16.0612 26.3986C16.1448 26.5371 16.1593 26.98 16.1239 27.4141C16.1166 27.494 16.0821 27.7665 16.063 27.9095C16.0557 27.9574 16.0957 28 16.1448 28H24.4989C24.548 28 24.587 27.9592 24.5807 27.9112C24.567 27.7861 24.5407 27.5588 24.5298 27.4132C24.4744 26.7812 24.3762 25.3609 24.4953 24.0747C24.5434 23.4977 24.865 22.9659 25.2693 22.294L25.2694 22.2937ZM24.072 27.5382H16.5801C16.6246 27.097 16.6546 26.3585 16.3938 26.07C16.203 25.8587 15.8078 25.9173 14.9283 26.0744C14.0516 26.2315 12.8487 26.4428 12.2582 26.1357C12.1446 26.0762 11.8793 25.7859 11.9021 24.3904V24.3106C11.9021 24.0833 11.7113 23.8383 11.5577 23.6421C11.5441 23.6244 11.5296 23.6057 11.5132 23.5853C11.5922 23.5258 11.7176 23.4486 11.8366 23.3856C11.8366 23.3856 12.1555 23.2036 12.1737 23.1219C12.1873 23.058 11.753 22.9604 11.753 22.9604C11.634 22.9355 11.4714 22.908 11.3506 22.8671C11.3088 22.679 11.2688 22.3265 11.2806 21.6714V21.6261C11.2806 21.2649 10.8336 21.1761 10.3593 21.0811C10.0404 21.0172 9.50802 20.908 9.46168 20.7331C9.40081 20.4988 10.0668 19.4353 10.422 18.8654C10.9035 18.0949 11.1988 17.6111 11.2197 17.3359C11.2334 17.1477 11.1916 16.9861 11.1434 16.7971C11.0317 16.3718 10.8663 15.7309 11.2415 14.0789C11.7976 11.6696 14.2796 8.35852 18.876 8.45624C23.465 8.55389 26.1472 11.1762 26.477 15.0261C26.805 18.8414 25.6866 20.7028 24.8671 22.062C24.4509 22.7553 24.0903 23.3554 24.0294 24.0274C23.9022 25.4317 24.0157 26.9481 24.072 27.5382Z" fill="#00A2FF"/>
<path d="M24.6814 19.2303C24.9812 19.162 25.2283 18.9232 25.2974 18.6285C25.4091 18.1669 25.1229 17.7559 24.7086 17.6396V16.901C24.7086 16.5806 24.4433 16.3213 24.1153 16.3213H22.0729L22.0747 15.6485C22.0747 15.3529 21.8303 15.1123 21.526 15.1123H20.9191V14.3009C20.9191 14.2326 20.9745 14.1758 21.0472 14.1758H22.2592C22.3782 14.5806 22.8007 14.8602 23.2713 14.751C23.5711 14.6809 23.8155 14.4421 23.8873 14.1491C24.0172 13.6085 23.5993 13.1239 23.066 13.1239C22.6826 13.1239 22.3591 13.3786 22.2592 13.7213H21.049C20.721 13.7213 20.4557 13.9805 20.4557 14.301V15.1123H19.8024L19.8015 11.3104C19.8015 11.242 19.8597 11.1852 19.9296 11.1852H21.188C21.307 11.59 21.7295 11.8696 22.2001 11.7604C22.5 11.6903 22.7443 11.4515 22.8161 11.1586C22.946 10.618 22.5281 10.1333 21.9948 10.1333C21.6114 10.1333 21.2898 10.3881 21.188 10.7307H19.9296C19.6016 10.7307 19.3364 10.9899 19.3364 11.3104V15.1123H18.5041V12.5673C18.5041 12.2469 18.2388 11.9877 17.9108 11.9877H17.1549C17.0359 11.5829 16.6134 11.3032 16.1428 11.4124C15.843 11.4826 15.5986 11.7214 15.5268 12.0143C15.3969 12.5549 15.8148 13.0369 16.3481 13.0369C16.7315 13.0369 17.0531 12.7821 17.1549 12.4395H17.9108C17.9808 12.4395 18.0389 12.4936 18.0389 12.5647V15.1096H17.7573C17.4548 15.1096 17.2085 15.3484 17.2085 15.6458V16.237H15.4296C15.3878 16.237 15.3533 16.2708 15.3533 16.3116V16.6188C15.3533 16.6596 15.3878 16.6933 15.4296 16.6933H17.2085V17.2934L14.1058 17.2943C14.0358 17.2943 13.9777 17.2401 13.9777 17.1691V16.4306C14.392 16.3143 14.6782 15.9015 14.5664 15.4417C14.4947 15.1487 14.2502 14.9099 13.9504 14.8398C13.3971 14.7129 12.9038 15.1212 12.9038 15.6423C12.9038 16.0169 13.1645 16.3329 13.5152 16.4306V17.1691C13.5152 17.4896 13.7805 17.7488 14.1085 17.7488H17.2113V18.4306H15.8712V20.9783H14.4547C14.3357 20.5735 13.9132 20.2939 13.4408 20.4057C13.141 20.4758 12.8966 20.7146 12.8266 21.0076C12.6967 21.5482 13.1146 22.0302 13.6479 22.0302C14.0313 22.0302 14.353 21.7754 14.4547 21.4328H16.3363V18.8869H17.2113V19.3325C17.2113 19.6281 17.4557 19.8687 17.76 19.8687H18.1762V21.3689C18.1762 21.4097 18.2107 21.4435 18.2525 21.4435H18.5668C18.6086 21.4435 18.6432 21.4097 18.6432 21.3689V19.8687H19.2964V22.8639C19.2964 22.9322 19.241 22.989 19.1683 22.989H17.9099C17.7909 22.5842 17.3685 22.3046 16.8978 22.4138C16.598 22.4839 16.3536 22.7227 16.2818 23.0156C16.1519 23.5563 16.5698 24.0383 17.1031 24.0383C17.4865 24.0383 17.81 23.7835 17.9099 23.4409H19.1646C19.4926 23.4409 19.7579 23.1817 19.7579 22.8612V19.8687H20.5902V21.6068C20.5902 21.9273 20.8555 22.1865 21.1834 22.1865H21.9394C22.0584 22.5913 22.4809 22.8709 22.9515 22.7617C23.2513 22.6916 23.4957 22.4528 23.5675 22.1599C23.6974 21.6193 23.2795 21.1346 22.7462 21.1346C22.3628 21.1346 22.0393 21.3894 21.9394 21.732H21.1834C21.1135 21.732 21.0553 21.6779 21.0553 21.6069V19.8687H21.5278C21.8303 19.8687 22.0765 19.6299 22.0765 19.3326V18.2007H23.0369C23.0787 18.2007 23.1132 18.167 23.1132 18.1262V17.819C23.1132 17.7782 23.0787 17.7445 23.0369 17.7445H22.0765V16.776H24.119C24.1889 16.776 24.2471 16.8301 24.2471 16.9011V17.6397C23.8955 17.74 23.6356 18.0534 23.6356 18.428C23.6329 18.9482 24.1281 19.3573 24.6814 19.2303ZM23.0678 13.5811C23.2767 13.5811 23.4466 13.7471 23.4466 13.9513C23.4466 14.1554 23.2767 14.3214 23.0678 14.3214C22.8588 14.3214 22.6889 14.1554 22.6889 13.9513C22.688 13.7462 22.8579 13.5811 23.0678 13.5811ZM21.9957 10.5905C22.2047 10.5905 22.3746 10.7565 22.3746 10.9606C22.3746 11.1648 22.2047 11.3308 21.9957 11.3308C21.7867 11.3308 21.6168 11.1648 21.6168 10.9606C21.6159 10.7565 21.7858 10.5905 21.9957 10.5905ZM16.3482 12.5878C16.1392 12.5878 15.9693 12.4218 15.9693 12.2176C15.9693 12.0135 16.1392 11.8475 16.3482 11.8475C16.5572 11.8475 16.7271 12.0135 16.7271 12.2176C16.7271 12.4218 16.5572 12.5878 16.3482 12.5878ZM13.3683 15.6441C13.3683 15.4399 13.5382 15.2739 13.7471 15.2739C13.9561 15.2739 14.126 15.4399 14.126 15.6441C14.126 15.8483 13.9561 16.0143 13.7471 16.0143C13.5382 16.0143 13.3683 15.8483 13.3683 15.6441ZM14.0061 21.3184C13.957 21.4684 13.8153 21.5776 13.6454 21.5776C13.4364 21.5776 13.2665 21.4116 13.2665 21.2074C13.2665 21.0032 13.4364 20.8372 13.6454 20.8372C13.8153 20.8372 13.957 20.9464 14.0061 21.0964V21.3184ZM17.0997 23.5864C16.8908 23.5864 16.7209 23.4204 16.7209 23.2163C16.7209 23.0121 16.8908 22.8461 17.0997 22.8461C17.3087 22.8461 17.4786 23.0121 17.4786 23.2163C17.4786 23.4204 17.3087 23.5864 17.0997 23.5864ZM22.7463 21.5891C22.9553 21.5891 23.1252 21.7551 23.1252 21.9593C23.1252 22.1634 22.9553 22.3294 22.7463 22.3294C22.5373 22.3294 22.3674 22.1634 22.3674 21.9593C22.3656 21.7551 22.5373 21.5891 22.7463 21.5891ZM21.6097 19.3326C21.6097 19.3778 21.5725 19.4142 21.5261 19.4142H17.7575C17.7112 19.4142 17.6739 19.3778 17.6739 19.3326V15.6486C17.6739 15.6033 17.7112 15.5669 17.7575 15.5669H21.528C21.5743 15.5669 21.6116 15.6033 21.6116 15.6486V19.3326H21.6097ZM24.0982 18.4307C24.0982 18.2265 24.2681 18.0605 24.477 18.0605C24.686 18.0605 24.8559 18.2265 24.8559 18.4307C24.8559 18.6348 24.686 18.8008 24.477 18.8008C24.2681 18.8008 24.0982 18.6348 24.0982 18.4307Z" fill="#00A2FF"/>
<path d="M21.2665 16.8894H20.8386V16.6213C20.8386 16.4553 20.7014 16.3213 20.5315 16.3213H20.2826V15.9032C20.2826 15.8623 20.2481 15.8286 20.2063 15.8286H19.8919C19.8501 15.8286 19.8156 15.8623 19.8156 15.9032V16.3213H19.4667V15.9032C19.4667 15.8623 19.4322 15.8286 19.3904 15.8286H19.076C19.0342 15.8286 18.9997 15.8623 18.9997 15.9032V16.3213H18.7508C18.5809 16.3213 18.4437 16.4553 18.4437 16.6213V16.8894H18.0158C17.974 16.8894 17.9395 16.9231 17.9395 16.964V17.2711C17.9395 17.312 17.974 17.3457 18.0158 17.3457H18.4437V17.6413H18.0158C17.974 17.6413 17.9395 17.675 17.9395 17.7159V18.023C17.9395 18.0639 17.974 18.0976 18.0158 18.0976H18.4437V18.3657C18.4437 18.5317 18.5809 18.6657 18.7508 18.6657H18.9997V19.0838C18.9997 19.1246 19.0342 19.1584 19.076 19.1584H19.3904C19.4322 19.1584 19.4667 19.1246 19.4667 19.0838V18.6657H19.8201V19.0838C19.8201 19.1246 19.8547 19.1584 19.8965 19.1584H20.2108C20.2526 19.1584 20.2871 19.1246 20.2871 19.0838V18.6657H20.5361C20.706 18.6657 20.8432 18.5317 20.8432 18.3657V18.0976H21.2711C21.3129 18.0976 21.3474 18.0638 21.3474 18.023V17.7159C21.3474 17.675 21.3129 17.6413 21.2711 17.6413H20.8386V17.3457H21.2665C21.3083 17.3457 21.3428 17.312 21.3428 17.2711V16.964C21.3437 16.9231 21.3083 16.8894 21.2665 16.8894ZM20.3734 18.1846C20.3734 18.1961 20.3644 18.2076 20.3498 18.2076H18.9307C18.9189 18.2076 18.907 18.1988 18.907 18.1846V16.798C18.907 16.7864 18.9161 16.7749 18.9307 16.7749H20.3498C20.3616 16.7749 20.3734 16.7838 20.3734 16.798V18.1846Z" fill="#00A2FF"/>
</svg>
