<svg width="36" height="36" viewBox="0 0 36 36" fill="none" xmlns="http://www.w3.org/2000/svg">
<rect width="36" height="36" rx="18" fill="white"/>
<path d="M16.7307 24.709H18.6003C19.0878 23.7095 20.2321 23.1965 21.317 23.4925C22.4018 23.7876 23.1162 24.8067 23.0151 25.9118C22.9131 27.0178 22.0244 27.8923 20.9028 27.991C19.7823 28.0887 18.7499 27.3823 18.4527 26.3114H16.8794C16.601 27.31 15.6805 28.0018 14.6303 27.9998C13.5811 27.9988 12.6617 27.3051 12.3853 26.3065C10.9239 26.2225 9.75282 25.0793 9.65288 23.6381C9.55183 22.1979 10.5525 20.9072 11.9891 20.6258L9.78959 13.7872L6.28336 13.799L6.28237 13.7999C6.12682 13.7999 6 13.6749 6 13.5205V12.5288C6 12.4555 6.02873 12.3851 6.08124 12.3324C6.13474 12.2806 6.20608 12.2503 6.28038 12.2503C6.77081 12.2503 7.26618 12.2464 7.76155 12.2435C8.86922 12.2386 9.97788 12.2337 10.7268 12.2337V12.2347C10.8605 12.2347 10.9755 12.3255 11.0042 12.4535L11.5174 14.0481H15.4576C15.525 13.9993 15.5854 13.9416 15.6379 13.8762C15.7083 13.7872 15.7618 13.6866 15.7984 13.5791C15.847 13.4404 15.8985 13.3046 15.955 13.1707C16.0105 13.0378 16.0719 12.905 16.1373 12.7731C16.2819 12.4995 16.2799 12.1722 16.1313 11.9005L16.062 11.7657C15.8717 11.3993 15.9431 10.9537 16.2393 10.6626L17.0607 9.85452H17.0597C17.3539 9.56139 17.8067 9.49105 18.1782 9.67962L18.314 9.74704C18.4497 9.81837 18.6013 9.85647 18.7559 9.8594C18.9104 9.85843 19.062 9.82227 19.2007 9.75388C19.3345 9.68939 19.4672 9.62784 19.601 9.57312C19.7347 9.51742 19.8744 9.46759 20.0151 9.41972C20.3133 9.32787 20.5462 9.09532 20.6363 8.79927L20.6829 8.65662C20.8107 8.26384 21.1812 7.9971 21.6003 8.00002H22.7605H22.7595C23.1776 7.99807 23.5491 8.26384 23.6759 8.65662L23.7225 8.79927C23.8127 9.09435 24.0455 9.3269 24.3447 9.41972C24.4854 9.4676 24.6231 9.51743 24.7588 9.57312C24.8946 9.62881 25.0283 9.68939 25.1591 9.75388C25.2968 9.82227 25.4494 9.85843 25.6039 9.8594C25.7575 9.85647 25.9091 9.81837 26.0458 9.74704L26.1816 9.67962H26.1806C26.5521 9.49007 27.0049 9.5614 27.2991 9.85354L28.1185 10.6616V10.6626C28.4157 10.9528 28.488 11.3983 28.2968 11.7657L28.2275 11.9005C28.1552 12.0344 28.1165 12.1829 28.1145 12.3344C28.1145 12.4868 28.1512 12.6372 28.2215 12.7731C28.2869 12.905 28.3474 13.0359 28.4038 13.1707C28.4603 13.3046 28.5118 13.4404 28.5594 13.5791C28.6555 13.8723 28.8913 14.1009 29.1895 14.1918L29.3342 14.2377C29.7334 14.3627 30.0039 14.7291 30 15.1415V16.2846C30.0039 16.697 29.7334 17.0634 29.3342 17.1875L29.1895 17.2334V17.2344C28.8903 17.3243 28.6555 17.5529 28.5594 17.847C28.5128 17.9857 28.4603 18.1216 28.4038 18.2554C28.3474 18.3893 28.2869 18.5212 28.2215 18.6531V18.6521C28.1512 18.7889 28.1145 18.9384 28.1145 19.0908C28.1165 19.2432 28.1552 19.3917 28.2275 19.5256L28.2968 19.6604C28.489 20.0278 28.4167 20.4743 28.1195 20.7645L27.3001 21.5735C27.0059 21.8667 26.5531 21.937 26.1816 21.7475L26.0458 21.68C25.9101 21.6097 25.7585 21.5706 25.6039 21.5687C25.4494 21.5696 25.2978 21.6048 25.1591 21.6732C25.0253 21.7377 24.8926 21.7983 24.7588 21.854C24.6251 21.9097 24.4854 21.9595 24.3447 22.0074H24.3457C24.0465 22.1002 23.8136 22.3327 23.7235 22.6288L23.6769 22.7714C23.5501 23.1642 23.1786 23.43 22.7605 23.428H21.6003C21.1822 23.43 20.8107 23.1642 20.6839 22.7714L20.6373 22.6288C20.5471 22.3327 20.3143 22.1002 20.0151 22.0074C19.8744 21.9595 19.7367 21.9097 19.601 21.854C19.5356 21.8276 19.4712 21.7983 19.4058 21.7709H19.278H19.279C19.2443 21.8462 19.1957 21.9155 19.1363 21.9732C19.0065 22.1021 18.8302 22.1744 18.6469 22.1744H12.5546C11.8442 22.1686 11.2646 22.7314 11.2587 23.4319C11.2537 24.1315 11.8244 24.7041 12.5347 24.709C12.8617 24.0387 13.4988 23.5668 14.2428 23.4417C14.9869 23.3166 15.7458 23.556 16.2788 24.0817C16.4661 24.2644 16.6196 24.4764 16.7336 24.7109L16.7307 24.709ZM20.6988 24.709C21.1783 24.711 21.5905 25.0471 21.6826 25.5112C21.7748 25.9753 21.5211 26.4394 21.0773 26.6192C20.6344 26.799 20.1232 26.6446 19.8577 26.2508C19.5921 25.8571 19.6446 25.3333 19.9845 24.9992C20.1737 24.8126 20.4313 24.708 20.6988 24.709ZM21.0119 25.3959C20.8633 25.2493 20.6295 25.2278 20.4551 25.3431C20.2797 25.4594 20.2124 25.6802 20.2936 25.8717C20.3739 26.0632 20.5809 26.1727 20.788 26.1316C20.9941 26.0906 21.1427 25.9118 21.1417 25.7037C21.1417 25.5884 21.0951 25.478 21.0119 25.3959ZM14.6325 24.709C15.113 24.711 15.5262 25.0471 15.6193 25.5121C15.7115 25.9772 15.4578 26.4423 15.013 26.6231C14.5691 26.8038 14.0569 26.6495 13.7904 26.2537C13.5239 25.859 13.5774 25.3333 13.9182 24.9992C14.1084 24.8135 14.365 24.709 14.6325 24.709ZM14.9456 25.3959C14.7732 25.2259 14.4918 25.2259 14.3194 25.3959C14.2362 25.478 14.1897 25.5884 14.1897 25.7046C14.1897 25.8199 14.2362 25.9313 14.3194 26.0134C14.4928 26.1766 14.7673 26.1736 14.9377 26.0066C15.1081 25.8385 15.1121 25.5679 14.9456 25.3959ZM18.4123 25.2669H16.9192C16.947 25.4105 16.9608 25.5571 16.9608 25.7027V25.7515H18.3717V25.7027H18.3707C18.3707 25.5571 18.3845 25.4115 18.4123 25.2669ZM21.9444 24.4745C21.3499 23.8902 20.4206 23.8013 19.7231 24.2615C19.0256 24.7217 18.7551 25.604 19.0771 26.3681C19.3981 27.1331 20.2224 27.567 21.0458 27.4047C21.8691 27.2435 22.4615 26.5303 22.4615 25.7027C22.4615 25.2425 22.2763 24.7999 21.9444 24.4745ZM12.3043 25.7379V25.7388V25.7027C12.3053 25.5522 12.3201 25.4027 12.3489 25.2552C11.3769 25.1418 10.6626 24.3025 10.7171 23.3391C10.7706 22.3757 11.5761 21.6205 12.5549 21.6146H18.6472C18.6809 21.6146 18.7126 21.6009 18.7364 21.5775C18.7602 21.554 18.773 21.5228 18.773 21.4905V21.2531C18.773 21.2208 18.7602 21.1896 18.7364 21.1661C18.7126 21.1427 18.6809 21.13 18.6472 21.129H13.416C13.2932 21.13 13.1842 21.0508 13.1475 20.9355L11.0521 14.4379C11.0461 14.4213 11.0402 14.4047 11.0362 14.388L10.522 12.7935C9.40346 12.7935 8.58412 12.7974 7.76377 12.8013C7.36548 12.8013 6.9672 12.8052 6.56197 12.8062L6.56296 13.2419L9.97028 13.2302H9.97127C10.103 13.2204 10.2249 13.3006 10.2655 13.4247L12.6305 20.7733C12.6374 20.7938 12.6414 20.8153 12.6424 20.8377C12.6523 20.9911 12.5354 21.124 12.3798 21.1357C11.1731 21.2276 10.2348 22.2105 10.216 23.4045C10.1962 24.5975 11.1017 25.6098 12.3045 25.7397L12.3043 25.7379ZM15.878 24.4745C15.2835 23.8882 14.3522 23.7974 13.6527 24.2586C12.9543 24.7188 12.6818 25.602 13.0038 26.3681C13.3258 27.1341 14.1511 27.5699 14.9754 27.4077C15.8007 27.2455 16.3942 26.5322 16.3942 25.7027C16.3942 25.2425 16.2089 24.7999 15.878 24.4745ZM19.3259 21.1182C19.3675 21.1339 19.4071 21.1524 19.4507 21.1739C19.4775 21.1857 19.5042 21.2003 19.531 21.2111H20.4484V21.2101C20.9596 21.2189 21.4154 20.8925 21.567 20.4099L22.9788 16.1244C23.1036 15.7726 23.0402 15.3818 22.8104 15.0848C22.7034 14.9353 22.5607 14.8132 22.3953 14.7282C22.2288 14.6471 22.0455 14.605 21.8602 14.607H11.6999L13.622 20.5711H18.647C18.9759 20.5701 19.2605 20.7987 19.3259 21.1182ZM20.6981 21.7514C20.7357 21.7826 20.7714 21.8149 20.8061 21.8491C20.9755 22.0201 21.1013 22.2272 21.1746 22.4549L21.2212 22.5975C21.2727 22.7607 21.4263 22.8701 21.5987 22.8672H22.7588C22.9322 22.8701 23.0858 22.7607 23.1373 22.5975L23.1839 22.4549C23.3295 21.9917 23.6941 21.6273 24.1618 21.4778C24.2906 21.4348 24.4164 21.3879 24.5412 21.3371C24.6661 21.2853 24.7919 21.2296 24.9098 21.172L24.9088 21.171C25.3477 20.9531 25.8668 20.9561 26.3028 21.1808L26.4385 21.2482V21.2472C26.5128 21.2863 26.598 21.3 26.6813 21.2883C26.7635 21.2756 26.8408 21.2355 26.8992 21.1769L27.7196 20.3678C27.779 20.3092 27.8196 20.235 27.8345 20.1529C27.8464 20.0718 27.8325 19.9878 27.7929 19.9145L27.7235 19.7797C27.4957 19.3497 27.4927 18.8378 27.7156 18.4059C27.7751 18.2886 27.8305 18.1665 27.883 18.0414C27.9356 17.9164 27.9821 17.7942 28.0247 17.6692C28.1783 17.208 28.5478 16.8494 29.0165 16.7028L29.1611 16.6579C29.3266 16.6081 29.4386 16.4556 29.4346 16.2847V15.1425C29.4385 14.9715 29.3266 14.819 29.1611 14.7692L29.0165 14.7233C28.5478 14.5777 28.1793 14.2181 28.0257 13.7579C27.9831 13.6319 27.9346 13.5068 27.8841 13.3857C27.8335 13.2645 27.7761 13.1385 27.7166 13.0212L27.7156 13.0202C27.4937 12.5884 27.4967 12.0764 27.7236 11.6465L27.7929 11.5116H27.7939C27.8325 11.4384 27.8474 11.3553 27.8355 11.2732C27.8207 11.1912 27.78 11.1169 27.7196 11.0593L26.9002 10.2493C26.8418 10.1897 26.7655 10.1506 26.6823 10.1369C26.599 10.1252 26.5138 10.1398 26.4395 10.1779L26.3038 10.2463C26.0888 10.3558 25.85 10.4134 25.6083 10.4173C25.3655 10.4173 25.1268 10.3616 24.9098 10.2541C24.7919 10.1955 24.669 10.1408 24.5412 10.089C24.4164 10.0363 24.2906 9.99131 24.1618 9.94734L24.1628 9.94832C23.6951 9.79785 23.3306 9.4334 23.1849 8.97026L23.1383 8.8276C23.0868 8.66541 22.9332 8.55599 22.7599 8.55891H21.6007C21.4273 8.55598 21.2737 8.66541 21.2222 8.8276L21.1756 8.97026C21.03 9.4334 20.6654 9.79784 20.1977 9.94832C20.069 9.99229 19.9431 10.0382 19.8183 10.09C19.6935 10.1418 19.5676 10.1965 19.4487 10.2551V10.2541C19.2328 10.3616 18.994 10.4173 18.7522 10.4154C18.5105 10.4134 18.2717 10.3558 18.0567 10.2463L17.921 10.1779C17.8467 10.1398 17.7615 10.1252 17.6783 10.1369C17.596 10.1506 17.5187 10.1897 17.4603 10.2493L16.6399 11.0593C16.5795 11.1169 16.5399 11.1912 16.524 11.2732C16.5121 11.3553 16.527 11.4384 16.5656 11.5116L16.635 11.6465H16.636C16.8629 12.0764 16.8658 12.5884 16.6439 13.0202C16.5845 13.1375 16.529 13.2596 16.4765 13.3847C16.424 13.5097 16.3774 13.6319 16.3348 13.757L16.3338 13.7579C16.2991 13.8586 16.2545 13.9553 16.201 14.0471H18.133H18.132C18.5392 13.0847 19.2853 12.3001 20.2324 11.837C21.1806 11.3748 22.2654 11.2644 23.2879 11.5282C24.3114 11.7921 25.2031 12.4115 25.7995 13.2723C26.3959 14.1331 26.6575 15.1776 26.5356 16.2124C26.4128 17.2481 25.9154 18.2056 25.1337 18.908C24.353 19.6105 23.3404 20.0112 22.2834 20.0356L22.104 20.5808C21.9059 21.2071 21.3569 21.6634 20.6981 21.7514ZM18.7542 14.0481H21.8592C22.418 14.0452 22.9441 14.308 23.272 14.7535C23.6 15.2001 23.6901 15.7746 23.5137 16.2973L22.4705 19.468C23.8278 19.3664 25.0276 18.5593 25.6201 17.3507C26.2126 16.142 26.1076 14.7135 25.3447 13.6017C24.5818 12.4898 23.277 11.8616 21.9186 11.9544C20.5603 12.0462 19.3548 12.8434 18.7542 14.0481Z" fill="#00A2FF"/>
</svg>
