<svg width="30" height="26" viewBox="0 0 30 26" fill="none" xmlns="http://www.w3.org/2000/svg">
<path d="M18.6122 23.3552C18.6122 23.7113 18.3235 24 17.9675 24C17.6114 24 17.3227 23.7113 17.3227 23.3552V17.7519C17.3227 17.0819 17.5954 16.4742 18.0356 16.0339C18.4759 15.5937 19.0836 15.321 19.7536 15.321H23.4252C23.7812 15.321 24.0699 15.6097 24.0699 15.9658V17.0322L27.5909 14.8589C27.792 14.7352 27.9469 14.5736 28.0513 14.3875C28.154 14.2032 28.2087 13.9852 28.2087 13.747C28.2087 13.5079 28.154 13.2908 28.0513 13.1064C27.9469 12.9204 27.792 12.7597 27.5909 12.6359L24.0699 10.4626V11.5291C24.0699 11.8851 23.7812 12.173 23.4252 12.173H19.7536C19.0836 12.173 18.4759 11.9003 18.0356 11.46C17.5954 11.0198 17.3227 10.4121 17.3227 9.74208V6.07302C17.3227 5.71697 17.6114 5.42826 17.9675 5.42826H19.0339L16.8606 1.90734C16.7369 1.70617 16.5761 1.55129 16.3892 1.44692C16.2049 1.34423 15.9877 1.28952 15.7487 1.28952C15.5096 1.28952 15.2925 1.34423 15.1081 1.44692C14.9213 1.55045 14.7605 1.70617 14.6368 1.90734L12.4634 5.42826H13.5299C13.8859 5.42826 14.1747 5.71697 14.1747 6.07302V9.74208C14.1747 10.4121 13.9019 11.0198 13.4617 11.46C13.0215 11.9003 12.4138 12.173 11.7438 12.173H8.07218C7.71613 12.173 7.42742 11.8843 7.42742 11.5291V10.4626L3.9065 12.6359C3.70533 12.7597 3.55045 12.9204 3.44608 13.1064C3.34339 13.2908 3.28868 13.5088 3.28868 13.747C3.28868 13.9852 3.34339 14.2032 3.44608 14.3875C3.55045 14.5736 3.70533 14.7352 3.9065 14.8589L7.42742 17.0322V15.9658C7.42742 15.6097 7.71613 15.321 8.07218 15.321H11.7438C12.4138 15.321 13.0215 15.5937 13.4617 16.0339C13.9019 16.4742 14.1747 17.0819 14.1747 17.7519V23.3552C14.1747 23.7113 13.8859 24 13.5299 24C13.1739 24 12.8851 23.7113 12.8851 23.3552V17.7519C12.8851 17.4379 12.7572 17.1526 12.5501 16.9455C12.3431 16.7385 12.0577 16.6105 11.7438 16.6105H8.71694V18.1845H8.71441C8.71441 18.2999 8.68327 18.4169 8.61845 18.5221C8.43243 18.8234 8.03682 18.9168 7.73465 18.7308L3.23228 15.9515C2.84172 15.7107 2.53449 15.39 2.32406 15.0121C2.11279 14.6333 2 14.2032 2 13.747C2 13.2899 2.11195 12.8615 2.32406 12.4819C2.53449 12.1048 2.84172 11.7833 3.23228 11.5425L7.68751 8.79262C7.79525 8.71266 7.92824 8.66468 8.07218 8.66468C8.42823 8.66468 8.71609 8.95339 8.71609 9.30944V10.8835H11.7429C12.0569 10.8835 12.3422 10.7547 12.5493 10.5485C12.7564 10.3414 12.8843 10.056 12.8843 9.74208V6.71694H11.3103V6.71441C11.195 6.71441 11.078 6.68327 10.9727 6.61845C10.6706 6.43243 10.5771 6.03683 10.764 5.73465L13.5434 1.23228C13.7849 0.841721 14.1056 0.534493 14.4827 0.324063C14.8615 0.112791 15.2916 0 15.7478 0C16.204 0 16.6333 0.111949 17.0129 0.324063C17.39 0.534493 17.7116 0.841721 17.9523 1.23228L20.7022 5.68751C20.7822 5.79525 20.8301 5.92824 20.8301 6.07218C20.8301 6.42823 20.5414 6.71609 20.1854 6.71609H18.6114V9.74124C18.6114 10.0552 18.7393 10.3405 18.9464 10.5476C19.1534 10.7547 19.4388 10.8826 19.7527 10.8826H22.7796V9.3086H22.7821C22.7821 9.19328 22.8132 9.07628 22.8781 8.97107C23.0641 8.66889 23.4597 8.57546 23.7619 8.76232L28.2642 11.5417C28.6548 11.7833 28.962 12.104 29.1724 12.481C29.3837 12.8598 29.4965 13.2891 29.4965 13.7462C29.4965 14.2024 29.3846 14.6316 29.1724 15.0113C28.962 15.3883 28.6548 15.7099 28.2642 15.9506L23.809 18.7005C23.7013 18.7805 23.5683 18.8285 23.4243 18.8285C23.0683 18.8285 22.7804 18.5398 22.7804 18.1837V16.6097H19.7536C19.4396 16.6097 19.1543 16.7376 18.9472 16.9447C18.7402 17.1518 18.6122 17.4371 18.6122 17.7511V23.3544V23.3552Z" fill="#00A2FF"/>
</svg>
