<svg width="195" height="42" viewBox="0 0 195 42" fill="none" xmlns="http://www.w3.org/2000/svg">
<g clip-path="url(#clip0_255_1034)">
<path d="M60.1719 14.4145H63.3569V15.683C64.4651 14.5836 65.7148 14.0342 67.1057 14.0342C68.7028 14.0342 69.9471 14.5369 70.8401 15.5419C71.6102 16.397 71.9955 17.7922 71.9955 19.727V28.1399H68.8104V20.474C68.8104 19.121 68.6222 18.1863 68.2467 17.6698C67.8801 17.144 67.2132 16.8806 66.2456 16.8806C65.1934 16.8806 64.4464 17.2286 64.0051 17.9234C63.5726 18.6095 63.3569 19.8071 63.3569 21.5168V28.1399H60.1719V14.414V14.4145Z" fill="black"/>
<path d="M86.5699 22.0245H76.7337C76.8182 23.1519 77.1849 24.0493 77.8331 24.7161C78.4813 25.3742 79.3128 25.7024 80.3271 25.7024C81.1164 25.7024 81.769 25.5147 82.286 25.1388C82.7931 24.7633 83.3711 24.0679 84.0193 23.0531L86.6967 24.5471C86.2834 25.2518 85.8465 25.8556 85.386 26.3578C84.9255 26.8605 84.4321 27.2738 83.9062 27.5977C83.3799 27.922 82.8118 28.1592 82.2009 28.309C81.59 28.4594 80.9276 28.5346 80.214 28.5346C78.1657 28.5346 76.5218 27.877 75.282 26.5614C74.0421 25.237 73.4219 23.4801 73.4219 21.2912C73.4219 19.1024 74.0229 17.3647 75.2254 16.0211C76.4373 14.6967 78.0438 14.0342 80.045 14.0342C82.0462 14.0342 83.662 14.678 84.8366 15.9645C86.0013 17.2423 86.5841 19.0135 86.5841 21.2775L86.5699 22.0245ZM83.3146 19.4317C82.8727 17.7406 81.8068 16.8949 80.1158 16.8949C79.7305 16.8949 79.3688 16.9536 79.0307 17.071C78.6926 17.1885 78.3847 17.3575 78.1075 17.5782C77.8303 17.7988 77.5932 18.0645 77.3956 18.374C77.1986 18.6841 77.0482 19.0365 76.9445 19.4311H83.314L83.3146 19.4317Z" fill="black"/>
<path d="M98.2347 14.4145H101.42V28.1405H98.2347V26.703C96.9284 27.9248 95.5239 28.5351 94.0211 28.5351C92.1231 28.5351 90.5545 27.8496 89.3146 26.4774C88.0835 25.0778 87.4688 23.3303 87.4688 21.2353C87.4688 19.1402 88.084 17.4635 89.3146 16.0919C90.5451 14.7203 92.0858 14.0342 93.9365 14.0342C95.5337 14.0342 96.9663 14.6923 98.2347 16.0073V14.4151V14.4145ZM90.7092 21.2353C90.7092 22.5509 91.0616 23.6217 91.7663 24.4483C92.4897 25.2848 93.4009 25.7024 94.5002 25.7024C95.6742 25.7024 96.6232 25.2985 97.3472 24.4906C98.0706 23.6546 98.4323 22.5931 98.4323 21.3055C98.4323 20.0179 98.0706 18.9569 97.3472 18.1205C96.6238 17.3032 95.6841 16.8943 94.5288 16.8943C93.4387 16.8943 92.5276 17.3076 91.7949 18.1342C91.0715 18.9706 90.7098 20.0042 90.7098 21.2347L90.7092 21.2353Z" fill="black"/>
<path d="M102.531 14.4145H105.702V15.6407C106.284 15.0304 106.801 14.6121 107.252 14.3866C107.712 14.1516 108.257 14.0342 108.887 14.0342C109.722 14.0342 110.596 14.307 111.508 14.8514L110.056 17.7544C109.455 17.3224 108.867 17.1062 108.295 17.1062C106.566 17.1062 105.702 18.4125 105.702 21.0239V28.1405H102.531V14.4145Z" fill="black"/>
<path d="M118.789 17.3839V28.1504H115.619V17.3839H114.266V14.4244H115.619V9.39355H118.789V14.4244H121.255V17.3839H118.789Z" fill="#00A2FF"/>
<path d="M134.25 22.0245H124.413C124.498 23.1519 124.865 24.0493 125.513 24.7161C126.161 25.3742 126.993 25.7024 128.007 25.7024C128.796 25.7024 129.449 25.5147 129.966 25.1388C130.473 24.7633 131.051 24.0679 131.699 23.0531L134.376 24.5471C133.963 25.2518 133.526 25.8556 133.066 26.3578C132.605 26.8605 132.112 27.2738 131.586 27.5977C131.06 27.922 130.491 28.1592 129.881 28.309C129.27 28.4594 128.607 28.5346 127.894 28.5346C125.845 28.5346 124.202 27.877 122.962 26.5614C121.722 25.237 121.102 23.4801 121.102 21.2912C121.102 19.1024 121.703 17.3647 122.905 16.0211C124.117 14.6967 125.724 14.0342 127.725 14.0342C129.726 14.0342 131.342 14.678 132.516 15.9645C133.681 17.2423 134.264 19.0135 134.264 21.2775L134.25 22.0245ZM130.994 19.4317C130.552 17.7406 129.487 16.8949 127.795 16.8949C127.41 16.8949 127.048 16.9536 126.71 17.071C126.372 17.1885 126.064 17.3575 125.787 17.5782C125.51 17.7988 125.273 18.0645 125.076 18.374C124.879 18.6841 124.728 19.0365 124.625 19.4311H130.994V19.4317Z" fill="#00A2FF"/>
<path d="M138.577 4.33887V18.8535L143.044 14.4143H147.3L141.339 20.1779L147.736 28.1397H143.622L139.084 22.3481L138.577 22.8553V28.1397H135.406V4.33887H138.577Z" fill="#00A2FF"/>
<path d="M153.53 35.6089H150.359V14.4145H153.53V15.9085C154.779 14.6593 156.198 14.0342 157.786 14.0342C159.674 14.0342 161.229 14.7296 162.45 16.1199C163.69 17.5008 164.31 19.244 164.31 21.3478C164.31 23.4516 163.695 25.1201 162.465 26.4912C161.243 27.8534 159.703 28.5346 157.843 28.5346C156.236 28.5346 154.799 27.8913 153.53 26.6042V35.6089ZM161.069 21.362C161.069 20.047 160.712 18.9761 159.998 18.149C159.275 17.3131 158.364 16.8948 157.265 16.8948C156.1 16.8948 155.155 17.2988 154.432 18.1067C153.709 18.9147 153.347 19.9767 153.347 21.2918C153.347 22.6069 153.709 23.6409 154.432 24.4768C155.146 25.2941 156.086 25.703 157.25 25.703C158.35 25.703 159.256 25.2897 159.97 24.4631C160.703 23.6365 161.069 22.603 161.069 21.3626V21.362Z" fill="black"/>
<path d="M165.094 21.1787C165.094 19.1968 165.803 17.5101 167.222 16.1199C168.64 14.7296 170.369 14.0342 172.408 14.0342C174.446 14.0342 176.194 14.7345 177.622 16.1341C179.032 17.5343 179.736 19.2533 179.736 21.2918C179.736 23.3303 179.026 25.0734 177.608 26.4637C176.18 27.8446 174.428 28.5351 172.351 28.5351C170.275 28.5351 168.57 27.8304 167.179 26.4215C165.789 25.0312 165.094 23.2836 165.094 21.1793L165.094 21.1787ZM168.335 21.2353C168.335 22.6069 168.702 23.692 169.435 24.4906C170.186 25.2985 171.177 25.7024 172.408 25.7024C173.638 25.7024 174.639 25.3034 175.381 24.5048C176.123 23.7062 176.494 22.6403 176.494 21.3061C176.494 19.9718 176.123 18.9059 175.381 18.1073C174.629 17.2994 173.638 16.8954 172.408 16.8954C171.177 16.8954 170.214 17.2994 169.463 18.1073C168.711 18.9152 168.335 19.958 168.335 21.2358V21.2353Z" fill="black"/>
<path d="M191.282 4.33887H194.467V28.1403H191.282V26.7028C190.032 27.9246 188.618 28.5349 187.04 28.5349C185.161 28.5349 183.601 27.8494 182.361 26.4772C181.13 25.0776 180.516 23.3301 180.516 21.235C180.516 19.14 181.131 17.4775 182.361 16.1054C183.583 14.7244 185.118 14.034 186.97 14.034C188.576 14.034 190.014 14.6921 191.282 16.0071V4.33887H191.282ZM183.757 21.235C183.757 22.5507 184.109 23.6215 184.814 24.4481C185.537 25.2845 186.448 25.7022 187.548 25.7022C188.722 25.7022 189.671 25.2983 190.394 24.4903C191.117 23.6544 191.479 22.5929 191.479 21.3053C191.479 20.0177 191.117 18.9567 190.394 18.1203C189.671 17.303 188.731 16.8941 187.576 16.8941C186.486 16.8941 185.574 17.3074 184.842 18.134C184.118 18.9704 183.757 20.0039 183.757 21.2345V21.235Z" fill="black"/>
<path d="M37.6101 0.768555H37.6096C35.3658 0.768555 33.5469 2.58748 33.5469 4.83123V37.3376C33.5469 39.5814 35.3658 41.4003 37.6096 41.4003H37.6101C39.8539 41.4003 41.6728 39.5814 41.6728 37.3376V4.83123C41.6728 2.58748 39.8539 0.768555 37.6101 0.768555Z" fill="#00A2FF"/>
<path d="M21.4094 9.17637C21.4094 7.53159 20.076 6.19824 18.4313 6.19824C16.7865 6.19824 15.4531 7.53159 15.4531 9.17637V33.0041C15.4531 34.6489 16.7865 35.9822 18.4313 35.9822C20.076 35.9822 21.4094 34.6489 21.4094 33.0041V9.17637Z" fill="#0076BA"/>
<path d="M2.18337 10.167H2.18283C0.977284 10.167 0 11.1443 0 12.3498V29.8163C0 31.0218 0.977284 31.9991 2.18283 31.9991H2.18337C3.38891 31.9991 4.3662 31.0218 4.3662 29.8163V12.3498C4.3662 11.1443 3.38891 10.167 2.18337 10.167Z" fill="#004D80"/>
</g>
<defs>
<clipPath id="clip0_255_1034">
<rect width="194.473" height="40.6317" fill="white" transform="translate(0 0.760742)"/>
</clipPath>
</defs>
</svg>
