<svg width="418" height="237" viewBox="0 0 418 237" fill="none" xmlns="http://www.w3.org/2000/svg">
<rect width="418" height="237" rx="15" fill="#00A2FF" fill-opacity="0.33"/>
<g filter="url(#filter0_d_233_421)">
<rect x="174" y="83.5" width="70" height="70" rx="35" fill="white" fill-opacity="0.4" shape-rendering="crispEdges"/>
<rect x="174.5" y="84" width="69" height="69" rx="34.5" stroke="#E9ECF6" stroke-opacity="0.4" shape-rendering="crispEdges"/>
<g filter="url(#filter1_dd_233_421)">
<rect x="181" y="91" width="56" height="56" rx="28" fill="white"/>
<g clip-path="url(#clip0_233_421)">
<g clip-path="url(#clip1_233_421)">
<path d="M216.926 117.52L202.448 108.369C202.204 108.215 201.925 108.131 201.639 108.125C201.353 108.12 201.071 108.193 200.822 108.338C200.573 108.482 200.365 108.693 200.221 108.948C200.076 109.203 200 109.493 200 109.789V128.091C200 128.386 200.077 128.676 200.221 128.931C200.366 129.186 200.573 129.397 200.822 129.541C201.072 129.686 201.354 129.759 201.639 129.754C201.925 129.748 202.204 129.664 202.448 129.51L216.926 120.36C217.162 120.211 217.356 120.003 217.491 119.754C217.626 119.505 217.696 119.225 217.696 118.94C217.696 118.655 217.626 118.374 217.491 118.126C217.356 117.877 217.162 117.668 216.926 117.52Z" fill="#0D0F2C"/>
</g>
</g>
</g>
</g>
<defs>
<filter id="filter0_d_233_421" x="154" y="69.5" width="110" height="110" filterUnits="userSpaceOnUse" color-interpolation-filters="sRGB">
<feFlood flood-opacity="0" result="BackgroundImageFix"/>
<feColorMatrix in="SourceAlpha" type="matrix" values="0 0 0 0 0 0 0 0 0 0 0 0 0 0 0 0 0 0 127 0" result="hardAlpha"/>
<feOffset dy="6"/>
<feGaussianBlur stdDeviation="10"/>
<feComposite in2="hardAlpha" operator="out"/>
<feColorMatrix type="matrix" values="0 0 0 0 0.0627451 0 0 0 0 0.0941176 0 0 0 0 0.156863 0 0 0 0.08 0"/>
<feBlend mode="normal" in2="BackgroundImageFix" result="effect1_dropShadow_233_421"/>
<feBlend mode="normal" in="SourceGraphic" in2="effect1_dropShadow_233_421" result="shape"/>
</filter>
<filter id="filter1_dd_233_421" x="171" y="83" width="76" height="76" filterUnits="userSpaceOnUse" color-interpolation-filters="sRGB">
<feFlood flood-opacity="0" result="BackgroundImageFix"/>
<feColorMatrix in="SourceAlpha" type="matrix" values="0 0 0 0 0 0 0 0 0 0 0 0 0 0 0 0 0 0 127 0" result="hardAlpha"/>
<feMorphology radius="1" operator="dilate" in="SourceAlpha" result="effect1_dropShadow_233_421"/>
<feOffset/>
<feComposite in2="hardAlpha" operator="out"/>
<feColorMatrix type="matrix" values="0 0 0 0 0.901961 0 0 0 0 0.917647 0 0 0 0 0.956863 0 0 0 1 0"/>
<feBlend mode="normal" in2="BackgroundImageFix" result="effect1_dropShadow_233_421"/>
<feColorMatrix in="SourceAlpha" type="matrix" values="0 0 0 0 0 0 0 0 0 0 0 0 0 0 0 0 0 0 127 0" result="hardAlpha"/>
<feOffset dy="2"/>
<feGaussianBlur stdDeviation="5"/>
<feComposite in2="hardAlpha" operator="out"/>
<feColorMatrix type="matrix" values="0 0 0 0 0.0627451 0 0 0 0 0.0941176 0 0 0 0 0.156863 0 0 0 0.08 0"/>
<feBlend mode="normal" in2="effect1_dropShadow_233_421" result="effect2_dropShadow_233_421"/>
<feBlend mode="normal" in="SourceGraphic" in2="effect2_dropShadow_233_421" result="shape"/>
</filter>
<clipPath id="clip0_233_421">
<rect width="24" height="24" fill="white" transform="translate(197 107)"/>
</clipPath>
<clipPath id="clip1_233_421">
<rect width="24" height="24" fill="white" transform="translate(197 107)"/>
</clipPath>
</defs>
</svg>
