<svg width="80" height="80" viewBox="0 0 80 80" fill="none" xmlns="http://www.w3.org/2000/svg">
<path d="M40.0002 23.7711C31.0372 23.7711 23.7714 31.0369 23.7714 39.9999C23.7714 48.9628 31.0372 56.2287 40.0002 56.2287C48.9631 56.2287 56.229 48.9628 56.229 39.9999C56.229 31.0369 48.9631 23.7711 40.0002 23.7711ZM28.7714 39.9999C28.7714 33.7984 33.7987 28.7711 40.0002 28.7711C46.2017 28.7711 51.229 33.7984 51.229 39.9999C51.229 46.2014 46.2017 51.2287 40.0002 51.2287C33.7987 51.2287 28.7714 46.2014 28.7714 39.9999Z" fill="black"/>
<path d="M48.9824 6.71688C46.3426 -2.23896 33.6574 -2.23896 31.0176 6.71688L30.5484 8.30896C29.7623 10.976 26.7161 12.2378 24.2743 10.9077L22.8168 10.1138C14.6175 5.64763 5.64764 14.6175 10.1138 22.8168L10.9078 24.2744C12.2378 26.7161 10.976 29.7623 8.30896 30.5484L6.71688 31.0176C-2.23896 33.6574 -2.23896 46.3426 6.71688 48.9823L8.30896 49.4516C10.976 50.2377 12.2378 53.2839 10.9077 55.7256L10.1138 57.1832C5.64764 65.3825 14.6175 74.3524 22.8168 69.8862L24.2744 69.0922C26.7161 67.7622 29.7623 69.024 30.5484 71.691L31.0176 73.2831C33.6574 82.239 46.3426 82.2389 48.9824 73.2831L49.4516 71.691C50.2377 69.024 53.2839 67.7622 55.7257 69.0922L57.1832 69.8862C65.3825 74.3524 74.3524 65.3825 69.8862 57.1832L69.0922 55.7256C67.7622 53.2839 69.024 50.2377 71.691 49.4516L73.2831 48.9823C82.239 46.3426 82.239 33.6574 73.2831 31.0176L71.691 30.5484C69.024 29.7623 67.7622 26.7161 69.0922 24.2743L69.8862 22.8168C74.3524 14.6175 65.3825 5.64764 57.1832 10.1138L55.7256 10.9078C53.2839 12.2378 50.2377 10.976 49.4516 8.30896L48.9824 6.71688ZM35.8137 8.13049C37.0439 3.9565 42.9561 3.9565 44.1863 8.13049L44.6556 9.72257C46.3423 15.445 52.8784 18.1523 58.1174 15.2986L59.5749 14.5047C63.3963 12.4231 67.5768 16.6037 65.4953 20.4251L64.7014 21.8826C61.8477 27.1216 64.555 33.6577 70.2774 35.3444L71.8695 35.8137C76.0435 37.0439 76.0435 42.9561 71.8695 44.1863L70.2774 44.6556C64.555 46.3423 61.8477 52.8784 64.7014 58.1174L65.4953 59.5749C67.5769 63.3963 63.3963 67.5768 59.5749 65.4953L58.1174 64.7014C52.8784 61.8477 46.3423 64.555 44.6556 70.2774L44.1863 71.8695C42.9561 76.0435 37.0439 76.0435 35.8137 71.8695L35.3444 70.2774C33.6577 64.555 27.1216 61.8477 21.8826 64.7014L20.4251 65.4953C16.6037 67.5768 12.4231 63.3963 14.5047 59.5749L15.2986 58.1174C18.1523 52.8784 15.445 46.3423 9.72258 44.6556L8.13049 44.1863C3.9565 42.9561 3.9565 37.0439 8.13049 35.8137L9.72257 35.3444C15.445 33.6577 18.1523 27.1216 15.2986 21.8826L14.5047 20.4251C12.4232 16.6037 16.6037 12.4232 20.4251 14.5047L21.8826 15.2986C27.1216 18.1523 33.6577 15.445 35.3444 9.72257L35.8137 8.13049Z" fill="black"/>
</svg>
