<svg width="1122" height="944" viewBox="0 0 1122 944" fill="none" xmlns="http://www.w3.org/2000/svg">
<g filter="url(#filter0_dddd_78_57180)">
<path d="M751.255 471.997C751.255 270.413 587.839 106.997 386.255 106.997C184.671 106.997 21.2549 270.413 21.2549 471.997C21.2549 673.581 184.671 836.997 386.255 836.997C587.839 836.997 751.255 673.581 751.255 471.997Z" fill="#00A2FF"/>
<mask id="mask0_78_57180" style="mask-type:luminance" maskUnits="userSpaceOnUse" x="230" y="317" width="313" height="310">
<path d="M542.193 317.772H230.315V626.223H542.193V317.772Z" fill="white"/>
</mask>
<g mask="url(#mask0_78_57180)">
<path d="M425.519 471.997C425.519 493.685 407.941 511.263 386.253 511.263C364.566 511.263 346.987 493.685 346.987 471.997C346.987 450.31 364.566 432.731 386.253 432.731C407.941 432.731 425.519 450.31 425.519 471.997Z" fill="white"/>
<path d="M475.51 441.153C472.658 440.296 471.373 438.154 470.797 436.869C470.222 435.731 469.66 433.294 471.078 430.59C475.363 422.732 473.93 413.307 467.651 407.028L451.225 390.601C444.946 384.323 435.521 382.89 427.515 387.174C424.797 388.607 422.374 388.031 421.236 387.455C420.098 387.027 417.956 385.742 416.952 382.743C414.382 374.175 406.671 368.458 397.821 368.458H374.54C365.691 368.458 357.98 374.175 355.409 382.743C354.553 385.594 352.411 386.879 351.125 387.455C349.988 388.031 347.551 388.593 344.847 387.174C336.988 382.89 327.563 384.323 321.285 390.601L304.858 407.028C298.579 413.307 297.147 422.879 301.431 430.738C302.863 433.455 302.287 435.878 301.712 437.016C301.284 438.154 299.998 440.296 297 441.3C288.431 443.871 282.715 451.582 282.715 460.431V483.712C282.715 492.561 288.431 500.273 297 502.843C299.851 503.7 301.136 505.842 301.712 507.127C302.287 508.265 302.85 510.702 301.431 513.406C297.147 521.264 298.579 530.689 304.858 536.968L321.285 553.395C327.563 559.673 336.988 561.106 344.994 556.822C347.712 555.389 350.135 555.965 351.273 556.541C352.411 556.969 354.553 558.255 355.557 561.253C358.127 569.822 365.839 575.538 374.688 575.538H397.969C406.818 575.538 414.529 569.822 417.1 561.253C417.956 558.402 420.098 557.117 421.384 556.541C422.521 556.113 424.958 555.403 427.662 556.822C435.521 561.106 444.946 559.673 451.225 553.395L467.651 536.968C473.93 530.689 475.363 521.117 471.078 513.258C469.646 510.541 470.222 508.118 470.797 506.98C471.226 505.842 472.511 503.7 475.51 502.696C484.078 500.125 489.795 492.414 489.795 483.565V460.284C489.795 451.435 484.078 443.723 475.51 441.153ZM386.255 532.684C352.839 532.684 325.569 505.414 325.569 471.998C325.569 438.583 352.839 411.312 386.255 411.312C419.67 411.312 446.941 438.583 446.941 471.998C446.941 505.414 419.67 532.684 386.255 532.684Z" fill="white"/>
<path d="M486.221 584.669C483.504 584.669 480.652 583.531 478.51 581.389C474.373 577.105 474.373 570.398 478.657 566.247C504.214 541.253 518.218 507.704 518.218 471.851C518.218 399.023 458.951 339.755 386.122 339.755C372.561 339.755 359.28 341.75 346.562 345.753C340.846 347.467 334.848 344.321 333.135 338.751C331.421 333.034 334.567 327.037 340.136 325.323C354.982 320.611 370.405 318.321 386.256 318.321C470.932 318.321 539.772 387.147 539.772 471.838C539.772 513.393 523.345 552.377 493.785 581.509C491.643 583.504 488.925 584.508 486.355 584.508L486.221 584.669Z" fill="white"/>
<path d="M386.254 625.516C301.578 625.516 232.738 556.691 232.738 472C232.738 431.583 248.308 393.455 276.583 364.471C280.72 360.187 287.574 360.187 291.724 364.324C296.008 368.46 296.008 375.315 291.872 379.465C267.453 404.312 254.172 437.152 254.172 472C254.172 544.829 313.439 604.096 386.268 604.096C399.829 604.096 413.11 602.101 425.828 598.098C431.545 596.385 437.543 599.531 439.256 605.1C440.97 610.817 437.824 616.814 432.254 618.528C417.408 623.241 401.985 625.53 386.134 625.53L386.254 625.516Z" fill="white"/>
<path d="M500.489 596.945H471.934C466.083 596.945 461.224 592.085 461.224 586.234V557.679C461.224 551.829 466.083 546.969 471.934 546.969C477.784 546.969 482.644 551.829 482.644 557.679V575.524H500.489C506.34 575.524 511.2 580.384 511.2 586.234C511.2 592.085 506.34 596.945 500.489 596.945Z" fill="white"/>
<path d="M300.572 397.027C294.722 397.027 289.862 392.167 289.862 386.317V368.471H272.017C266.166 368.471 261.307 363.611 261.307 357.761C261.307 351.911 266.166 347.051 272.017 347.051H300.572C306.423 347.051 311.283 351.911 311.283 357.761V386.317C311.283 392.167 306.423 397.027 300.572 397.027Z" fill="white"/>
</g>
</g>
<defs>
<filter id="filter0_dddd_78_57180" x="0.711403" y="0.855766" width="1120.33" height="942.283" filterUnits="userSpaceOnUse" color-interpolation-filters="sRGB">
<feFlood flood-opacity="0" result="BackgroundImageFix"/>
<feColorMatrix in="SourceAlpha" type="matrix" values="0 0 0 0 0 0 0 0 0 0 0 0 0 0 0 0 0 0 127 0" result="hardAlpha"/>
<feOffset dx="17.1196"/>
<feGaussianBlur stdDeviation="18.8315"/>
<feColorMatrix type="matrix" values="0 0 0 0 0 0 0 0 0 0 0 0 0 0 0 0 0 0 0.1 0"/>
<feBlend mode="normal" in2="BackgroundImageFix" result="effect1_dropShadow_78_57180"/>
<feColorMatrix in="SourceAlpha" type="matrix" values="0 0 0 0 0 0 0 0 0 0 0 0 0 0 0 0 0 0 127 0" result="hardAlpha"/>
<feOffset dx="65.0543"/>
<feGaussianBlur stdDeviation="32.5272"/>
<feColorMatrix type="matrix" values="0 0 0 0 0 0 0 0 0 0 0 0 0 0 0 0 0 0 0.09 0"/>
<feBlend mode="normal" in2="effect1_dropShadow_78_57180" result="effect2_dropShadow_78_57180"/>
<feColorMatrix in="SourceAlpha" type="matrix" values="0 0 0 0 0 0 0 0 0 0 0 0 0 0 0 0 0 0 127 0" result="hardAlpha"/>
<feOffset dx="147.228"/>
<feGaussianBlur stdDeviation="44.5109"/>
<feColorMatrix type="matrix" values="0 0 0 0 0 0 0 0 0 0 0 0 0 0 0 0 0 0 0.05 0"/>
<feBlend mode="normal" in2="effect2_dropShadow_78_57180" result="effect3_dropShadow_78_57180"/>
<feColorMatrix in="SourceAlpha" type="matrix" values="0 0 0 0 0 0 0 0 0 0 0 0 0 0 0 0 0 0 127 0" result="hardAlpha"/>
<feOffset dx="263.641"/>
<feGaussianBlur stdDeviation="53.0707"/>
<feColorMatrix type="matrix" values="0 0 0 0 0 0 0 0 0 0 0 0 0 0 0 0 0 0 0.01 0"/>
<feBlend mode="normal" in2="effect3_dropShadow_78_57180" result="effect4_dropShadow_78_57180"/>
<feBlend mode="normal" in="SourceGraphic" in2="effect4_dropShadow_78_57180" result="shape"/>
</filter>
</defs>
</svg>
