<svg width="96" height="67" viewBox="0 0 96 67" fill="none" xmlns="http://www.w3.org/2000/svg">
<path d="M88.5044 0.667969H7.1924C3.4541 0.667969 0.325195 3.69917 0.325195 7.53517V59.7582C0.325195 63.4965 3.3564 66.6254 7.1924 66.6254H88.4034C92.2432 66.6254 95.2706 63.4926 95.2706 59.7582L95.2745 7.53517C95.2745 3.79687 92.2427 0.667969 88.5044 0.667969ZM91.7388 59.656C91.7388 61.4724 90.2232 62.988 88.4068 62.988H7.19179C5.37539 62.988 3.9613 61.4724 3.9613 59.7575V7.53447C3.9613 5.71807 5.47689 4.30397 7.19179 4.30397H88.5038C90.3202 4.30397 91.7343 5.81957 91.7343 7.53447L91.7388 59.656Z" fill="#0989FB"/>
<path d="M81.6376 32.184H49.5166C48.5049 32.184 47.7002 32.9926 47.7002 34.0004C47.7002 35.0121 48.5088 35.8168 49.5166 35.8168H81.6376C82.6493 35.8168 83.454 35.0082 83.454 34.0004C83.454 32.9887 82.6454 32.184 81.6376 32.184Z" fill="#0989FB"/>
<path d="M71.8406 41.676H49.5166C48.5049 41.676 47.7002 42.4846 47.7002 43.4924C47.7002 44.5041 48.5088 45.3088 49.5166 45.3088H71.8406C72.8523 45.3088 73.657 44.5002 73.657 43.4924C73.657 42.4846 72.8484 41.676 71.8406 41.676Z" fill="#0989FB"/>
<path d="M81.6376 22.7889H49.5166C48.5049 22.7889 47.7002 23.5975 47.7002 24.6053C47.7002 25.617 48.5088 26.4217 49.5166 26.4217H81.6376C82.6493 26.4217 83.454 25.6131 83.454 24.6053C83.3563 23.5975 82.6454 22.7889 81.6376 22.7889Z" fill="#0989FB"/>
<path d="M24.5664 33.598C30.1211 33.598 34.6684 29.0511 34.6684 23.496C34.6684 17.9413 30.1215 13.496 24.5664 13.496C19.0117 13.496 14.5664 18.0429 14.5664 23.496C14.5664 28.9491 19.0117 33.598 24.5664 33.598ZM24.5664 17.133C28.2031 17.133 31.1328 20.0627 31.1328 23.5978C31.1328 27.2345 28.2031 30.1642 24.5664 30.1642C20.9297 30.1642 18.1016 27.2345 18.1016 23.5978C18.1016 19.9611 20.9297 17.133 24.5664 17.133Z" fill="#0989FB"/>
<path d="M24.5665 34.9099C16.4845 34.9099 10.0195 41.4763 10.0195 49.5549V51.9807C10.0195 52.9924 10.8281 53.7971 11.8359 53.7971C12.8476 53.7971 13.6523 52.9885 13.6523 51.9807V49.5549C13.6523 43.4924 18.6015 38.4459 24.6643 38.4459C30.7271 38.4459 35.7733 43.3951 35.7733 49.5549V51.9807C35.7733 52.9924 36.5819 53.7971 37.5897 53.7971C38.6014 53.7971 39.4061 52.9885 39.4061 51.9807V49.5549C39.2108 41.3752 32.6448 34.9099 24.5665 34.9099Z" fill="#0989FB"/>
</svg>
