<svg width="28" height="24" viewBox="0 0 28 24" fill="none" xmlns="http://www.w3.org/2000/svg">
<path d="M16.6122 23.3552C16.6122 23.7113 16.3235 24 15.9675 24C15.6114 24 15.3227 23.7113 15.3227 23.3552V17.7519C15.3227 17.0819 15.5954 16.4742 16.0356 16.0339C16.4759 15.5937 17.0836 15.321 17.7536 15.321H21.4252C21.7812 15.321 22.0699 15.6097 22.0699 15.9658V17.0322L25.5909 14.8589C25.792 14.7352 25.9469 14.5736 26.0513 14.3875C26.154 14.2032 26.2087 13.9852 26.2087 13.747C26.2087 13.5079 26.154 13.2908 26.0513 13.1064C25.9469 12.9204 25.792 12.7597 25.5909 12.6359L22.0699 10.4626V11.5291C22.0699 11.8851 21.7812 12.173 21.4252 12.173H17.7536C17.0836 12.173 16.4759 11.9003 16.0356 11.46C15.5954 11.0198 15.3227 10.4121 15.3227 9.74208V6.07302C15.3227 5.71697 15.6114 5.42826 15.9675 5.42826H17.0339L14.8606 1.90734C14.7369 1.70617 14.5761 1.55129 14.3892 1.44692C14.2049 1.34423 13.9877 1.28952 13.7487 1.28952C13.5096 1.28952 13.2925 1.34423 13.1081 1.44692C12.9213 1.55045 12.7605 1.70617 12.6368 1.90734L10.4634 5.42826H11.5299C11.8859 5.42826 12.1747 5.71697 12.1747 6.07302V9.74208C12.1747 10.4121 11.9019 11.0198 11.4617 11.46C11.0215 11.9003 10.4138 12.173 9.74377 12.173H6.07218C5.71613 12.173 5.42742 11.8843 5.42742 11.5291V10.4626L1.9065 12.6359C1.70533 12.7597 1.55045 12.9204 1.44608 13.1064C1.34339 13.2908 1.28868 13.5088 1.28868 13.747C1.28868 13.9852 1.34339 14.2032 1.44608 14.3875C1.55045 14.5736 1.70533 14.7352 1.9065 14.8589L5.42742 17.0322V15.9658C5.42742 15.6097 5.71613 15.321 6.07218 15.321H9.74377C10.4138 15.321 11.0215 15.5937 11.4617 16.0339C11.9019 16.4742 12.1747 17.0819 12.1747 17.7519V23.3552C12.1747 23.7113 11.8859 24 11.5299 24C11.1739 24 10.8851 23.7113 10.8851 23.3552V17.7519C10.8851 17.4379 10.7572 17.1526 10.5501 16.9455C10.3431 16.7385 10.0577 16.6105 9.74377 16.6105H6.71694V18.1845H6.71441C6.71441 18.2999 6.68327 18.4169 6.61845 18.5221C6.43243 18.8234 6.03682 18.9168 5.73465 18.7308L1.23228 15.9515C0.841721 15.7107 0.534493 15.39 0.324063 15.0121C0.112791 14.6333 0 14.2032 0 13.747C0 13.2899 0.111949 12.8615 0.324063 12.4819C0.534493 12.1048 0.841721 11.7833 1.23228 11.5425L5.68751 8.79262C5.79525 8.71266 5.92824 8.66468 6.07218 8.66468C6.42823 8.66468 6.71609 8.95339 6.71609 9.30944V10.8835H9.74292C10.0569 10.8835 10.3422 10.7547 10.5493 10.5485C10.7564 10.3414 10.8843 10.056 10.8843 9.74208V6.71694H9.31028V6.71441C9.19496 6.71441 9.07796 6.68327 8.97275 6.61845C8.67057 6.43243 8.57714 6.03683 8.764 5.73465L11.5434 1.23228C11.7849 0.841721 12.1056 0.534493 12.4827 0.324063C12.8615 0.112791 13.2916 0 13.7478 0C14.204 0 14.6333 0.111949 15.0129 0.324063C15.39 0.534493 15.7116 0.841721 15.9523 1.23228L18.7022 5.68751C18.7822 5.79525 18.8301 5.92824 18.8301 6.07218C18.8301 6.42823 18.5414 6.71609 18.1854 6.71609H16.6114V9.74124C16.6114 10.0552 16.7393 10.3405 16.9464 10.5476C17.1534 10.7547 17.4388 10.8826 17.7527 10.8826H20.7796V9.3086H20.7821C20.7821 9.19328 20.8132 9.07628 20.8781 8.97107C21.0641 8.66889 21.4597 8.57546 21.7619 8.76232L26.2642 11.5417C26.6548 11.7833 26.962 12.104 27.1724 12.481C27.3837 12.8598 27.4965 13.2891 27.4965 13.7462C27.4965 14.2024 27.3846 14.6316 27.1724 15.0113C26.962 15.3883 26.6548 15.7099 26.2642 15.9506L21.809 18.7005C21.7013 18.7805 21.5683 18.8285 21.4243 18.8285C21.0683 18.8285 20.7804 18.5398 20.7804 18.1837V16.6097H17.7536C17.4396 16.6097 17.1543 16.7376 16.9472 16.9447C16.7402 17.1518 16.6122 17.4371 16.6122 17.7511V23.3544V23.3552Z" fill="#00A2FF"/>
</svg>
