<svg width="80" height="80" viewBox="0 0 80 80" fill="none" xmlns="http://www.w3.org/2000/svg">
<path d="M43.5355 4.5456C41.5829 2.41547 38.4171 2.41546 36.4645 4.5456L3.23223 40.7989C2.25592 41.864 2.25592 43.5908 3.23223 44.6559C4.20854 45.721 5.79146 45.721 6.76777 44.6559L10 41.1298V70.0002C10 74.5188 13.3579 78.182 17.5 78.182H62.5C66.6421 78.182 70 74.5188 70 70.0002V41.1298L73.2322 44.6559C74.2085 45.721 75.7915 45.721 76.7678 44.6559C77.7441 43.5908 77.7441 41.864 76.7678 40.7989L65 27.9614V10.0001C65 8.49391 63.8807 7.27287 62.5 7.27287H57.5C56.1193 7.27287 55 8.49391 55 10.0001V17.0523L43.5355 4.5456ZM65 35.6753V70.0002C65 71.5064 63.8807 72.7274 62.5 72.7274H17.5C16.1193 72.7274 15 71.5064 15 70.0002V35.6753L40 8.40254L65 35.6753Z" fill="black"/>
</svg>
