<svg width="460" height="71" viewBox="0 0 460 71" fill="none" xmlns="http://www.w3.org/2000/svg">
<path d="M111.1 1.2002H100.8V31.2002H63.6004V1.2002H53.4004V69.4002H63.6004V38.3002H100.8V69.4002H111.1V1.2002Z" fill="#010202"/>
<path d="M13 69.4002H23.2V1.2002H13V69.4002Z" fill="#010202"/>
<mask id="mask0_706_4489" style="mask-type:luminance" maskUnits="userSpaceOnUse" x="132" y="0" width="63" height="71">
<path d="M194.5 0H132.8V70.5H194.5V0Z" fill="white"/>
</mask>
<g mask="url(#mask0_706_4489)">
<path fill-rule="evenodd" clip-rule="evenodd" d="M184.2 36.6001V63.0001C181.3 65.0001 176.5 66.5001 171 66.5001C155 66.5001 144.1 52.4001 144.1 34.6001C144.1 17.8001 153.7 4.00011 169.6 4.00011C180.6 4.00011 186.9 9.2001 191.5 14.9001H192V3.1001C188.7 2.3001 179.5 0.100098 170 0.100098C146.8 0.100098 132.7 17.0001 132.7 35.5001C132.7 55.8001 148 70.5001 170.2 70.5001C181.2 70.5001 189.8 66.3001 194.4 64.9001V36.5001H184.2V36.6001Z" fill="#010202"/>
</g>
<path fill-rule="evenodd" clip-rule="evenodd" d="M201.2 1.8999C203.5 1.8999 205.3 3.69991 205.3 5.99991C205.3 8.29991 203.5 10.0999 201.2 10.0999C198.9 10.0999 197.1 8.29991 197.1 5.99991C197.1 3.69991 198.9 1.8999 201.2 1.8999ZM201.2 2.49991C199.3 2.49991 197.9 3.8999 197.9 5.8999C197.9 7.8999 199.4 9.2999 201.2 9.2999C203.1 9.2999 204.6 7.8999 204.6 5.8999C204.6 3.8999 203.2 2.49991 201.2 2.49991ZM199.8 3.8999H201.2C202.1 3.8999 202.7 4.2999 202.7 5.0999C202.7 5.6999 202.3 5.99991 201.9 6.19991L203 7.8999H202.1L201.1 6.2999H200.7V7.8999H199.8V3.8999ZM201.2 5.7999C201.7 5.7999 201.9 5.59991 201.9 5.19991C201.9 4.79991 201.6 4.5999 201.2 4.5999H200.7V5.7999H201.2Z" fill="#010202"/>
<path d="M231.3 1.2002H234.6V12.7002H254.1V1.2002H257.4V26.6002H254.1V15.3002H234.6V26.6002H231.3V1.2002Z" fill="#010202"/>
<path fill-rule="evenodd" clip-rule="evenodd" d="M264.399 14.0999V13.7999C264.399 6.5999 270.999 0.899902 281.099 0.899902C291.199 0.899902 297.799 6.59991 297.799 13.6999V13.9999C297.799 21.1999 291.199 26.8999 281.199 26.8999C270.999 26.9999 264.399 21.1999 264.399 14.0999ZM294.399 13.9999V13.6999C294.399 7.99991 289.499 3.3999 281.099 3.3999C272.599 3.3999 267.799 7.6999 267.799 13.7999V14.0999C267.799 20.1999 273.299 24.3999 281.199 24.3999C289.399 24.3999 294.399 20.0999 294.399 13.9999Z" fill="#010202"/>
<path d="M311.1 3.80019H300.7V1.2002H324.9V3.80019H314.5V26.7002H311.2V3.80019H311.1Z" fill="#010202"/>
<path d="M331.1 1.2002H352.5V3.80019H334.4V12.4002H349.6V15.0002H334.4V24.2002H353.3V26.8002H331V1.2002H331.1Z" fill="#010202"/>
<path d="M359.899 1.2002H363.199V24.1002H379.599V26.7002H359.899V1.2002Z" fill="#010202"/>
<path fill-rule="evenodd" clip-rule="evenodd" d="M383.6 18.8999H386.8C387.3 21.9999 389.7 24.3999 396.5 24.3999C401.9 24.3999 405 22.5999 405 19.4999C405 16.4999 402.7 15.4999 395.8 14.6999C388.8 13.8999 384.9 12.1999 384.9 7.69991C384.9 3.79991 389 0.899902 395.7 0.899902C402.3 0.899902 406.5 3.1999 407.2 7.8999H404.2C403.4 4.5999 400.6 3.3999 395.7 3.3999C390.3 3.3999 388 4.9999 388 7.5999C388 9.8999 389.7 11.1999 396.8 11.9999C404.3 12.8999 408.2 14.3999 408.2 19.3999C408.2 23.7999 403.9 26.9999 396.5 26.9999C388 26.9999 384.2 23.3999 383.6 18.8999Z" fill="#010202"/>
<path fill-rule="evenodd" clip-rule="evenodd" d="M231.3 43.8999H243.4C249.1 43.8999 253.8 45.9999 253.8 51.3999V51.4999C253.8 55.8999 250.1 58.0999 246.5 58.6999L255.8 69.2999H251.8L242.7 58.9999H234.6V69.2999H231.3V43.8999ZM243.6 56.4999C247.8 56.4999 250.5 54.7999 250.5 51.4999V51.3999C250.5 47.7999 247.6 46.3999 243.6 46.3999H234.6V56.4999H243.6Z" fill="#010202"/>
<path d="M263.1 43.8999H284.5V46.4999H266.4V55.0999H281.6V57.6999H266.4V66.8999H285.3V69.4999H263V43.8999H263.1Z" fill="#010202"/>
<path fill-rule="evenodd" clip-rule="evenodd" d="M291 61.5H294.2C294.7 64.6 297.1 67 303.9 67C309.3 67 312.4 65.2 312.4 62.1C312.4 59.1 310.1 58.2 303.2 57.3C296.2 56.5 292.3 54.8 292.3 50.3C292.3 46.4 296.4 43.5 303.1 43.5C309.7 43.5 313.9 45.8 314.6 50.5H311.6C310.8 47.2 308 46 303.1 46C297.7 46 295.4 47.6 295.4 50.2C295.4 52.5 297.1 53.8 304.2 54.6C311.7 55.5 315.6 56.9 315.6 62C315.6 66.4 311.3 69.6 303.9 69.6C295.4 69.6 291.6 66 291 61.5Z" fill="#010202"/>
<path fill-rule="evenodd" clip-rule="evenodd" d="M322 56.7V56.4C322 49.2 328.6 43.5 338.7 43.5C348.8 43.5 355.4 49.2 355.4 56.3V56.6C355.4 63.8 348.8 69.6 338.8 69.6C328.6 69.6 322 63.9 322 56.7ZM352 56.6V56.3C352 50.6 347.1 46 338.7 46C330.2 46 325.4 50.3 325.4 56.3V56.6C325.4 62.7 330.9 66.9 338.8 66.9C346.9 67 352 62.8 352 56.6Z" fill="#010202"/>
<path fill-rule="evenodd" clip-rule="evenodd" d="M363.7 43.8999H375.8C381.5 43.8999 386.2 45.9999 386.2 51.3999V51.4999C386.2 55.8999 382.5 58.0999 378.9 58.6999L388.2 69.2999H384.2L375.1 58.9999H367V69.2999H363.7V43.8999ZM376 56.4999C380.2 56.4999 382.9 54.7999 382.9 51.4999V51.3999C382.9 47.7999 380 46.3999 376 46.3999H367V56.4999H376Z" fill="#010202"/>
<path d="M402.7 46.3999H392.3V43.8999H416.5V46.4999H406.1V69.3999H402.8V46.3999H402.7Z" fill="#010202"/>
<path fill-rule="evenodd" clip-rule="evenodd" d="M421.1 61.5H424.3C424.8 64.6 427.2 67 434 67C439.4 67 442.5 65.2 442.5 62.1C442.5 59.1 440.3 58.2 433.3 57.3C426.3 56.5 422.4 54.8 422.4 50.3C422.4 46.4 426.5 43.5 433.2 43.5C439.8 43.5 444.1 45.8 444.7 50.5H441.7C440.9 47.2 438.2 46 433.2 46C427.8 46 425.5 47.6 425.5 50.2C425.5 52.5 427.2 53.8 434.3 54.6C441.8 55.5 445.7 56.9 445.7 62C445.7 66.4 441.4 69.6 434 69.6C425.5 69.6 421.7 66 421.1 61.5Z" fill="#010202"/>
<mask id="mask1_706_4489" style="mask-type:luminance" maskUnits="userSpaceOnUse" x="422" y="0" width="25" height="27">
<path d="M446.999 0.899902H422.899V26.8999H446.999V0.899902Z" fill="white"/>
</mask>
<g mask="url(#mask1_706_4489)">
<path fill-rule="evenodd" clip-rule="evenodd" d="M439.899 23.1998C437.999 25.2998 435.299 26.8998 431.599 26.8998C426.399 26.8998 422.899 24.3998 422.899 20.0998C422.899 15.9998 425.999 13.7998 429.299 12.5998C427.599 11.0998 426.499 9.29981 426.499 6.89981C426.499 2.99981 429.699 0.799805 433.299 0.799805C437.199 0.799805 439.699 3.29981 439.699 6.69981C439.699 9.19981 437.699 11.6998 433.799 13.1998L439.999 19.4998L443.999 13.4998H446.699L441.599 21.1998L446.899 26.5998H443.099L439.899 23.1998ZM438.399 21.5998L431.099 14.0998C428.099 15.1998 425.899 16.8998 425.899 19.8998C425.899 22.6998 427.899 24.3998 431.699 24.3998C434.599 24.4998 436.899 23.2998 438.399 21.5998ZM437.099 6.69981C437.099 4.79981 435.699 3.19981 433.299 3.19981C430.999 3.19981 429.199 4.49982 429.199 6.99982C429.199 8.89982 430.499 10.3998 432.199 11.7998C435.799 10.2998 437.099 8.69981 437.099 6.69981Z" fill="#010202"/>
</g>
</svg>
