<svg width="445" height="115" viewBox="0 0 445 115" fill="none" xmlns="http://www.w3.org/2000/svg">
<path d="M251.1 1.19189H240.8V30.9791H203.6V1.19189H193.4V68.9082H203.6V38.0288H240.8V68.9082H251.1V1.19189Z" fill="#010202"/>
<path d="M153 68.9082H163.2V1.19189H153V68.9082Z" fill="#010202"/>
<mask id="mask0_706_4433" style="mask-type:luminance" maskUnits="userSpaceOnUse" x="272" y="0" width="63" height="70">
<path d="M334.5 0H272.8V70H334.5V0Z" fill="white"/>
</mask>
<g mask="url(#mask0_706_4433)">
<path fill-rule="evenodd" clip-rule="evenodd" d="M324.2 36.3407V62.5535C321.3 64.5393 316.5 66.0287 311 66.0287C295 66.0287 284.1 52.0287 284.1 34.3549C284.1 17.6741 293.7 3.97196 309.6 3.97196C320.6 3.97196 326.9 9.13507 331.5 14.7946H332V3.07833C328.7 2.28401 319.5 0.0996094 310 0.0996094C286.8 0.0996094 272.7 16.8798 272.7 35.2486C272.7 55.4046 288 70.0003 310.2 70.0003C321.2 70.0003 329.8 65.8301 334.4 64.44V36.2415H324.2V36.3407Z" fill="#010202"/>
</g>
<path fill-rule="evenodd" clip-rule="evenodd" d="M341.2 1.88623C343.5 1.88623 345.3 3.67347 345.3 5.95716C345.3 8.24085 343.5 10.0281 341.2 10.0281C338.9 10.0281 337.1 8.24085 337.1 5.95716C337.1 3.67347 338.9 1.88623 341.2 1.88623ZM341.2 2.48198C339.3 2.48198 337.9 3.87205 337.9 5.85786C337.9 7.84368 339.4 9.23374 341.2 9.23374C343.1 9.23374 344.6 7.84368 344.6 5.85786C344.6 3.87205 343.2 2.48198 341.2 2.48198ZM339.8 3.87205H341.2C342.1 3.87205 342.7 4.26921 342.7 5.06353C342.7 5.65928 342.3 5.95716 341.9 6.15574L343 7.84368H342.1L341.1 6.25502H340.7V7.84368H339.8V3.87205ZM341.2 5.75856C341.7 5.75856 341.9 5.55999 341.9 5.16283C341.9 4.76567 341.6 4.56708 341.2 4.56708H340.7V5.75856H341.2Z" fill="#010202"/>
<path d="M0 89.2983H3.30002V100.717H22.8V89.2983H26.1V114.518H22.8V103.298H3.30002V114.518H0V89.2983Z" fill="#010202"/>
<path fill-rule="evenodd" clip-rule="evenodd" d="M33.0996 102.106V101.809C33.0996 94.6596 39.6996 89 49.7996 89C59.8996 89 66.4996 94.6596 66.4996 101.709V102.007C66.4996 109.156 59.8996 114.816 49.8996 114.816C39.6996 114.915 33.0996 109.156 33.0996 102.106ZM63.0996 102.007V101.709C63.0996 96.0496 58.1996 91.4823 49.7996 91.4823C41.2996 91.4823 36.4996 95.7518 36.4996 101.809V102.106C36.4996 108.163 41.9996 112.333 49.8996 112.333C58.0996 112.333 63.0996 108.064 63.0996 102.007Z" fill="#010202"/>
<path d="M79.8004 91.8799H69.4004V89.2983H93.6004V91.8799H83.2004V114.617H79.9004V91.8799H79.8004Z" fill="#010202"/>
<path d="M99.8002 89.2983H121.2V91.8799H103.1V100.419H118.3V103H103.1V112.135H122V114.717H99.7002V89.2983H99.8002Z" fill="#010202"/>
<path d="M128.6 89.2983H131.9V112.036H148.3V114.617H128.6V89.2983Z" fill="#010202"/>
<path fill-rule="evenodd" clip-rule="evenodd" d="M152.3 106.872H155.5C156 109.95 158.4 112.333 165.2 112.333C170.6 112.333 173.7 110.546 173.7 107.468C173.7 104.489 171.4 103.496 164.5 102.702C157.5 101.908 153.6 100.22 153.6 95.7518C153.6 91.8794 157.7 89 164.4 89C171 89 175.2 91.2837 175.9 95.9504H172.9C172.1 92.6738 169.3 91.4823 164.4 91.4823C159 91.4823 156.7 93.0709 156.7 95.6525C156.7 97.9362 158.4 99.227 165.5 100.021C173 100.915 176.9 102.404 176.9 107.369C176.9 111.738 172.6 114.915 165.2 114.915C156.7 114.915 152.9 111.34 152.3 106.872Z" fill="#010202"/>
<path fill-rule="evenodd" clip-rule="evenodd" d="M230 89.397H242.1C247.8 89.397 252.5 91.4821 252.5 96.8438V96.9431C252.5 101.312 248.8 103.496 245.2 104.092L254.5 114.617H250.5L241.4 104.39H233.3V114.617H230V89.397ZM242.3 101.908C246.5 101.908 249.2 100.22 249.2 96.9431V96.8438C249.2 93.2693 246.3 91.8792 242.3 91.8792H233.3V101.908H242.3Z" fill="#010202"/>
<path d="M261.8 89.397H283.2V91.9785H265.1V100.518H280.3V103.099H265.1V112.234H284V114.815H261.7V89.397H261.8Z" fill="#010202"/>
<path fill-rule="evenodd" clip-rule="evenodd" d="M289.7 106.872H292.9C293.4 109.95 295.8 112.333 302.6 112.333C308 112.333 311.1 110.546 311.1 107.468C311.1 104.489 308.8 103.596 301.9 102.702C294.9 101.908 291 100.22 291 95.7518C291 91.8794 295.1 89 301.8 89C308.4 89 312.6 91.2837 313.3 95.9504H310.3C309.5 92.6738 306.7 91.4823 301.8 91.4823C296.4 91.4823 294.1 93.0709 294.1 95.6525C294.1 97.9362 295.8 99.2269 302.9 100.021C310.4 100.915 314.3 102.305 314.3 107.369C314.3 111.738 310 114.915 302.6 114.915C294.1 114.915 290.3 111.34 289.7 106.872Z" fill="#010202"/>
<path fill-rule="evenodd" clip-rule="evenodd" d="M320.7 102.106V101.809C320.7 94.6596 327.3 89 337.4 89C347.5 89 354.1 94.6596 354.1 101.709V102.007C354.1 109.156 347.5 114.915 337.5 114.915C327.3 114.915 320.7 109.255 320.7 102.106ZM350.7 102.007V101.709C350.7 96.0496 345.8 91.4823 337.4 91.4823C328.9 91.4823 324.1 95.7518 324.1 101.709V102.007C324.1 108.064 329.6 112.234 337.5 112.234C345.6 112.333 350.7 108.163 350.7 102.007Z" fill="#010202"/>
<path fill-rule="evenodd" clip-rule="evenodd" d="M362.4 89.397H374.5C380.2 89.397 384.9 91.4821 384.9 96.8438V96.9431C384.9 101.312 381.2 103.496 377.6 104.092L386.9 114.617H382.9L373.8 104.39H365.7V114.617H362.4V89.397ZM374.7 101.908C378.9 101.908 381.6 100.22 381.6 96.9431V96.8438C381.6 93.2693 378.7 91.8792 374.7 91.8792H365.7V101.908H374.7Z" fill="#010202"/>
<path d="M401.4 91.8792H391V89.397H415.2V91.9785H404.8V114.716H401.5V91.8792H401.4Z" fill="#010202"/>
<path fill-rule="evenodd" clip-rule="evenodd" d="M419.8 106.872H423C423.5 109.95 425.9 112.333 432.7 112.333C438.1 112.333 441.2 110.546 441.2 107.468C441.2 104.489 439 103.596 432 102.702C425 101.908 421.1 100.22 421.1 95.7518C421.1 91.8794 425.2 89 431.9 89C438.5 89 442.8 91.2837 443.4 95.9504H440.4C439.6 92.6738 436.9 91.4823 431.9 91.4823C426.5 91.4823 424.2 93.0709 424.2 95.6525C424.2 97.9362 425.9 99.2269 433 100.021C440.5 100.915 444.4 102.305 444.4 107.369C444.4 111.738 440.1 114.915 432.7 114.915C424.2 114.915 420.4 111.34 419.8 106.872Z" fill="#010202"/>
<mask id="mask1_706_4433" style="mask-type:luminance" maskUnits="userSpaceOnUse" x="191" y="89" width="25" height="26">
<path d="M215.7 89H191.6V114.816H215.7V89Z" fill="white"/>
</mask>
<g mask="url(#mask1_706_4433)">
<path fill-rule="evenodd" clip-rule="evenodd" d="M208.6 111.142C206.7 113.227 204 114.815 200.3 114.815C195.1 114.815 191.6 112.333 191.6 108.064C191.6 103.993 194.7 101.808 198 100.617C196.3 99.1273 195.2 97.3401 195.2 94.9571C195.2 91.0848 198.4 88.9004 202 88.9004C205.9 88.9004 208.4 91.3827 208.4 94.7586C208.4 97.2408 206.4 99.7231 202.5 101.212L208.7 107.468L212.7 101.51H215.4L210.3 109.156L215.6 114.517H211.8L208.6 111.142ZM207.1 109.553L199.8 102.106C196.8 103.198 194.6 104.886 194.6 107.865C194.6 110.645 196.6 112.333 200.4 112.333C203.3 112.432 205.6 111.241 207.1 109.553ZM205.8 94.7586C205.8 92.872 204.4 91.2834 202 91.2834C199.7 91.2834 197.9 92.5742 197.9 95.0564C197.9 96.943 199.2 98.4323 200.9 99.8224C204.5 98.333 205.8 96.7444 205.8 94.7586Z" fill="#010202"/>
</g>
</svg>
