<svg width="434" height="71" viewBox="0 0 434 71" fill="none" xmlns="http://www.w3.org/2000/svg">
<path d="M98.1004 1.2002H87.8004V31.2002H50.6004V1.2002H40.4004V69.4002H50.6004V38.3002H87.8004V69.4002H98.1004V1.2002Z" fill="#010202"/>
<path d="M0 69.4002H10.2V1.2002H0V69.4002Z" fill="#010202"/>
<mask id="mask0_706_4489" style="mask-type:luminance" maskUnits="userSpaceOnUse" x="119" y="0" width="63" height="71">
<path d="M181.5 0H119.8V70.5H181.5V0Z" fill="white"/>
</mask>
<g mask="url(#mask0_706_4489)">
<path fill-rule="evenodd" clip-rule="evenodd" d="M171.2 36.6001V63.0001C168.3 65.0001 163.5 66.5001 158 66.5001C142 66.5001 131.1 52.4001 131.1 34.6001C131.1 17.8001 140.7 4.00011 156.6 4.00011C167.6 4.00011 173.9 9.2001 178.5 14.9001H179V3.1001C175.7 2.3001 166.5 0.100098 157 0.100098C133.8 0.100098 119.7 17.0001 119.7 35.5001C119.7 55.8001 135 70.5001 157.2 70.5001C168.2 70.5001 176.8 66.3001 181.4 64.9001V36.5001H171.2V36.6001Z" fill="#010202"/>
</g>
<path fill-rule="evenodd" clip-rule="evenodd" d="M188.2 1.8999C190.5 1.8999 192.3 3.69991 192.3 5.99991C192.3 8.29991 190.5 10.0999 188.2 10.0999C185.9 10.0999 184.1 8.29991 184.1 5.99991C184.1 3.69991 185.9 1.8999 188.2 1.8999ZM188.2 2.49991C186.3 2.49991 184.9 3.8999 184.9 5.8999C184.9 7.8999 186.4 9.2999 188.2 9.2999C190.1 9.2999 191.6 7.8999 191.6 5.8999C191.6 3.8999 190.2 2.49991 188.2 2.49991ZM186.8 3.8999H188.2C189.1 3.8999 189.7 4.2999 189.7 5.0999C189.7 5.6999 189.3 5.99991 188.9 6.19991L190 7.8999H189.1L188.1 6.2999H187.7V7.8999H186.8V3.8999ZM188.2 5.7999C188.7 5.7999 188.9 5.59991 188.9 5.19991C188.9 4.79991 188.6 4.5999 188.2 4.5999H187.7V5.7999H188.2Z" fill="#010202"/>
<path d="M218.3 1.2002H221.6V12.7002H241.1V1.2002H244.4V26.6002H241.1V15.3002H221.6V26.6002H218.3V1.2002Z" fill="#010202"/>
<path fill-rule="evenodd" clip-rule="evenodd" d="M251.399 14.0999V13.7999C251.399 6.5999 257.999 0.899902 268.099 0.899902C278.199 0.899902 284.799 6.59991 284.799 13.6999V13.9999C284.799 21.1999 278.199 26.8999 268.199 26.8999C257.999 26.9999 251.399 21.1999 251.399 14.0999ZM281.399 13.9999V13.6999C281.399 7.99991 276.499 3.3999 268.099 3.3999C259.599 3.3999 254.799 7.6999 254.799 13.7999V14.0999C254.799 20.1999 260.299 24.3999 268.199 24.3999C276.399 24.3999 281.399 20.0999 281.399 13.9999Z" fill="#010202"/>
<path d="M298.1 3.80019H287.7V1.2002H311.9V3.80019H301.5V26.7002H298.2V3.80019H298.1Z" fill="#010202"/>
<path d="M318.1 1.2002H339.5V3.80019H321.4V12.4002H336.6V15.0002H321.4V24.2002H340.3V26.8002H318V1.2002H318.1Z" fill="#010202"/>
<path d="M346.899 1.2002H350.199V24.1002H366.599V26.7002H346.899V1.2002Z" fill="#010202"/>
<path fill-rule="evenodd" clip-rule="evenodd" d="M370.6 18.8999H373.8C374.3 21.9999 376.7 24.3999 383.5 24.3999C388.9 24.3999 392 22.5999 392 19.4999C392 16.4999 389.7 15.4999 382.8 14.6999C375.8 13.8999 371.9 12.1999 371.9 7.69991C371.9 3.79991 376 0.899902 382.7 0.899902C389.3 0.899902 393.5 3.1999 394.2 7.8999H391.2C390.4 4.5999 387.6 3.3999 382.7 3.3999C377.3 3.3999 375 4.9999 375 7.5999C375 9.8999 376.7 11.1999 383.8 11.9999C391.3 12.8999 395.2 14.3999 395.2 19.3999C395.2 23.7999 390.9 26.9999 383.5 26.9999C375 26.9999 371.2 23.3999 370.6 18.8999Z" fill="#010202"/>
<path fill-rule="evenodd" clip-rule="evenodd" d="M218.3 43.8999H230.4C236.1 43.8999 240.8 45.9999 240.8 51.3999V51.4999C240.8 55.8999 237.1 58.0999 233.5 58.6999L242.8 69.2999H238.8L229.7 58.9999H221.6V69.2999H218.3V43.8999ZM230.6 56.4999C234.8 56.4999 237.5 54.7999 237.5 51.4999V51.3999C237.5 47.7999 234.6 46.3999 230.6 46.3999H221.6V56.4999H230.6Z" fill="#010202"/>
<path d="M250.1 43.8999H271.5V46.4999H253.4V55.0999H268.6V57.6999H253.4V66.8999H272.3V69.4999H250V43.8999H250.1Z" fill="#010202"/>
<path fill-rule="evenodd" clip-rule="evenodd" d="M278 61.5H281.2C281.7 64.6 284.1 67 290.9 67C296.3 67 299.4 65.2 299.4 62.1C299.4 59.1 297.1 58.2 290.2 57.3C283.2 56.5 279.3 54.8 279.3 50.3C279.3 46.4 283.4 43.5 290.1 43.5C296.7 43.5 300.9 45.8 301.6 50.5H298.6C297.8 47.2 295 46 290.1 46C284.7 46 282.4 47.6 282.4 50.2C282.4 52.5 284.1 53.8 291.2 54.6C298.7 55.5 302.6 56.9 302.6 62C302.6 66.4 298.3 69.6 290.9 69.6C282.4 69.6 278.6 66 278 61.5Z" fill="#010202"/>
<path fill-rule="evenodd" clip-rule="evenodd" d="M309 56.7V56.4C309 49.2 315.6 43.5 325.7 43.5C335.8 43.5 342.4 49.2 342.4 56.3V56.6C342.4 63.8 335.8 69.6 325.8 69.6C315.6 69.6 309 63.9 309 56.7ZM339 56.6V56.3C339 50.6 334.1 46 325.7 46C317.2 46 312.4 50.3 312.4 56.3V56.6C312.4 62.7 317.9 66.9 325.8 66.9C333.9 67 339 62.8 339 56.6Z" fill="#010202"/>
<path fill-rule="evenodd" clip-rule="evenodd" d="M350.7 43.8999H362.8C368.5 43.8999 373.2 45.9999 373.2 51.3999V51.4999C373.2 55.8999 369.5 58.0999 365.9 58.6999L375.2 69.2999H371.2L362.1 58.9999H354V69.2999H350.7V43.8999ZM363 56.4999C367.2 56.4999 369.9 54.7999 369.9 51.4999V51.3999C369.9 47.7999 367 46.3999 363 46.3999H354V56.4999H363Z" fill="#010202"/>
<path d="M389.7 46.3999H379.3V43.8999H403.5V46.4999H393.1V69.3999H389.8V46.3999H389.7Z" fill="#010202"/>
<path fill-rule="evenodd" clip-rule="evenodd" d="M408.1 61.5H411.3C411.8 64.6 414.2 67 421 67C426.4 67 429.5 65.2 429.5 62.1C429.5 59.1 427.3 58.2 420.3 57.3C413.3 56.5 409.4 54.8 409.4 50.3C409.4 46.4 413.5 43.5 420.2 43.5C426.8 43.5 431.1 45.8 431.7 50.5H428.7C427.9 47.2 425.2 46 420.2 46C414.8 46 412.5 47.6 412.5 50.2C412.5 52.5 414.2 53.8 421.3 54.6C428.8 55.5 432.7 56.9 432.7 62C432.7 66.4 428.4 69.6 421 69.6C412.5 69.6 408.7 66 408.1 61.5Z" fill="#010202"/>
<mask id="mask1_706_4489" style="mask-type:luminance" maskUnits="userSpaceOnUse" x="409" y="0" width="25" height="27">
<path d="M433.999 0.899902H409.899V26.8999H433.999V0.899902Z" fill="white"/>
</mask>
<g mask="url(#mask1_706_4489)">
<path fill-rule="evenodd" clip-rule="evenodd" d="M426.899 23.1998C424.999 25.2998 422.299 26.8998 418.599 26.8998C413.399 26.8998 409.899 24.3998 409.899 20.0998C409.899 15.9998 412.999 13.7998 416.299 12.5998C414.599 11.0998 413.499 9.29981 413.499 6.89981C413.499 2.99981 416.699 0.799805 420.299 0.799805C424.199 0.799805 426.699 3.29981 426.699 6.69981C426.699 9.19981 424.699 11.6998 420.799 13.1998L426.999 19.4998L430.999 13.4998H433.699L428.599 21.1998L433.899 26.5998H430.099L426.899 23.1998ZM425.399 21.5998L418.099 14.0998C415.099 15.1998 412.899 16.8998 412.899 19.8998C412.899 22.6998 414.899 24.3998 418.699 24.3998C421.599 24.4998 423.899 23.2998 425.399 21.5998ZM424.099 6.69981C424.099 4.79981 422.699 3.19981 420.299 3.19981C417.999 3.19981 416.199 4.49982 416.199 6.99982C416.199 8.89982 417.499 10.3998 419.199 11.7998C422.799 10.2998 424.099 8.69981 424.099 6.69981Z" fill="#010202"/>
</g>
</svg>
