<svg width="1120" height="943" viewBox="0 0 1120 943" fill="none" xmlns="http://www.w3.org/2000/svg">
<g filter="url(#filter0_dddd_82_57204)">
<rect x="21" y="107" width="729" height="729" rx="364.5" fill="#00A2FF"/>
</g>
<g clip-path="url(#clip0_82_57204)">
<path d="M302.002 441.024C289.822 469.14 302.777 501.908 330.866 514.102C332.136 514.65 333.032 515.733 333.393 516.963C333.393 516.977 333.393 516.977 333.406 516.99C333.433 517.07 333.446 517.15 333.459 517.231C333.473 517.284 333.486 517.351 333.5 517.405C333.513 517.471 333.513 517.525 333.526 517.592C333.54 517.672 333.553 517.752 333.566 517.832C333.633 518.554 333.526 519.303 333.205 520.012L308.044 578.047C307.309 579.745 305.651 580.761 303.913 580.761C303.338 580.761 302.75 580.654 302.189 580.414C294.461 577.205 287.055 573.248 280.196 568.676C278.525 567.566 277.803 565.467 278.405 563.555L283.204 548.622C275.824 542.766 269.26 535.974 263.618 528.354L248.538 532.672C246.599 533.22 244.54 532.431 243.484 530.72C235.422 517.779 229.82 503.607 226.839 488.606C226.451 486.64 227.414 484.635 229.205 483.726L243.163 476.573C242.067 467.188 242.214 457.723 243.617 448.391L229.901 440.784C228.149 439.808 227.24 437.789 227.695 435.837C231.144 420.997 237.2 407.026 245.703 394.298C246.813 392.627 248.912 391.905 250.823 392.506L265.757 397.306C271.64 389.899 278.431 383.321 286.025 377.719L281.707 362.639C281.159 360.701 281.947 358.642 283.659 357.585C296.627 349.524 310.785 343.922 325.773 340.941C327.752 340.553 329.73 341.515 330.653 343.307L337.805 357.264C347.23 356.168 356.682 356.329 365.988 357.719L373.595 344.002C374.571 342.251 376.59 341.355 378.542 341.796C386.617 343.681 394.571 346.382 402.178 349.845C404.411 350.861 405.414 353.481 404.438 355.727L380.988 409.779C380.921 409.926 380.854 410.06 380.787 410.194C379.798 411.959 377.752 412.828 375.814 412.36C375.56 412.293 375.319 412.226 375.079 412.119C361.469 406.223 346.362 405.969 332.564 411.424C318.753 416.879 307.911 427.387 302.002 440.997L302.002 441.024ZM542.209 499.088C541.848 501.066 540.217 502.564 538.225 502.764L522.623 504.275C520.176 513.393 516.566 522.123 511.82 530.318L521.781 542.418C523.051 543.968 523.144 546.175 522.008 547.832C513.345 560.386 502.569 571.162 490.002 579.852C488.344 581.001 486.138 580.908 484.587 579.624L472.461 569.664C464.279 574.41 455.549 578.02 446.431 580.453L444.907 596.082C444.706 598.087 443.209 599.705 441.231 600.066C433.797 601.416 426.19 602.111 418.596 602.111C416.11 602.111 414.091 600.093 414.091 597.606V538.499C381.617 535.156 356.202 507.629 356.202 474.271C356.202 440.928 381.617 413.402 414.091 410.044L414.078 355.256C414.078 352.769 416.096 350.751 418.583 350.751C426.177 350.751 433.784 351.433 441.217 352.796C443.196 353.157 444.693 354.788 444.894 356.78L446.418 372.396C455.536 374.842 464.279 378.452 472.448 383.198L484.574 373.238C486.125 371.968 488.344 371.874 489.988 373.01C502.516 381.674 513.278 392.436 521.981 405.003C523.131 406.661 523.037 408.867 521.754 410.418L511.794 422.544C516.54 430.739 520.163 439.469 522.596 448.587L538.198 450.098C540.203 450.298 541.834 451.796 542.182 453.774C544.923 468.801 544.923 484.029 542.182 499.055L542.209 499.088ZM420.75 529.85C451.379 529.85 476.298 504.93 476.298 474.289C476.298 443.66 451.377 418.728 420.75 418.728C390.122 418.728 365.188 443.648 365.188 474.289C365.188 504.918 390.109 529.85 420.75 529.85Z" fill="white"/>
</g>
<defs>
<filter id="filter0_dddd_82_57204" x="0.464787" y="0.901398" width="1119.17" height="941.197" filterUnits="userSpaceOnUse" color-interpolation-filters="sRGB">
<feFlood flood-opacity="0" result="BackgroundImageFix"/>
<feColorMatrix in="SourceAlpha" type="matrix" values="0 0 0 0 0 0 0 0 0 0 0 0 0 0 0 0 0 0 127 0" result="hardAlpha"/>
<feOffset dx="17.1127"/>
<feGaussianBlur stdDeviation="18.8239"/>
<feColorMatrix type="matrix" values="0 0 0 0 0 0 0 0 0 0 0 0 0 0 0 0 0 0 0.1 0"/>
<feBlend mode="normal" in2="BackgroundImageFix" result="effect1_dropShadow_82_57204"/>
<feColorMatrix in="SourceAlpha" type="matrix" values="0 0 0 0 0 0 0 0 0 0 0 0 0 0 0 0 0 0 127 0" result="hardAlpha"/>
<feOffset dx="65.0282"/>
<feGaussianBlur stdDeviation="32.5141"/>
<feColorMatrix type="matrix" values="0 0 0 0 0 0 0 0 0 0 0 0 0 0 0 0 0 0 0.09 0"/>
<feBlend mode="normal" in2="effect1_dropShadow_82_57204" result="effect2_dropShadow_82_57204"/>
<feColorMatrix in="SourceAlpha" type="matrix" values="0 0 0 0 0 0 0 0 0 0 0 0 0 0 0 0 0 0 127 0" result="hardAlpha"/>
<feOffset dx="147.169"/>
<feGaussianBlur stdDeviation="44.493"/>
<feColorMatrix type="matrix" values="0 0 0 0 0 0 0 0 0 0 0 0 0 0 0 0 0 0 0.05 0"/>
<feBlend mode="normal" in2="effect2_dropShadow_82_57204" result="effect3_dropShadow_82_57204"/>
<feColorMatrix in="SourceAlpha" type="matrix" values="0 0 0 0 0 0 0 0 0 0 0 0 0 0 0 0 0 0 127 0" result="hardAlpha"/>
<feOffset dx="263.535"/>
<feGaussianBlur stdDeviation="53.0493"/>
<feColorMatrix type="matrix" values="0 0 0 0 0 0 0 0 0 0 0 0 0 0 0 0 0 0 0.01 0"/>
<feBlend mode="normal" in2="effect3_dropShadow_82_57204" result="effect4_dropShadow_82_57204"/>
<feBlend mode="normal" in="SourceGraphic" in2="effect4_dropShadow_82_57204" result="shape"/>
</filter>
<clipPath id="clip0_82_57204">
<rect width="318.296" height="266.958" fill="white" transform="translate(226.353 338.021)"/>
</clipPath>
</defs>
</svg>
