<svg width="213" height="213" viewBox="0 0 213 213" fill="none" xmlns="http://www.w3.org/2000/svg">
<rect width="213" height="213" rx="106.5" fill="#00A2FF"/>
<path d="M82.1031 97.5956C78.5445 105.81 82.3297 115.385 90.5367 118.948C90.9078 119.108 91.1695 119.424 91.275 119.784C91.275 119.787 91.275 119.787 91.2789 119.791C91.2867 119.815 91.2906 119.838 91.2945 119.862C91.2984 119.877 91.3023 119.897 91.3062 119.912C91.3101 119.932 91.3101 119.948 91.3141 119.967C91.318 119.991 91.3219 120.014 91.3258 120.037C91.3453 120.248 91.3141 120.467 91.2203 120.674L83.8687 137.631C83.6539 138.127 83.1695 138.424 82.6617 138.424C82.4937 138.424 82.3219 138.393 82.1578 138.323C79.9 137.385 77.7359 136.229 75.732 134.893C75.2437 134.569 75.0328 133.955 75.2086 133.397L76.6109 129.033C74.4547 127.323 72.5367 125.338 70.8882 123.112L66.482 124.373C65.9155 124.533 65.314 124.303 65.0054 123.803C62.6499 120.022 61.0132 115.881 60.1421 111.498C60.0288 110.924 60.31 110.338 60.8335 110.072L64.9116 107.982C64.5913 105.24 64.6342 102.475 65.0444 99.7479L61.0366 97.5252C60.5249 97.2401 60.2592 96.6502 60.392 96.0799C61.3998 91.744 63.1693 87.6619 65.6537 83.9429C65.978 83.4547 66.5912 83.2437 67.1498 83.4195L71.5131 84.8218C73.2319 82.6577 75.2162 80.7359 77.435 79.0991L76.1733 74.6929C76.0132 74.1265 76.2437 73.5249 76.7437 73.2163C80.5328 70.8608 84.6695 69.2241 89.0487 68.353C89.6268 68.2397 90.2049 68.521 90.4745 69.0444L92.5643 73.1225C95.3182 72.8022 98.0799 72.8491 100.799 73.2553L103.021 69.2475C103.307 68.7358 103.896 68.4741 104.467 68.603C106.826 69.1538 109.15 69.9428 111.373 70.9546C112.025 71.2515 112.318 72.0171 112.033 72.6734L105.181 88.4664C105.162 88.5094 105.142 88.5484 105.123 88.5875C104.834 89.1031 104.236 89.357 103.67 89.2203C103.595 89.2008 103.525 89.1812 103.455 89.15C99.4783 87.4273 95.0643 87.3531 91.0329 88.9468C86.9977 90.5406 83.8298 93.6109 82.1032 97.5875L82.1031 97.5956ZM152.287 114.561C152.182 115.139 151.705 115.576 151.123 115.635L146.564 116.076C145.85 118.74 144.795 121.291 143.408 123.686L146.318 127.221C146.69 127.674 146.717 128.318 146.385 128.803C143.854 132.471 140.705 135.619 137.033 138.158C136.549 138.494 135.904 138.467 135.451 138.092L131.908 135.182C129.518 136.568 126.967 137.623 124.303 138.334L123.857 142.9C123.799 143.486 123.361 143.959 122.783 144.064C120.611 144.459 118.389 144.662 116.17 144.662C115.443 144.662 114.854 144.072 114.854 143.346V126.076C105.365 125.099 97.9395 117.056 97.9395 107.31C97.9395 97.5675 105.365 89.5247 114.854 88.5437L114.85 72.5357C114.85 71.8092 115.439 71.2193 116.166 71.2193C118.385 71.2193 120.607 71.4185 122.779 71.817C123.357 71.9225 123.795 72.399 123.853 72.9811L124.299 77.5436C126.963 78.2584 129.518 79.3131 131.904 80.6998L135.447 77.7896C135.9 77.4185 136.549 77.3911 137.029 77.7232C140.69 80.2544 143.834 83.399 146.377 87.0709C146.713 87.5553 146.686 88.1998 146.311 88.6529L143.4 92.1959C144.787 94.5904 145.846 97.1412 146.557 99.8053L151.115 100.247C151.701 100.305 152.178 100.743 152.279 101.321C153.08 105.711 153.08 110.161 152.279 114.551L152.287 114.561ZM116.799 123.549C125.748 123.549 133.029 116.268 133.029 107.315C133.029 98.3657 125.748 91.0809 116.799 91.0809C107.85 91.0809 100.565 98.3621 100.565 107.315C100.565 116.264 107.846 123.549 116.799 123.549Z" fill="white"/>
</svg>
