<svg width="140" height="56" viewBox="0 0 140 56" fill="none" xmlns="http://www.w3.org/2000/svg">
<rect x="0.5" y="0.5" width="139" height="55" rx="27.5" stroke="black"/>
<g clip-path="url(#clip0_1056_5835)">
<path d="M41.1644 28.084L37.7004 28.8673C35.5388 29.3573 34 31.3407 34 33.6407V35.7973H41.1877V28.084H41.1677H41.1644Z" fill="#F2440D"/>
<path d="M37.4369 26.664C39.1689 26.664 40.5711 25.2606 40.5711 23.5273C40.5711 21.794 39.1689 20.3906 37.4369 20.3906C35.705 20.3906 34.3027 21.794 34.3027 23.5273C34.3027 25.2606 35.705 26.664 37.4369 26.664Z" fill="#F2440D"/>
<path d="M53.4345 35.7973L50.9332 31.3207C50.2004 30.0073 48.9214 29.1273 47.4759 28.9307L41.1875 28.084L45.4874 35.7973H53.4379H53.4345Z" fill="#F2440D"/>
<path d="M53.4345 20.3906L50.9332 24.8673C50.2004 26.1806 48.9214 27.0606 47.4759 27.2573L41.1875 28.104L45.4874 20.3906H53.4379H53.4345Z" fill="#F2440D"/>
<path d="M58.2207 35.6305V20.3672H62.1976V27.0739H62.2842L67.6033 20.3672H71.8733L66.4209 27.1472L72.1864 35.6305H67.5167L64.4724 31.0739C64.0095 30.3839 62.987 30.3372 62.464 30.9872C62.2942 31.2005 62.1976 31.4639 62.1976 31.7372V35.6339H58.2207V35.6305Z" fill="#303338"/>
<path d="M90.0123 35.6339H86.5284V26.1039H86.4518L83.0245 34.4472C82.768 35.0705 82.1552 35.4772 81.4691 35.4772C80.7829 35.4772 80.1668 35.0705 79.9136 34.4439L76.4963 26.1039H76.4097V35.6339H72.9258V20.3672H77.4988L81.4258 30.1739H81.5124L85.4393 20.3672H90.0123V35.6305V35.6339Z" fill="#303338"/>
<path d="M91.2988 27.9933C91.2988 22.9467 94.2365 20 98.8995 20C102.856 20 105.861 22.52 105.977 26.1733H102.15C101.954 24.35 100.645 23.15 98.8962 23.15C96.7279 23.15 95.3523 24.9833 95.3523 27.9833C95.3523 30.9833 96.7179 32.85 98.9095 32.85C100.655 32.85 101.924 31.7133 102.174 29.9033H106.001C105.817 33.58 102.933 36 98.8995 36C94.2165 36 91.2988 33.0533 91.2988 27.9933Z" fill="#303338"/>
</g>
<defs>
<clipPath id="clip0_1056_5835">
<rect width="72" height="16" fill="white" transform="translate(34 20)"/>
</clipPath>
</defs>
</svg>
