<svg width="120" height="40" viewBox="0 0 120 40" fill="none" xmlns="http://www.w3.org/2000/svg">
<path d="M53.5182 0L41.2672 40H40.1875L52.4419 0H53.5182Z" fill="#4E87A0"/>
<path d="M0 2.91951H8.63381V28.9325H18.6395V36.4359H0V2.91951Z" fill="#003865"/>
<path d="M22.0059 2.91951H40.4632V10.4434H30.289V16.1528H40.1125V23.6767H30.289V36.4529H22.0059V2.91951Z" fill="#003865"/>
<path d="M55.8867 7.66371H57.7297V13.206H59.8615V14.809H55.8867V7.66371Z" fill="#003865"/>
<path d="M60.8281 7.66371H62.6677V14.8261H60.8281V7.66371Z" fill="#003865"/>
<path d="M63.5488 7.66371H65.77C66.9872 7.66371 67.5511 7.77967 68.0772 8.34584C68.2259 8.50814 68.3404 8.6982 68.4142 8.90492C68.488 9.11163 68.5196 9.33086 68.507 9.5498C68.5117 9.84258 68.4361 10.1311 68.2883 10.3846C68.1406 10.6381 67.9262 10.847 67.668 10.9891C68.0254 11.0935 68.337 11.314 68.5528 11.6153C68.7686 11.9165 68.876 12.281 68.8577 12.6501C68.865 12.9412 68.8096 13.2306 68.6952 13.4988C68.5807 13.767 68.4099 14.0079 68.1941 14.2053C67.5339 14.7544 67.056 14.8226 65.8388 14.8226H63.5488V7.66371ZM65.3127 10.3922H65.966C66.217 10.3922 66.7431 10.3922 66.7431 9.82265C66.7431 9.25307 66.248 9.28377 65.966 9.28377H65.3299L65.3127 10.3922ZM65.3127 13.2231H66.1792C66.413 13.2231 67.0938 13.2231 67.0938 12.5409C67.0938 11.9236 66.4715 11.9236 66.1792 11.9236H65.3299L65.3127 13.2231Z" fill="#003865"/>
<path d="M69.5586 7.66371H73.5609V9.26671H71.3225V10.3752H73.4921V11.9782H71.3225V13.206H73.5609V14.809H69.5586V7.66371Z" fill="#003865"/>
<path d="M74.5 7.66371H76.7797C78.045 7.66371 78.5298 7.81719 78.9974 8.17531C79.2834 8.41365 79.5116 8.71276 79.6651 9.05047C79.8187 9.38818 79.8937 9.75583 79.8845 10.1262C79.8845 10.9447 79.4547 12.1521 78.0931 12.3738L80.0496 14.809H77.9453L76.2811 12.5V14.809H74.5172L74.5 7.66371ZM76.2639 11.2551H76.9138C77.9968 11.2551 78.1206 10.573 78.1206 10.2319C78.1206 9.5839 77.6461 9.26671 76.9344 9.26671H76.2639V11.2551Z" fill="#003865"/>
<path d="M81.5724 9.26671H80.1523V7.66371H84.8251V9.26671H83.4119V14.809H81.5724V9.26671Z" fill="#003865"/>
<path d="M87.4864 12.2101L85.334 7.66371H87.3351L88.4045 10.5287L89.4876 7.66371H91.4612L89.326 12.2101V14.809H87.4864V12.2101Z" fill="#003865"/>
<path d="M95.123 7.66371H99.0566V9.26671H96.8835V10.4843H98.9775V12.0873H96.8835V14.8158H95.123V7.66371Z" fill="#003865"/>
<path d="M101.868 7.66371V11.9816C101.868 12.4625 101.896 13.3458 102.804 13.3458C103.711 13.3458 103.718 12.5546 103.718 11.9816V7.66371H105.558V11.9816C105.558 13.1787 105.296 13.7108 104.839 14.1746C104.573 14.4356 104.254 14.6388 103.905 14.7715C103.555 14.9042 103.181 14.9634 102.807 14.9454C102.284 14.9454 101.329 14.8192 100.744 14.1849C100.159 13.5505 100.025 13.0355 100.025 11.9816V7.66371H101.868Z" fill="#003865"/>
<path d="M106.676 7.66371H108.261L111.06 12.1555L111.08 12.1351L111.001 7.66371H112.765V14.8261H111.166L108.416 10.4775H108.395L108.443 14.8158H106.683L106.676 7.66371Z" fill="#003865"/>
<path d="M113.725 7.66371H116.111C116.919 7.66371 118.36 7.66371 119.295 8.99727C119.754 9.64596 119.987 10.4256 119.958 11.2176C119.958 13.1685 118.982 14.8124 116.248 14.8124H113.725V7.66371ZM115.568 13.206H116.355C117.73 13.206 118.119 12.2613 118.119 11.2483C118.13 10.7841 118.011 10.326 117.775 9.92497C117.624 9.69982 117.414 9.51966 117.167 9.40372C116.921 9.28779 116.647 9.24043 116.376 9.26671H115.578L115.568 13.206Z" fill="#003865"/>
<path d="M65.3906 26.7735C65.4673 27.0248 65.5089 27.2853 65.5144 27.5477C65.5133 27.9433 65.4892 28.3384 65.4422 28.7312C65.4422 28.7312 66.3568 27.8001 68.8531 27.5273C69.1557 27.4932 69.9156 27.4693 70.8989 27.4557C70.3522 27.882 69.8846 28.2435 69.6199 28.4379C68.9874 28.9203 68.2378 29.2286 67.4468 29.3315H67.3161L67.378 29.4441C67.5202 29.7262 67.611 30.031 67.6462 30.3445C67.6724 30.5599 67.6596 30.7782 67.6084 30.9891C68.2772 30.1877 69.0097 29.4406 69.7987 28.7551L71.174 27.6262C71.174 29.3042 71.119 31.2892 71.119 31.2892L71.3975 31.4734C71.3975 31.4734 71.4353 29.2326 71.4731 27.4386H71.4903C73.0067 28.4175 74.774 29.6009 74.774 29.6009V29.3417L71.958 27.4318C73.7459 27.4113 75.9087 27.4079 77.4594 27.4079H79.4262L79.2577 27.118C79.2577 27.118 75.0319 27.1009 71.8032 27.1009C73.2336 25.9311 74.8221 24.6214 74.8497 24.6009L74.9562 24.5566L74.8772 24.3383L74.7362 24.4475C74.7087 24.4713 72.9689 25.8492 71.48 27.0157C71.48 26.4188 71.5075 25.9072 71.5178 25.5934V25.5116C71.5625 24.2667 71.6004 22.9434 72.2949 22.4761C72.2949 22.4761 71.5866 22.5477 71.2153 22.558C70.7373 22.558 70.2972 22.558 70.2972 22.558H69.9878L70.2456 22.7251C70.2456 22.7251 71.0227 23.2674 71.1499 25.7333C71.1499 26.0164 71.1706 26.4461 71.174 26.9475L69.9087 26.088C68.8462 25.3683 67.7734 24.6214 67.5259 23.8404C67.4134 24.1366 67.2718 24.421 67.1029 24.6896C66.8451 25.0784 66.6456 25.3206 66.6456 25.324L66.5115 25.4809L66.7178 25.4604C66.7178 25.4604 67.856 25.3445 69.6646 26.354C69.9534 26.5177 70.4244 26.8076 70.9643 27.1555C69.7608 27.1555 68.9941 27.1555 68.6949 27.1555C67.5848 27.1188 66.4795 26.9911 65.3906 26.7735Z" fill="#4E87A0"/>
<path d="M119.11 27.3806L119.021 27.1623H118.54L116.219 23.0457C115.762 22.1678 115.466 21.2161 115.345 20.2353L115.321 19.9488L115.187 20.2012C115.025 20.4935 114.819 20.7592 114.575 20.9891C114.321 21.2073 114.051 21.4068 113.767 21.586L113.616 21.6814L113.788 21.736C113.788 21.736 115.339 22.2374 115.947 23.2299C116.556 24.2224 117.883 26.5075 118.261 27.1589H115.727C115.039 25.9141 114.183 24.4304 113.815 23.8131C113.334 22.944 113.037 21.9865 112.942 20.9993L112.921 20.7572L112.787 20.9618C112.589 21.2521 112.368 21.5269 112.127 21.7838C111.904 22.0067 111.649 22.1963 111.371 22.3465L111.192 22.442L111.384 22.5C111.384 22.5 112.935 23.0048 113.54 23.9939C114.145 24.9829 115.046 26.5484 115.394 27.1555H113.028C112.323 25.9379 111.56 24.618 111.254 24.086C110.798 23.2115 110.547 22.246 110.521 21.2619C110.309 21.5379 110.065 21.7875 109.792 22.0055C109.549 22.1723 109.281 22.3011 108.998 22.3875C108.998 22.3875 109.933 22.6876 110.979 24.2394C111.298 24.7101 112.038 25.9447 112.736 27.1248H111.893L112.024 26.985L111.904 26.7974L111.594 27.0771L111.546 27.1248H110.377C109.92 26.3165 109.5 25.5764 109.283 25.2046C108.224 23.3834 108.283 22.2169 108.252 21.8281C108.252 21.7531 108.235 21.6235 108.228 21.5757C108.219 21.5318 108.208 21.4885 108.194 21.4461L108.077 21.6166C107.892 21.8778 107.692 22.1283 107.478 22.367C107.268 22.5919 107.029 22.7881 106.767 22.9502L106.622 23.0321L106.777 23.0969C106.777 23.0969 107.623 23.513 108.998 25.4502C109.256 25.8117 109.641 26.4291 110.047 27.1078C107.41 27.1078 104.827 27.0839 103.325 27.0839H98.3288C97.4692 25.5423 96.6405 24.0143 96.3276 23.3322C94.9523 20.3308 95.5093 18.8608 95.5162 18.8506C95.1225 19.2351 94.7032 19.5929 94.2612 19.9216C93.6938 20.3172 92.6107 20.9004 92.6107 20.9004C93.901 21.3226 94.99 22.2001 95.6709 23.3663C95.9528 23.8199 96.9053 25.4127 97.9093 27.0839H92.3013H92.2359L92.2188 27.1453C92.4007 27.3476 92.5482 27.578 92.6554 27.8274C92.7718 28.0887 92.818 28.3754 92.7895 28.6596C93.5041 28.0354 94.3946 27.6437 95.3408 27.5375C95.4783 27.5375 96.6921 27.5 98.1397 27.4727L100.708 31.7667L100.825 31.4768C100.825 31.4768 99.6904 29.5089 98.542 27.4625C100.447 27.4284 102.62 27.3943 103.284 27.4079C106.474 27.4079 108.365 27.3875 110.212 27.3772C110.339 27.5921 110.47 27.8104 110.594 28.0287C109.93 28.6733 109.088 29.4884 108.592 29.9488C107.217 31.221 106.378 31.2278 106.34 31.2278H106.213L106.258 31.3438C106.378 31.6699 106.48 32.0024 106.564 32.3397C106.667 32.807 106.756 33.455 106.756 33.455C106.756 33.455 107.1 31.8724 108.819 30.1842C109.308 29.6999 110.109 28.9018 110.735 28.2742C111.078 28.8574 111.381 29.3997 111.601 29.7851L110.638 30.6958C109.901 31.4305 109.058 32.0513 108.135 32.5375L108.018 32.5887L108.111 32.6739C108.269 32.8207 108.405 32.9896 108.513 33.1753C108.62 33.4315 108.697 33.6994 108.74 33.9734C108.74 33.9734 109.146 32.6501 110.869 30.9243L111.749 30.0512L111.921 30.3547L112.158 30.3104L111.917 29.884L113.447 28.3527C113.922 29.161 114.269 29.7613 114.269 29.7613H114.544L114.438 29.5805L113.63 28.1787L114.396 27.4113L114.427 27.3806H115.531L116.195 28.4754L113.736 30.8629C112.995 31.6097 112.138 32.2348 111.199 32.7149L111.089 32.766L111.175 32.8479C111.331 32.9966 111.465 33.1666 111.573 33.3527C111.681 33.611 111.756 33.8813 111.797 34.1576C111.797 34.1576 112.206 32.824 113.929 31.088C114.41 30.6003 115.455 29.5669 116.336 28.7005L116.594 29.1303L116.793 29.0484C116.793 29.0484 116.686 28.8506 116.508 28.5334L117.684 27.3772H118.395L118.859 28.1719L119.079 28.1037L118.677 27.3806H119.11ZM110.514 27.3806H111.267L110.779 27.8547L110.514 27.3806ZM111.773 29.6214L110.917 28.0969L111.635 27.3772H112.87C113.028 27.6398 113.176 27.8956 113.32 28.1378L111.773 29.6214ZM113.492 27.957L113.148 27.3738H114.09C113.977 27.5034 113.764 27.7081 113.502 27.9673L113.492 27.957ZM116.363 28.2981C116.215 28.0321 116.037 27.7081 115.841 27.3602H117.333L116.363 28.2981Z" fill="#4E87A0"/>
<path d="M81.4909 32.2408H80.5556C80.5556 29.0621 80.5797 24.369 80.5763 23.339C80.5763 21.7633 81.4531 19.1712 81.4599 19.1439L81.5115 19.0007L81.3637 19.0382C81.005 19.1107 80.6397 19.1461 80.2737 19.1439C79.8935 19.154 79.5157 19.0818 79.1665 18.9325L78.9533 18.8233L79.0496 19.0382C79.3763 19.8318 79.6519 20.6452 79.8748 21.4734C77.9459 21.4734 71.0244 21.4461 66.5545 21.4461C64.292 21.4461 62.9373 21.4461 62.5316 21.4461C61.2997 21.4193 60.0766 21.2324 58.8937 20.8902L58.7768 20.8561V20.9789C58.7768 20.9789 58.8215 21.412 58.8594 22.1214C58.8972 22.7626 58.8903 23.3663 58.8903 23.3731V23.5402L59.0244 23.4379C59.045 23.4379 61.3212 22.0225 62.9063 21.9066C63.7935 21.8418 77.2204 21.7667 79.9333 21.7531C80.0292 22.1522 80.0936 22.5582 80.1258 22.9673C80.1843 24.0143 80.2083 28.9632 80.2221 32.2272C78.2072 32.2272 74.0949 32.2272 70.2783 32.2272C66.3482 32.2272 63.68 32.2544 62.284 32.2749C62.3046 30.2626 62.3459 26.8895 62.425 26.0164C62.645 23.5744 63.3877 22.6876 63.3946 22.6808C63.0315 22.7762 62.6592 22.8333 62.284 22.8513H62.2565C62.0487 22.8581 61.8409 22.8398 61.6376 22.7967L61.4897 22.7456L61.5276 22.8956C61.7794 23.8713 61.928 24.8703 61.9711 25.8765C61.9711 26.7667 61.9711 30.2524 61.9986 32.2783H61.2181C60.8743 32.2783 60.386 32.2988 59.8049 32.2988C59.2238 32.2988 58.6737 32.2783 58.2198 32.2613C58.2198 31.6371 58.2404 27.8956 58.2473 26.7156C58.2473 25.457 59.0072 23.8404 59.0141 23.8267L59.076 23.7006H58.935C58.6311 23.7114 58.3268 23.7034 58.0238 23.6767C57.6412 23.6164 57.2695 23.5015 56.9201 23.3356C56.9201 23.3356 56.7379 23.3356 56.8238 23.4686C56.9098 23.6016 57.6147 24.3724 57.8106 26.8383C57.9035 27.998 57.9172 31.5825 57.9172 32.2442L57.3361 32.2101H57.1849L57.2605 32.3431C57.4715 32.7258 57.6244 33.1372 57.7144 33.5641C57.7453 33.8703 57.7453 34.1788 57.7144 34.485L57.6834 34.7374L57.8622 34.5498C57.8622 34.5498 59.076 33.3458 62.0089 32.7626C62.0089 33.3663 62.0089 33.7551 62.0089 33.7551L62.2737 33.7995C62.2737 33.7995 62.2737 33.3697 62.2737 32.7081H62.3081C62.9545 32.5921 75.9379 32.5512 80.2152 32.5409C80.2152 34.0791 80.2152 35.1774 80.2152 35.1774L80.5178 35.2592C80.5178 35.2592 80.5178 34.1201 80.5178 32.5307H81.5493L81.4909 32.2408Z" fill="#4E87A0"/>
<path d="M92.5555 19.8158C92.1877 19.8818 91.8152 19.9194 91.4415 19.9284C91.0767 19.9152 90.7191 19.8245 90.3928 19.6624C90.6657 20.4948 90.8952 21.3406 91.0805 22.1965L87.9859 22.1692C87.2384 22.1419 86.4939 22.0621 85.7578 21.9304C85.8177 22.2004 85.8488 22.4759 85.8506 22.7524C85.8369 22.9993 85.8093 23.2452 85.7681 23.4891C85.7681 23.4891 86.3939 22.6398 88.1131 22.4659C88.7355 22.4079 90.2243 22.3977 91.0529 22.3977H91.1183C91.1686 22.6659 91.2019 22.937 91.218 23.2094C91.218 23.2469 91.218 23.2913 91.218 23.339H88.1234C87.5449 23.3259 86.969 23.2562 86.4042 23.131L86.3045 23.1242C86.3221 23.334 86.3279 23.5446 86.3217 23.7551C86.3217 24.0246 86.2701 24.3895 86.2701 24.3895C86.2701 24.3895 86.8031 23.7347 88.2094 23.6358C88.818 23.5948 90.8088 23.588 91.2455 23.5846C91.2455 23.9257 91.2627 24.3861 91.273 24.9488C90.5853 24.9488 89.1687 24.9079 88.6014 24.9147H88.567C88.0021 24.8863 87.4436 24.783 86.9062 24.6078L86.7893 24.5703C86.7893 24.5703 86.7893 25.0853 86.7893 25.3649C86.7559 25.6636 86.7031 25.9598 86.6312 26.2517L86.8512 26.0164C87.333 25.5251 87.9836 25.2316 88.6736 25.1944C89.2375 25.1944 90.6128 25.1944 91.273 25.1944C91.273 25.7094 91.273 26.2824 91.2936 26.8997C90.2713 26.9159 89.2488 26.8806 88.23 26.794C87.7958 26.6971 87.3694 26.5682 86.9544 26.4086C87.0007 26.6973 87.0122 26.9904 86.9888 27.2817C86.9633 27.5542 86.9173 27.8244 86.8512 28.09C87.3292 27.3363 88.5979 27.2101 89.8357 27.1555C89.9767 27.1555 90.8673 27.1555 91.2971 27.1555C91.2971 27.8377 91.2971 28.5198 91.2971 29.1815C90.9807 29.1815 89.0931 29.1815 88.4019 29.1815C87.8906 29.1554 87.39 29.0266 86.9303 28.8029L86.7962 28.7347C86.8313 28.9603 86.8474 29.1885 86.8443 29.4168C86.8173 29.6665 86.7666 29.9132 86.6931 30.1535L86.8443 30.0887C87.3727 29.8639 87.9176 29.6792 88.4741 29.5362C89.2419 29.4448 90.0151 29.4072 90.7882 29.4236H91.3005C91.3005 31.221 91.3246 32.7012 91.3246 32.7012L91.6237 32.7592C91.6237 32.7592 91.5928 24.6282 91.7165 23.2503C91.8944 22.0834 92.1752 20.9341 92.5555 19.8158Z" fill="#4E87A0"/>
</svg>
