<svg width="120" height="40" viewBox="0 0 120 40" fill="none" xmlns="http://www.w3.org/2000/svg">
<g clip-path="url(#clip0_194_3908)">
<path d="M53.5186 0L41.2676 40H40.188L52.4424 0H53.5186Z" fill="#4E87A0"/>
<path d="M0 2.91956H8.63381V28.9325H18.6395V36.4359H0V2.91956Z" fill="#003865"/>
<path d="M22.0056 2.91956H40.4629V10.4434H30.2887V16.1528H40.1122V23.6767H30.2887V36.453H22.0056V2.91956Z" fill="#003865"/>
<path d="M55.8877 7.6637H57.7307V13.206H59.8625V14.809H55.8877V7.6637Z" fill="#003865"/>
<path d="M60.8286 7.6637H62.6682V14.826H60.8286V7.6637Z" fill="#003865"/>
<path d="M63.5483 7.6637H65.7695C66.9867 7.6637 67.5506 7.77966 68.0767 8.34582C68.2254 8.50813 68.34 8.69819 68.4137 8.9049C68.4875 9.11162 68.5191 9.33084 68.5065 9.54978C68.5112 9.84256 68.4356 10.1311 68.2878 10.3846C68.1401 10.6381 67.9257 10.847 67.6675 10.9891C68.0249 11.0934 68.3365 11.314 68.5523 11.6152C68.7681 11.9165 68.8755 12.281 68.8572 12.6501C68.8645 12.9412 68.8091 13.2305 68.6947 13.4988C68.5803 13.767 68.4094 14.0078 68.1936 14.2053C67.5334 14.7544 67.0555 14.8226 65.8383 14.8226H63.5483V7.6637ZM65.3122 10.3922H65.9655C66.2165 10.3922 66.7426 10.3922 66.7426 9.82263C66.7426 9.25306 66.2475 9.28375 65.9655 9.28375H65.3294L65.3122 10.3922ZM65.3122 13.223H66.1787C66.4125 13.223 67.0933 13.223 67.0933 12.5409C67.0933 11.9236 66.471 11.9236 66.1787 11.9236H65.3294L65.3122 13.223Z" fill="#003865"/>
<path d="M69.5588 7.6637H73.5611V9.2667H71.3227V10.3752H73.4924V11.9782H71.3227V13.206H73.5611V14.809H69.5588V7.6637Z" fill="#003865"/>
<path d="M74.4998 7.6637H76.7794C78.0447 7.6637 78.5296 7.81718 78.9972 8.17529C79.2831 8.41364 79.5113 8.71274 79.6649 9.05045C79.8184 9.38816 79.8934 9.75582 79.8843 10.1262C79.8843 10.9447 79.4545 12.1521 78.0929 12.3738L80.0493 14.809H77.945L76.2808 12.5V14.809H74.5169L74.4998 7.6637ZM76.2637 11.2551H76.9135C77.9966 11.2551 78.1204 10.573 78.1204 10.2319C78.1204 9.58389 77.6459 9.2667 76.9341 9.2667H76.2637V11.2551Z" fill="#003865"/>
<path d="M81.5724 9.2667H80.1523V7.6637H84.8251V9.2667H83.4119V14.809H81.5724V9.2667Z" fill="#003865"/>
<path d="M87.4864 12.2101L85.334 7.6637H87.3351L88.4045 10.5286L89.4876 7.6637H91.4612L89.326 12.2101V14.809H87.4864V12.2101Z" fill="#003865"/>
<path d="M95.1233 7.6637H99.0568V9.2667H96.8837V10.4843H98.9777V12.0873H96.8837V14.8158H95.1233V7.6637Z" fill="#003865"/>
<path d="M101.869 7.6637V11.9816C101.869 12.4625 101.897 13.3458 102.805 13.3458C103.712 13.3458 103.719 12.5546 103.719 11.9816V7.6637H105.559V11.9816C105.559 13.1787 105.297 13.7108 104.84 14.1746C104.574 14.4356 104.255 14.6388 103.906 14.7715C103.556 14.9042 103.182 14.9634 102.808 14.9454C102.285 14.9454 101.33 14.8192 100.745 14.1848C100.16 13.5505 100.026 13.0355 100.026 11.9816V7.6637H101.869Z" fill="#003865"/>
<path d="M106.676 7.6637H108.261L111.06 12.1555L111.081 12.135L111.002 7.6637H112.766V14.826H111.167L108.416 10.4775H108.395L108.444 14.8158H106.683L106.676 7.6637Z" fill="#003865"/>
<path d="M113.725 7.6637H116.111C116.919 7.6637 118.36 7.6637 119.295 8.99726C119.754 9.64594 119.987 10.4255 119.959 11.2176C119.959 13.1685 118.982 14.8124 116.249 14.8124H113.725V7.6637ZM115.568 13.206H116.355C117.731 13.206 118.119 12.2612 118.119 11.2483C118.13 10.7841 118.011 10.326 117.775 9.92495C117.624 9.6998 117.414 9.51964 117.167 9.40371C116.921 9.28777 116.647 9.24042 116.376 9.2667H115.578L115.568 13.206Z" fill="#003865"/>
<path d="M65.3914 26.7735C65.468 27.0247 65.5097 27.2852 65.5151 27.5477C65.514 27.9432 65.4899 28.3384 65.4429 28.7312C65.4429 28.7312 66.3575 27.8001 68.8538 27.5272C69.1564 27.4931 69.9163 27.4693 70.8997 27.4556C70.353 27.8819 69.8853 28.2435 69.6206 28.4379C68.9882 28.9203 68.2385 29.2285 67.4475 29.3315H67.3169L67.3788 29.444C67.5209 29.7261 67.6117 30.031 67.6469 30.3444C67.6731 30.5598 67.6603 30.7781 67.6091 30.989C68.278 30.1876 69.0104 29.4406 69.7994 28.7551L71.1747 27.6261C71.1747 29.3042 71.1197 31.2892 71.1197 31.2892L71.3982 31.4733C71.3982 31.4733 71.4361 29.2326 71.4739 27.4386H71.4911C73.0074 28.4174 74.7747 29.6009 74.7747 29.6009V29.3417L71.9587 27.4317C73.7467 27.4113 75.9094 27.4079 77.4601 27.4079H79.4269L79.2584 27.118C79.2584 27.118 75.0326 27.1009 71.804 27.1009C73.2343 25.9311 74.8229 24.6214 74.8504 24.6009L74.957 24.5566L74.8779 24.3383L74.7369 24.4474C74.7094 24.4713 72.9696 25.8492 71.4808 27.0156C71.4808 26.4188 71.5083 25.9072 71.5186 25.5934V25.5115C71.5633 24.2667 71.6011 22.9433 72.2957 22.4761C72.2957 22.4761 71.5873 22.5477 71.216 22.5579C70.7381 22.5579 70.2979 22.5579 70.2979 22.5579H69.9885L70.2464 22.725C70.2464 22.725 71.0234 23.2673 71.1507 25.7332C71.1507 26.0163 71.1713 26.4461 71.1747 26.9474L69.9094 26.0879C68.847 25.3683 67.7742 24.6214 67.5266 23.8403C67.4141 24.1365 67.2725 24.421 67.1037 24.6896C66.8458 25.0784 66.6464 25.3205 66.6464 25.324L66.5123 25.4808L66.7186 25.4604C66.7186 25.4604 67.8567 25.3444 69.6653 26.354C69.9541 26.5177 70.4252 26.8076 70.965 27.1555C69.7616 27.1555 68.9948 27.1555 68.6957 27.1555C67.5855 27.1188 66.4803 26.991 65.3914 26.7735Z" fill="#4E87A0"/>
<path d="M119.109 27.3806L119.02 27.1623H118.539L116.218 23.0457C115.761 22.1678 115.465 21.2161 115.344 20.2353L115.32 19.9488L115.186 20.2012C115.024 20.4934 114.818 20.7592 114.574 20.9891C114.32 21.2073 114.05 21.4068 113.766 21.5859L113.615 21.6814L113.787 21.736C113.787 21.736 115.338 22.2374 115.946 23.2298C116.555 24.2223 117.882 26.5075 118.26 27.1589H115.726C115.038 25.914 114.182 24.4304 113.814 23.8131C113.333 22.9439 113.036 21.9864 112.941 20.9993L112.92 20.7571L112.786 20.9618C112.588 21.2521 112.367 21.5268 112.126 21.7837C111.903 22.0067 111.648 22.1963 111.37 22.3465L111.191 22.442L111.383 22.5C111.383 22.5 112.934 23.0047 113.539 23.9938C114.144 24.9829 115.045 26.5484 115.393 27.1555H113.027C112.322 25.9379 111.559 24.618 111.253 24.0859C110.797 23.2115 110.546 22.246 110.52 21.2619C110.308 21.5379 110.064 21.7875 109.791 22.0054C109.548 22.1722 109.28 22.3011 108.997 22.3874C108.997 22.3874 109.932 22.6876 110.978 24.2394C111.297 24.7101 112.037 25.9447 112.735 27.1248H111.892L112.023 26.985L111.903 26.7974L111.593 27.0771L111.545 27.1248H110.376C109.919 26.3165 109.499 25.5764 109.283 25.2046C108.223 23.3833 108.282 22.2169 108.251 21.8281C108.251 21.753 108.234 21.6234 108.227 21.5757C108.218 21.5318 108.207 21.4885 108.193 21.4461L108.076 21.6166C107.891 21.8778 107.691 22.1283 107.477 22.367C107.267 22.5919 107.028 22.788 106.766 22.9502L106.621 23.032L106.776 23.0968C106.776 23.0968 107.622 23.5129 108.997 25.4502C109.255 25.8117 109.64 26.429 110.046 27.1077C107.409 27.1077 104.826 27.0839 103.324 27.0839H98.3278C97.4682 25.5423 96.6395 24.0143 96.3266 23.3322C94.9513 20.3308 95.5083 18.8608 95.5152 18.8506C95.1215 19.235 94.7022 19.5928 94.2602 19.9215C93.6928 20.3172 92.6097 20.9004 92.6097 20.9004C93.9 21.3225 94.989 22.2001 95.6699 23.3663C95.9519 23.8199 96.9043 25.4127 97.9083 27.0839H92.3003H92.235L92.2178 27.1453C92.3997 27.3476 92.5472 27.578 92.6544 27.8274C92.7708 28.0887 92.817 28.3754 92.7885 28.6596C93.5032 28.0354 94.3937 27.6437 95.3398 27.5375C95.4774 27.5375 96.6911 27.5 98.1387 27.4727L100.707 31.7667L100.824 31.4768C100.824 31.4768 99.6894 29.5088 98.541 27.4625C100.446 27.4283 102.619 27.3942 103.283 27.4079C106.473 27.4079 108.364 27.3874 110.211 27.3772C110.338 27.5921 110.469 27.8103 110.593 28.0286C109.929 28.6732 109.087 29.4884 108.591 29.9488C107.216 31.221 106.377 31.2278 106.339 31.2278H106.212L106.257 31.3438C106.377 31.6698 106.479 32.0023 106.563 32.3397C106.666 32.8069 106.755 33.455 106.755 33.455C106.755 33.455 107.099 31.8724 108.818 30.1841C109.307 29.6998 110.108 28.9017 110.734 28.2742C111.077 28.8574 111.38 29.3997 111.6 29.7851L110.637 30.6957C109.9 31.4304 109.057 32.0513 108.134 32.5375L108.017 32.5886L108.11 32.6739C108.268 32.8207 108.404 32.9896 108.512 33.1753C108.619 33.4315 108.696 33.6994 108.739 33.9734C108.739 33.9734 109.145 32.65 110.868 30.9243L111.748 30.0511L111.92 30.3547L112.157 30.3103L111.916 29.884L113.446 28.3526C113.921 29.161 114.268 29.7612 114.268 29.7612H114.543L114.437 29.5805L113.629 28.1787L114.395 27.4113L114.426 27.3806H115.53L116.194 28.4754L113.735 30.8629C112.994 31.6097 112.137 32.2348 111.198 32.7148L111.088 32.766L111.174 32.8479C111.33 32.9966 111.464 33.1666 111.572 33.3526C111.68 33.6109 111.755 33.8812 111.796 34.1575C111.796 34.1575 112.205 32.824 113.928 31.088C114.409 30.6002 115.454 29.5668 116.335 28.7005L116.593 29.1303L116.792 29.0484C116.792 29.0484 116.685 28.8506 116.507 28.5334L117.683 27.3772H118.394L118.858 28.1719L119.079 28.1037L118.676 27.3806H119.109ZM110.513 27.3806H111.266L110.778 27.8547L110.513 27.3806ZM111.772 29.6214L110.916 28.0968L111.634 27.3772H112.869C113.027 27.6398 113.175 27.8956 113.319 28.1378L111.772 29.6214ZM113.491 27.957L113.147 27.3738H114.089C113.976 27.5034 113.763 27.708 113.501 27.9672L113.491 27.957ZM116.362 28.2981C116.214 28.032 116.036 27.708 115.84 27.3601H117.332L116.362 28.2981Z" fill="#4E87A0"/>
<path d="M81.4899 32.2408H80.5547C80.5547 29.0621 80.5787 24.3691 80.5753 23.3391C80.5753 21.7633 81.4521 19.1713 81.459 19.144L81.5105 19.0007L81.3627 19.0382C81.004 19.1107 80.6387 19.1461 80.2727 19.144C79.8926 19.154 79.5148 19.0819 79.1655 18.9325L78.9524 18.8234L79.0486 19.0382C79.3753 19.8319 79.6509 20.6452 79.8738 21.4734C77.9449 21.4734 71.0234 21.4461 66.5535 21.4461C64.291 21.4461 62.9363 21.4461 62.5306 21.4461C61.2987 21.4193 60.0757 21.2324 58.8928 20.8902L58.7759 20.8561V20.9789C58.7759 20.9789 58.8206 21.412 58.8584 22.1215C58.8962 22.7627 58.8893 23.3663 58.8893 23.3732V23.5403L59.0234 23.438C59.0441 23.438 61.3203 22.0225 62.9054 21.9066C63.7925 21.8418 77.2194 21.7667 79.9323 21.7531C80.0282 22.1523 80.0926 22.5582 80.1249 22.9673C80.1833 24.0144 80.2074 28.9632 80.2211 32.2272C78.2062 32.2272 74.0939 32.2272 70.2773 32.2272C66.3472 32.2272 63.679 32.2545 62.283 32.2749C62.3036 30.2627 62.3449 26.8895 62.424 26.0164C62.6441 23.5744 63.3867 22.6876 63.3936 22.6808C63.0305 22.7762 62.6582 22.8334 62.283 22.8513H62.2555C62.0477 22.8582 61.8399 22.8398 61.6366 22.7968L61.4888 22.7456L61.5266 22.8957C61.7784 23.8713 61.927 24.8704 61.9701 25.8766C61.9701 26.7667 61.9701 30.2524 61.9976 32.2783H61.2171C60.8733 32.2783 60.385 32.2988 59.8039 32.2988C59.2228 32.2988 58.6727 32.2783 58.2188 32.2613C58.2188 31.6371 58.2395 27.8957 58.2463 26.7156C58.2463 25.4571 59.0062 23.8404 59.0131 23.8268L59.075 23.7006H58.934C58.6301 23.7114 58.3258 23.7035 58.0228 23.6767C57.6403 23.6165 57.2685 23.5016 56.9191 23.3356C56.9191 23.3356 56.7369 23.3356 56.8228 23.4687C56.9088 23.6017 57.6137 24.3725 57.8097 26.8384C57.9025 27.998 57.9163 31.5826 57.9163 32.2442L57.3352 32.2101H57.1839L57.2595 32.3431C57.4705 32.7258 57.6235 33.1372 57.7134 33.5642C57.7444 33.8703 57.7444 34.1788 57.7134 34.485L57.6824 34.7374L57.8612 34.5498C57.8612 34.5498 59.075 33.3459 62.0079 32.7627C62.0079 33.3663 62.0079 33.7552 62.0079 33.7552L62.2727 33.7995C62.2727 33.7995 62.2727 33.3697 62.2727 32.7081H62.3071C62.9535 32.5921 75.9369 32.5512 80.2142 32.541C80.2142 34.0792 80.2142 35.1774 80.2142 35.1774L80.5168 35.2592C80.5168 35.2592 80.5168 34.1201 80.5168 32.5307H81.5483L81.4899 32.2408Z" fill="#4E87A0"/>
<path d="M92.5548 19.8158C92.1869 19.8818 91.8145 19.9194 91.4407 19.9284C91.076 19.9152 90.7184 19.8245 90.392 19.6624C90.6649 20.4948 90.8945 21.3406 91.0797 22.1965L87.9852 22.1692C87.2377 22.1419 86.4932 22.0621 85.7571 21.9304C85.8169 22.2004 85.8481 22.4759 85.8499 22.7524C85.8361 22.9993 85.8086 23.2452 85.7674 23.4891C85.7674 23.4891 86.3932 22.6398 88.1124 22.4659C88.7347 22.4079 90.2236 22.3977 91.0522 22.3977H91.1175C91.1678 22.6659 91.2011 22.937 91.2173 23.2094C91.2173 23.2469 91.2173 23.2913 91.2173 23.339H88.1227C87.5441 23.3259 86.9683 23.2562 86.4035 23.131L86.3038 23.1242C86.3214 23.334 86.3272 23.5446 86.321 23.7551C86.321 24.0246 86.2694 24.3895 86.2694 24.3895C86.2694 24.3895 86.8024 23.7347 88.2087 23.6358C88.8173 23.5948 90.8081 23.588 91.2448 23.5846C91.2448 23.9257 91.262 24.3861 91.2723 24.9488C90.5846 24.9488 89.168 24.9079 88.6006 24.9147H88.5662C88.0013 24.8863 87.4428 24.783 86.9055 24.6078L86.7886 24.5703C86.7886 24.5703 86.7886 25.0853 86.7886 25.3649C86.7552 25.6636 86.7023 25.9598 86.6304 26.2517L86.8505 26.0164C87.3323 25.5251 87.9829 25.2316 88.6728 25.1944C89.2367 25.1944 90.6121 25.1944 91.2723 25.1944C91.2723 25.7094 91.2723 26.2824 91.2929 26.8997C90.2706 26.9159 89.248 26.8806 88.2293 26.794C87.795 26.6971 87.3686 26.5682 86.9536 26.4086C87 26.6973 87.0115 26.9904 86.988 27.2817C86.9625 27.5542 86.9166 27.8244 86.8505 28.09C87.3284 27.3363 88.5972 27.2101 89.835 27.1555C89.976 27.1555 90.8665 27.1555 91.2963 27.1555C91.2963 27.8377 91.2963 28.5198 91.2963 29.1815C90.98 29.1815 89.0923 29.1815 88.4012 29.1815C87.8899 29.1554 87.3892 29.0266 86.9296 28.8029L86.7955 28.7347C86.8305 28.9603 86.8467 29.1885 86.8436 29.4168C86.8165 29.6665 86.7659 29.9132 86.6923 30.1535L86.8436 30.0887C87.372 29.8639 87.9168 29.6792 88.4734 29.5362C89.2411 29.4448 90.0144 29.4072 90.7875 29.4236H91.2998C91.2998 31.221 91.3238 32.7012 91.3238 32.7012L91.623 32.7592C91.623 32.7592 91.592 24.6282 91.7158 23.2503C91.8937 22.0834 92.1744 20.9341 92.5548 19.8158Z" fill="#4E87A0"/>
</g>
<defs>
<clipPath id="clip0_194_3908">
<rect width="120" height="40" fill="white"/>
</clipPath>
</defs>
</svg>
