<?xml version="1.0" encoding="UTF-8"?>
<svg id="Layer_1" data-name="Layer 1" xmlns="http://www.w3.org/2000/svg" viewBox="0 0 3267 936">
  <defs>
    <style>
      .cls-1 {
        stroke-width: 0px;
      }
    </style>
  </defs>
  <g>
    <rect class="cls-1" x="750.68" y="144" width="129.51" height="647.57" rx="64.75" ry="64.75"/>
    <rect class="cls-1" x="462.34" y="230.45" width="94.93" height="474.68" rx="47.46" ry="47.46"/>
    <rect class="cls-1" x="216" y="293.81" width="69.59" height="347.95" rx="34.79" ry="34.79"/>
  </g>
  <g>
    <path class="cls-1" d="m1083.66,366.91h39.66v198.67h-39.66v-198.67Zm120.22,45.34c-7.12-9.05-17.3-13.57-30.51-13.57-8.98,0-17.26,2.21-24.83,6.64-7.58,4.43-13.67,11.1-18.29,20.02-4.62,8.92-6.93,19.99-6.93,33.21l-5.01-32.92v-29.65h11.17l-11.17,29.65c0-12.58,2.79-23.71,8.37-33.4,5.58-9.69,13.41-17.23,23.49-22.62,10.07-5.39,21.59-8.09,34.56-8.09,14.76,0,27.34,3.34,37.73,10.01,10.4,6.67,18.29,16.27,23.68,28.78,5.39,12.51,8.09,27.5,8.09,44.95v120.32h-39.66v-114.16c0-17.07-3.56-30.13-10.68-39.18Z"/>
    <path class="cls-1" d="m1319.27,557.4c-15.98-9.05-28.49-21.59-37.54-37.64-9.05-16.04-13.57-33.88-13.57-53.52s4.43-37.8,13.28-53.71c8.86-15.91,20.95-28.4,36.29-37.44,15.33-9.05,32.56-13.57,51.69-13.57s36.12,4.52,51.01,13.57c14.89,9.05,26.47,21.53,34.75,37.44,8.28,15.91,12.42,33.82,12.42,53.71,0,3.47-.19,7.89-.58,13.28h-170.56v-34.84h132.06l-3.08,4.81c0-9.88-2.38-18.83-7.12-26.86-4.75-8.02-11.36-14.31-19.83-18.87-8.47-4.55-18.16-6.83-29.07-6.83-11.68,0-22.17,2.82-31.48,8.47-9.31,5.65-16.56,13.48-21.75,23.49-5.2,10.01-7.8,21.5-7.8,34.46v5.2c0,13.09,2.82,24.74,8.47,34.94,5.65,10.2,13.44,18.1,23.39,23.68,9.94,5.58,21.14,8.37,33.59,8.37s23.07-2.72,31.86-8.18c8.79-5.45,15.56-13.06,20.31-22.81l34.84,14.05c-7.83,16.3-19.28,29.1-34.36,38.41-15.08,9.3-32.82,13.96-53.23,13.96s-38.02-4.52-54-13.57Z"/>
    <path class="cls-1" d="m1645.31,523.42c-6.1,15.66-14.95,27.5-26.57,35.52-11.62,8.02-25.64,12.03-42.06,12.03-17.84,0-33.91-4.56-48.22-13.67-14.31-9.11-25.54-21.69-33.69-37.73-8.15-16.04-12.22-33.81-12.22-53.33s4.07-37.6,12.22-53.52c8.15-15.91,19.38-28.42,33.69-37.54,14.31-9.11,30.38-13.67,48.22-13.67,16.43,0,30.45,4.01,42.06,12.03,11.61,8.02,20.47,19.86,26.57,35.52,6.09,15.66,9.14,34.72,9.14,57.18l-19.64-69.5h24.26v138.99h-24.26l19.64-69.5c0,22.46-3.05,41.52-9.14,57.18Zm-31.57,1.73c9.05-5.78,16.1-13.76,21.18-23.97,5.07-10.2,7.6-21.85,7.6-34.94s-2.53-24.74-7.6-34.94c-5.07-10.2-12.13-18.19-21.18-23.97-9.05-5.78-19.35-8.66-30.9-8.66s-22.01,2.89-30.99,8.66c-8.98,5.78-16.05,13.76-21.18,23.97-5.13,10.2-7.7,21.85-7.7,34.94s2.57,24.42,7.7,34.75c5.13,10.33,12.19,18.38,21.18,24.16,8.98,5.78,19.32,8.66,30.99,8.66s21.85-2.89,30.9-8.66Zm27.24,40.43v-40.04l8.47-59.29-8.47-52.75v-46.59h39.85v198.67h-39.85Z"/>
    <path class="cls-1" d="m1695.37,366.91h39.66v198.67h-39.66v-198.67Zm33.3,66.03v-35.81h12.51l-12.51,35.81c0-13.22,2.7-25.28,8.09-36.19,5.39-10.91,12.61-19.51,21.66-25.8,9.05-6.29,19.09-9.43,30.13-9.43,6.93,0,21.37,3.55,27.91,6.11l-16.43,36.14c-7.32-2.31-5.97-3.17-13.41-3.17-10.91,0-20.18,2.67-27.82,7.99-7.64,5.33-13.51,13.16-17.61,23.49-4.11,10.33-6.16,22.81-6.16,37.44l-6.35-36.58Z"/>
    <path class="cls-1" d="m1855.88,367.63l111.43-.72v32.15l-111.43,1.43v-32.85Zm24.81-76.41h39.66v278.75h-39.66v-278.75Z"/>
    <path class="cls-1" d="m2011.91,557.4c-15.98-9.05-28.49-21.59-37.54-37.64-9.05-16.04-13.57-33.88-13.57-53.52s4.43-37.8,13.28-53.71c8.86-15.91,20.95-28.4,36.29-37.44,15.33-9.05,32.56-13.57,51.69-13.57s36.12,4.52,51.01,13.57c14.89,9.05,26.47,21.53,34.75,37.44,8.28,15.91,12.42,33.82,12.42,53.71,0,3.47-.19,7.89-.58,13.28h-170.56v-34.84h132.06l-3.08,4.81c0-9.88-2.38-18.83-7.12-26.86-4.75-8.02-11.36-14.31-19.83-18.87-8.47-4.55-18.16-6.83-29.07-6.83-11.68,0-22.17,2.82-31.48,8.47-9.31,5.65-16.56,13.48-21.75,23.49-5.2,10.01-7.8,21.5-7.8,34.46v5.2c0,13.09,2.82,24.74,8.47,34.94,5.65,10.2,13.44,18.1,23.39,23.68,9.94,5.58,21.14,8.37,33.59,8.37s23.07-2.72,31.86-8.18c8.79-5.45,15.56-13.06,20.31-22.81l34.84,14.05c-7.83,16.3-19.28,29.1-34.36,38.41-15.08,9.3-32.82,13.96-53.23,13.96s-38.02-4.52-54-13.57Z"/>
    <path class="cls-1" d="m2175.11,286.82h39.66v278.75h-39.66v-278.75Zm31.57,176.34l15.02,10.2h-15.4v-21.56h15.4l-15.02,9.82,83.16-94.71h49.86l-85.47,94.91,88.55,103.76h-48.9l-87.21-102.41Z"/>
    <path class="cls-1" d="m2380.71,366.91h39.66v46.59l-8.47,52.75,8.47,59.29v123.21h-39.66v-281.83Zm45.82,168.83h-24.26v-138.99h24.26l-19.64,69.5c0-22.46,3.08-41.51,9.24-57.18,6.16-15.66,15.04-27.5,26.66-35.52,11.61-8.02,25.57-12.03,41.87-12.03,18.22,0,34.46,4.56,48.7,13.67,14.25,9.12,25.38,21.63,33.4,37.54,8.02,15.91,12.03,33.76,12.03,53.52s-4.01,37.28-12.03,53.33c-8.02,16.05-19.15,28.62-33.4,37.73-14.25,9.11-30.48,13.67-48.7,13.67-16.3,0-30.26-4.01-41.87-12.03-11.62-8.02-20.5-19.86-26.66-35.52-6.16-15.66-9.24-34.72-9.24-57.18l19.64,69.5Zm83.16-10.59c9.11-5.78,16.17-13.83,21.18-24.16,5.01-10.33,7.51-21.91,7.51-34.75s-2.5-24.74-7.51-34.94c-5.01-10.2-12.06-18.19-21.18-23.97-9.12-5.78-19.44-8.66-30.99-8.66s-21.69,2.89-30.8,8.66c-9.12,5.78-16.24,13.76-21.37,23.97-5.13,10.2-7.7,21.85-7.7,34.94s2.57,24.74,7.7,34.94c5.13,10.2,12.25,18.19,21.37,23.97,9.11,5.78,19.38,8.66,30.8,8.66s21.88-2.89,30.99-8.66Z"/>
    <path class="cls-1" d="m2636.47,557.3c-15.66-9.11-28.01-21.69-37.06-37.73-9.05-16.04-13.57-33.81-13.57-53.33s4.52-37.6,13.57-53.52c9.05-15.91,21.4-28.42,37.06-37.54,15.66-9.11,33.11-13.67,52.36-13.67s36.89,4.56,52.56,13.67c15.66,9.12,27.98,21.63,36.96,37.54,8.98,15.91,13.48,33.76,13.48,53.52s-4.5,37.28-13.48,53.33c-8.98,16.05-21.3,28.62-36.96,37.73-15.66,9.11-33.18,13.67-52.56,13.67s-36.71-4.56-52.36-13.67Zm85.19-32.15c9.69-5.78,17.2-13.76,22.52-23.97,5.32-10.2,7.99-21.85,7.99-34.94s-2.67-24.74-7.99-34.94c-5.33-10.2-12.83-18.19-22.52-23.97-9.69-5.78-20.63-8.66-32.82-8.66s-23.07,2.89-32.63,8.66c-9.56,5.78-17.07,13.76-22.52,23.97-5.46,10.2-8.18,21.85-8.18,34.94s2.72,24.74,8.18,34.94c5.45,10.2,12.96,18.19,22.52,23.97,9.56,5.78,20.43,8.66,32.63,8.66s23.13-2.89,32.82-8.66Z"/>
    <path class="cls-1" d="m2970.82,466.24c0,22.46-3.08,41.52-9.24,57.18-6.16,15.66-15.05,27.5-26.66,35.52-11.62,8.02-25.57,12.03-41.87,12.03-18.22,0-34.46-4.56-48.7-13.67-14.25-9.11-25.38-21.69-33.4-37.73-8.02-16.04-12.03-33.81-12.03-53.33s4.01-37.6,12.03-53.52c8.02-15.91,19.15-28.42,33.4-37.54,14.25-9.11,30.48-13.67,48.7-13.67,16.3,0,30.25,4.01,41.87,12.03,11.61,8.02,20.5,19.86,26.66,35.52,6.16,15.66,9.24,34.72,9.24,57.18l-19.64-69.5h24.26v138.99h-24.26l19.64-69.5Zm-71.81,67.57c11.42,0,21.69-2.89,30.8-8.66,9.11-5.78,16.23-13.76,21.37-23.97,5.13-10.2,7.7-21.85,7.7-34.94s-2.57-24.74-7.7-34.94c-5.13-10.2-12.26-18.19-21.37-23.97-9.12-5.78-19.38-8.66-30.8-8.66s-21.88,2.89-30.99,8.66c-9.12,5.78-16.17,13.76-21.18,23.97-5.01,10.2-7.51,21.85-7.51,34.94s2.5,24.42,7.51,34.75c5.01,10.33,12.06,18.38,21.18,24.16,9.11,5.78,19.44,8.66,30.99,8.66Zm97.99,31.76h-39.66v-40.04l8.47-59.29-8.47-52.75v-126.67h39.66v278.75Z"/>
  </g>
</svg>