<svg width="470" height="148" viewBox="0 0 470 148" fill="none" xmlns="http://www.w3.org/2000/svg">
<path d="M57.0822 60.1737L55.0826 64.3371C51.6833 71.4742 48.4839 78.7104 44.8846 85.7484C42.2852 91.0021 38.8858 95.7602 34.6867 99.9235C29.1878 105.475 21.3893 108.151 13.4909 107.358C9.09179 106.962 4.79265 105.97 0.59349 104.384C-0.00639043 104.186 -0.10637 103.988 0.0935896 103.294C3.29295 96.5532 6.49231 89.7135 9.69167 82.6755C9.99161 82.0807 10.2916 81.9816 10.8914 82.1799C15.1906 83.6668 19.7897 83.865 24.2888 82.9729C29.2878 81.8825 33.6869 78.9087 36.4863 74.7454C39.5857 70.3838 42.2852 65.6257 44.4847 60.6694C46.4843 56.5061 48.6839 52.0453 50.5835 47.7829C50.8834 47.2873 50.8834 46.6925 50.5835 46.1969C46.0844 36.6807 41.5853 27.1646 37.1862 17.6484C36.0864 15.3685 35.0866 13.0886 33.9868 10.8087C33.6869 10.2139 33.9868 9.9165 34.4867 9.61912L54.8826 0.202087C55.5825 -0.19442 55.8824 0.00383344 56.1824 0.69772L84.1768 60.4711C84.1768 60.7685 84.4767 61.0659 84.6767 61.4624L86.3763 57.7947L91.0754 47.6838C91.2754 47.2873 91.2754 46.7916 91.0754 46.3951C85.4765 34.7973 79.9776 23.1995 74.3787 11.5025C73.6789 10.0156 73.6789 10.0156 75.1786 9.32175L94.8746 0.202087C95.5745 -0.0952933 95.8745 0.00383344 96.0744 0.69772L124.569 61.3633L141.965 98.5358C142.365 99.2297 142.165 99.4279 141.465 99.4279H116.47C115.87 99.4279 115.371 99.1305 115.171 98.5358L97.6741 61.3633C97.5741 61.0659 97.4741 60.6694 97.2742 60.372C96.9742 60.372 96.8743 60.5703 96.7743 60.7685L90.5755 74.1506C90.2756 74.448 90.2756 74.9436 90.5755 75.3401L101.473 98.5358C101.973 99.527 101.973 99.527 100.873 99.527H75.8784C75.2786 99.6262 74.7787 99.2297 74.5787 98.734C68.7799 86.2441 62.881 73.8532 57.0822 61.5615V60.1737Z" fill="black"/>
<path d="M199.254 45.3046C198.454 39.4562 194.655 34.4998 189.256 32.0217C184.957 30.1383 180.258 29.147 175.559 29.147C170.76 29.0479 166.061 29.4444 161.362 30.5348C157.662 31.3278 154.063 32.6164 150.664 34.1033C150.364 34.1033 149.964 34.3016 149.964 34.8963V48.5758C152.364 46.9898 154.963 45.7012 157.662 44.7099C162.562 42.7274 167.96 42.2317 173.159 43.3221C177.559 43.8177 180.658 47.7828 180.258 52.0453C180.258 52.5409 180.258 52.7391 179.558 52.7391C177.858 52.9374 176.159 53.1357 174.459 53.433C168.36 54.4243 162.362 56.4068 156.963 59.3806C152.564 61.6606 148.964 65.13 146.465 69.3924C143.765 74.3488 142.865 79.999 143.865 85.451C144.465 89.7134 146.665 93.6785 150.064 96.5532C153.963 99.7252 158.962 101.212 163.961 100.716C168.86 100.419 173.559 98.6348 177.459 95.5619C178.658 94.5706 179.758 93.4802 180.858 92.2907V92.8855C181.058 94.5706 181.458 97.0488 181.658 98.0401C181.858 99.0313 181.658 99.2296 183.157 99.2296H198.554C199.454 99.2296 199.654 98.9322 199.654 98.1392V50.8557C199.554 48.9723 199.454 47.0889 199.254 45.3046ZM179.558 79.5033C178.658 82.8737 175.959 85.3518 172.56 86.0457H171.56C167.361 86.4422 163.661 83.3693 163.261 79.3051C162.462 74.8444 164.861 70.3837 168.96 68.5003C171.76 67.1125 174.759 66.3195 177.858 66.1212C178.658 66.1212 179.858 65.6256 180.158 66.1212C180.558 66.6169 180.158 67.6082 180.158 68.5003V71.1767C180.558 73.8531 180.358 76.7278 179.558 79.5033Z" fill="black"/>
<path d="M389.216 58.588C389.216 54.8211 388.716 50.9552 387.516 47.3866C385.416 39.2582 379.018 32.815 370.819 30.5351C364.92 28.7508 358.522 28.6517 352.623 30.2377C346.324 31.7246 340.925 35.6897 337.626 41.2408C335.026 45.9989 333.527 51.3517 333.427 56.8037V72.4657C333.427 76.7281 334.227 80.8915 335.726 84.8565C338.226 91.9936 344.025 97.4456 351.323 99.5273C356.722 101.113 362.421 101.411 368.02 100.32C372.819 99.5273 377.318 97.3465 380.817 93.877C385.816 88.8216 388.816 82.081 389.116 75.043V65.9233C389.216 62.8504 389.216 60.6696 389.216 58.588ZM369.62 75.7369C369.62 78.0168 369.12 80.3958 368.32 82.4775C368.22 82.874 368.02 83.3696 367.72 83.667C365.72 87.1364 361.121 88.4251 357.622 86.3434H357.522C355.922 85.4513 354.723 83.9644 354.123 82.1801C353.323 79.5037 352.923 76.7281 352.923 73.9526V56.0107C352.923 53.2351 353.323 50.4596 354.123 47.7831C354.822 45.5032 356.622 43.719 358.822 43.0251C362.621 41.6373 366.92 43.6198 368.22 47.4858V47.5849C369.02 49.7657 369.52 51.9465 369.52 54.2264V65.0312C369.42 68.6989 369.42 72.2674 369.42 75.7369H369.62Z" fill="black"/>
<path d="M460.202 8.0332V29.5437C460.202 30.3367 460.202 30.6341 461.202 30.6341H469C469.7 30.6341 470 30.6341 470 31.5262V41.8354C470 42.5293 470 42.6284 469.2 42.6284H461.402C460.502 42.6284 460.202 42.6284 460.202 43.8179V98.4367C460.202 99.2298 460.002 99.5271 459.102 99.5271H441.806C441.006 99.5271 440.806 99.3289 440.806 98.5359V43.9171C440.806 42.6284 440.806 42.7275 439.606 42.7275H435.407C434.807 42.7275 434.707 42.7276 434.707 42.0337V31.5262C434.707 30.8323 434.907 30.7332 435.607 30.7332H440.106C440.806 30.7332 441.006 30.7332 441.006 29.8411V17.7476C440.906 17.3511 441.106 16.8555 441.506 16.7564L459.802 8.33059L460.202 8.0332Z" fill="black"/>
<path d="M419.209 8.0332V29.6428C419.209 30.4358 419.409 30.6341 420.209 30.6341H428.208C428.907 30.6341 429.107 30.6341 429.007 31.5262V41.8354C429.007 42.4302 429.007 42.6284 428.208 42.6284H420.209C419.309 42.6284 419.209 42.9258 419.209 43.6197V98.4367C419.209 99.2298 419.209 99.5271 418.21 99.5271H401.013C400.113 99.5271 399.913 99.3289 399.913 98.4367V43.9171C399.913 42.6284 399.913 42.7275 398.713 42.7275H394.514C394.014 42.7275 393.814 42.7276 393.814 42.0337V31.328C393.814 30.7332 394.014 30.6341 394.514 30.6341H399.013C400.513 30.6341 400.113 30.3367 400.113 29.4446V17.5494C400.013 17.0537 400.313 16.6572 400.713 16.459L419.109 8.0332H419.209Z" fill="black"/>
<path d="M276.238 37.7708C276.937 36.6804 277.737 35.6891 278.537 34.797C282.836 29.8406 289.835 27.9572 296.134 30.138C296.534 30.138 296.834 30.5345 296.734 30.931C296.734 30.931 296.734 30.931 296.734 31.0302V45.9983C296.734 46.7913 296.334 46.6922 295.934 46.4939C293.334 45.1061 290.335 44.5114 287.435 44.5114C283.236 44.5114 279.237 46.6922 276.938 50.1616C276.738 50.5581 276.638 50.9546 276.738 51.4503V98.4363C276.738 99.6258 276.738 99.6258 275.438 99.6258H258.441C257.641 99.6258 257.441 99.4276 257.441 98.6346V31.8232C257.441 31.0302 257.441 30.7328 258.441 30.8319H274.238C274.938 30.8319 275.238 30.8319 275.238 31.724C275.438 33.5083 275.838 35.4909 276.238 37.7708Z" fill="black"/>
<path d="M230.247 37.4734C231.347 36.1847 232.447 34.8961 233.647 33.7065C236.546 30.8319 240.645 29.1467 244.745 29.2458C246.544 29.2458 248.344 29.4441 250.143 30.0389C250.543 30.0389 250.943 30.4354 250.843 30.931C250.843 30.931 250.843 30.931 250.843 31.0301V45.8991C250.843 46.593 250.843 46.6921 250.043 46.3948C247.344 45.007 244.245 44.3131 241.145 44.4122C237.046 44.6105 233.347 46.6921 231.047 50.0624C230.847 50.459 230.747 50.9546 230.847 51.4502V98.3371C230.847 99.6258 230.847 99.6258 229.548 99.6258H212.451C211.751 99.6258 211.451 99.6258 211.451 98.6345V31.724C211.451 30.931 211.651 30.7327 212.451 30.7327H228.148C228.848 30.7327 229.148 30.7328 229.248 31.6249C229.648 33.5083 229.947 35.4908 230.247 37.4734Z" fill="black"/>
<path d="M323.429 65.0308V98.8329C323.429 99.5268 323.429 99.5268 322.729 99.5268H304.733C304.133 99.5268 304.033 99.2295 304.033 98.7338V31.9224C304.033 30.7329 304.033 30.7329 305.233 30.7329H321.93C323.229 30.7329 323.229 30.7329 323.229 32.0216L323.429 65.0308Z" fill="black"/>
<path d="M226.148 138.186V124.309C226.148 123.615 226.148 123.317 226.948 123.417C227.748 123.417 229.447 123.417 230.747 123.417C231.247 123.417 231.447 123.417 231.447 124.11V146.91C231.447 147.405 231.447 147.504 230.747 147.504H227.548C227.048 147.504 226.848 147.306 226.648 146.91L216.15 133.23C215.85 132.834 215.45 132.536 215.05 132.239V146.513C215.05 147.207 215.05 147.504 214.05 147.405C212.851 147.306 211.651 147.306 210.451 147.405C209.651 147.405 209.651 147.009 209.651 146.414V123.714C209.651 123.02 209.651 123.02 210.251 123.02H214.05C214.55 123.02 214.75 123.317 215.05 123.714L225.448 137.294L226.148 138.186Z" fill="black"/>
<path d="M115.371 137.988V124.606C115.371 123.912 115.371 123.615 116.271 123.615C117.47 123.714 118.57 123.714 119.77 123.615C120.47 123.615 120.77 123.615 120.67 124.507V146.909C120.67 147.504 120.67 147.802 119.87 147.702C118.67 147.901 117.47 147.901 116.271 147.702C115.271 147.207 114.771 145.918 113.971 145.026L104.673 132.933C104.473 133.131 104.673 133.527 104.673 133.726V147.108C104.673 147.802 104.673 148 103.873 148H100.074C99.574 148 99.374 148 99.374 147.306V124.011C99.374 123.516 99.374 123.317 100.074 123.317C101.474 123.02 102.873 123.02 104.273 123.317C105.373 123.813 105.973 125.3 106.773 126.39L115.071 136.997C115.071 137.393 115.171 137.691 115.371 137.988Z" fill="black"/>
<path d="M356.322 137.988C356.422 137.691 356.422 137.294 356.322 136.997V124.606C356.322 123.912 356.322 123.615 357.222 123.714C358.321 123.813 359.521 123.813 360.621 123.714C361.321 123.714 361.521 123.714 361.521 124.606V147.009C361.521 147.603 361.521 147.901 360.721 147.802C359.521 148 358.321 148 357.222 147.802C356.122 147.405 355.622 146.117 354.922 145.125L345.424 132.734C345.124 133.032 345.424 133.329 345.424 133.627V146.91C345.424 147.703 345.224 147.901 344.424 147.901H340.925C340.325 147.901 340.125 147.901 340.125 147.207V124.507C340.125 123.912 340.125 123.813 340.825 123.813H344.124C344.724 123.714 345.324 124.011 345.624 124.606L355.822 137.691C356.022 137.691 356.122 137.889 356.322 137.988Z" fill="black"/>
<path d="M331.227 133.428C330.227 127.381 324.928 122.921 318.73 123.02C317.93 123.02 317.23 123.119 316.43 123.218C311.831 123.813 307.932 127.084 306.432 131.445C304.732 135.906 305.932 140.863 309.431 144.134C312.431 147.107 316.83 148.495 321.029 147.603C327.828 146.513 332.427 140.169 331.227 133.428ZM318.73 142.647C314.73 142.647 311.431 139.376 311.431 135.411V134.915C311.431 131.049 314.63 127.877 318.63 127.877H318.93C323.029 127.976 326.228 131.346 326.028 135.411C326.028 139.376 322.829 142.647 318.73 142.647C318.63 142.647 318.53 142.647 318.33 142.647H318.73Z" fill="black"/>
<path d="M201.453 146.711L196.454 139.475C196.254 139.178 195.754 138.88 196.454 138.583C198.054 137.889 199.353 136.699 200.153 135.113C202.253 131.248 200.853 126.39 196.954 124.21C195.654 123.615 194.254 123.317 192.755 123.218H181.757C180.957 123.218 180.957 123.218 180.957 124.011V146.513C180.957 147.405 180.957 147.405 181.857 147.405H185.556C186.256 147.405 186.456 147.405 186.456 146.513V140.466C186.456 139.673 186.456 139.673 187.256 139.673H189.955C190.455 139.673 190.955 139.872 191.155 140.268C192.455 142.548 193.854 144.63 195.354 146.711C195.354 147.009 195.754 147.306 196.154 147.306H201.853C201.653 147.207 201.553 147.009 201.453 146.711ZM195.654 131.842C195.654 132.041 195.654 132.239 195.654 132.437C195.354 134.023 193.954 135.213 192.355 135.113H186.856C186.456 135.113 186.356 135.113 186.356 134.816C186.356 134.618 186.356 134.519 186.356 134.32V128.868C186.356 128.571 186.356 128.274 186.856 128.274C188.855 128.274 190.755 128.274 192.655 128.274H193.155C194.354 128.472 195.454 129.364 195.754 130.554C195.754 130.752 195.754 130.95 195.754 131.148C195.654 131.446 195.654 131.644 195.654 131.842Z" fill="black"/>
<path d="M153.663 135.51V124.408C153.663 123.714 153.663 123.417 154.663 123.417H171.059C171.759 123.417 172.059 123.417 172.059 124.408C171.959 125.3 171.959 126.291 172.059 127.183C172.059 128.075 171.759 128.175 171.059 128.175H160.162C159.462 128.175 159.162 128.175 159.162 129.166C159.162 130.157 159.162 131.148 159.162 132.14C159.162 133.131 159.162 132.933 159.962 132.933H169.46C170.26 132.933 170.459 133.131 170.459 133.924C170.459 134.618 170.459 135.906 170.459 136.898C170.459 137.889 170.459 137.691 169.66 137.691H159.862C158.962 137.691 158.862 137.889 158.862 138.682C158.962 139.673 158.962 140.764 158.862 141.755C158.862 142.548 158.862 142.746 159.862 142.746H171.059C171.759 142.746 172.059 142.746 171.959 143.638C171.859 144.63 171.859 145.72 171.959 146.711C171.959 147.207 171.959 147.405 171.259 147.405H154.163C153.463 147.405 153.463 147.108 153.463 146.612C153.663 142.944 153.663 139.277 153.663 135.51Z" fill="black"/>
<path d="M263.241 146.711C259.941 139.079 256.642 131.446 253.443 123.813C253.343 123.417 252.943 123.119 252.443 123.218C251.343 123.318 250.243 123.318 249.243 123.218C248.444 123.218 248.144 123.417 247.844 124.21C245.144 130.653 242.445 136.601 239.745 143.044L237.846 147.604H242.845C243.145 147.604 243.545 147.405 243.545 147.108C244.044 145.72 244.644 144.432 245.244 142.945C245.444 142.548 245.844 142.251 246.344 142.251H255.042C255.542 142.152 256.042 142.548 256.142 142.945C256.642 144.332 257.242 145.72 257.842 147.108C257.842 147.504 258.042 147.703 258.542 147.703H263.441C263.441 147.207 263.441 147.009 263.241 146.711ZM253.243 137.394H248.044C247.644 137.394 247.444 137.394 247.644 136.898L250.643 129.563L253.643 136.7C253.843 137.394 253.743 137.394 253.243 137.394Z" fill="black"/>
<path d="M393.315 146.81C392.615 145.125 391.816 143.44 391.116 141.656C388.616 135.807 386.117 129.959 383.617 124.011C383.517 123.516 383.017 123.218 382.518 123.317H379.218C378.718 123.218 378.218 123.516 378.118 124.011L373.919 134.221C372.12 138.385 370.42 142.449 368.62 146.612C368.12 147.603 368.22 147.603 369.32 147.603H372.919C373.419 147.703 373.819 147.405 373.919 146.909C374.419 145.522 375.119 144.134 375.619 142.746C375.719 142.35 376.119 142.052 376.519 142.052H385.417C385.817 141.953 386.217 142.251 386.417 142.647C386.717 143.44 387.017 144.233 387.417 145.026C387.816 145.819 387.816 146.909 388.416 147.306C389.016 147.702 390.116 147.306 390.916 147.306H393.115C393.715 147.702 393.715 147.405 393.315 146.81ZM383.517 137.393H378.118C377.818 137.393 377.818 137.195 377.818 136.799C378.818 134.519 379.718 132.14 380.818 129.661C381.818 132.239 382.817 134.618 383.817 136.997C384.017 137.393 384.017 137.393 383.517 137.393Z" fill="black"/>
<path d="M274.939 123.516H284.037C284.737 123.516 284.937 123.516 284.937 124.408C284.937 125.3 284.937 126.589 284.937 127.58C284.937 128.67 284.937 128.472 284.037 128.472H278.438C277.738 128.472 277.438 128.472 277.438 129.364V146.711C277.438 147.504 277.438 147.703 276.438 147.703C275.238 147.603 274.139 147.603 272.939 147.703C272.239 147.703 272.039 147.504 272.039 146.711V129.761C272.039 128.968 272.039 128.571 270.939 128.67H265.44C264.841 128.67 264.641 128.67 264.641 127.976C264.641 127.282 264.641 125.696 264.641 124.606C264.641 123.516 264.841 123.813 265.44 123.813L274.939 123.516Z" fill="black"/>
<path d="M137.166 123.516H146.364C146.964 123.516 147.164 123.516 147.164 124.309C147.164 125.102 147.164 126.489 147.164 127.481C147.164 128.571 147.164 128.472 146.264 128.373H140.765C140.065 128.373 139.765 128.373 139.765 129.364V146.612C139.765 147.405 139.765 147.703 138.765 147.603C137.566 147.504 136.466 147.504 135.266 147.603C134.566 147.603 134.366 147.405 134.366 146.711V129.661C134.366 128.868 134.366 128.571 133.367 128.571H127.868C127.268 128.571 126.968 128.571 127.068 127.778C127.068 126.985 127.068 125.498 127.068 124.408C127.068 123.317 127.068 123.615 127.868 123.615L137.166 123.516Z" fill="black"/>
<path d="M399.813 135.411V124.309C399.813 123.615 399.813 123.417 400.713 123.417C401.913 123.516 403.213 123.516 404.413 123.417C405.112 123.417 405.212 123.714 405.212 124.408V141.557C405.212 142.449 405.212 142.746 406.412 142.746H416.51C417.21 142.746 417.41 142.746 417.41 143.638C417.41 144.53 417.41 145.819 417.41 146.91C417.41 148 417.41 147.603 416.71 147.603H400.713C400.113 147.603 400.013 147.603 400.013 146.81C399.813 143.044 399.813 139.178 399.813 135.411Z" fill="black"/>
<path d="M297.333 135.51V146.612C297.333 147.306 297.333 147.603 296.334 147.504H292.634C292.135 147.504 291.935 147.504 291.935 146.81V123.912C291.935 123.417 291.935 123.218 292.634 123.218H296.534C297.234 123.218 297.333 123.218 297.333 124.011V135.51Z" fill="black"/>
<path d="M83.5771 135.411V124.309C83.5771 123.615 83.5771 123.417 84.477 123.417C85.6767 123.516 86.8765 123.516 88.1762 123.417C88.9761 123.417 88.9761 123.714 88.9761 124.408V146.81C88.9761 147.306 88.9761 147.504 88.2762 147.504H84.5769C83.8771 147.504 83.6771 147.504 83.6771 146.612C83.6771 142.944 83.5771 139.178 83.5771 135.411Z" fill="black"/>
<path d="M195.655 130.752C195.355 129.563 194.355 128.67 193.055 128.472H192.556C190.656 128.472 188.756 128.472 186.757 128.472C186.257 128.472 186.257 128.67 186.257 129.067C186.257 128.77 186.257 128.472 186.757 128.472C188.756 128.472 190.656 128.472 192.556 128.472C193.955 128.373 195.255 129.364 195.655 130.752Z" fill="black"/>
</svg>
