<svg width="16" height="28" viewBox="0 0 16 28" fill="none" xmlns="http://www.w3.org/2000/svg">
<path d="M14.9725 10.0869C14.5853 10.0869 14.2716 10.4006 14.2716 10.7878V12.3444C14.2716 15.8921 11.3842 18.7793 7.83669 18.7793C4.2892 18.7793 1.40173 15.8918 1.40173 12.3444V10.7878C1.39255 9.87426 0.0144477 9.86247 0 10.7878V12.3444C0 16.4287 3.14208 19.7886 7.13584 20.1445V22.4925C5.47687 22.6303 3.45973 23.5188 3.42949 25.2382C3.52005 28.9183 12.1509 28.9224 12.2426 25.2382C12.366 24.473 10.9446 22.3914 10.0482 23.4939C9.83949 23.8194 9.93399 24.2525 10.2595 24.4625C10.6283 24.6988 10.8409 24.9823 10.8409 25.2382C10.8409 25.8931 9.55601 26.6255 7.83535 26.6255C4.08566 26.468 3.90724 24.3313 7.1345 23.8929V24.8602C7.14894 25.7776 8.52048 25.7842 8.53623 24.8602V20.1445C12.5302 19.7888 15.6721 16.4288 15.6721 12.3444V10.7878C15.6721 10.4007 15.3584 10.087 14.9712 10.087L14.9725 10.0869Z" fill="#00A2FF"/>
<path d="M7.8472 17.3719C10.6087 17.3719 12.8569 15.125 12.8569 12.3623V5.01373C12.8569 2.25226 10.6099 0.00405956 7.82099 0.00405956C6.92325 -0.066815 3.72489 0.796804 4.57657 2.08826C4.81938 2.39013 5.25904 2.44002 5.56224 2.1972C7.83413 0.307234 11.5171 2.02395 11.4579 5.01377V12.3623C11.2965 17.1213 4.38357 17.1542 4.21423 12.3623V5.01377C4.19586 4.40871 4.63423 3.58055 3.79948 3.34563C2.85843 3.16451 2.82564 4.36016 2.8125 5.01377V12.3623C2.8125 15.1238 5.05946 17.372 7.84838 17.372L7.8472 17.3719Z" fill="#00A2FF"/>
</svg>
