<svg width="213" height="214" viewBox="0 0 213 214" fill="none" xmlns="http://www.w3.org/2000/svg">
<rect y="0.800781" width="213" height="213" rx="106.5" fill="#00A2FF"/>
<g clip-path="url(#clip0_290_710)">
<path d="M126.131 70.0333C125.091 70.0333 124.068 70.1409 123.063 70.3383C123.063 70.2844 123.063 70.2127 123.063 70.1589C123.063 60.9019 115.708 53.3672 106.666 53.3672C97.6247 53.3672 90.2694 60.9019 90.2694 70.1589C90.2694 70.2127 90.2694 70.2844 90.2694 70.3383C89.2468 70.1409 88.2242 70.0333 87.2017 70.0333C78.16 70.0333 70.8047 77.568 70.8047 86.8249C70.8047 96.0819 78.16 103.617 87.2017 103.617H126.149C135.191 103.617 142.546 96.0819 142.546 86.8249C142.546 77.568 135.191 70.0333 126.149 70.0333H126.131ZM126.131 100.011H87.1837C80.1155 100.011 74.3747 94.0906 74.3747 86.807C74.3747 79.5234 80.1155 73.6033 87.1837 73.6033C88.6907 73.6033 90.1976 73.8903 91.6508 74.4465C92.2428 74.6797 92.9245 74.572 93.4268 74.1594C93.9291 73.7468 94.1623 73.101 94.0547 72.4731C93.9112 71.6479 93.8394 70.8764 93.8394 70.1589C93.8394 62.8753 99.5802 56.9552 106.648 56.9552C113.717 56.9552 119.457 62.8753 119.457 70.1589C119.457 70.8944 119.386 71.6479 119.242 72.4731C119.135 73.101 119.368 73.7468 119.87 74.1594C120.372 74.572 121.054 74.6797 121.646 74.4465C123.099 73.8903 124.606 73.6033 126.113 73.6033C133.181 73.6033 138.922 79.5234 138.922 86.807C138.922 94.0906 133.181 100.011 126.113 100.011H126.131Z" fill="white"/>
<path d="M126.131 127.443C125.091 127.443 124.068 127.551 123.063 127.748C123.063 127.695 123.063 127.623 123.063 127.569C123.063 118.312 115.708 110.777 106.666 110.777C97.6247 110.777 90.2694 118.312 90.2694 127.569C90.2694 127.623 90.2694 127.695 90.2694 127.748C89.2468 127.551 88.2242 127.443 87.2017 127.443C78.16 127.443 70.8047 134.978 70.8047 144.235C70.8047 153.492 78.16 161.027 87.2017 161.027H126.149C135.191 161.027 142.546 153.492 142.546 144.235C142.546 134.978 135.191 127.443 126.149 127.443H126.131Z" fill="white"/>
<path d="M155.09 128.717H151.107C157.171 123.066 160.472 116.303 160.472 109.306C160.472 102.31 157.171 95.4388 150.928 89.716C150.192 89.0522 149.062 89.106 148.398 89.8236C147.734 90.5591 147.77 91.6893 148.506 92.3531C153.995 97.3763 156.902 103.243 156.902 109.306C156.902 115.37 153.744 121.667 147.932 126.762V121.523C147.932 120.537 147.124 119.729 146.138 119.729C145.151 119.729 144.344 120.537 144.344 121.523V130.493C144.344 130.493 144.38 130.619 144.38 130.69C144.38 130.816 144.416 130.924 144.451 131.049C144.487 131.175 144.541 131.283 144.595 131.39C144.631 131.444 144.631 131.516 144.667 131.57C144.685 131.605 144.738 131.605 144.756 131.641C144.882 131.785 145.025 131.91 145.187 132.018C145.241 132.054 145.295 132.108 145.366 132.144C145.6 132.251 145.851 132.323 146.12 132.323H155.09C156.076 132.323 156.884 131.516 156.884 130.529C156.884 129.542 156.076 128.735 155.09 128.735V128.717Z" fill="white"/>
<path d="M67.1777 119.75C66.191 119.75 65.3837 120.558 65.3837 121.544V126.783C59.5712 121.67 56.4138 115.571 56.4138 109.327C56.4138 103.084 59.32 97.3975 64.8096 92.3743C65.5451 91.7106 65.599 90.5804 64.9172 89.8448C64.2535 89.1093 63.1053 89.0555 62.3877 89.7372C56.1447 95.46 52.8438 102.241 52.8438 109.327C52.8438 116.414 56.1447 123.069 62.2083 128.738H58.2257C57.239 128.738 56.4317 129.546 56.4317 130.532C56.4317 131.519 57.239 132.326 58.2257 132.326H67.1956C67.4647 132.326 67.7159 132.255 67.9491 132.147C68.0208 132.111 68.0567 132.075 68.1285 132.021C68.2899 131.914 68.4335 131.806 68.559 131.645C68.577 131.609 68.6308 131.609 68.6487 131.573C68.6846 131.519 68.7025 131.447 68.7205 131.393C68.7743 131.286 68.8281 131.178 68.864 131.053C68.8999 130.927 68.9178 130.819 68.9358 130.694C68.9358 130.622 68.9716 130.568 68.9716 130.496V121.527C68.9716 120.54 68.1644 119.733 67.1777 119.733V119.75Z" fill="white"/>
</g>
<defs>
<clipPath id="clip0_290_710">
<rect width="109" height="108" fill="white" transform="translate(52 53.3008)"/>
</clipPath>
</defs>
</svg>
