<svg width="34" height="34" viewBox="0 0 34 34" fill="none" xmlns="http://www.w3.org/2000/svg">
<rect width="34" height="34" rx="17" fill="white"/>
<g clip-path="url(#clip0_571_2483)">
<path d="M22.904 20.0983C22.4773 20.1005 22.0785 20.2213 21.7398 20.429L21.7495 20.4236L20.3035 19.1091C20.6921 18.516 20.9229 17.7893 20.9229 17.0089C20.9229 16.1651 20.6529 15.3842 20.194 14.7481L20.2021 14.7594L21.8456 13.1159C22.1515 13.2855 22.5159 13.3859 22.9035 13.3886H22.9045C24.1643 13.3886 25.1857 12.3672 25.1857 11.1074C25.1857 9.84771 24.1643 8.82629 22.9045 8.82629C21.6448 8.82629 20.6234 9.84771 20.6234 11.1074C20.6261 11.496 20.727 11.8605 20.902 12.1782L20.8961 12.1664L19.2526 13.8099C18.6369 13.3591 17.864 13.0885 17.0283 13.0885C16.5624 13.0885 16.1164 13.1728 15.7042 13.3263L15.7305 13.3177L15.3848 12.6897C15.7745 12.2834 16.0144 11.7306 16.0144 11.1219C16.0144 9.87025 14.9995 8.85528 13.7478 8.85528C12.4961 8.85528 11.4811 9.87025 11.4811 11.1219C11.4811 12.3736 12.4961 13.3886 13.7478 13.3886C13.912 13.3886 14.0725 13.3709 14.2271 13.3376L14.2121 13.3403L14.5566 13.9661C13.6522 14.6719 13.0763 15.7615 13.0763 16.9863C13.0763 17.3111 13.1171 17.6267 13.1933 17.9278L13.1874 17.9015L12.8294 18.0534C12.4108 17.5682 11.7951 17.2622 11.1081 17.2622C9.85535 17.2622 8.83984 18.2777 8.83984 19.5305C8.83984 20.7832 9.85535 21.7987 11.1081 21.7987C12.3608 21.7987 13.3764 20.7832 13.3764 19.5305C13.3764 19.5262 13.3764 19.5213 13.3764 19.5171C13.3721 19.4317 13.364 19.3528 13.3517 19.2755L13.3533 19.2884L13.7113 19.1365C14.4107 20.2239 15.6151 20.934 16.9854 20.934C17.8995 20.934 18.7394 20.6179 19.4023 20.0892L19.3943 20.0951L20.8445 21.4128C20.7061 21.6951 20.6245 22.0268 20.6223 22.3773C20.6223 23.6371 21.6437 24.659 22.9035 24.659C24.1632 24.659 25.1846 23.6376 25.1846 22.3779C25.1846 21.1181 24.1632 20.0967 22.9035 20.0967L22.904 20.0983ZM12.808 11.108C12.808 10.5895 13.2288 10.1687 13.7472 10.1687C14.2657 10.1687 14.6865 10.5895 14.6865 11.108C14.6865 11.6265 14.2657 12.0473 13.7472 12.0473C13.2288 12.0467 12.8085 11.6265 12.808 11.108ZM11.0958 20.458C10.5773 20.4574 10.1575 20.0377 10.1575 19.5192C10.1575 19.0007 10.5778 18.5804 11.0963 18.5804C11.6148 18.5804 12.0345 19.0002 12.035 19.5187C12.0345 20.0372 11.6142 20.4574 11.0958 20.458ZM22.904 10.1687C23.4225 10.1687 23.8433 10.5895 23.8433 11.108C23.8433 11.6265 23.4225 12.0473 22.904 12.0473C22.3855 12.0473 21.9647 11.6265 21.9647 11.108C21.9652 10.5895 22.3855 10.1692 22.904 10.1687ZM14.4182 17.0121C14.4182 17.0116 14.4182 17.011 14.4182 17.0105C14.4182 15.5854 15.5732 14.4304 16.9983 14.4304C17.7111 14.4304 18.3562 14.7197 18.8232 15.1866L18.8237 15.1872L18.8243 15.1877C19.2912 15.6547 19.5794 16.2998 19.5794 17.0121C19.5794 18.4377 18.4238 19.5927 16.9988 19.5927C15.5738 19.5927 14.4182 18.4371 14.4182 17.0121ZM22.904 23.3188C22.3855 23.3188 21.9647 22.898 21.9647 22.3795C21.9647 21.861 22.3855 21.4402 22.904 21.4402C23.4225 21.4402 23.8433 21.861 23.8433 22.3795C23.8428 22.898 23.4225 23.3182 22.904 23.3188Z" fill="#00A2FF"/>
</g>
<defs>
<clipPath id="clip0_571_2483">
<rect width="17.1756" height="17.1756" fill="white" transform="translate(8.41211 8.41223)"/>
</clipPath>
</defs>
</svg>
