<svg width="80" height="80" viewBox="0 0 80 80" fill="none" xmlns="http://www.w3.org/2000/svg">
<path d="M0 12.5C0 8.35786 3.35786 5 7.5 5H62.5C66.6421 5 70 8.35786 70 12.5V65.1393C70 66.6359 69.7488 68.4125 68.8119 70H72.5C73.8807 70 75 68.8807 75 67.5V22.5C75 21.1193 76.1193 20 77.5 20C78.8807 20 80 21.1193 80 22.5V67.5C80 71.6421 76.6421 75 72.5 75H7.48284C3.32952 75 0 71.6309 0 67.5V12.5ZM60 70C61.8466 70 63.2689 68.9424 64.2656 67.7934C64.7242 67.2648 65 66.4 65 65.1393V12.5C65 11.1193 63.8807 10 62.5 10H7.5C6.11929 10 5 11.1193 5 12.5V67.5C5 68.8919 6.11332 70 7.48284 70H60Z" fill="black"/>
<path d="M10 15H60V25H10V15Z" fill="black"/>
<path d="M10 30H30V45H10V30Z" fill="black"/>
<path d="M10 50H30V55H10V50Z" fill="black"/>
<path d="M10 60H30V65H10V60Z" fill="black"/>
<path d="M35 30H45V35H35V30Z" fill="black"/>
<path d="M50 30H60V35H50V30Z" fill="black"/>
<path d="M35 40H45V45H35V40Z" fill="black"/>
<path d="M50 40H60V45H50V40Z" fill="black"/>
<path d="M35 50H45V55H35V50Z" fill="black"/>
<path d="M50 50H60V55H50V50Z" fill="black"/>
<path d="M35 60H45V65H35V60Z" fill="black"/>
<path d="M50 60H60V65H50V60Z" fill="black"/>
</svg>
