<svg width="213" height="213" viewBox="0 0 213 213" fill="none" xmlns="http://www.w3.org/2000/svg">
<rect width="213" height="213" rx="106.5" fill="#00A2FF"/>
<path d="M118.194 112.347H123.87C123.87 117.918 119.339 122.45 113.767 122.45H99.2362C93.6646 122.45 89.1329 117.918 89.1329 112.347H94.8089C94.8089 114.79 96.7978 116.774 99.2362 116.774H113.767C116.21 116.774 118.194 114.79 118.194 112.347ZM100.939 94.1834C100.939 89.2385 96.9156 85.2153 91.9707 85.2153C87.0257 85.2153 83.0026 89.2385 83.0026 94.1834C83.0026 99.1284 87.0257 103.151 91.9707 103.151C96.9156 103.151 100.939 99.1284 100.939 94.1834ZM121.032 85.2153C116.087 85.2153 112.064 89.2385 112.064 94.1834C112.064 99.1284 116.087 103.151 121.032 103.151C125.977 103.151 130 99.1284 130 94.1834C130 89.2385 125.977 85.2153 121.032 85.2153ZM151.796 94.3606V112.169C151.796 115.207 149.326 117.682 146.283 117.682H143.85V125.088C143.85 131.645 138.514 136.98 131.958 136.98H107.424L88.1936 150.965C87.6987 151.324 87.1129 151.51 86.5226 151.51C86.0822 151.51 85.6417 151.41 85.233 151.201C84.2794 150.716 83.6801 149.739 83.6801 148.672V136.979H81.0419C74.485 136.979 69.15 131.644 69.15 125.087V117.681H66.7161C63.6782 117.681 61.2035 115.211 61.2035 112.169L61.208 94.3598C61.208 91.322 63.6782 88.8472 66.7206 88.8472H69.1546V81.4411C69.1546 74.8842 74.49 69.5492 81.0464 69.5492H103.664V61.4893H109.34V69.5492H131.958C138.515 69.5492 143.85 74.8847 143.85 81.4411V88.8472H146.284C149.326 88.8472 151.796 91.3182 151.796 94.3606ZM138.173 81.4422C138.173 78.0139 135.385 75.2258 131.957 75.2258H81.0449C77.6166 75.2258 74.8285 78.0138 74.8285 81.4422V125.089C74.8285 128.517 77.6165 131.305 81.0449 131.305H86.5211C88.0877 131.305 89.3591 132.577 89.3591 134.143V143.102L104.834 131.85C105.32 131.496 105.905 131.305 106.505 131.305H131.96C135.388 131.305 138.177 128.517 138.177 125.089L138.173 81.4422Z" fill="white"/>
</svg>
