<svg width="36" height="36" viewBox="0 0 36 36" fill="none" xmlns="http://www.w3.org/2000/svg">
<rect width="36" height="36" rx="18" fill="white"/>
<path d="M18 8C12.4772 8 8 12.4772 8 18C8 23.5228 12.4772 28 18 28C23.5228 28 28 23.5228 28 18C28 12.4772 23.5228 8 18 8ZM14.1027 10.1637C14.1167 10.2948 14.1735 10.4235 14.2778 10.5278C14.5716 10.8216 14.4912 11.3169 14.1196 11.5027L13.7559 11.6846C13.6692 11.7279 13.5901 11.7849 13.5215 11.8535L12.9213 12.4537C12.5865 12.7885 12.0913 12.9054 11.6421 12.7557L11.6181 12.7477C11.4257 12.6836 11.2281 12.6688 11.0396 12.6969C11.8497 11.6352 12.8971 10.7645 14.1027 10.1637ZM10.3528 22.2556L11.4282 21.9867C11.9846 21.8476 12.375 21.3476 12.375 20.774V20.544C12.375 20.126 12.5839 19.7357 12.9316 19.5039L12.9813 19.4708C13.6377 19.0332 13.7296 18.1046 13.1718 17.5468L11.9017 16.2767C11.8046 16.1796 11.75 16.0479 11.75 15.9105C11.75 15.4839 12.2371 15.2403 12.5784 15.4963L13.941 16.5182C14.1304 16.6603 14.3838 16.6831 14.5955 16.5773C15.0111 16.3695 15.5 16.6717 15.5 17.1363V17.7044C15.5 17.8972 15.557 18.0856 15.6639 18.2459L16.6571 19.7357C16.7188 19.8282 16.7678 19.9284 16.8029 20.0338L17.7151 22.7703C17.8852 23.2807 18.3629 23.625 18.9009 23.625H18.9741C19.5121 23.625 19.9898 23.2807 20.1599 22.7703L21.0721 20.0338C21.1072 19.9284 21.1562 19.8282 21.2179 19.7357L22.2065 18.2527C22.3118 18.0948 22.489 18 22.6787 18C22.878 18 23.0616 18.1044 23.1687 18.2725C23.8652 19.3661 25.2062 21.125 26.125 21.125C26.1423 21.125 26.1594 21.1244 26.1761 21.1232C24.9186 24.4134 21.7322 26.75 18 26.75C14.7122 26.75 11.8479 24.9367 10.3528 22.2556Z" fill="#00A2FF"/>
</svg>
