<svg width="24" height="24" viewBox="0 0 24 24" fill="none" xmlns="http://www.w3.org/2000/svg">
<path d="M14.6287 9.28969C15.5262 10.1886 17.2239 9.94567 18.4205 8.74717C19.6172 7.54867 19.8598 5.84841 18.9622 4.94954C18.0647 4.05066 16.3671 4.29355 15.1704 5.49205C13.9737 6.69055 13.7312 8.39081 14.6287 9.28969Z" fill="#0989FB"/>
<path d="M23.7168 4.96812C23.1728 7.26915 21.7152 10.4073 18.2558 14.2949L17.897 17.9074C17.801 18.7731 17.4136 19.5804 16.7986 20.1963L13.2251 23.7753C12.9919 24.0088 12.6357 24.0667 12.3408 23.919C12.0459 23.7713 11.8784 23.4512 11.925 23.1242L12.3313 20.2756C12.3913 19.8551 12.3107 19.3858 12.1333 18.8414C12.0195 18.492 11.8935 18.1833 11.7601 17.8561C11.7197 17.7572 11.6787 17.6566 11.6371 17.5527C10.4143 17.257 9.27025 16.5593 8.34982 15.6375C7.42921 14.7155 6.73248 13.5694 6.43731 12.3444C6.33298 12.3026 6.23203 12.2614 6.13278 12.2208C5.8069 12.0876 5.49936 11.962 5.15081 11.8481C4.60709 11.6706 4.13853 11.5898 3.7187 11.6499L0.874426 12.0568C0.547999 12.1036 0.228366 11.9358 0.0809014 11.6404C-0.0665634 11.3451 -0.00877199 10.9883 0.224391 10.7548L3.79789 7.17587C4.41291 6.55992 5.21893 6.17194 6.08337 6.07574L6.09247 6.07478L9.69268 5.7177C13.5071 2.32647 16.6304 0.873182 18.935 0.311768C20.2708 -0.0136538 21.3203 -0.0364626 22.0547 0.0303983C22.4212 0.0637661 22.7073 0.119293 22.9096 0.169613C23.0106 0.194762 23.0907 0.218587 23.1493 0.237648C23.4262 0.327771 23.5676 0.433316 23.6762 0.678967L23.6769 0.68063C23.6923 0.715985 23.7063 0.752137 23.7194 0.788395C23.7406 0.846545 23.767 0.92574 23.7951 1.02568C23.8513 1.22567 23.9142 1.50824 23.9553 1.87088C24.0377 2.59776 24.0315 3.63733 23.7168 4.96812ZM16.4753 16.18L16.5348 16.1202L16.3738 17.742C16.3154 18.2599 16.0832 18.7427 15.7152 19.1113L13.7668 21.0627L13.8481 20.4927C13.9564 19.733 13.7971 19.0014 13.5898 18.3653C13.5187 18.1471 13.4327 17.9163 13.3438 17.6885C14.4506 17.5916 15.5374 17.1193 16.4753 16.18ZM7.80813 7.49969C6.8704 8.43885 6.39881 9.52725 6.30192 10.6356C6.07432 10.5465 5.84368 10.4604 5.6258 10.3893C4.99077 10.1819 4.26032 10.0224 3.50202 10.1309L2.93287 10.2123L4.88128 8.26091C5.2493 7.89233 5.7313 7.65981 6.24838 7.6013L7.86708 7.44075L7.80813 7.49969ZM21.916 1.55857C21.3469 1.50676 20.4666 1.51786 19.2971 1.80277C16.9599 2.37215 13.4224 4.04695 8.89152 8.58473C7.96216 9.51551 7.69357 10.5956 7.86212 11.6611C8.02242 12.6744 8.58657 13.7045 9.43322 14.5524C10.2796 15.4001 11.3078 15.9651 12.3193 16.1258C13.3835 16.2949 14.4623 16.026 15.3919 15.095C20.0099 10.4699 21.6788 6.92837 22.2259 4.61454C22.4995 3.45737 22.4955 2.596 22.4329 2.04394C22.4137 1.87431 22.3888 1.733 22.3644 1.62045C22.2458 1.59775 22.0961 1.57497 21.916 1.55857Z" fill="#0989FB"/>
<path d="M10.5133 18.2082C9.54359 17.6949 8.62017 16.9933 7.80813 16.18C6.94635 15.3169 6.21014 14.3282 5.69105 13.2918C4.03818 14.7795 2.7434 20.8729 2.93288 21.0627C3.12064 21.2507 8.83576 19.7182 10.5133 18.2082Z" fill="#0989FB"/>
</svg>
