<svg width="136" height="56" viewBox="0 0 136 56" fill="none" xmlns="http://www.w3.org/2000/svg">
<rect x="0.5" y="0.5" width="135.001" height="55" rx="27.5" stroke="#1A1A13"/>
<path d="M16 32.651V31.511H19.994V32.961C19.9909 33.1515 20.0287 33.3405 20.1047 33.5152C20.1808 33.6898 20.2934 33.8462 20.4349 33.9737C20.5765 34.1013 20.7437 34.197 20.9253 34.2545C21.107 34.312 21.2988 34.3299 21.488 34.307C21.8111 34.3508 22.1389 34.2716 22.4064 34.0851C22.6739 33.8986 22.8615 33.6184 22.932 33.3C23.0389 32.9353 23.0298 32.5463 22.906 32.187C22.133 30.243 16.851 29.363 16.18 26.333C16.0434 25.6674 16.0349 24.9818 16.155 24.313C16.567 21.88 18.705 21 21.359 21C23.472 21 26.384 21.492 26.384 24.754V25.816H22.674V24.884C22.6852 24.7003 22.6565 24.5163 22.5899 24.3448C22.5232 24.1732 22.4203 24.0181 22.288 23.8902C22.1557 23.7622 21.9973 23.6643 21.8237 23.6034C21.65 23.5424 21.4652 23.5198 21.282 23.537C20.9691 23.5025 20.6547 23.5874 20.4017 23.7747C20.1486 23.9619 19.9755 24.2377 19.917 24.547C19.8753 24.8052 19.8841 25.0691 19.943 25.324C20.38 27.058 26.024 27.991 26.643 31.124C26.7977 31.936 26.8062 32.769 26.668 33.584C26.307 36.068 24.091 37 21.412 37C18.6 37 16 35.99 16 32.651ZM64.392 32.6V31.46H68.335V32.884C68.3288 33.0728 68.3634 33.2607 68.4366 33.4349C68.5097 33.609 68.6195 33.7654 68.7586 33.8932C68.8977 34.021 69.0628 34.1172 69.2425 34.1754C69.4222 34.2335 69.6124 34.2521 69.8 34.23C70.1202 34.2777 70.4467 34.2029 70.7142 34.0205C70.9817 33.8381 71.1705 33.5615 71.243 33.246C71.3499 32.8898 71.3411 32.5089 71.218 32.158C70.47 30.243 65.239 29.358 64.57 26.333C64.4331 25.6762 64.4243 24.9992 64.544 24.339C64.959 21.932 67.1 21.052 69.7 21.052C71.788 21.052 74.673 21.57 74.673 24.78V25.816H70.989V24.91C71.0007 24.7286 70.9733 24.5467 70.9086 24.3768C70.8439 24.2069 70.7434 24.0529 70.614 23.9252C70.4845 23.7975 70.3291 23.6992 70.1583 23.6369C69.9875 23.5746 69.8053 23.5497 69.624 23.564C69.3168 23.5233 69.0058 23.6029 68.756 23.7864C68.5062 23.9698 68.3371 24.2427 68.284 24.548C68.2419 24.8062 68.2504 25.0701 68.309 25.325C68.721 27.059 74.309 27.966 74.932 31.072C75.0865 31.8752 75.095 32.6998 74.957 33.506C74.596 35.992 72.406 36.898 69.757 36.898C66.97 36.9 64.392 35.887 64.392 32.6ZM78.513 33.145C78.4771 32.8179 78.4687 32.4885 78.488 32.16V21.44H82.25V32.495C82.2451 32.6854 82.2535 32.8758 82.275 33.065C82.359 33.3767 82.5433 33.6521 82.7996 33.8485C83.0558 34.0448 83.3697 34.1513 83.6925 34.1513C84.0153 34.1513 84.3292 34.0448 84.5854 33.8485C84.8417 33.6521 85.0261 33.3767 85.11 33.065C85.1323 32.8759 85.141 32.6854 85.136 32.495V21.44H88.9V32.158C88.9 32.443 88.874 32.987 88.874 33.143C88.617 35.943 86.426 36.843 83.695 36.843C80.964 36.843 78.771 35.938 78.513 33.143V33.145ZM109.487 32.989C109.449 32.6608 109.431 32.3304 109.435 32V25.712C109.435 25.453 109.46 24.987 109.486 24.727C109.821 21.932 112.063 21.052 114.717 21.052C117.346 21.052 119.664 21.932 119.923 24.728C119.954 25.0554 119.962 25.3845 119.948 25.713V26.2H116.186V25.376C116.187 25.1848 116.17 24.994 116.135 24.806C116.036 24.4903 115.839 24.2145 115.572 24.0187C115.306 23.8228 114.984 23.7172 114.653 23.7172C114.322 23.7172 114 23.8228 113.734 24.0187C113.467 24.2145 113.27 24.4903 113.171 24.806C113.127 25.0366 113.11 25.2715 113.12 25.506V32.34C113.116 32.5304 113.124 32.7208 113.146 32.91C113.235 33.249 113.442 33.545 113.73 33.7448C114.018 33.9446 114.368 34.0351 114.717 34C115.06 34.0365 115.404 33.9459 115.684 33.7456C115.964 33.5452 116.161 33.2489 116.237 32.913C116.272 32.7251 116.28 32.5333 116.263 32.343V30.165H114.743V27.99H120V32C120.004 32.3288 119.986 32.6575 119.948 32.984C119.691 35.702 117.348 36.66 114.717 36.66C112.086 36.66 109.744 35.705 109.487 32.987V32.989ZM57.049 36.378L56.949 22.553L54.369 36.378H50.607L48.055 22.553L47.955 36.378H44.242L44.551 21.466H50.607L52.488 33.117L54.369 21.466H60.424L60.759 36.378H57.049ZM37.259 36.378L35.249 22.553L33.187 36.378H29.168L31.9 21.466H38.523L41.255 36.378H37.259ZM100.236 36.223L96.5 23.822L96.706 36.222H93.046V21.466H98.56L102.06 33.479L101.859 21.466H105.544V36.224L100.236 36.223Z" fill="#015294"/>
</svg>
