<svg width="213" height="212" viewBox="0 0 213 212" fill="none" xmlns="http://www.w3.org/2000/svg">
<rect width="213" height="212" rx="106" fill="#00A2FF"/>
<path d="M148.274 125.541V86.4582C148.274 81.7226 144.558 77.8682 139.988 77.8682H74.0121C69.4441 77.8682 65.7261 81.7205 65.7261 86.4582V125.541C65.7261 130.277 69.4421 134.131 74.0121 134.131H139.988C144.556 134.129 148.274 130.277 148.274 125.541ZM144.274 125.541C144.274 127.992 142.352 129.984 139.988 129.984H74.0121C71.6481 129.984 69.7261 127.992 69.7261 125.541V86.4582C69.7261 84.0074 71.6481 82.0149 74.0121 82.0149H139.988C142.352 82.0149 144.274 84.0074 144.274 86.4582V125.541Z" fill="white"/>
<path d="M96.333 100.642C97.749 99.155 98.6317 97.1589 98.6317 94.9498C98.6317 90.3813 94.9108 86.6667 90.3343 86.6667C85.7579 86.6667 82.0349 90.3813 82.0349 94.9498C82.0349 97.1589 82.9176 99.155 84.3336 100.642C80.6252 102.738 78.1111 106.707 78.1111 111.257V123.468C78.1111 124.622 79.0481 125.556 80.2027 125.556H100.464C101.618 125.556 102.556 124.622 102.556 123.468V111.257C102.556 106.709 100.044 102.74 96.333 100.642ZM86.2181 94.9498C86.2181 92.6864 88.065 90.8427 90.3343 90.8427C92.6016 90.8427 94.4485 92.6843 94.4485 94.9498C94.4485 97.2153 92.6037 99.059 90.3343 99.059C88.065 99.059 86.2181 97.2153 86.2181 94.9498ZM90.3343 103.235C94.7664 103.235 98.3723 106.835 98.3723 111.259V121.382H95.6198V112.307C95.6198 111.153 94.6828 110.219 93.5282 110.219C92.3737 110.219 91.4366 111.153 91.4366 112.307V121.382H89.2321V112.307C89.2321 111.153 88.295 110.219 87.1405 110.219C85.9859 110.219 85.0489 111.153 85.0489 112.307V121.382H82.2964V111.259C82.2943 106.835 85.9002 103.235 90.3343 103.235Z" fill="white"/>
<path d="M133.532 87.8916H113.634C112.528 87.8916 111.634 88.8205 111.634 89.965C111.634 91.1095 112.528 92.0383 113.634 92.0383H133.532C134.638 92.0383 135.532 91.1095 135.532 89.965C135.532 88.8205 134.636 87.8916 133.532 87.8916Z" fill="white"/>
<path d="M133.532 98.5815H120.264C119.158 98.5815 118.264 99.5104 118.264 100.655C118.264 101.799 119.158 102.728 120.264 102.728H133.532C134.638 102.728 135.532 101.799 135.532 100.655C135.532 99.5104 134.636 98.5815 133.532 98.5815Z" fill="white"/>
<path d="M133.532 109.27H116.426C115.32 109.27 114.426 110.196 114.426 111.343C114.426 112.489 115.32 113.416 116.426 113.416H133.532C134.638 113.416 135.532 112.489 135.532 111.343C135.532 110.196 134.636 109.27 133.532 109.27Z" fill="white"/>
<path d="M133.532 119.96H113.634C112.528 119.96 111.634 120.887 111.634 122.034C111.634 123.18 112.528 124.107 113.634 124.107H133.532C134.638 124.107 135.532 123.18 135.532 122.034C135.532 120.887 134.636 119.96 133.532 119.96Z" fill="white"/>
<path d="M59 87.1738C60.104 87.1738 61 86.2449 61 85.1004V74.1467H71.566C72.67 74.1467 73.566 73.2179 73.566 72.0734C73.566 70.9289 72.67 70 71.566 70H59C57.896 70 57 70.9289 57 72.0734V85.1004C57 86.2449 57.896 87.1738 59 87.1738Z" fill="white"/>
<path d="M155 70H142.434C141.328 70 140.434 70.9289 140.434 72.0734C140.434 73.2179 141.328 74.1467 142.434 74.1467H153V85.1004C153 86.2449 153.894 87.1738 155 87.1738C156.106 87.1738 157 86.2449 157 85.1004V72.0734C157 70.9268 156.106 70 155 70Z" fill="white"/>
<path d="M71.566 137.853H61V126.9C61 125.753 60.104 124.826 59 124.826C57.896 124.826 57 125.753 57 126.9V139.927C57 141.073 57.896 142 59 142H71.566C72.67 142 73.566 141.073 73.566 139.927C73.566 138.78 72.67 137.853 71.566 137.853Z" fill="white"/>
<path d="M155 124.826C153.894 124.826 153 125.753 153 126.9V137.853H142.434C141.328 137.853 140.434 138.78 140.434 139.927C140.434 141.073 141.328 142 142.434 142H155C156.106 142 157 141.073 157 139.927V126.9C157 125.753 156.106 124.826 155 124.826Z" fill="white"/>
</svg>
