<svg width="327" height="274" viewBox="0 0 327 274" fill="none" xmlns="http://www.w3.org/2000/svg">
<g filter="url(#filter0_dddd_661_166)">
<rect x="6" y="31" width="213" height="212" rx="106" fill="#00A2FF"/>
</g>
<path d="M154.274 156.541V117.458C154.274 112.723 150.558 108.868 145.988 108.868H80.0121C75.4441 108.868 71.7261 112.72 71.7261 117.458V156.541C71.7261 161.277 75.4421 165.131 80.0121 165.131H145.988C150.556 165.129 154.274 161.277 154.274 156.541ZM150.274 156.541C150.274 158.992 148.352 160.984 145.988 160.984H80.0121C77.6481 160.984 75.7261 158.992 75.7261 156.541V117.458C75.7261 115.007 77.6481 113.015 80.0121 113.015H145.988C148.352 113.015 150.274 115.007 150.274 117.458V156.541Z" fill="white"/>
<path d="M102.333 131.642C103.749 130.155 104.632 128.159 104.632 125.95C104.632 121.381 100.911 117.667 96.3343 117.667C91.7579 117.667 88.0349 121.381 88.0349 125.95C88.0349 128.159 88.9176 130.155 90.3336 131.642C86.6252 133.738 84.1111 137.707 84.1111 142.257V154.468C84.1111 155.622 85.0481 156.556 86.2027 156.556H106.464C107.618 156.556 108.556 155.622 108.556 154.468V142.257C108.556 137.709 106.044 133.74 102.333 131.642ZM92.2181 125.95C92.2181 123.686 94.065 121.843 96.3343 121.843C98.6016 121.843 100.449 123.684 100.449 125.95C100.449 128.215 98.6037 130.059 96.3343 130.059C94.065 130.059 92.2181 128.215 92.2181 125.95ZM96.3343 134.235C100.766 134.235 104.372 137.835 104.372 142.259V152.382H101.62V143.307C101.62 142.153 100.683 141.219 99.5282 141.219C98.3737 141.219 97.4366 142.153 97.4366 143.307V152.382H95.2321V143.307C95.2321 142.153 94.295 141.219 93.1405 141.219C91.9859 141.219 91.0489 142.153 91.0489 143.307V152.382H88.2964V142.259C88.2943 137.835 91.9002 134.235 96.3343 134.235Z" fill="white"/>
<path d="M139.532 118.892H119.634C118.528 118.892 117.634 119.82 117.634 120.965C117.634 122.109 118.528 123.038 119.634 123.038H139.532C140.638 123.038 141.532 122.109 141.532 120.965C141.532 119.82 140.636 118.892 139.532 118.892Z" fill="white"/>
<path d="M139.532 129.582H126.264C125.158 129.582 124.264 130.51 124.264 131.655C124.264 132.799 125.158 133.728 126.264 133.728H139.532C140.638 133.728 141.532 132.799 141.532 131.655C141.532 130.51 140.636 129.582 139.532 129.582Z" fill="white"/>
<path d="M139.532 140.27H122.426C121.32 140.27 120.426 141.196 120.426 142.343C120.426 143.489 121.32 144.416 122.426 144.416H139.532C140.638 144.416 141.532 143.489 141.532 142.343C141.532 141.196 140.636 140.27 139.532 140.27Z" fill="white"/>
<path d="M139.532 150.96H119.634C118.528 150.96 117.634 151.887 117.634 153.034C117.634 154.18 118.528 155.107 119.634 155.107H139.532C140.638 155.107 141.532 154.18 141.532 153.034C141.532 151.887 140.636 150.96 139.532 150.96Z" fill="white"/>
<path d="M65 118.174C66.104 118.174 67 117.245 67 116.1V105.147H77.566C78.67 105.147 79.566 104.218 79.566 103.073C79.566 101.929 78.67 101 77.566 101H65C63.896 101 63 101.929 63 103.073V116.1C63 117.245 63.896 118.174 65 118.174Z" fill="white"/>
<path d="M161 101H148.434C147.328 101 146.434 101.929 146.434 103.073C146.434 104.218 147.328 105.147 148.434 105.147H159V116.1C159 117.245 159.894 118.174 161 118.174C162.106 118.174 163 117.245 163 116.1V103.073C163 101.927 162.106 101 161 101Z" fill="white"/>
<path d="M77.566 168.853H67V157.9C67 156.753 66.104 155.826 65 155.826C63.896 155.826 63 156.753 63 157.9V170.927C63 172.073 63.896 173 65 173H77.566C78.67 173 79.566 172.073 79.566 170.927C79.566 169.78 78.67 168.853 77.566 168.853Z" fill="white"/>
<path d="M161 155.826C159.894 155.826 159 156.753 159 157.9V168.853H148.434C147.328 168.853 146.434 169.78 146.434 170.927C146.434 172.073 147.328 173 148.434 173H161C162.106 173 163 172.073 163 170.927V157.9C163 156.753 162.106 155.826 161 155.826Z" fill="white"/>
<defs>
<filter id="filter0_dddd_661_166" x="0" y="0" width="327" height="274" filterUnits="userSpaceOnUse" color-interpolation-filters="sRGB">
<feFlood flood-opacity="0" result="BackgroundImageFix"/>
<feColorMatrix in="SourceAlpha" type="matrix" values="0 0 0 0 0 0 0 0 0 0 0 0 0 0 0 0 0 0 127 0" result="hardAlpha"/>
<feOffset dx="5"/>
<feGaussianBlur stdDeviation="5.5"/>
<feColorMatrix type="matrix" values="0 0 0 0 0 0 0 0 0 0 0 0 0 0 0 0 0 0 0.1 0"/>
<feBlend mode="normal" in2="BackgroundImageFix" result="effect1_dropShadow_661_166"/>
<feColorMatrix in="SourceAlpha" type="matrix" values="0 0 0 0 0 0 0 0 0 0 0 0 0 0 0 0 0 0 127 0" result="hardAlpha"/>
<feOffset dx="19"/>
<feGaussianBlur stdDeviation="9.5"/>
<feColorMatrix type="matrix" values="0 0 0 0 0 0 0 0 0 0 0 0 0 0 0 0 0 0 0.09 0"/>
<feBlend mode="normal" in2="effect1_dropShadow_661_166" result="effect2_dropShadow_661_166"/>
<feColorMatrix in="SourceAlpha" type="matrix" values="0 0 0 0 0 0 0 0 0 0 0 0 0 0 0 0 0 0 127 0" result="hardAlpha"/>
<feOffset dx="43"/>
<feGaussianBlur stdDeviation="13"/>
<feColorMatrix type="matrix" values="0 0 0 0 0 0 0 0 0 0 0 0 0 0 0 0 0 0 0.05 0"/>
<feBlend mode="normal" in2="effect2_dropShadow_661_166" result="effect3_dropShadow_661_166"/>
<feColorMatrix in="SourceAlpha" type="matrix" values="0 0 0 0 0 0 0 0 0 0 0 0 0 0 0 0 0 0 127 0" result="hardAlpha"/>
<feOffset dx="77"/>
<feGaussianBlur stdDeviation="15.5"/>
<feColorMatrix type="matrix" values="0 0 0 0 0 0 0 0 0 0 0 0 0 0 0 0 0 0 0.01 0"/>
<feBlend mode="normal" in2="effect3_dropShadow_661_166" result="effect4_dropShadow_661_166"/>
<feBlend mode="normal" in="SourceGraphic" in2="effect4_dropShadow_661_166" result="shape"/>
</filter>
</defs>
</svg>
