<svg width="200" height="200" viewBox="0 0 200 200" fill="none" xmlns="http://www.w3.org/2000/svg">
<rect width="200" height="200" rx="100" fill="#00A2FF"/>
<path d="M135.54 121.039C139.688 114.123 145.365 104.649 143.704 85.2492C141.989 65.1711 129.09 51.4646 104.313 51.0081C80.4342 50.5731 67.6191 67.7545 64.7638 80.304C62.8094 88.9122 63.7067 92.3613 64.2974 94.6586C64.5017 95.4502 64.6483 96.0157 64.6039 96.5855C64.5373 97.4555 62.5918 100.57 61.0327 103.075C57.6081 108.556 55.5737 112.018 56.0756 113.945C56.6575 116.151 59.6025 116.751 62.2053 117.273C63.1025 117.451 64.435 117.73 64.8882 117.986C64.8304 120.97 64.9903 123.21 65.3546 124.633C65.4923 125.146 65.8876 125.555 66.5583 125.881C65.6921 126.651 65.6699 127.208 65.8432 127.708C65.9675 128.065 66.2163 128.399 66.696 129.013C67.0602 129.47 67.8909 130.548 67.913 130.94V131.296C67.8464 135.137 68.0818 140.405 70.8579 141.853C74.4513 143.737 80.5099 142.654 85.3912 141.788C87.3589 141.444 89.7797 141.009 90.5214 141.153C90.9301 141.832 91.0011 144.002 90.8279 146.129C90.7924 146.521 90.6236 147.856 90.5303 148.556C90.4948 148.791 90.6902 149 90.93 149H131.772C132.012 149 132.203 148.8 132.172 148.565C132.106 147.952 131.977 146.838 131.923 146.125C131.652 143.028 131.173 136.068 131.755 129.766C131.99 126.939 133.562 124.333 135.539 121.04L135.54 121.039ZM129.685 146.737H93.0581C93.2758 144.576 93.4224 140.957 92.1476 139.543C91.2148 138.508 89.2827 138.795 84.9829 139.565C80.6966 140.335 74.8157 141.37 71.929 139.865C71.3738 139.573 70.0768 138.151 70.1879 131.313V130.922C70.1879 129.808 69.2551 128.608 68.5044 127.646C68.4378 127.559 68.3667 127.468 68.2868 127.368C68.6732 127.077 69.2862 126.698 69.868 126.389C69.868 126.389 71.4271 125.498 71.5159 125.097C71.5825 124.784 69.4594 124.306 69.4594 124.306C68.8775 124.184 68.0824 124.049 67.4916 123.849C67.2873 122.927 67.0918 121.2 67.1496 117.99V117.768C67.1496 115.998 64.9642 115.563 62.6456 115.097C61.0866 114.784 58.4836 114.249 58.2571 113.392C57.9595 112.244 61.2154 107.033 62.9521 104.24C65.3062 100.465 66.7498 98.0943 66.852 96.7458C66.9186 95.8237 66.7143 95.032 66.4789 94.1055C65.9326 92.022 65.1242 88.8815 66.9586 80.7866C69.677 68.9809 81.8114 52.7568 104.283 53.2356C126.718 53.714 139.831 66.5634 141.443 85.4278C143.047 104.123 137.579 113.244 133.572 119.904C131.538 123.301 129.775 126.241 129.477 129.534C128.855 136.415 129.41 143.845 129.685 146.737Z" fill="white"/>
<path d="M132.662 106.029C134.127 105.694 135.336 104.524 135.673 103.08C136.219 100.818 134.82 98.804 132.795 98.2341V94.6151C132.795 93.0448 131.498 91.7747 129.894 91.7747H119.909L119.918 88.4776C119.918 87.0291 118.723 85.8504 117.235 85.8504H114.268V81.8747C114.268 81.5398 114.539 81.2614 114.894 81.2614H120.82C121.401 83.2448 123.467 84.615 125.768 84.08C127.234 83.7363 128.428 82.5662 128.779 81.1309C129.414 78.4819 127.371 76.107 124.764 76.107C122.89 76.107 121.308 77.3554 120.82 79.0343H114.903C113.3 79.0343 112.003 80.3044 112.003 81.8747V85.8504H108.809L108.805 67.221C108.805 66.8861 109.089 66.6077 109.431 66.6077H115.583C116.165 68.5911 118.23 69.9613 120.531 69.4262C121.997 69.0826 123.192 67.9125 123.542 66.4772C124.178 63.8282 122.134 61.4532 119.527 61.4532C117.653 61.4532 116.08 62.7016 115.583 64.3806H109.431C107.827 64.3806 106.53 65.6507 106.53 67.221V85.8504H102.462V73.38C102.462 71.8097 101.165 70.5396 99.5612 70.5396H95.8656C95.2837 68.5561 93.2183 67.1859 90.9174 67.721C89.4516 68.0646 88.2568 69.2347 87.9059 70.6701C87.2707 73.319 89.314 75.681 91.9212 75.681C93.7956 75.681 95.368 74.4326 95.8656 72.7536H99.5612C99.9032 72.7536 100.187 73.0189 100.187 73.3669V85.8374H98.8105C97.3314 85.8374 96.1277 87.0075 96.1277 88.4646V91.3616H87.4307C87.2264 91.3616 87.0576 91.5269 87.0576 91.727V93.232C87.0576 93.4321 87.2264 93.5974 87.4307 93.5974H96.1277V96.5378L80.9588 96.5421C80.6167 96.5421 80.3325 96.2768 80.3325 95.9288V92.3098C82.3579 91.74 83.7571 89.7174 83.2107 87.4642C82.8598 86.0287 81.6649 84.8588 80.1992 84.5151C77.4942 83.8931 75.0823 85.894 75.0823 88.4472C75.0823 90.2828 76.3571 91.8314 78.0716 92.3098V95.9288C78.0716 97.4991 79.3686 98.7692 80.9721 98.7692H96.141V102.11H89.5894V114.594H82.6647C82.0828 112.61 80.0174 111.24 77.7076 111.788C76.2418 112.132 75.047 113.302 74.705 114.737C74.0698 117.386 76.113 119.748 78.7203 119.748C80.5947 119.748 82.1671 118.5 82.6647 116.821H91.8636V104.346H96.141V106.529C96.141 107.978 97.3359 109.157 98.8239 109.157H100.858V116.508C100.858 116.708 101.027 116.873 101.231 116.873H102.768C102.973 116.873 103.141 116.708 103.141 116.508V109.157H106.335V123.833C106.335 124.168 106.064 124.446 105.709 124.446H99.5568C98.9749 122.463 96.9095 121.093 94.6086 121.628C93.1428 121.971 91.948 123.141 91.5971 124.577C90.9619 127.226 93.0052 129.588 95.6124 129.588C97.4868 129.588 99.0682 128.339 99.5568 126.66H105.691C107.294 126.66 108.591 125.39 108.591 123.82V109.157H112.66V117.674C112.66 119.244 113.957 120.514 115.561 120.514H119.256C119.838 122.497 121.903 123.868 124.204 123.333C125.67 122.989 126.865 121.819 127.216 120.384C127.851 117.735 125.808 115.36 123.201 115.36C121.326 115.36 119.745 116.608 119.256 118.287H115.561C115.219 118.287 114.934 118.022 114.934 117.674V109.157H117.244C118.723 109.157 119.927 107.987 119.927 106.53V100.984H124.622C124.826 100.984 124.995 100.818 124.995 100.618V99.1133C124.995 98.9132 124.826 98.7479 124.622 98.7479H119.927V94.0024H129.912C130.254 94.0024 130.538 94.2677 130.538 94.6157V98.2346C128.819 98.7262 127.549 100.262 127.549 102.097C127.536 104.646 129.956 106.651 132.662 106.029ZM117.645 106.53C117.645 106.751 117.288 106.629 117.062 106.629L98.8114 106.93C98.5849 106.93 98.4028 106.751 98.4028 106.53V88.4782C98.4028 88.2563 98.5849 88.078 98.8114 88.078H117.245C117.471 88.078 117.654 88.2563 117.654 88.4782V106.53H117.645Z" fill="white"/>
<path d="M115.969 94.5584H113.877V93.2447C113.877 92.4313 113.206 91.7745 112.376 91.7745H111.158V89.7258C111.158 89.5258 110.99 89.3605 110.785 89.3605H109.248C109.044 89.3605 108.875 89.5258 108.875 89.7258V91.7745H107.17V89.7258C107.17 89.5258 107.001 89.3605 106.797 89.3605H105.26C105.055 89.3605 104.887 89.5258 104.887 89.7258V91.7745H103.67C102.839 91.7745 102.168 92.4313 102.168 93.2447V94.5584H100.076C99.8719 94.5584 99.7031 94.7236 99.7031 94.9237V96.4288C99.7031 96.6289 99.8719 96.7941 100.076 96.7941H102.168V98.2426H100.076C99.8719 98.2426 99.7031 98.4079 99.7031 98.608V100.113C99.7031 100.313 99.8719 100.478 100.076 100.478H102.168V101.792C102.168 102.605 102.839 103.262 103.67 103.262H104.887V105.311C104.887 105.511 105.055 105.676 105.26 105.676H106.797C107.001 105.676 107.17 105.511 107.17 105.311V103.262H108.898V105.311C108.898 105.511 109.066 105.676 109.271 105.676H110.808C111.012 105.676 111.181 105.511 111.181 105.311V103.262H112.398C113.228 103.262 113.899 102.605 113.899 101.792V100.478H115.991C116.195 100.478 116.364 100.313 116.364 100.113V98.608C116.364 98.4079 116.195 98.2426 115.991 98.2426H113.877V96.7941H115.969C116.173 96.7941 116.342 96.6289 116.342 96.4288V94.9237C116.346 94.7236 116.173 94.5584 115.969 94.5584Z" fill="white"/>
</svg>
