<svg width="22" height="27" viewBox="0 0 22 27" fill="none" xmlns="http://www.w3.org/2000/svg">
<path d="M21.1556 3.44513L10.8977 0.0256462C10.7952 -0.00854872 10.6877 -0.00854872 10.59 0.0256462L0.332164 3.44513C0.13189 3.51352 0 3.69914 0 3.90919V12.2913C0 18.7879 4.36205 24.5765 10.6145 26.3594C10.6585 26.374 10.7025 26.3789 10.7464 26.3789C10.7904 26.3789 10.8344 26.374 10.8783 26.3594C17.1258 24.5765 21.4929 18.7879 21.4929 12.2913V3.90919C21.4929 3.69915 21.3561 3.51354 21.1607 3.44513H21.1556ZM20.5108 12.2915C20.5108 18.3095 16.5004 23.6729 10.7413 25.3826C4.9821 23.6729 0.971756 18.3095 0.971756 12.2915V4.26077L10.7413 1.0026L20.5108 4.26077V12.2915Z" fill="#00A2FF"/>
<path d="M10.5852 3.11842L3.25794 5.5608C3.05767 5.62919 2.92578 5.81481 2.92578 6.02486V12.292C2.92578 17.1621 5.99829 21.5732 10.5704 23.268C10.6241 23.2875 10.6827 23.2973 10.7414 23.2973C10.8 23.2973 10.8586 23.2875 10.9123 23.268C15.4845 21.573 18.5569 17.1621 18.5569 12.292V6.02486C18.5569 5.81481 18.4202 5.6292 18.2248 5.5608L10.8975 3.11842C10.7949 3.08422 10.6874 3.08422 10.5897 3.11842H10.5852ZM17.5802 6.37659V12.2921C17.5802 16.6982 14.8399 20.6889 10.7416 22.2864C6.64336 20.689 3.90289 16.6932 3.90289 12.2921V6.37659L10.7416 4.0954L17.5802 6.37659Z" fill="#00A2FF"/>
<path d="M7.66365 12.2721C7.47314 12.0816 7.16538 12.0816 6.9749 12.2721C6.78442 12.4626 6.7844 12.7704 6.9749 12.9609L9.69571 15.6817C9.78852 15.7745 9.91063 15.8233 10.0425 15.8233H10.0718C10.2135 15.8136 10.3405 15.7452 10.4284 15.6377L14.5463 10.3672C14.7124 10.1522 14.6733 9.8494 14.4633 9.6833C14.2483 9.51722 13.9455 9.5563 13.7794 9.76634L10.0035 14.6023L7.6735 12.2723L7.66365 12.2721Z" fill="#00A2FF"/>
</svg>
