<svg width="1180" height="400" viewBox="0 0 1180 400" fill="none" xmlns="http://www.w3.org/2000/svg">
<g filter="url(#filter0_b_297_8018)">
<rect width="1180" height="400" rx="25" fill="url(#paint0_linear_297_8018)"/>
<rect x="0.5" y="0.5" width="1179" height="399" rx="24.5" stroke="url(#paint1_linear_297_8018)" stroke-opacity="0.6"/>
<mask id="mask0_297_8018" style="mask-type:alpha" maskUnits="userSpaceOnUse" x="0" y="0" width="1180" height="400">
<rect width="1180" height="400" rx="25" fill="url(#paint2_linear_297_8018)"/>
<rect x="0.5" y="0.5" width="1179" height="399" rx="24.5" stroke="url(#paint3_linear_297_8018)" stroke-opacity="0.6"/>
</mask>
<g mask="url(#mask0_297_8018)">
<g filter="url(#filter1_f_297_8018)">
<ellipse cx="436.631" cy="10" rx="199.831" ry="200" fill="url(#paint4_linear_297_8018)"/>
<path d="M635.962 10C635.962 120.181 546.718 209.5 436.631 209.5C326.545 209.5 237.301 120.181 237.301 10C237.301 -100.181 326.545 -189.5 436.631 -189.5C546.718 -189.5 635.962 -100.181 635.962 10Z" stroke="url(#paint5_linear_297_8018)" stroke-opacity="0.6"/>
<ellipse cx="982.169" cy="155" rx="249.788" ry="250" fill="url(#paint6_linear_297_8018)"/>
<path d="M1231.46 155C1231.46 292.795 1119.85 404.5 982.169 404.5C844.491 404.5 732.88 292.795 732.88 155C732.88 17.2046 844.491 -94.5 982.169 -94.5C1119.85 -94.5 1231.46 17.2046 1231.46 155Z" stroke="url(#paint7_linear_297_8018)" stroke-opacity="0.6"/>
<ellipse cx="236.8" cy="360" rx="299.746" ry="300" fill="url(#paint8_linear_297_8018)"/>
<path d="M536.046 360C536.046 525.41 402.068 659.5 236.8 659.5C71.5313 659.5 -62.446 525.41 -62.446 360C-62.446 194.59 71.5313 60.5 236.8 60.5C402.068 60.5 536.046 194.59 536.046 360Z" stroke="url(#paint9_linear_297_8018)" stroke-opacity="0.6"/>
<ellipse cx="104.912" cy="74" rx="149.873" ry="150" fill="url(#paint10_linear_297_8018)"/>
<path d="M254.285 74C254.285 156.567 187.408 223.5 104.912 223.5C22.4155 223.5 -44.4614 156.567 -44.4614 74C-44.4614 -8.56697 22.4155 -75.5 104.912 -75.5C187.408 -75.5 254.285 -8.56697 254.285 74Z" stroke="url(#paint11_linear_297_8018)" stroke-opacity="0.6"/>
<ellipse cx="1157.02" cy="424" rx="149.873" ry="150" fill="url(#paint12_linear_297_8018)"/>
<path d="M1306.39 424C1306.39 506.567 1239.52 573.5 1157.02 573.5C1074.52 573.5 1007.65 506.567 1007.65 424C1007.65 341.433 1074.52 274.5 1157.02 274.5C1239.52 274.5 1306.39 341.433 1306.39 424Z" stroke="url(#paint13_linear_297_8018)" stroke-opacity="0.6"/>
<ellipse cx="732.38" cy="246" rx="249.788" ry="250" fill="url(#paint14_linear_297_8018)"/>
<path d="M981.668 246C981.668 383.795 870.058 495.5 732.38 495.5C594.702 495.5 483.092 383.795 483.092 246C483.092 108.205 594.702 -3.5 732.38 -3.5C870.058 -3.5 981.668 108.205 981.668 246Z" stroke="url(#paint15_linear_297_8018)" stroke-opacity="0.6"/>
</g>
</g>
</g>
<defs>
<filter id="filter0_b_297_8018" x="-20" y="-20" width="1220" height="440" filterUnits="userSpaceOnUse" color-interpolation-filters="sRGB">
<feFlood flood-opacity="0" result="BackgroundImageFix"/>
<feGaussianBlur in="BackgroundImageFix" stdDeviation="10"/>
<feComposite in2="SourceAlpha" operator="in" result="effect1_backgroundBlur_297_8018"/>
<feBlend mode="normal" in="SourceGraphic" in2="effect1_backgroundBlur_297_8018" result="shape"/>
</filter>
<filter id="filter1_f_297_8018" x="-562.946" y="-690" width="2369.84" height="1850" filterUnits="userSpaceOnUse" color-interpolation-filters="sRGB">
<feFlood flood-opacity="0" result="BackgroundImageFix"/>
<feBlend mode="normal" in="SourceGraphic" in2="BackgroundImageFix" result="shape"/>
<feGaussianBlur stdDeviation="250" result="effect1_foregroundBlur_297_8018"/>
</filter>
<linearGradient id="paint0_linear_297_8018" x1="-46.9602" y1="-9.99999" x2="1242.67" y2="422.84" gradientUnits="userSpaceOnUse">
<stop stop-color="#CBE7F8" stop-opacity="0.5"/>
<stop offset="1" stop-color="#DCE7ED" stop-opacity="0.2"/>
</linearGradient>
<linearGradient id="paint1_linear_297_8018" x1="590" y1="0" x2="590" y2="400" gradientUnits="userSpaceOnUse">
<stop stop-color="#A7DFFF"/>
<stop offset="1" stop-color="#D8F1FF"/>
</linearGradient>
<linearGradient id="paint2_linear_297_8018" x1="-46.9602" y1="-9.99999" x2="1242.67" y2="422.84" gradientUnits="userSpaceOnUse">
<stop stop-color="#CBE7F8" stop-opacity="0.5"/>
<stop offset="1" stop-color="#DCE7ED" stop-opacity="0.2"/>
</linearGradient>
<linearGradient id="paint3_linear_297_8018" x1="590" y1="0" x2="590" y2="400" gradientUnits="userSpaceOnUse">
<stop stop-color="#A7DFFF"/>
<stop offset="1" stop-color="#D8F1FF"/>
</linearGradient>
<linearGradient id="paint4_linear_297_8018" x1="220.896" y1="-200" x2="700.692" y2="-145.458" gradientUnits="userSpaceOnUse">
<stop stop-color="#CBE7F8" stop-opacity="0.5"/>
<stop offset="1" stop-color="#DCE7ED" stop-opacity="0.2"/>
</linearGradient>
<linearGradient id="paint5_linear_297_8018" x1="436.631" y1="-190" x2="436.631" y2="210" gradientUnits="userSpaceOnUse">
<stop stop-color="#A7DFFF"/>
<stop offset="1" stop-color="#D8F1FF"/>
</linearGradient>
<linearGradient id="paint6_linear_297_8018" x1="712.499" y1="-107.5" x2="1312.24" y2="-39.3227" gradientUnits="userSpaceOnUse">
<stop stop-color="#CBE7F8" stop-opacity="0.5"/>
<stop offset="1" stop-color="#DCE7ED" stop-opacity="0.2"/>
</linearGradient>
<linearGradient id="paint7_linear_297_8018" x1="982.169" y1="-95" x2="982.169" y2="405" gradientUnits="userSpaceOnUse">
<stop stop-color="#A7DFFF"/>
<stop offset="1" stop-color="#D8F1FF"/>
</linearGradient>
<linearGradient id="paint8_linear_297_8018" x1="-86.8039" y1="45" x2="632.89" y2="126.813" gradientUnits="userSpaceOnUse">
<stop stop-color="#CBE7F8" stop-opacity="0.5"/>
<stop offset="1" stop-color="#DCE7ED" stop-opacity="0.2"/>
</linearGradient>
<linearGradient id="paint9_linear_297_8018" x1="236.8" y1="60" x2="236.8" y2="660" gradientUnits="userSpaceOnUse">
<stop stop-color="#A7DFFF"/>
<stop offset="1" stop-color="#D8F1FF"/>
</linearGradient>
<linearGradient id="paint10_linear_297_8018" x1="-56.8904" y1="-83.5" x2="302.957" y2="-42.5936" gradientUnits="userSpaceOnUse">
<stop stop-color="#CBE7F8" stop-opacity="0.5"/>
<stop offset="1" stop-color="#DCE7ED" stop-opacity="0.2"/>
</linearGradient>
<linearGradient id="paint11_linear_297_8018" x1="104.912" y1="-76" x2="104.912" y2="224" gradientUnits="userSpaceOnUse">
<stop stop-color="#A7DFFF"/>
<stop offset="1" stop-color="#D8F1FF"/>
</linearGradient>
<linearGradient id="paint12_linear_297_8018" x1="995.218" y1="266.5" x2="1355.07" y2="307.406" gradientUnits="userSpaceOnUse">
<stop stop-color="#CBE7F8" stop-opacity="0.5"/>
<stop offset="1" stop-color="#DCE7ED" stop-opacity="0.2"/>
</linearGradient>
<linearGradient id="paint13_linear_297_8018" x1="1157.02" y1="274" x2="1157.02" y2="574" gradientUnits="userSpaceOnUse">
<stop stop-color="#A7DFFF"/>
<stop offset="1" stop-color="#D8F1FF"/>
</linearGradient>
<linearGradient id="paint14_linear_297_8018" x1="462.71" y1="-16.5" x2="1062.46" y2="51.6773" gradientUnits="userSpaceOnUse">
<stop stop-color="#CBE7F8" stop-opacity="0.5"/>
<stop offset="1" stop-color="#DCE7ED" stop-opacity="0.2"/>
</linearGradient>
<linearGradient id="paint15_linear_297_8018" x1="732.38" y1="-4" x2="732.38" y2="496" gradientUnits="userSpaceOnUse">
<stop stop-color="#A7DFFF"/>
<stop offset="1" stop-color="#D8F1FF"/>
</linearGradient>
</defs>
</svg>
