<svg width="200" height="200" viewBox="0 0 200 200" fill="none" xmlns="http://www.w3.org/2000/svg">
<rect width="200" height="200" rx="100" fill="#00A2FF"/>
<path d="M116.64 140.001H71.3812C68.6071 139.997 66.3567 137.759 66.3525 135.001V68.3336C66.3567 65.5752 68.6071 63.3377 71.3812 63.3335H78.0862V66.6669C78.0904 69.4252 80.3408 71.6628 83.1149 71.6669H109.935C112.709 71.6628 114.959 69.4252 114.964 66.6669V63.3335H121.669C124.443 63.3377 126.693 65.5752 126.697 68.3336V75.0003C126.697 75.9211 127.447 76.667 128.374 76.667C129.3 76.667 130.05 75.9211 130.05 75.0003V68.3336C130.046 63.7335 126.295 60.0043 121.669 60.0001H114.653C113.949 58.0084 112.059 56.6751 109.935 56.6667H104.738C103.942 52.7876 100.506 50 96.5249 50C92.5439 50 89.1075 52.7876 88.3113 56.6667H83.1149C80.9903 56.6751 79.1003 58.0084 78.3963 60.0001H71.3812C66.7548 60.0043 63.0042 63.7335 63 68.3336V135.001C63.0042 139.601 66.7548 143.33 71.3812 143.334H116.64C117.566 143.334 118.317 142.589 118.317 141.668C118.317 140.747 117.566 140.001 116.64 140.001ZM83.1155 60.0001H89.8204C90.2647 60.0001 90.6921 59.8251 91.0064 59.5126C91.3208 59.2001 91.4967 58.7751 91.4967 58.3334C91.4967 55.5709 93.7471 53.3333 96.5255 53.3333C99.3038 53.3333 101.554 55.5709 101.554 58.3334C101.554 58.7751 101.73 59.2001 102.044 59.5126C102.359 59.8252 102.786 60.0001 103.23 60.0001H109.935C110.862 60.0001 111.612 60.746 111.612 61.6668V66.6669C111.612 67.5877 110.862 68.3336 109.935 68.3336H83.1155C82.1894 68.3336 81.4393 67.5877 81.4393 66.6669V61.6668C81.4393 60.746 82.1893 60.0001 83.1155 60.0001ZM141.52 110.825C141.691 109.446 141.779 108.059 141.784 106.667C141.784 93.438 130.088 81.0421 129.589 80.5205C128.914 79.858 127.833 79.858 127.159 80.5205C126.66 81.0413 114.964 93.4369 114.964 106.667C114.968 108.059 115.056 109.446 115.228 110.825C112.085 113.713 108.921 119.646 109.94 131.805H109.944C110.007 132.567 110.581 133.188 111.339 133.313C111.431 133.326 111.519 133.334 111.612 133.334C112.278 133.334 112.886 132.938 113.15 132.33C114.583 129.221 116.619 126.43 119.146 124.117C119.829 125.592 120.592 127.03 121.426 128.426L118.493 134.255C118.233 134.771 118.262 135.384 118.568 135.876C118.87 136.367 119.41 136.667 119.993 136.667H136.755C137.338 136.667 137.874 136.367 138.18 135.876C138.486 135.384 138.515 134.771 138.255 134.255L135.322 128.426C136.156 127.03 136.919 125.592 137.602 124.117C140.129 126.43 142.165 129.221 143.598 132.33C143.862 132.938 144.466 133.334 145.136 133.334C145.229 133.334 145.317 133.326 145.409 133.313C146.167 133.188 146.741 132.567 146.804 131.805C147.827 119.647 144.663 113.713 141.52 110.825ZM128.374 84.1999C129.911 86.0416 131.332 87.9791 132.623 90H124.124C125.415 87.9791 126.836 86.0416 128.374 84.1999ZM113.132 125.779C113.082 122.017 114.071 118.316 115.99 115.075C116.464 117.075 117.072 119.037 117.809 120.954C116.015 122.321 114.44 123.946 113.132 125.779ZM122.704 133.333L124.38 130H132.363L134.039 133.333H122.704ZM132.464 126.667H124.279C120.629 120.604 118.58 113.725 118.316 106.666C118.509 101.979 119.829 97.4078 122.167 93.3328H134.58C136.918 97.4078 138.238 101.979 138.431 106.666C138.162 113.725 136.109 120.604 132.464 126.667ZM138.938 120.954C139.676 119.037 140.283 117.075 140.757 115.075C142.676 118.316 143.665 122.016 143.615 125.779C142.307 123.945 140.732 122.321 138.938 120.954ZM134.991 142.196C134.069 145.379 131.973 148.104 129.124 149.825C128.65 150.058 128.097 150.058 127.623 149.825C124.774 148.104 122.678 145.379 121.757 142.196C121.601 141.771 121.622 141.304 121.819 140.9C122.016 140.492 122.368 140.183 122.8 140.042C123.227 139.9 123.697 139.933 124.099 140.142C124.501 140.35 124.803 140.708 124.933 141.137C125.553 143.162 126.748 144.967 128.373 146.329C129.999 144.967 131.194 143.162 131.814 141.137C131.944 140.708 132.246 140.35 132.648 140.142C133.05 139.933 133.519 139.9 133.947 140.042C134.378 140.183 134.731 140.492 134.927 140.9C135.124 141.304 135.146 141.771 134.991 142.196ZM128.374 99.999C125.662 99.999 123.215 101.624 122.18 104.116C121.141 106.607 121.715 109.474 123.634 111.378C125.549 113.287 128.432 113.858 130.938 112.824C133.444 111.795 135.079 109.362 135.079 106.666C135.074 102.987 132.074 100.003 128.374 99.999ZM128.374 109.999C127.016 109.999 125.796 109.187 125.277 107.941C124.757 106.695 125.046 105.262 126.002 104.307C126.961 103.357 128.403 103.07 129.656 103.587C130.909 104.103 131.726 105.316 131.726 106.666C131.722 108.508 130.226 109.995 128.374 109.999Z" fill="white"/>
</svg>
