<svg width="251" height="278" viewBox="0 0 251 278" fill="none" xmlns="http://www.w3.org/2000/svg">
<path d="M66.3799 43.747C84.0779 33.3127 104.866 27.5338 124.932 27.5338C144.315 27.5338 162.616 32.6706 179.351 42.8239L159.967 47.1982C158.562 47.5194 157.318 48.3621 156.556 49.6061C155.792 50.8101 155.512 52.295 155.833 53.6996C156.395 56.1877 158.562 57.9535 161.131 57.9535C161.532 57.9535 161.933 57.9134 162.334 57.8332L193.717 50.7298H194.078L194.199 50.6496C194.761 50.4891 195.322 50.2081 196.005 49.7666C196.447 49.4456 196.808 49.0844 197.088 48.7233C197.168 48.6029 197.249 48.4824 197.209 48.4824L197.37 48.3219L197.449 48.1614C197.57 47.9206 197.65 47.72 197.69 47.5194C197.811 47.2384 197.971 46.8371 198.092 46.3956C198.132 46.0745 198.172 45.7937 198.172 45.3522C198.212 45.1917 198.212 44.951 198.092 44.4292V44.1081L189.584 14.3305C188.901 11.9227 186.734 10.3174 184.327 10.3174C183.805 10.3174 183.283 10.3976 182.802 10.518C181.397 10.9194 180.234 11.8424 179.551 13.0865C178.829 14.3706 178.668 15.8155 179.069 17.22L183.484 32.6706C165.384 22.0358 145.68 16.618 124.932 16.618C102.9 16.618 80.1451 22.9186 60.8017 34.3562C20.5498 58.1943 -0.679887 99.1686 5.46024 141.307C5.86155 143.956 8.14905 145.962 10.8379 145.962H10.9181L11.6405 145.921C14.5701 145.48 16.6569 142.712 16.2154 139.782C10.7175 102.058 29.9405 65.2976 66.3799 43.747Z" fill="#00A2FF"/>
<path d="M245.409 131.922C244.365 130.838 242.96 130.236 241.315 130.236C238.827 130.397 236.138 132.484 236.057 135.534C235.136 179.518 212.942 216.921 176.743 235.581C161.494 243.447 144.999 247.461 127.663 247.461C108.239 247.461 88.3338 242.244 69.9134 232.291L85.7654 229.561C88.695 229.041 90.7015 226.231 90.2199 223.261C89.7786 220.652 87.491 218.767 84.762 218.767C84.762 218.767 84.1199 218.806 83.9996 218.806L53.4996 224.104C52.8976 224.225 52.3358 224.465 51.7739 224.787L51.453 225.027C50.9714 225.388 50.6101 225.749 50.249 226.19L50.2089 226.231L50.0884 226.392L49.7674 227.073L49.7273 227.234C49.5668 227.555 49.366 227.916 49.2858 228.358L49.2457 229.16V229.321C49.2457 229.682 49.2056 230.043 49.3259 230.605L56.951 262.871C57.553 265.44 59.72 267.165 62.2482 267.165C62.6897 267.165 63.1312 267.125 63.4923 267.004C66.4219 266.323 68.2279 263.393 67.5055 260.464L62.8905 240.919C83.3575 252.316 105.671 258.336 127.623 258.336C146.725 258.336 164.905 253.922 181.72 245.253C221.49 224.706 245.851 183.772 246.893 135.774C246.933 134.33 246.371 132.965 245.409 131.922Z" fill="#00A2FF"/>
<path d="M171.812 172.931C176.025 173.854 184.212 175.699 184.212 175.699C184.533 175.82 184.894 175.82 185.215 175.82C186.94 175.82 188.506 174.817 189.148 173.212L195.008 158.924C195.77 156.959 195.087 154.791 193.322 153.707L182.446 146.885C183.249 141.387 183.249 135.849 182.406 130.351L193.202 123.529C194.967 122.405 195.649 120.198 194.847 118.272L188.907 104.025C188.224 102.42 186.74 101.416 184.974 101.416C184.654 101.416 184.293 101.456 184.011 101.537L171.57 104.386C168.24 99.9315 164.306 95.9985 159.812 92.6677L162.621 80.1867C163.103 78.1401 161.98 76.1335 160.093 75.2907L145.765 69.3914C145.243 69.1907 144.683 69.0703 144.12 69.0703C142.636 69.0703 141.312 69.7927 140.508 71.1171L133.767 81.9525C131.078 81.5513 128.349 81.2703 125.66 81.2703C122.851 81.2703 120.041 81.5914 117.272 81.9926L110.41 71.1974C109.607 69.9934 108.283 69.2308 106.838 69.2308C106.236 69.2308 105.715 69.3513 105.193 69.5519L90.8658 75.5315C88.9396 76.294 87.8961 78.3808 88.3777 80.4276L91.2271 92.8683C86.7324 96.2394 82.8396 100.172 79.5488 104.667C75.2949 103.704 67.1481 101.858 67.1481 101.858C66.787 101.778 66.4659 101.737 66.1449 101.737C64.4192 101.737 62.8942 102.781 62.2521 104.386L56.3528 118.673C55.5902 120.639 56.2724 122.807 58.0382 123.89L68.8337 130.632C68.0712 136.09 68.0712 141.668 68.9139 147.207L58.1185 154.07C56.3528 155.152 55.6705 157.4 56.4732 159.285L62.4528 173.573C63.135 175.177 64.66 176.181 66.3856 176.181C66.7469 176.181 67.0679 176.141 67.3087 176.06L79.7896 173.212C83.1206 177.626 86.9731 181.439 91.5883 184.85L88.7389 197.371C88.2573 199.418 89.381 201.464 91.2672 202.266L105.594 208.167C106.116 208.367 106.638 208.487 107.199 208.487C108.684 208.487 110.009 207.765 110.771 206.481L117.593 195.605C120.282 196.006 123.011 196.287 125.7 196.287C128.509 196.287 131.319 196.006 134.128 195.565L140.99 206.36C141.753 207.604 143.117 208.367 144.562 208.367C145.124 208.367 145.685 208.246 146.207 208.006L160.454 202.026C162.42 201.264 163.464 199.177 162.942 197.13L160.093 184.689C164.508 181.399 168.401 177.465 171.812 172.931ZM156.44 151.38C153.029 159.608 146.689 166.028 138.502 169.44C134.409 171.165 130.074 172.008 125.7 172.008C121.366 172.008 117.112 171.165 113.059 169.52C104.832 166.109 98.4107 159.767 94.9994 151.58C91.5481 143.354 91.5481 134.324 94.9192 126.097C98.3304 117.91 104.671 111.489 112.858 108.078C116.991 106.352 121.286 105.51 125.66 105.51C130.034 105.51 134.288 106.312 138.301 107.998C146.528 111.409 152.95 117.75 156.361 125.937C159.772 134.124 159.772 143.193 156.44 151.38Z" fill="#00A2FF"/>
</svg>
