<svg width="135" height="56" viewBox="0 0 135 56" fill="none" xmlns="http://www.w3.org/2000/svg">
<rect x="0.5" y="0.5" width="133.795" height="55" rx="27.5" stroke="#1A1A13"/>
<path d="M79.6922 24.423C79.6922 25.5775 79.9134 25.9705 80.7107 25.9534V26.3098C80.7107 26.3098 80.6644 26.3038 79.3709 26.3038C78.602 26.3038 76.5299 26.5033 76.0718 26.5018C72.497 26.4936 71.835 24.4596 71.835 22.7559C71.835 20.6128 73.2204 19.0025 75.2857 19.0025C76.4365 19.0025 76.8445 19.3275 77.2981 19.8252V18.1671C77.2345 17.6522 77.4206 16.896 76.2048 16.8661V16.5553L79.3664 16.3535H79.6922V24.423ZM77.2981 20.7413C76.8923 19.9754 76.4365 19.4972 75.6496 19.4972C74.5318 19.4972 74.2321 20.9027 74.2321 22.6281C74.2321 25.174 74.9203 26.0804 75.9941 26.0804C77.1912 26.0804 77.2981 25.3884 77.2981 24.3132V20.7413Z" fill="#275DA6"/>
<path d="M67.2119 19.0181C70.0424 19.0248 70.9025 21.1006 70.9675 22.2858L65.9035 22.2761C65.8362 23.7212 66.6036 25.3286 68.3664 25.3323C69.5328 25.3345 70.1493 24.5499 70.4422 24.0313L70.8472 24.2219C70.4056 25.277 69.2518 26.5286 67.1655 26.5189C65.3243 26.5107 63.4674 25.2665 63.4727 22.7663C63.4764 20.2047 65.5448 19.0136 67.2119 19.0181ZM67.2433 19.5927C66.2128 19.5927 65.9124 20.7091 65.9049 21.5527C65.9049 21.5527 68.5278 21.555 68.524 21.5527C68.5801 20.7748 68.267 19.5927 67.2433 19.5927ZM69.5485 33.0737C68.5181 33.0722 68.2177 34.1894 68.2094 35.0323C68.2094 35.0323 70.8323 35.0353 70.8278 35.0323C70.8846 34.2566 70.5715 33.0737 69.5485 33.0737ZM69.5096 32.4976C72.3395 32.4991 73.204 34.5742 73.2705 35.7586H68.2072C68.1429 37.2045 68.9126 38.8111 70.6761 38.8111C71.8418 38.8111 72.4575 38.0235 72.749 37.5049L73.154 37.6947C72.7153 38.7506 71.5638 40.0052 69.4775 39.9999C67.6363 39.9947 65.7772 38.755 65.7772 36.2533C65.7772 33.6917 67.8425 32.4961 69.5096 32.4976Z" fill="#275DA6"/>
<path d="M55.8944 32.9527C56.5565 32.9295 59.2331 32.6807 59.2331 32.6807L59.2473 33.7776C60.1335 33.1641 61.0766 32.5095 62.1922 32.7143C63.8421 33.0177 64.1619 34.3657 64.1589 35.2714C64.1589 35.2714 64.1575 38.0332 64.1589 38.3769C64.1619 38.7946 64.354 39.3625 65.102 39.3633C65.1005 39.3625 65.1027 39.7085 65.1027 39.7085H60.8389V39.361C61.2327 39.3625 61.8029 39.2168 61.8059 38.3246C61.8066 37.8225 61.8044 35.9603 61.8059 35.308C61.8066 34.6556 61.5182 34.2387 61.0616 34.0601C60.3689 33.7881 59.6972 34.1864 59.2548 34.6362L59.2555 38.3141C59.2555 38.7326 59.3691 39.3625 60.1948 39.3618L60.1926 39.7107H55.9744C55.9744 39.7107 55.9759 39.4716 55.9744 39.3618C56.4474 39.3625 56.9159 39.1271 56.9182 38.2865C56.9182 38.2865 56.9167 34.8118 56.9182 34.3687C56.9204 33.5968 56.7351 33.2672 55.8952 33.274C55.8944 33.2814 55.8944 32.9534 55.8944 32.9527ZM33.6841 39.3506C32.5595 39.3767 32.4108 38.1206 32.0768 37.3532L29.3919 30.1991L27.6277 30.1946L24.635 37.8897C24.4048 38.3799 24.1754 38.9329 23.6628 39.2362C23.5365 39.4268 23 39.3745 23 39.3745L23.0022 39.6943L26.3992 39.7003L26.3955 39.3857C26.0682 39.3887 25.7401 39.3289 25.5496 38.9994C25.3232 38.1363 25.8007 37.3293 26.0906 36.5551H29.1192L29.7267 38.223C29.776 38.5069 29.8724 38.8514 29.6557 39.0726C29.4241 39.3588 29.0811 39.3319 28.7687 39.3969L28.7717 39.6868L33.5713 39.6995M26.3798 35.7496L27.6314 32.4647L28.8151 35.7496H26.3798ZM38.8341 39.3707C38.8341 39.3707 39.2727 39.3887 39.39 39.2564C39.7323 39.0965 39.8272 38.7535 39.8713 38.4225L39.875 33.8217C39.6508 33.1761 39.2174 33.1985 38.858 33.1537C38.8879 33.0588 38.8722 32.9504 38.8715 32.8548L42.1832 32.6926L42.1795 34.5727C42.8281 33.7649 43.5245 32.2786 44.8397 32.6919L45.3097 32.8764C45.1917 33.6491 44.9951 34.4696 44.8307 35.2579C44.2344 34.8693 43.4954 34.294 42.7661 34.7886C42.5143 34.976 42.3107 35.2206 42.172 35.5023L42.175 38.3866C42.1997 38.7797 42.3476 39.1167 42.6331 39.2549C42.8886 39.379 43.1868 39.3633 43.1868 39.3633L43.1696 39.6943L38.8274 39.6861L38.8341 39.3707Z" fill="#275DA6"/>
<path d="M33.6997 39.3505C34.3954 39.349 34.6114 38.959 34.6114 38.0115C34.6099 38.0002 34.6114 34.3006 34.6114 34.3006C34.6091 34.1437 34.639 33.6505 34.3678 33.4047C34.1645 33.2209 33.8634 33.1686 33.5966 33.1648V32.8405L36.9196 32.6821C36.9196 32.6821 36.9211 38.0346 36.9196 38.0219C36.9174 39.2713 37.4524 39.3475 37.9052 39.3475V39.6995H33.5869M45.2932 39.355C45.7207 39.3438 46.373 39.2496 46.373 38.2177C46.373 37.936 46.3752 32.2442 46.373 31.3864C46.3715 30.7169 46.1698 30.3231 45.2917 30.3903V30.0421L48.7649 29.7611C48.7649 29.7611 48.7567 36.5827 48.7649 38.205C48.7709 39.1809 49.2133 39.3632 49.7976 39.361C49.7946 39.3632 49.7976 39.7092 49.7976 39.7092H45.2932C45.2932 39.7092 45.2888 39.3535 45.2932 39.355ZM50.6585 39.349C51.3541 39.3483 51.6351 38.962 51.6344 38.0204V34.3365C51.6336 34.1811 51.6628 33.6924 51.3908 33.4488C51.1883 33.2672 50.8864 33.2142 50.6196 33.2104V32.8891L53.9448 32.7329C53.9448 32.7329 53.9463 37.0229 53.9448 38.0309C53.9418 39.2721 54.4784 39.3483 54.9305 39.3475V39.6965L50.6585 39.6972V39.349ZM52.7171 31.9162C53.4352 31.9162 54.0166 31.352 54.0166 30.6556C54.0166 29.9599 53.4352 29.3965 52.7171 29.3965C51.9998 29.3965 51.4184 29.9599 51.4184 30.6556C51.4184 31.3513 51.9998 31.9162 52.7171 31.9162Z" fill="#275DA6"/>
<path d="M35.7223 31.9162C36.4389 31.9162 37.0203 31.352 37.0203 30.6556C37.0203 29.9599 36.4389 29.3965 35.7223 29.3965C35.005 29.3965 34.4229 29.9599 34.4229 30.6556C34.4236 31.3513 35.005 31.9162 35.7223 31.9162ZM74.5521 37.2328C75.0871 37.055 74.9033 37.7507 75.1895 37.9532C75.7806 38.817 76.6862 39.5979 77.7884 39.3513C78.0402 39.2377 78.3376 39.0778 78.4624 38.8088C78.5265 38.6252 78.5373 38.4273 78.4936 38.2378C78.45 38.0483 78.3537 37.8751 78.2158 37.738C77.009 36.8181 74.7703 36.9638 74.5954 34.9762C74.5416 34.2192 74.851 33.5706 75.4309 33.108C76.4957 32.2928 78.2173 32.499 79.4047 32.8996C79.7836 33.0057 79.8732 32.4841 80.2371 32.5924L80.3193 34.7692L80.004 34.7886C79.7133 34.0481 78.9818 33.2822 78.2061 33.0513C77.8273 32.9444 77.3229 32.9803 76.9762 33.1409C76.7415 33.2866 76.539 33.5235 76.5405 33.8075C76.5278 34.14 76.7042 34.4217 76.9889 34.5936C78.3668 35.1645 80.6093 35.4611 80.6743 37.4637C80.7124 38.2043 80.3866 38.8237 79.8232 39.2855C78.7113 40.3055 76.8155 39.9588 75.534 39.5448C75.3135 39.5149 75.1088 39.6113 75.0161 39.8175V39.8646L74.7172 39.8833C74.6295 39.0022 74.5744 38.1181 74.5521 37.2328Z" fill="#275DA6"/>
<path d="M109.044 16.4857V39.6465H104.246C105.259 36.9856 105.488 33.6955 104.773 30.8104C103.906 27.1444 101.507 23.66 98.1061 21.5094C94.8945 19.4642 90.8145 18.6587 86.8026 19.4874L85.8797 19.7116V16.4857H109.044ZM92.256 20.1181C91.0252 19.4381 89.4037 19.3402 87.9503 19.5868L88.4644 19.6451L88.5377 19.6107C89.2109 19.5614 89.9186 19.5838 90.5463 19.7205C90.3408 19.7781 89.9888 19.8954 89.7407 19.9985C89.879 20.0501 90.0576 20.1405 90.1809 20.2182C90.542 20.0984 90.9091 19.9976 91.2808 19.9163C91.5229 19.991 92.1498 20.2787 92.5392 20.5649C92.0789 20.6127 91.4504 20.7032 90.9453 20.8197C91.0641 20.9258 91.1672 21.0484 91.2546 21.1859C91.8582 21.0785 92.4684 21.0126 93.0809 20.9886C93.3955 21.2606 93.6511 21.5871 93.8259 21.9256C93.1459 21.8786 92.2388 21.8913 91.6851 21.9503C91.7404 22.0512 91.8203 22.303 91.8547 22.4569C92.5421 22.427 93.6668 22.4764 94.1368 22.5451C94.2914 22.918 94.3811 23.317 94.4162 23.7377C93.6279 23.5815 92.7028 23.4515 91.9795 23.4171C91.9877 23.6495 91.978 23.8722 91.9571 24.0912C92.8171 24.1793 93.6518 24.3348 94.4603 24.5447C94.4506 24.9557 94.3908 25.4661 94.2802 25.8606C93.4523 25.5707 92.6067 25.3341 91.7486 25.1522C91.6625 25.5101 91.5437 25.8593 91.3936 26.1954C92.241 26.4779 93.0787 26.847 93.8812 27.2438C93.7466 27.6318 93.5788 28.0076 93.3798 28.3669C92.5765 27.9178 91.7508 27.4754 90.9318 27.1265C90.6757 27.5894 90.3884 28.0343 90.0718 28.4581C90.8644 28.9456 91.633 29.4713 92.3748 30.0332C92.1491 30.3613 91.8285 30.7566 91.632 30.9927C90.9154 30.3957 89.4418 29.221 89.4418 29.221C89.0047 29.7456 88.6348 30.1356 88.0878 30.5563C88.7478 31.2362 89.3793 31.9432 89.9806 32.6755C89.7377 32.9318 89.4682 33.1615 89.1766 33.3607C88.5765 32.6236 87.9942 31.8721 87.4302 31.107C86.8407 31.5696 86.4805 31.8207 85.8797 32.133V32.9976L86.8369 34.9142C86.6238 35.0486 86.399 35.1634 86.1652 35.2572L85.8797 34.6998V35.7071C89.5733 34.0654 93.3297 30.4495 94.4237 26.5197C94.8235 25.1635 94.8952 23.4149 94.2406 22.1498C93.8565 21.3181 93.0787 20.5418 92.256 20.1181ZM91.706 19.5487C91.8666 19.6002 92.0206 19.6727 92.1738 19.74L92.2604 19.725C93.0375 19.8527 93.7875 20.1103 94.479 20.4872C94.1121 20.4894 93.7318 20.4842 93.3656 20.5134C93.5195 20.6523 93.6809 20.8123 93.8147 20.958C94.2974 20.9483 94.7803 20.959 95.2621 20.9901C95.7306 21.3346 96.2089 21.7971 96.4756 22.2724C95.8239 22.1337 95.164 22.0367 94.4999 21.9817C94.5881 22.182 94.6755 22.3889 94.7503 22.6012C95.4975 22.711 96.2395 22.847 96.9606 23.0301C97.1967 23.5225 97.3791 24.0426 97.4553 24.5896C96.661 24.3056 95.845 24.0374 95.0103 23.8677C95.032 24.1345 95.0327 24.4147 95.035 24.6882C95.8973 24.9385 96.7387 25.227 97.5547 25.5969C97.5609 26.1295 97.5009 26.6609 97.3761 27.1788C96.5533 26.7693 95.7179 26.3665 94.8481 26.0706C94.7377 26.5535 94.5954 27.0285 94.4222 27.4926C95.2576 27.9238 96.0878 28.3594 96.8777 28.875C96.7164 29.3285 96.5086 29.7639 96.2574 30.1745C95.4811 29.6447 94.7047 29.1283 93.8947 28.677C93.6093 29.2767 93.2614 29.8445 92.8567 30.371C93.5793 30.9419 94.3169 31.5315 95.014 32.1621C94.752 32.5547 94.4573 32.9244 94.133 33.2673C93.6242 32.7323 92.7783 31.9731 92.0744 31.376C91.5752 31.9806 90.9841 32.6464 90.3901 33.1418C90.8429 33.6178 92.1887 35.24 92.1887 35.24C91.9189 35.5083 91.5849 35.7833 91.2382 36.0321C91.2382 36.0321 89.867 34.2694 89.5263 33.8464C88.7148 34.4906 88.0632 34.9419 87.1134 35.4463C87.493 36.0889 88.4263 37.8277 88.4263 37.8277C88.1865 37.9757 87.9331 38.1139 87.6813 38.2059C87.2419 37.4728 86.7114 36.4102 86.4274 35.8035C86.1547 35.9537 85.8797 36.0501 85.8797 36.0501V39.2191C88.7439 38.2903 91.3817 36.6449 93.6174 34.2641C95.6537 32.0583 97.2625 29.6753 97.7415 26.8291C98.1226 24.5582 97.3708 22.4218 95.5692 20.9752C94.4768 20.0411 93.1213 19.7138 91.706 19.5487ZM90.7532 21.0618C89.4986 19.7915 87.573 19.6869 85.8797 20.0859V20.2399C86.2846 20.149 86.6977 20.0996 87.1127 20.0927C86.8407 20.2623 86.581 20.4508 86.3355 20.6568C86.4379 20.6792 86.547 20.7129 86.6427 20.7547C86.9836 20.5094 87.3378 20.2832 87.7037 20.077C88.1035 20.0785 88.6221 20.1539 88.9613 20.2892C88.4039 20.4902 87.7276 20.7995 87.2913 21.0917C87.3755 21.1398 87.4521 21.2003 87.5184 21.2711C88.141 20.9463 88.789 20.6729 89.456 20.4536C89.7542 20.5724 90.0747 20.7854 90.2593 20.9632C89.453 21.1537 88.6796 21.3667 87.9018 21.6835C87.9787 21.771 88.0572 21.9055 88.096 21.9884C88.9237 21.7042 89.7692 21.4748 90.627 21.3017C90.7846 21.4706 90.9722 21.7418 91.0708 21.9929C90.1181 22.093 89.0256 22.2589 88.2926 22.4681C88.3367 22.5929 88.3643 22.7125 88.3875 22.8276C89.3355 22.6431 90.2958 22.5289 91.2606 22.4861C91.3503 22.7655 91.3974 23.0659 91.3989 23.3723C90.4092 23.3181 89.4168 23.3416 88.4308 23.4426C88.4316 23.5584 88.4159 23.787 88.4002 23.9298C89.391 23.8934 90.3831 23.9281 91.369 24.0336C91.3324 24.3228 91.2606 24.6987 91.1672 25.0222C90.1674 24.7943 89.2558 24.6837 88.2507 24.618C88.2017 24.837 88.1288 25.05 88.0333 25.2531C88.9756 25.4257 89.9178 25.6865 90.8257 26.0116C90.7002 26.3067 90.5552 26.5944 90.3968 26.8746C89.7161 26.5526 88.5093 26.1035 87.7164 25.8808C87.5591 26.1973 87.3685 26.4962 87.1478 26.7723C87.7179 27.0495 88.8104 27.666 89.5562 28.1472C89.3776 28.3878 89.1781 28.6359 88.9666 28.8571C88.2497 28.2891 87.5052 27.7567 86.7361 27.2617C86.485 27.5487 86.1719 27.861 85.8797 28.1098V28.1995L87.6858 30.1252C87.4888 30.3041 87.2823 30.4722 87.0671 30.6288L85.8797 29.1104V31.7923C87.7149 30.714 89.5741 28.9482 90.618 27.0734C91.4706 25.5744 92.114 23.5427 91.2905 21.8188C91.1426 21.5528 90.9879 21.2927 90.7532 21.0618ZM96.1506 21.079L96.6841 21.1433C97.2191 21.4205 97.7078 21.8113 98.1502 22.2769C98.3124 22.4562 98.4865 22.6348 98.6008 22.8276C98.1599 22.7035 97.7317 22.5526 97.2774 22.4547C97.4314 22.6946 97.542 22.9307 97.6555 23.2072C98.1629 23.3506 98.6651 23.5285 99.159 23.7056C99.4751 24.3041 99.706 24.9512 99.8151 25.6312C99.2479 25.3473 98.6793 25.07 98.0904 24.8391C98.136 25.1724 98.1502 25.5162 98.136 25.8464C98.7786 26.1423 99.4997 26.5384 99.9458 26.8231C99.9608 27.2953 99.9167 28.1323 99.7785 28.668C99.2651 28.2922 98.5231 27.8109 97.9245 27.5023C97.8424 27.9641 97.6249 28.6852 97.3933 29.1933C98.0224 29.617 98.6441 30.0527 99.2404 30.5638C99.0522 31.0622 98.8297 31.5471 98.5746 32.0149C97.9807 31.5055 97.3709 31.0148 96.7461 30.5436C96.3912 31.2565 95.9586 31.9281 95.4564 32.5462C96.0579 33.096 96.6437 33.6626 97.2132 34.2455C96.9307 34.6564 96.6146 35.0622 96.2447 35.4448C95.6948 34.8545 95.1313 34.2492 94.5552 33.6858C93.9582 34.3755 93.2842 35.0966 92.5773 35.6906C93.1307 36.2875 93.6444 36.9201 94.1151 37.5841C93.7646 37.8838 93.4373 38.1685 93.0854 38.424L91.6014 36.5104C90.6845 37.2225 89.7131 37.8136 88.7357 38.3463L89.5158 39.6465H91.9309C95.62 37.1246 98.9557 33.3824 99.9817 29.2046C100.603 26.6467 100.013 24.0321 98.2503 22.1281C97.3118 21.1149 96.2686 20.7741 95.5334 20.5485C95.7209 20.6725 95.9391 20.8631 96.1506 21.079ZM85.8805 20.8668V21.3129L86.1308 21.138C86.3378 21.1889 86.5754 21.2912 86.7331 21.3966C86.4461 21.5647 86.1502 21.7329 85.8827 21.9137V22.1947C86.2427 21.9681 86.6109 21.7548 86.9864 21.555C87.1209 21.6402 87.2419 21.7665 87.3353 21.8935C86.8564 22.0841 86.1898 22.4099 85.8797 22.575V22.8612C86.4103 22.6049 86.9968 22.3441 87.5543 22.1715C87.6275 22.2985 87.6978 22.4592 87.7262 22.6056C87.1328 22.72 86.4454 22.9703 85.8827 23.1885V23.4523C86.4753 23.246 87.2771 23.0353 87.7994 22.9509C87.8397 23.1205 87.8427 23.3357 87.8442 23.4911C87.1861 23.5519 86.5321 23.6515 85.8857 23.7893V24.0897C86.4558 24.0127 87.4019 23.9432 87.8136 23.9589C87.7798 24.1667 87.725 24.3705 87.6499 24.5672C87.0621 24.5159 86.472 24.4945 85.882 24.5029C85.8797 24.5029 85.8797 24.9042 85.8797 24.9064C86.4005 24.9363 86.9685 25.0611 87.4258 25.1478C87.3497 25.3365 87.2569 25.518 87.1485 25.6903C86.7914 25.5707 86.2698 25.4056 85.8797 25.3435V26.1371C86.13 26.2477 86.4902 26.4285 86.6128 26.5077C86.5082 26.6605 86.3882 26.8023 86.2548 26.9307C86.0897 26.8186 85.879 26.6953 85.879 26.6953L85.8797 27.7048C86.2974 27.2968 86.7077 26.8672 87.032 26.4114C87.8397 25.2464 88.4794 23.7355 87.898 22.2769C87.5468 21.478 86.695 20.9752 85.8805 20.8668ZM99.4086 23.0981C99.5774 23.3835 99.7389 23.6764 99.8734 23.9753L100.516 24.2735C100.973 25.017 101.337 25.8031 101.535 26.655C101.181 26.4315 100.819 26.1991 100.458 26.0004C100.514 26.3874 100.528 26.7372 100.536 27.1451C100.945 27.4298 101.369 27.7302 101.763 28.0829C101.797 28.7798 101.756 29.4782 101.641 30.1663C101.23 29.7646 100.787 29.3965 100.317 29.0656C100.207 29.6761 99.9862 30.3658 99.7306 30.9837C100.223 31.3841 100.684 31.8207 101.112 32.2899C100.928 32.8261 100.699 33.3456 100.426 33.8427C99.9892 33.3712 99.5102 32.8773 99.032 32.461C98.739 33.0327 98.145 33.954 97.6219 34.6647C98.0896 35.1547 98.5414 35.6596 98.9767 36.1786C98.659 36.6156 98.3159 37.0335 97.9492 37.4302C97.5061 36.9183 97.0906 36.3953 96.6281 35.8969C95.9287 36.7106 95.3421 37.3465 94.5044 38.0512C95.0006 38.6497 95.7463 39.6465 95.7463 39.6465H96.17C96.9582 38.9382 97.6998 38.1797 98.3901 37.3757C100.08 35.3125 101.416 33.1029 101.883 30.5376C102.389 27.8461 101.682 25.227 99.9032 23.2819L99.4086 23.0981ZM101.097 24.4439L101.091 24.4633C101.863 25.413 102.475 26.4315 102.794 27.5636L102.788 27.5778L102.192 27.1272C102.268 27.5868 102.328 28.0127 102.344 28.4947C102.624 28.7076 102.932 28.9841 103.172 29.2733C103.213 30.0557 103.213 30.8873 103.078 31.657C102.812 31.2983 102.573 31.0435 102.155 30.6258C102.062 31.1937 101.851 32.0867 101.594 32.686C101.958 33.082 102.333 33.5834 102.568 33.9503C102.431 34.4203 102.165 35.0525 101.883 35.5823C101.546 35.1496 101.309 34.7962 100.869 34.2798C100.424 35.1051 99.9194 35.897 99.36 36.6493C99.7426 37.1014 100.092 37.5737 100.428 38.0527C100.109 38.5014 99.766 38.933 99.4011 39.3454C99.0514 38.8664 98.6815 38.3889 98.3191 37.9167C97.8117 38.5055 97.3013 39.1063 96.6841 39.6473H99.5289C101.359 37.5221 102.687 35.1713 103.226 32.5133C103.787 29.8345 103.345 27.0002 101.62 24.9796C101.459 24.801 101.292 24.5761 101.097 24.4439ZM103.524 28.1674C103.633 28.68 103.682 29.1029 103.746 29.7739C103.959 30.0063 104.213 30.3949 104.213 30.3949C104.245 31.1927 104.183 31.9915 104.03 32.7749L103.599 32.2436C103.469 32.9907 103.273 33.7247 103.012 34.4368L103.492 35.2692C103.35 35.7639 103.077 36.4498 102.814 36.9991C102.636 36.7091 102.466 36.3908 102.284 36.1345C101.842 36.9813 101.341 37.7956 100.784 38.5713L101.45 39.6473H101.604C103.213 37.2569 104.292 34.6221 104.403 31.6256C104.457 30.3703 104.064 29.2793 103.592 28.2339L103.524 28.1674ZM104.801 32.4648C104.75 32.8653 104.718 33.2711 104.647 33.6536L104.52 33.481C104.39 34.2814 104.182 35.0672 103.9 35.8274L104.098 36.3744C103.936 36.9258 103.731 37.5176 103.466 38.1364C103.392 37.9314 103.297 37.7352 103.18 37.5513C102.821 38.2731 102.42 38.973 101.978 39.6473L103.043 39.6465C103.625 38.5172 104.084 37.3291 104.414 36.1024C104.695 34.9538 104.948 33.7246 104.808 32.4648H104.801ZM104.87 35.4C104.645 36.5709 104.242 38.0205 103.902 39.0555C103.861 38.9744 103.822 38.8919 103.787 38.8081C103.628 39.1302 103.386 39.6465 103.386 39.6465H103.933C104.405 38.5346 104.736 36.9318 104.87 35.4ZM87.9085 38.7401C87.2434 39.0435 86.5784 39.2953 85.8797 39.5195V39.6443H88.4159L87.9085 38.7401ZM93.462 38.9098C93.199 39.0988 92.8635 39.397 92.4577 39.6473H93.9477C93.9477 39.6473 93.6242 39.1653 93.462 38.9098ZM109.866 38.696C109.866 38.1618 110.292 37.7358 110.831 37.7358C111.369 37.7358 111.795 38.1618 111.795 38.696C111.795 39.2296 111.369 39.6548 110.831 39.6548C110.704 39.6559 110.579 39.632 110.462 39.5843C110.345 39.5366 110.238 39.4662 110.148 39.377C110.059 39.2878 109.987 39.1817 109.939 39.0648C109.891 38.9479 109.866 38.8226 109.866 38.696ZM111.648 38.696C111.648 38.2432 111.271 37.8845 110.831 37.8845C110.391 37.8845 110.014 38.2432 110.014 38.696C110.014 39.1474 110.391 39.5076 110.831 39.5076C111.271 39.5076 111.648 39.1474 111.648 38.696ZM111.288 39.2154H111.111L110.797 38.7304H110.619V39.2154H110.472V38.164H110.93C111.119 38.164 111.303 38.2163 111.303 38.4412C111.303 38.6482 111.158 38.7252 110.971 38.7304L111.288 39.2154ZM110.797 38.5825C110.927 38.5825 111.155 38.6071 111.155 38.4397C111.155 38.3321 111.013 38.3112 110.9 38.3112H110.619V38.5825H110.797ZM52.6363 25.9525C53.332 25.951 53.6137 25.5655 53.6122 24.6232V20.9408C53.6107 20.7846 53.6406 20.2959 53.3686 20.0523C53.1661 19.8707 52.8642 19.8184 52.5982 19.8139V19.4926L55.922 19.3357C55.922 19.3357 55.9234 23.6256 55.922 24.6344C55.9197 25.8763 56.4562 25.9511 56.9091 25.9503V26.3H52.6363V25.9525ZM54.695 18.5205C55.4131 18.5205 55.9937 17.9555 55.9937 17.2591C55.9937 16.5642 55.4131 16 54.695 16C53.9784 16 53.3963 16.5642 53.3963 17.2591C53.3963 17.9555 53.9784 18.5205 54.695 18.5205ZM42.5665 19.5434C43.2285 19.5203 45.9051 19.2714 45.9051 19.2714L45.9186 20.3691C46.8056 19.7549 47.7486 19.0996 48.8642 19.3051C50.5141 19.6092 50.8332 20.9565 50.831 21.8614C50.831 21.8614 50.8295 24.6239 50.831 24.9669C50.8332 25.3846 51.026 25.954 51.774 25.9555C51.7725 25.954 51.7748 26.2993 51.7748 26.2993H47.5102V25.9518C47.9055 25.954 48.4749 25.8068 48.4772 24.9161C48.4787 24.4132 48.4757 22.5511 48.4772 21.8987C48.4787 21.2464 48.191 20.8294 47.7337 20.6501C47.0402 20.3796 46.3692 20.7779 45.9268 21.227L45.9276 24.9042C45.9276 25.3241 46.0397 25.954 46.8669 25.9525L46.8654 26.3H42.6464V25.9525C43.1194 25.954 43.5872 25.7187 43.5902 24.8765V20.9602C43.5924 20.1876 43.4071 19.8588 42.5672 19.8655L42.5665 19.5434ZM57.5353 19.8214C58.6651 19.0592 59.8248 17.8629 60.6154 16.9086H60.868V19.3701H62.9587V20.1472H60.8568C60.8568 20.1472 60.853 22.5638 60.8568 24.0553C60.859 24.9445 61.2259 25.3869 61.8924 25.3861C62.2214 25.3793 62.5348 25.2445 62.766 25.0103L63.1299 25.1679C62.5777 26.0796 61.737 26.4995 60.7282 26.501C59.1837 26.504 58.5261 25.4825 58.5291 24.3617C58.5306 23.4074 58.5306 20.145 58.5306 20.145H57.5353V19.8214ZM40.6012 24.7211C40.578 25.5363 41.0921 25.9189 41.7363 25.9174V26.2664H38.1151V25.2412C36.9382 26.365 36.4435 26.501 35.4265 26.501C33.4165 26.501 32.1417 25.3144 32.1417 23.4717V18.6684C32.1417 17.8569 31.9294 17.6835 30.9326 17.4489V17.1231H35.6515V17.4489C34.6053 17.6835 34.4417 17.904 34.4417 18.7469V23.8625C34.4417 24.9864 34.9363 25.6581 36.0475 25.6581C36.865 25.6581 37.2326 25.2673 38.1151 24.393V18.6684C38.1151 17.8412 37.9029 17.6835 36.9061 17.4489V17.1231H41.6249V17.4452C40.6856 17.422 40.6012 17.9025 40.6012 18.856V24.7211Z" fill="#275DA6"/>
</svg>
