<svg width="228" height="220" viewBox="0 0 228 220" fill="none" xmlns="http://www.w3.org/2000/svg">
<path d="M195.55 156.656C189.624 156.685 184.088 158.363 179.387 161.246L179.52 161.171L159.447 142.923C164.842 134.689 168.046 124.599 168.046 113.764C168.046 102.05 164.297 91.2082 157.926 82.3779L158.037 82.5344L180.854 59.7175C185.101 62.0723 190.162 63.4657 195.541 63.5029H195.557C213.045 63.5029 227.226 49.3225 227.226 31.8335C227.226 14.3446 213.045 0.164062 195.557 0.164062C178.068 0.164062 163.888 14.3446 163.888 31.8335C163.924 37.2285 165.325 42.2882 167.754 46.6996L167.672 46.5356L144.855 69.3525C136.309 63.0931 125.578 59.3374 113.976 59.3374C107.508 59.3374 101.316 60.5074 95.5928 62.6386L95.958 62.5193L91.1591 53.801C96.5691 48.1601 99.9 40.4849 99.9 32.0346C99.9 14.6575 85.809 0.566452 68.4317 0.566452C51.0545 0.566452 36.9635 14.6575 36.9635 32.0346C36.9635 49.4119 51.0545 63.5029 68.4317 63.5029C70.7118 63.5029 72.9399 63.2571 75.086 62.795L74.8773 62.8324L79.6613 71.5209C67.1053 81.3198 59.1097 96.4466 59.1097 113.451C59.1097 117.96 59.676 122.341 60.7341 126.521L60.6522 126.156L55.6819 128.265C49.8697 121.529 41.3227 117.281 31.7845 117.281C14.3925 117.281 0.293945 131.38 0.293945 148.772C0.293945 166.163 14.3925 180.263 31.7845 180.263C49.1767 180.263 63.2752 166.163 63.2752 148.772C63.2752 148.712 63.2752 148.646 63.2752 148.586C63.2156 147.4 63.1037 146.305 62.9324 145.232L62.9547 145.411L67.9249 143.302C77.6344 158.4 94.356 168.258 113.38 168.258C126.07 168.258 137.732 163.869 146.935 156.529L146.823 156.61L166.957 174.904C165.035 178.825 163.902 183.43 163.873 188.296C163.873 205.785 178.053 219.972 195.541 219.972C213.03 219.972 227.212 205.792 227.212 188.303C227.212 170.814 213.03 156.634 195.541 156.634L195.55 156.656ZM55.3838 31.841C55.3838 24.6427 61.226 18.8006 68.4243 18.8006C75.6225 18.8006 81.4646 24.6427 81.4646 31.841C81.4646 39.0393 75.6225 44.8813 68.4243 44.8813C61.226 44.8739 55.3913 39.0393 55.3838 31.841ZM31.6132 161.649C24.4149 161.64 18.5877 155.814 18.5877 148.615C18.5877 141.417 24.4224 135.583 31.6206 135.583C38.8188 135.583 44.646 141.41 44.6535 148.608C44.646 155.807 38.8115 161.64 31.6132 161.649ZM195.55 18.8006C202.747 18.8006 208.589 24.6427 208.589 31.841C208.589 39.0393 202.747 44.8813 195.55 44.8813C188.351 44.8813 182.509 39.0393 182.509 31.841C182.516 24.6427 188.351 18.808 195.55 18.8006ZM77.7388 113.809C77.7388 113.802 77.7388 113.794 77.7388 113.787C77.7388 94.0025 93.7747 77.9666 113.559 77.9666C123.455 77.9666 132.412 81.983 138.894 88.466L138.909 88.4809C145.393 94.9637 149.394 103.921 149.394 113.809C149.394 133.6 133.35 149.637 113.566 149.637C93.7822 149.637 77.7388 133.593 77.7388 113.809ZM195.55 201.366C188.351 201.366 182.509 195.524 182.509 188.325C182.509 181.127 188.351 175.285 195.55 175.285C202.747 175.285 208.589 181.127 208.589 188.325C208.582 195.524 202.747 201.359 195.55 201.366Z" fill="#00A2FF"/>
</svg>
