<svg width="84" height="90" viewBox="0 0 84 90" fill="none" xmlns="http://www.w3.org/2000/svg">
<path fill-rule="evenodd" clip-rule="evenodd" d="M38.273 20.284H45.723C46.0692 20.284 46.4025 20.4158 46.6551 20.6526C46.9076 20.8894 47.0606 21.2135 47.083 21.559L47.732 27.116C48.7171 27.43 49.6741 27.826 50.593 28.3L55.035 24.786C55.296 24.5804 55.6234 24.4776 55.9551 24.4972C56.2868 24.5167 56.5999 24.6572 56.835 24.892L62.102 30.159C62.3539 30.4106 62.4973 30.7508 62.5016 31.1068C62.5059 31.4628 62.3707 31.8064 62.125 32.064L58.7 36.405C59.1749 37.3237 59.5716 38.2808 59.886 39.266L65.508 39.922C65.8403 39.96 66.147 40.1189 66.3697 40.3684C66.5925 40.6179 66.7157 40.9406 66.716 41.275V48.725C66.716 49.0712 66.5842 49.4045 66.3474 49.6571C66.1106 49.9096 65.7865 50.0626 65.441 50.085L59.884 50.734C59.5705 51.7209 59.1744 52.6796 58.7 53.6L62.213 58.042C62.4187 58.3029 62.5217 58.6302 62.5023 58.9619C62.483 59.2937 62.3427 59.6068 62.108 59.842L56.841 65.11C56.5896 65.3604 56.2505 65.5029 55.8957 65.5072C55.5409 65.5115 55.1984 65.3772 54.941 65.133L50.593 61.7C49.6738 62.1738 48.7168 62.5705 47.732 62.886L47.076 68.508C47.0377 68.8401 46.8788 69.1466 46.6293 69.3691C46.3798 69.5917 46.0573 69.7147 45.723 69.715H38.273C37.9267 69.715 37.5933 69.5832 37.3406 69.3464C37.0878 69.1097 36.9346 68.7856 36.912 68.44L36.264 62.884C35.2781 62.5695 34.3201 62.1735 33.4 61.7L28.958 65.213C28.697 65.4186 28.3696 65.5214 28.0379 65.5019C27.7061 65.4823 27.3931 65.3418 27.158 65.107L21.89 59.84C21.6385 59.5881 21.4954 59.2479 21.4913 58.892C21.4872 58.5361 21.6224 58.1926 21.868 57.935L25.3 53.6C24.8257 52.681 24.429 51.724 24.114 50.739L18.492 50.083C18.1599 50.0447 17.8534 49.8858 17.6309 49.6363C17.4084 49.3868 17.2853 49.0643 17.285 48.73V41.28C17.285 40.9338 17.4168 40.6005 17.6536 40.3479C17.8904 40.0954 18.2145 39.9424 18.56 39.92L24.116 39.271C24.4299 38.2843 24.826 37.3256 25.3 36.405L21.787 31.963C21.5808 31.7026 21.4771 31.3757 21.4956 31.044C21.514 30.7124 21.6532 30.399 21.887 30.163L27.155 24.896C27.4066 24.6441 27.7468 24.5007 28.1028 24.4964C28.4588 24.4921 28.8024 24.6273 29.06 24.873L33.4 28.3C34.3185 27.8253 35.2751 27.4286 36.26 27.114L36.917 21.491C36.9548 21.1587 37.1137 20.852 37.3632 20.6294C37.6128 20.4068 37.9356 20.2838 38.27 20.284H38.273ZM29.529 85.19C37.5706 87.6963 46.1809 87.7207 54.2366 85.2601C62.2923 82.7995 69.4193 77.968 74.6879 71.3961C79.9565 64.8241 83.1221 56.8168 83.7716 48.4188C84.4211 40.0207 82.5244 31.6219 78.329 24.318C78.2471 24.1507 78.1316 24.0021 77.9898 23.8813C77.848 23.7606 77.6828 23.6703 77.5046 23.616C77.3264 23.5618 77.139 23.5449 76.9539 23.5662C76.7689 23.5875 76.5902 23.6467 76.429 23.74L70.51 27.158C70.1984 27.3376 69.9708 27.6334 69.8771 27.9806C69.7833 28.3278 69.8311 28.698 70.01 29.01C72.8503 33.9264 74.3452 39.5043 74.3444 45.1822C74.3435 50.86 72.8468 56.4375 70.005 61.353C66.2996 67.7689 60.5043 72.7187 53.5877 75.3748C46.6711 78.031 39.0524 78.2326 32.005 75.946L33.117 71.8C33.1763 71.5765 33.1777 71.3415 33.1209 71.1173C33.0642 70.893 32.9512 70.687 32.7926 70.5186C32.634 70.3503 32.4352 70.2251 32.2147 70.155C31.9943 70.0849 31.7597 70.0722 31.533 70.118L12.039 74.105C11.7921 74.1561 11.5643 74.2749 11.381 74.448C11.1977 74.6211 11.0661 74.8418 11.001 75.0854C10.9358 75.3289 10.9397 75.5858 11.0121 75.8273C11.0845 76.0688 11.2226 76.2855 11.411 76.453L26.222 89.588C26.3899 89.7603 26.6005 89.8851 26.8323 89.9495C27.0642 90.0139 27.3089 90.0157 27.5417 89.9547C27.7744 89.8937 27.9869 89.7721 28.1573 89.6023C28.3278 89.4325 28.4501 89.2205 28.512 88.988L29.529 85.188V85.19ZM26.45 86.159L27.271 83.093C27.3197 82.9126 27.405 82.7441 27.5216 82.598C27.6382 82.4519 27.7836 82.3314 27.9488 82.2439C28.1139 82.1564 28.2953 82.1038 28.4817 82.0893C28.668 82.0749 28.8553 82.099 29.032 82.16C36.4727 84.7674 44.527 85.0696 52.1422 83.0269C59.7574 80.9843 66.5792 76.6918 71.7162 70.7106C76.8531 64.7294 80.0663 57.3376 80.9356 49.5013C81.8049 41.665 80.2901 33.7487 76.589 26.787L73.019 28.848C75.7815 34.0891 77.1699 39.9451 77.0545 45.8686C76.9391 51.792 75.3236 57.5895 72.359 62.719C68.2294 69.8705 61.7085 75.3351 53.945 78.1503C46.1815 80.9655 37.6735 80.9505 29.92 78.108C29.594 77.9957 29.3226 77.7641 29.1605 77.4599C28.9983 77.1556 28.9574 76.8012 29.046 76.468L29.916 73.222L15.246 76.222L26.446 86.157L26.45 86.159ZM5.669 66.059C5.75112 66.2261 5.86671 66.3745 6.00858 66.4951C6.15046 66.6157 6.3156 66.7058 6.49375 66.7599C6.67191 66.814 6.85928 66.8309 7.04424 66.8096C7.22921 66.7883 7.40782 66.7292 7.569 66.636L13.489 63.219C13.8005 63.0396 14.0281 62.744 14.1219 62.3969C14.2156 62.0499 14.1678 61.6798 13.989 61.368C11.148 56.452 9.65214 50.8744 9.65214 45.1965C9.65214 39.5186 11.148 33.941 13.989 29.025C17.5436 22.8702 23.0254 18.0566 29.588 15.3274C36.1507 12.5981 43.4292 12.1049 50.3 13.924L49.156 18.2C49.0969 18.4236 49.0957 18.6586 49.1526 18.8828C49.2095 19.107 49.3226 19.313 49.4813 19.4813C49.6399 19.6496 49.8388 19.7747 50.0592 19.8449C50.2796 19.915 50.5143 19.9278 50.741 19.882L70.234 15.9C70.481 15.849 70.7089 15.7304 70.8923 15.5573C71.0758 15.3842 71.2075 15.1636 71.2727 14.92C71.338 14.6764 71.3342 14.4195 71.2619 14.1779C71.1895 13.9363 71.0514 13.7196 70.863 13.552L56.051 0.412004C55.8831 0.239683 55.6725 0.114959 55.4406 0.0505404C55.2088 -0.0138782 54.9641 -0.0156887 54.7313 0.0452942C54.4986 0.106277 54.2861 0.227874 54.1157 0.397692C53.9452 0.567511 53.8228 0.779481 53.761 1.012L52.774 4.7C43.8735 2.33238 34.4408 2.96332 25.9348 6.49522C17.4289 10.0271 10.3237 16.2632 5.718 24.239C2.04749 30.5938 0.110721 37.8014 0.101595 45.1401C0.0924689 52.4787 2.0113 59.6911 5.666 66.055L5.669 66.059ZM2.817 45.144C2.81811 51.5742 4.39401 57.9064 7.407 63.587L10.977 61.526C8.21422 56.2852 6.82562 50.4293 6.94104 44.5059C7.05646 38.5826 8.67214 32.7852 11.637 27.656C15.6034 20.7843 21.7833 15.4611 29.1668 12.5565C36.5503 9.65191 44.7007 9.33762 52.286 11.665C52.4622 11.7077 52.6281 11.7853 52.7739 11.8931C52.9197 12.001 53.0424 12.1369 53.1349 12.2929C53.2273 12.4489 53.2876 12.6218 53.3122 12.8015C53.3368 12.9811 53.3251 13.1639 53.278 13.339L52.357 16.778L67.027 13.778L55.827 3.843L55.052 6.735C55.0051 6.91115 54.9232 7.07605 54.8112 7.21986C54.6992 7.36366 54.5593 7.48343 54.4 7.572C54.2407 7.66057 54.0652 7.71614 53.8839 7.73538C53.7026 7.75463 53.5194 7.73715 53.345 7.684C44.8841 5.1295 35.8083 5.50915 27.5903 8.76134C19.3723 12.0135 12.4945 17.9474 8.073 25.6C4.6329 31.5383 2.82089 38.2793 2.82 45.142L2.817 45.144ZM42 33.669C39.7589 33.6686 37.5679 34.3328 35.7043 35.5776C33.8406 36.8225 32.388 38.592 31.5301 40.6624C30.6722 42.7329 30.4475 45.0112 30.8845 47.2093C31.3215 49.4075 32.4005 51.4267 33.9851 53.0115C35.5697 54.5964 37.5886 55.6758 39.7867 56.1131C41.9847 56.5505 44.2631 56.3262 46.3337 55.4687C48.4043 54.6111 50.1741 53.1588 51.4192 51.2954C52.6644 49.432 53.329 47.2411 53.329 45C53.3287 41.9953 52.1351 39.1136 50.0106 36.9888C47.8862 34.8639 45.0047 33.6698 42 33.669ZM48.084 38.916C46.8809 37.7141 45.3486 36.8958 43.6805 36.5647C42.0125 36.2335 40.2838 36.4043 38.7128 37.0554C37.1418 37.7066 35.7992 38.8089 34.8546 40.2229C33.9099 41.637 33.4058 43.2994 33.4058 45C33.4058 46.7006 33.9099 48.363 34.8546 49.7771C35.7992 51.1911 37.1418 52.2934 38.7128 52.9446C40.2838 53.5957 42.0125 53.7665 43.6805 53.4354C45.3486 53.1042 46.8809 52.2859 48.084 51.084C48.8834 50.2853 49.5176 49.3369 49.9503 48.293C50.383 47.249 50.6058 46.1301 50.6058 45C50.6058 43.8699 50.383 42.751 49.9503 41.707C49.5176 40.6631 48.8834 39.7147 48.084 38.916ZM44.513 23.016H39.485L38.865 28.327C38.8337 28.5993 38.721 28.8559 38.5415 29.063C38.362 29.2702 38.1241 29.4183 37.859 29.488C36.4905 29.8503 35.1761 30.3924 33.95 31.1C33.7146 31.2365 33.4435 31.299 33.1721 31.2794C32.9006 31.2598 32.6414 31.159 32.428 30.99L28.228 27.671L24.669 31.231L27.931 35.356C28.1246 35.5696 28.2453 35.8393 28.2757 36.1259C28.306 36.4126 28.2445 36.7016 28.1 36.951C27.4035 38.1599 26.8658 39.4536 26.5 40.8C26.4396 41.0783 26.2937 41.3308 26.0826 41.5219C25.8715 41.7131 25.6059 41.8334 25.323 41.866L20.012 42.486V47.512L25.322 48.132C25.5944 48.1633 25.851 48.2761 26.0583 48.4556C26.2656 48.6351 26.414 48.8729 26.484 49.138C26.8489 50.5065 27.3937 51.8207 28.104 53.046C28.2401 53.2816 28.3024 53.5526 28.2828 53.8239C28.2632 54.0953 28.1626 54.3545 27.994 54.568L24.675 58.768L28.234 62.328L32.36 59.066C32.574 58.8713 32.8446 58.7499 33.1323 58.7195C33.4201 58.6891 33.71 58.7513 33.96 58.897C35.166 59.5936 36.4566 60.1324 37.8 60.5C38.0783 60.5604 38.3308 60.7063 38.5219 60.9174C38.7131 61.1285 38.8334 61.3941 38.866 61.677L39.486 66.988H44.512L45.132 61.677C45.1631 61.4046 45.2759 61.148 45.4554 60.9409C45.6349 60.7337 45.8728 60.5856 46.138 60.516C47.5065 60.1509 48.8206 59.6062 50.046 58.896C50.2814 58.7595 50.5525 58.697 50.8239 58.7166C51.0954 58.7362 51.3546 58.837 51.568 59.006L55.768 62.325L59.328 58.766L56.065 54.64C55.8718 54.4261 55.7515 54.1565 55.7213 53.8699C55.6911 53.5832 55.7526 53.2944 55.897 53.045C56.594 51.8374 57.1328 50.5451 57.5 49.2C57.5602 48.9216 57.7061 48.6691 57.9172 48.4779C58.1283 48.2867 58.394 48.1664 58.677 48.134L63.987 47.514V42.487L58.677 41.867C58.4047 41.8357 58.1481 41.723 57.941 41.5435C57.7338 41.364 57.5857 41.1261 57.516 40.861C57.1506 39.4926 56.6059 38.1786 55.896 36.953C55.7596 36.7176 55.6971 36.4466 55.7165 36.1752C55.7359 35.9039 55.8365 35.6446 56.005 35.431L59.325 31.231L55.765 27.671L51.64 30.934C51.4261 31.1272 51.1565 31.2475 50.8698 31.2777C50.5832 31.3079 50.2944 31.2464 50.045 31.102C48.8373 30.4053 47.5451 29.8669 46.2 29.5C45.9216 29.4398 45.6691 29.2939 45.4779 29.0828C45.2867 28.8717 45.1664 28.606 45.134 28.323L44.513 23.016Z" fill="#0989FB"/>
</svg>
