<svg width="136" height="56" viewBox="0 0 136 56" fill="none" xmlns="http://www.w3.org/2000/svg">
<rect x="0.5" y="0.5" width="135" height="55" rx="27.5" stroke="#1A1A13"/>
<path d="M111.261 19.0302C111.955 18.9937 112.648 18.9937 113.341 19.012C111.261 23.3548 109.254 27.7341 107.229 32.0951H105.532C104.601 29.9055 103.506 27.7706 102.539 25.5809C103.214 25.5627 103.889 25.5627 104.564 25.5809C105.148 26.9312 105.842 28.2267 106.371 29.577C107.995 26.0553 109.674 22.5519 111.261 19.0302Z" fill="#FF0000"/>
<path d="M59.0196 20.8916C60.3516 20.9098 61.7019 20.9098 63.034 20.8916C63.0157 22.0777 63.0157 23.282 63.034 24.468C61.7019 24.4498 60.3516 24.468 59.0014 24.4498C59.0379 23.2637 59.0014 22.0777 59.0196 20.8916ZM38.8202 26.0008C41.5572 24.4498 45.5351 24.9789 47.378 27.6612C48.5093 29.2487 48.8378 31.2559 48.8195 33.1536C45.681 33.1718 42.5426 33.1536 39.4041 33.1718C39.55 34.1389 39.9697 35.1608 40.8638 35.6717C42.1411 36.4198 44.1483 36.2009 44.7869 34.7228C46.0825 34.6863 47.3598 34.6863 48.6553 34.7228C48.2539 36.2009 47.1773 37.4599 45.827 38.1533C44.3673 38.9562 42.6155 39.1021 40.9916 38.8284C39.2763 38.5547 37.6888 37.5876 36.7218 36.1461C35.6634 34.6134 35.3897 32.6609 35.6269 30.8545C35.8641 28.8655 37.0502 26.9861 38.8202 26.0008ZM40.9551 28.2816C40.061 28.7013 39.623 29.6684 39.4223 30.599H44.7869C44.6775 29.8874 44.422 29.1393 43.8746 28.6466C43.1082 27.8985 41.8857 27.8802 40.9551 28.2816ZM80.8978 25.3074C83.0509 24.9242 85.4413 25.3804 87.1018 26.8766C89.9301 29.3947 90.0578 34.2667 87.4302 36.9672C85.3501 39.1386 81.8649 39.5401 79.2008 38.3175C77.1389 37.3869 75.7339 35.2885 75.4967 33.0624C75.4054 31.7668 75.4602 30.4348 75.9893 29.2305C76.7922 27.1686 78.7446 25.6723 80.8978 25.3074ZM81.354 28.2816C80.2226 28.6831 79.6935 29.9056 79.5293 31.0187C79.4015 32.4055 79.4198 33.9747 80.3139 35.1243C81.281 36.3833 83.4159 36.3468 84.383 35.106C85.1858 34.1024 85.3136 32.7339 85.2223 31.4931C85.1676 30.3983 84.7844 29.2305 83.8721 28.5554C83.1422 28.0627 82.1751 27.9897 81.354 28.2816ZM95.2217 26.0555C96.5537 25.0154 98.4514 24.9059 99.9842 25.5263C101.079 26.0008 101.9 26.9679 102.283 28.0809C102.721 29.2305 102.593 30.4713 102.593 31.6756C102.593 33.9747 102.575 36.2738 102.612 38.5547C101.28 38.573 99.9477 38.5547 98.5974 38.573V30.6903C98.5974 30.0151 98.3419 29.2852 97.7763 28.8655C96.9187 28.2816 95.6779 28.3911 94.948 29.121C94.3641 29.7049 94.1086 30.5443 94.1269 31.3471V38.573C92.8131 38.5547 91.4811 38.573 90.1673 38.5547C90.1673 34.2119 90.1855 29.8691 90.1673 25.5263C91.4628 25.5446 92.7401 25.5081 94.0356 25.5446C94.0174 26.1467 94.0174 26.7489 93.9992 27.351C94.4006 26.9131 94.729 26.4204 95.2217 26.0555ZM23 25.5628H27.1603C27.9997 28.3546 28.8938 31.1464 29.6784 33.9565C30.6455 31.2012 31.3754 28.3546 32.2877 25.5628C33.6198 25.5446 34.97 25.5628 36.3021 25.5446C34.7693 29.8874 33.2731 34.2302 31.7586 38.573C30.3718 38.573 28.985 38.5547 27.5982 38.5912C26.0108 34.2667 24.6057 29.8691 23 25.5628ZM49.7319 25.5446H53.5638C53.5455 26.2745 53.5638 27.0044 53.5273 27.7342C53.8557 27.3693 54.0929 26.9131 54.4396 26.5664C55.2972 25.6176 56.7022 25.2344 57.943 25.5628C57.9248 26.7124 57.9248 27.862 57.943 28.9933C56.9577 28.8838 55.8629 28.9203 55.0235 29.5224C54.1294 30.1428 53.728 31.2924 53.7462 32.3507C53.728 34.4309 53.7462 36.4928 53.7462 38.573C52.4142 38.573 51.0639 38.5547 49.7319 38.5912C49.7501 34.2302 49.7501 29.8874 49.7319 25.5446ZM59.0196 25.5628C60.3699 25.5446 61.7019 25.5628 63.0522 25.5446C63.034 29.8874 63.0522 34.2302 63.0522 38.573C61.7202 38.5547 60.3699 38.573 59.0196 38.573V25.5628ZM64.1288 25.5446C67.7599 25.5628 71.3911 25.5446 75.004 25.5628C74.9675 26.5664 75.004 27.5518 74.9858 28.5554C74.858 28.8108 74.6391 28.9933 74.4748 29.2122C72.6136 31.2742 70.7889 33.3908 68.8913 35.4345C71.0262 35.471 73.1611 35.4345 75.296 35.4527V38.5912C71.5736 38.573 67.8512 38.573 64.1288 38.5912V35.5622C66.0812 33.3726 68.0154 31.2012 69.9861 29.0298C70.0408 28.9203 70.278 28.8108 70.1503 28.6648C68.1431 28.7196 66.136 28.6648 64.1288 28.7013V25.5446Z" fill="black"/>
</svg>
