<svg width="200" height="200" viewBox="0 0 200 200" fill="none" xmlns="http://www.w3.org/2000/svg">
<rect width="200" height="200" rx="100" fill="#00A2FF"/>
<path d="M125.385 126.689C128.617 126.689 131.145 124.289 131.979 120.427L138.963 88.2313C139.067 87.7538 138.948 87.2564 138.64 86.8763C138.332 86.4962 137.868 86.2762 137.378 86.2762H131.199C132.583 83.1106 133.352 79.6194 133.352 75.9532C133.352 61.6425 121.66 50 107.289 50C92.9183 50 81.2267 61.6425 81.2267 75.9532C81.2267 79.6204 81.9965 83.1106 83.3793 86.2762H78.1792L74.9077 69.2638C74.1664 65.4385 71.5752 62.9661 68.3059 62.9661H54.6215C53.7266 62.9661 53 63.6887 53 64.5809C53 65.4731 53.7256 66.1956 54.6215 66.1956H68.308C70.3028 66.1956 71.3818 68.0962 71.7256 69.8733L84.0765 134.095C81.05 135.327 78.9101 138.292 78.9101 141.745C78.9101 146.297 82.6285 150 87.1997 150C91.2157 150 94.5735 147.141 95.3296 143.36H117.503C118.259 147.141 121.616 150 125.632 150C130.203 150 133.922 146.297 133.922 141.745C133.922 137.193 130.203 133.485 125.632 133.485C121.616 133.485 118.258 136.347 117.502 140.131H95.3296C94.5777 136.366 91.2505 133.515 87.2607 133.487L85.9536 126.691H125.385V126.689ZM125.632 136.712C128.416 136.712 130.68 138.97 130.68 141.744C130.68 144.518 128.416 146.771 125.632 146.771C122.849 146.771 120.584 144.516 120.584 141.744C120.584 138.972 122.849 136.712 125.632 136.712ZM82.3687 108.045L92.4293 108.066L94.972 123.46H85.3332L82.3687 108.045ZM108.941 104.871V101.851C113.157 101.587 117.103 100.322 120.542 98.2905L119.451 104.893L108.941 104.871ZM118.918 108.12L116.382 123.459H108.941V108.099L118.918 108.12ZM105.698 104.864L95.1813 104.842L94.1055 98.3292C97.5453 100.347 101.488 101.6 105.698 101.854V104.864ZM105.698 108.092V123.459H98.2572L95.7155 108.072L105.698 108.092ZM128.81 119.744C128.622 120.615 127.817 123.458 125.385 123.458H119.669L122.203 108.126L131.326 108.144L128.81 119.744ZM135.37 89.5026L132.026 104.918L122.735 104.899L124.268 95.6254C126.316 93.8704 128.088 91.8053 129.508 89.5036L135.37 89.5026ZM107.291 53.2274C119.875 53.2274 130.111 63.4216 130.111 75.9511C130.111 88.4805 119.874 98.6748 107.291 98.6748C94.7091 98.6748 84.4719 88.4805 84.4719 75.9511C84.4719 63.4216 94.7081 53.2274 107.291 53.2274ZM85.0734 89.5036C86.5109 91.8315 88.3071 93.9175 90.3839 95.6851L91.8951 104.835L81.7473 104.814L78.8028 89.5036H85.0734ZM92.2474 141.743C92.2474 144.514 89.9833 146.769 87.1997 146.769C84.4162 146.769 82.1521 144.515 82.1521 141.743C82.1521 139.295 83.9156 137.251 86.2417 136.803C86.2438 136.803 86.2449 136.803 86.247 136.803C86.248 136.803 86.2491 136.803 86.2502 136.803C86.5572 136.745 86.8748 136.713 87.1987 136.713C89.9822 136.713 92.2463 138.971 92.2463 141.745L92.2474 141.743ZM96.7629 76.1333C96.6619 75.2474 97.3013 74.4474 98.1909 74.3468C99.0837 74.2452 99.884 74.883 99.9849 75.7689C100.348 78.9492 103.557 81.4393 107.291 81.4393C111.026 81.4393 114.241 78.9481 114.604 75.7689C114.705 74.883 115.508 74.2452 116.398 74.3468C117.288 74.4474 117.927 75.2474 117.826 76.1333C117.328 80.5074 113.617 83.9128 108.913 84.5568V86.9789C111.448 87.6135 113.59 89.7162 114.601 92.6923C114.888 93.5374 114.433 94.4536 113.584 94.7385C112.735 95.0243 111.815 94.5709 111.529 93.7258C110.763 91.466 109.099 90.0063 107.292 90.0063C105.486 90.0063 103.824 91.465 103.062 93.7238C102.834 94.3981 102.203 94.8243 101.526 94.8243C101.354 94.8243 101.181 94.7971 101.009 94.7395C100.161 94.4557 99.7031 93.5405 99.9891 92.6944C100.994 89.7162 103.134 87.6135 105.672 86.9789V84.5568C100.971 83.9117 97.2634 80.5074 96.765 76.1333H96.7629ZM107.291 79.789C110.894 79.789 113.825 76.8726 113.825 73.2892V63.14C113.825 59.5523 110.894 56.6339 107.291 56.6339C103.689 56.6339 100.764 59.5523 100.764 63.14V73.2892C100.764 76.8737 103.693 79.789 107.291 79.789ZM104.006 63.14C104.006 61.3325 105.481 59.8623 107.291 59.8623C109.102 59.8623 110.583 61.3325 110.583 63.14V73.2892C110.583 75.0935 109.106 76.5606 107.291 76.5606C105.476 76.5606 104.006 75.0924 104.006 73.2892V63.14Z" fill="white"/>
</svg>
