<svg width="200" height="200" viewBox="0 0 200 200" fill="none" xmlns="http://www.w3.org/2000/svg">
<rect width="200" height="200" rx="100" fill="#00A2FF"/>
<path d="M104.888 71.3535V60.8659C104.888 58.6543 106.71 56.8549 108.95 56.8549C111.19 56.8549 113.012 58.6543 113.012 60.8659V71.3535C113.012 73.5652 111.19 75.3645 108.95 75.3645C106.71 75.3645 104.887 73.5652 104.887 71.3535H104.888ZM110.035 123.83H118.963L121.815 106.724L110.035 106.701V123.83ZM123.616 95.9256C119.694 98.5043 115.041 100.08 110.035 100.279V104.618L122.162 104.642L123.616 95.9256ZM131.998 119.496L134.786 106.75L123.953 106.729L121.102 123.83H127.808C130.817 123.83 131.776 120.513 131.998 119.496ZM139 87.484H131.752C130.235 89.9948 128.306 92.2348 126.056 94.1131L124.3 104.646L135.241 104.668L139 87.4842L139 87.484ZM107.925 123.83V106.697L96.136 106.673L98.9969 123.83L107.925 123.83ZM84.5316 74.11C84.5316 60.8157 95.4859 50 108.95 50C122.415 50 133.369 60.8157 133.369 74.11C133.369 87.4042 122.415 98.2199 108.95 98.2199C95.4859 98.2199 84.5316 87.4042 84.5316 74.11ZM102.778 71.3537C102.778 74.7141 105.547 77.448 108.951 77.448C112.354 77.448 115.123 74.7141 115.123 71.3537V60.8661C115.123 57.5058 112.354 54.7718 108.95 54.7718C105.547 54.7718 102.778 57.5058 102.778 60.8661V71.3537ZM98.6043 74.2283C99.1126 78.6247 103.023 82.0111 107.895 82.4422V86.0146C105.254 86.4596 102.98 88.5559 101.935 91.6083C101.748 92.1533 102.045 92.7446 102.597 92.9287C102.709 92.966 102.823 92.9839 102.935 92.9839C103.375 92.9839 103.785 92.71 103.934 92.2756C104.821 89.6835 106.79 88.0086 108.95 88.0086C111.11 88.0086 113.08 89.6835 113.967 92.2756C114.154 92.8208 114.753 93.1131 115.304 92.9287C115.856 92.7446 116.153 92.1533 115.966 91.6083C114.921 88.5561 112.647 86.4598 110.005 86.0146V82.4422C114.878 82.0111 118.788 78.6247 119.297 74.2281C119.363 73.6564 118.947 73.1402 118.368 73.075C117.788 73.01 117.266 73.4202 117.2 73.9916C116.784 77.5885 113.161 80.4059 108.951 80.4061C108.951 80.4061 108.951 80.4061 108.95 80.4061C108.95 80.4061 108.95 80.4061 108.95 80.4061C104.74 80.4057 101.116 77.5883 100.701 73.9916C100.635 73.4202 100.114 73.0091 99.5327 73.075C98.9539 73.1402 98.538 73.6568 98.6043 74.2283ZM128.066 134.19C124.008 134.19 120.649 137.186 120.132 141.052L95.9434 141.054C95.4243 137.186 92.0652 134.19 88.0076 134.19C87.8557 134.19 87.7017 134.196 87.5519 134.204L85.942 125.913L85.5389 123.83H96.8585L93.9969 106.669L82.2047 106.646L81.8007 104.566H84.1269L93.6491 104.585L91.9126 94.1702C89.6338 92.2804 87.6808 90.0202 86.1492 87.484H78.4871L78.082 85.4007L74.5731 67.3134C73.8662 63.6676 71.4102 61.3113 68.3169 61.3113H54.055C53.4726 61.3113 53 61.778 53 62.353C53 62.928 53.4726 63.3947 54.055 63.3947H68.3165C70.7852 63.3947 72.0976 65.6217 72.5006 67.705L85.4792 134.596C82.2995 135.644 80.0017 138.608 80.0017 142.094C80.0017 146.454 83.5929 150 88.007 150C92.0645 150 95.4237 147.004 95.9427 143.138L120.132 143.135C120.649 147.004 124.008 150 128.065 150C132.479 150 136.071 146.454 136.071 142.094C136.071 137.733 132.479 134.19 128.065 134.19H128.066ZM107.925 100.282C102.924 100.093 98.2747 98.5318 94.3511 95.9685L95.7887 104.589L107.925 104.613V100.282V100.282Z" fill="white"/>
</svg>
