<svg width="200" height="200" viewBox="0 0 200 200" fill="none" xmlns="http://www.w3.org/2000/svg">
<rect width="200" height="200" rx="100" fill="#00A2FF"/>
<path d="M141.513 110.834C141.689 109.45 141.777 108.059 141.781 106.667C141.781 93.434 130.082 81.034 129.578 80.5166C129.26 80.1958 128.824 80.0166 128.372 80.0166C127.919 80.0166 127.483 80.1958 127.165 80.5166C126.662 81.0333 114.962 93.4329 114.962 106.667C114.966 108.059 115.054 109.45 115.23 110.834C112.079 113.717 108.928 119.65 109.934 131.8C110.005 132.563 110.583 133.183 111.342 133.317C111.43 133.329 111.522 133.338 111.61 133.333C112.276 133.333 112.884 132.942 113.152 132.333C114.577 129.221 116.617 126.425 119.153 124.117C119.827 125.592 120.582 127.025 121.416 128.417L118.499 134.25C118.231 134.767 118.256 135.384 118.562 135.875C118.868 136.371 119.408 136.671 119.991 136.667H136.752C137.335 136.671 137.875 136.371 138.181 135.875C138.487 135.383 138.512 134.767 138.244 134.25L135.328 128.417C136.161 127.025 136.916 125.592 137.59 124.117C140.126 126.425 142.166 129.221 143.591 132.333C143.859 132.942 144.467 133.333 145.133 133.333C145.221 133.338 145.313 133.329 145.401 133.317C146.16 133.183 146.738 132.563 146.809 131.8C147.815 119.65 144.664 113.717 141.513 110.834ZM132.461 126.667H124.282C120.632 120.605 118.579 113.725 118.315 106.667C118.512 101.98 119.832 97.4089 122.17 93.3339H134.573C136.911 97.4089 138.231 101.98 138.428 106.667C138.16 113.726 136.107 120.604 132.461 126.667ZM118.314 141.667C118.31 142.588 117.564 143.329 116.638 143.333H71.3808C66.7546 143.333 63 139.6 63 135V68.3334C63 63.7334 66.7546 60 71.3808 60H78.3872C79.0995 58.0083 80.9894 56.6792 83.1139 56.6667H88.3101C89.1062 52.7875 92.5424 50 96.5232 50C100.504 50 103.94 52.7875 104.736 56.6667H109.933C112.057 56.6792 113.947 58.0083 114.659 60H121.666C126.292 60 130.046 63.7334 130.046 68.3334V75C130.046 75.9209 129.296 76.6667 128.37 76.6667C127.444 76.6667 126.694 75.9209 126.694 75V68.3334C126.686 65.5751 124.44 63.3417 121.666 63.3334H114.961V66.6667C114.953 69.425 112.706 71.6584 109.932 71.6667H83.1138C80.3398 71.6584 78.0937 69.425 78.0853 66.6667V63.3334H71.3806C68.6066 63.3417 66.3605 65.5751 66.3521 68.3334V135C66.3605 137.758 68.6066 139.992 71.3806 140H116.638C117.564 140.004 118.31 140.746 118.314 141.667ZM134.987 142.196C134.065 145.379 131.97 148.104 129.121 149.825C128.647 150.058 128.094 150.058 127.62 149.825C124.771 148.104 122.676 145.379 121.754 142.196C121.599 141.771 121.62 141.304 121.817 140.9C122.014 140.492 122.366 140.183 122.797 140.042C123.225 139.9 123.694 139.933 124.096 140.142C124.498 140.35 124.8 140.708 124.93 141.138C125.55 143.163 126.745 144.967 128.37 146.329C129.996 144.967 131.191 143.163 131.811 141.138C131.941 140.708 132.242 140.35 132.645 140.142C133.047 139.933 133.516 139.9 133.944 140.042C134.375 140.183 134.727 140.492 134.924 140.9C135.121 141.304 135.142 141.771 134.987 142.196ZM135.075 106.666C135.075 109.362 133.441 111.795 130.935 112.825C128.429 113.858 125.546 113.287 123.631 111.379C121.712 109.474 121.138 106.608 122.177 104.116C123.212 101.625 125.659 99.9994 128.37 99.9994C132.071 100.004 135.071 102.987 135.075 106.666Z" fill="white"/>
</svg>
