<svg width="140" height="56" viewBox="0 0 140 56" fill="none" xmlns="http://www.w3.org/2000/svg">
<rect x="0.5" y="0.5" width="139" height="55" rx="27.5" stroke="black"/>
<g clip-path="url(#clip0_1079_3102)">
<path d="M39.9565 18.4023C39.6179 18.4023 39.3545 18.6658 39.3545 19.0045C39.3545 19.3433 39.6179 19.6067 39.9565 19.6067C40.2951 19.6067 40.5585 19.3433 40.5585 19.0045C40.5585 18.6658 40.2951 18.4023 39.9565 18.4023ZM43.0794 18.4023C42.7407 18.4023 42.4774 18.6658 42.4774 19.0045C42.4774 19.3433 42.7407 19.6067 43.0794 19.6067C43.418 19.6067 43.6814 19.3433 43.6814 19.0045C43.6814 18.6658 43.418 18.4023 43.0794 18.4023ZM62.0047 18.4023C61.6661 18.4023 61.4027 18.6658 61.4027 19.0045C61.4027 19.3433 61.6661 19.6067 62.0047 19.6067C62.3433 19.6067 62.6067 19.3433 62.6067 19.0045C62.6067 18.6658 62.3433 18.4023 62.0047 18.4023ZM65.1652 18.4023C64.8266 18.4023 64.5632 18.6658 64.5632 19.0045C64.5632 19.3433 64.8266 19.6067 65.1652 19.6067C65.5038 19.6067 65.7672 19.3433 65.7672 19.0045C65.7672 18.6658 65.5038 18.4023 65.1652 18.4023ZM70.7713 18.4023C70.4327 18.4023 70.1693 18.6658 70.1693 19.0045C70.1693 19.3433 70.4327 19.6067 70.7713 19.6067C71.1099 19.6067 71.3733 19.3433 71.3733 19.0045C71.3733 18.6658 71.1099 18.4023 70.7713 18.4023ZM73.8942 18.4023C73.5556 18.4023 73.2922 18.6658 73.2922 19.0045C73.2922 19.3433 73.5556 19.6067 73.8942 19.6067C74.2328 19.6067 74.4962 19.3433 74.4962 19.0045C74.4962 18.6658 74.2328 18.4023 73.8942 18.4023ZM77.0547 18.4023C76.716 18.4023 76.4527 18.6658 76.4527 19.0045C76.4527 19.3433 76.716 19.6067 77.0547 19.6067C77.3933 19.6067 77.6567 19.3433 77.6567 19.0045C77.6567 18.6658 77.3933 18.4023 77.0547 18.4023ZM90.3739 18.4023C90.0353 18.4023 89.7719 18.6658 89.7719 19.0045C89.7719 19.3433 90.0353 19.6067 90.3739 19.6067C90.7125 19.6067 90.9759 19.3433 90.9759 19.0045C90.9759 18.6658 90.7125 18.4023 90.3739 18.4023ZM93.4968 18.4023C93.1581 18.4023 92.8948 18.6658 92.8948 19.0045C92.8948 19.3433 93.1581 19.6067 93.4968 19.6067C93.8354 19.6067 94.0988 19.3433 94.0988 19.0045C94.0988 18.6658 93.8354 18.4023 93.4968 18.4023ZM52.5232 18.6282C52.2975 18.6282 52.147 18.8164 52.147 19.0045C52.147 19.2304 52.3351 19.3809 52.5232 19.3809C52.749 19.3809 52.8995 19.1927 52.8995 19.0045C52.9371 18.7787 52.749 18.6282 52.5232 18.6282ZM80.2152 18.6282C79.9894 18.6282 79.8389 18.8164 79.8389 19.0045C79.8389 19.2304 80.027 19.3809 80.2152 19.3809C80.4409 19.3809 80.5914 19.1927 80.5914 19.0045C80.5914 18.7787 80.4033 18.6282 80.2152 18.6282ZM96.6573 18.6282C96.4315 18.6282 96.281 18.8164 96.281 19.0045C96.281 19.2304 96.4691 19.3809 96.6573 19.3809C96.883 19.3809 97.0335 19.1927 97.0335 19.0045C97.0335 18.7787 96.883 18.6282 96.6573 18.6282ZM41.5367 19.3056C41.1981 19.3056 40.9347 19.5691 40.9347 19.9078C40.9347 20.2466 41.1981 20.51 41.5367 20.51C41.8754 20.51 42.1387 20.2466 42.1387 19.9078C42.1387 19.5691 41.8754 19.3056 41.5367 19.3056ZM63.5849 19.3056C63.2463 19.3056 62.983 19.5691 62.983 19.9078C62.983 20.2466 63.2463 20.51 63.5849 20.51C63.9236 20.51 64.1869 20.2466 64.1869 19.9078C64.1869 19.5691 63.9236 19.3056 63.5849 19.3056ZM72.3139 19.3056C71.9753 19.3056 71.7119 19.5691 71.7119 19.9078C71.7119 20.2466 71.9753 20.51 72.3139 20.51C72.6526 20.51 72.9159 20.2466 72.9159 19.9078C72.9536 19.5691 72.6526 19.3056 72.3139 19.3056ZM75.4744 19.3056C75.1358 19.3056 74.8724 19.5691 74.8724 19.9078C74.8724 20.2466 75.1358 20.51 75.4744 20.51C75.813 20.51 76.0764 20.2466 76.0764 19.9078C76.114 19.5691 75.813 19.3056 75.4744 19.3056ZM78.6349 19.3056C78.2963 19.3056 78.0329 19.5691 78.0329 19.9078C78.0329 20.2466 78.2963 20.51 78.6349 20.51C78.9735 20.51 79.2369 20.2466 79.2369 19.9078C79.2369 19.5691 78.9735 19.3056 78.6349 19.3056ZM88.7936 19.3056C88.455 19.3056 88.1916 19.5691 88.1916 19.9078C88.1916 20.2466 88.455 20.51 88.7936 20.51C89.1323 20.51 89.3957 20.2466 89.3957 19.9078C89.3957 19.5691 89.1323 19.3056 88.7936 19.3056ZM91.9165 19.3056C91.5779 19.3056 91.3145 19.5691 91.3145 19.9078C91.3145 20.2466 91.5779 20.51 91.9165 20.51C92.2551 20.51 92.5185 20.2466 92.5185 19.9078C92.5561 19.5691 92.2551 19.3056 91.9165 19.3056ZM95.077 19.3056C94.7384 19.3056 94.475 19.5691 94.475 19.9078C94.475 20.2466 94.7384 20.51 95.077 20.51C95.4156 20.51 95.679 20.2466 95.679 19.9078C95.679 19.5691 95.4156 19.3056 95.077 19.3056ZM98.2375 19.3056C97.8989 19.3056 97.6355 19.5691 97.6355 19.9078C97.6355 20.2466 97.8989 20.51 98.2375 20.51C98.5761 20.51 98.8395 20.2466 98.8395 19.9078C98.8395 19.5691 98.5761 19.3056 98.2375 19.3056ZM38.3762 19.5315C38.1505 19.5315 38 19.7196 38 19.9078C38 20.1336 38.1881 20.2842 38.3762 20.2842C38.602 20.2842 38.7525 20.096 38.7525 19.9078C38.7901 19.7196 38.602 19.5315 38.3762 19.5315ZM50.9806 19.5315C50.7548 19.5315 50.6044 19.7196 50.6044 19.9078C50.6044 20.1336 50.7925 20.2842 50.9806 20.2842C51.2063 20.2842 51.3568 20.096 51.3568 19.9078C51.3568 19.7196 51.1687 19.5315 50.9806 19.5315ZM54.1035 19.5315C53.8777 19.5315 53.7272 19.7196 53.7272 19.9078C53.7272 20.1336 53.9153 20.2842 54.1035 20.2842C54.3292 20.2842 54.4797 20.096 54.4797 19.9078C54.4797 19.7196 54.3292 19.5315 54.1035 19.5315ZM66.7078 19.5315C66.4821 19.5315 66.3316 19.7196 66.3316 19.9078C66.3316 20.1336 66.5197 20.2842 66.7078 20.2842C66.9336 20.2842 67.0841 20.096 67.0841 19.9078C67.0841 19.7196 66.9336 19.5315 66.7078 19.5315ZM81.7954 19.5315C81.5697 19.5315 81.4192 19.7196 81.4192 19.9078C81.4192 20.1336 81.6073 20.2842 81.7954 20.2842C82.0212 20.2842 82.1717 20.096 82.1717 19.9078C82.1717 19.7196 81.9835 19.5315 81.7954 19.5315ZM39.9565 20.2089C39.6179 20.2089 39.3545 20.4724 39.3545 20.8111C39.3545 21.1498 39.6179 21.4133 39.9565 21.4133C40.2951 21.4133 40.5585 21.1498 40.5585 20.8111C40.5961 20.4724 40.2951 20.2089 39.9565 20.2089ZM43.0794 20.2089C42.7407 20.2089 42.4774 20.4724 42.4774 20.8111C42.4774 21.1498 42.7407 21.4133 43.0794 21.4133C43.418 21.4133 43.6814 21.1498 43.6814 20.8111C43.6814 20.4724 43.418 20.2089 43.0794 20.2089ZM52.5232 20.2089C52.1846 20.2089 51.9212 20.4724 51.9212 20.8111C51.9212 21.1498 52.1846 21.4133 52.5232 21.4133C52.8618 21.4133 53.1252 21.1498 53.1252 20.8111C53.1628 20.4724 52.8618 20.2089 52.5232 20.2089ZM62.0047 20.2089C61.6661 20.2089 61.4027 20.4724 61.4027 20.8111C61.4027 21.1498 61.6661 21.4133 62.0047 21.4133C62.3433 21.4133 62.6067 21.1498 62.6067 20.8111C62.6067 20.4724 62.3433 20.2089 62.0047 20.2089ZM65.1652 20.2089C64.8266 20.2089 64.5632 20.4724 64.5632 20.8111C64.5632 21.1498 64.8266 21.4133 65.1652 21.4133C65.5038 21.4133 65.7672 21.1498 65.7672 20.8111C65.7672 20.4724 65.5038 20.2089 65.1652 20.2089ZM70.7713 20.2089C70.4327 20.2089 70.1693 20.4724 70.1693 20.8111C70.1693 21.1498 70.4327 21.4133 70.7713 21.4133C71.1099 21.4133 71.3733 21.1498 71.3733 20.8111C71.3733 20.4724 71.1099 20.2089 70.7713 20.2089ZM73.8942 20.2089C73.5556 20.2089 73.2922 20.4724 73.2922 20.8111C73.2922 21.1498 73.5556 21.4133 73.8942 21.4133C74.2328 21.4133 74.4962 21.1498 74.4962 20.8111C74.5338 20.4724 74.2328 20.2089 73.8942 20.2089ZM77.0547 20.2089C76.716 20.2089 76.4527 20.4724 76.4527 20.8111C76.4527 21.1498 76.716 21.4133 77.0547 21.4133C77.3933 21.4133 77.6567 21.1498 77.6567 20.8111C77.6567 20.4724 77.3933 20.2089 77.0547 20.2089ZM80.2152 20.2089C79.8765 20.2089 79.6132 20.4724 79.6132 20.8111C79.6132 21.1498 79.8765 21.4133 80.2152 21.4133C80.5538 21.4133 80.8172 21.1498 80.8172 20.8111C80.8172 20.4724 80.5538 20.2089 80.2152 20.2089ZM90.3739 20.2089C90.0353 20.2089 89.7719 20.4724 89.7719 20.8111C89.7719 21.1498 90.0353 21.4133 90.3739 21.4133C90.7125 21.4133 90.9759 21.1498 90.9759 20.8111C90.9759 20.4724 90.7125 20.2089 90.3739 20.2089ZM93.4968 20.2089C93.1581 20.2089 92.8948 20.4724 92.8948 20.8111C92.8948 21.1498 93.1581 21.4133 93.4968 21.4133C93.8354 21.4133 94.0988 21.1498 94.0988 20.8111C94.1364 20.4724 93.8354 20.2089 93.4968 20.2089ZM96.6573 20.2089C96.3186 20.2089 96.0553 20.4724 96.0553 20.8111C96.0553 21.1498 96.3186 21.4133 96.6573 21.4133C96.9959 21.4133 97.2593 21.1498 97.2593 20.8111C97.2593 20.4724 96.9959 20.2089 96.6573 20.2089ZM99.8178 20.2089C99.4791 20.2089 99.2158 20.4724 99.2158 20.8111C99.2158 21.1498 99.4791 21.4133 99.8178 21.4133C100.156 21.4133 100.42 21.1498 100.42 20.8111C100.42 20.4724 100.156 20.2089 99.8178 20.2089ZM50.9806 21.1122C50.642 21.1122 50.3786 21.3757 50.3786 21.7144C50.3786 22.0531 50.642 22.3166 50.9806 22.3166C51.3192 22.3166 51.5826 22.0531 51.5826 21.7144C51.5826 21.3757 51.3192 21.1122 50.9806 21.1122ZM54.1035 21.1122C53.7648 21.1122 53.5015 21.3757 53.5015 21.7144C53.5015 22.0531 53.7648 22.3166 54.1035 22.3166C54.4421 22.3166 54.7055 22.0531 54.7055 21.7144C54.7055 21.3757 54.4421 21.1122 54.1035 21.1122ZM63.5849 21.1122C63.2463 21.1122 62.983 21.3757 62.983 21.7144C62.983 22.0531 63.2463 22.3166 63.5849 22.3166C63.9236 22.3166 64.1869 22.0531 64.1869 21.7144C64.1869 21.3757 63.9236 21.1122 63.5849 21.1122ZM72.3139 21.1122C71.9753 21.1122 71.7119 21.3757 71.7119 21.7144C71.7119 22.0531 71.9753 22.3166 72.3139 22.3166C72.6526 22.3166 72.9159 22.0531 72.9159 21.7144C72.9159 21.3757 72.6526 21.1122 72.3139 21.1122ZM75.4744 21.1122C75.1358 21.1122 74.8724 21.3757 74.8724 21.7144C74.8724 22.0531 75.1358 22.3166 75.4744 22.3166C75.813 22.3166 76.0764 22.0531 76.0764 21.7144C76.0764 21.3757 75.813 21.1122 75.4744 21.1122ZM78.6349 21.1122C78.2963 21.1122 78.0329 21.3757 78.0329 21.7144C78.0329 22.0531 78.2963 22.3166 78.6349 22.3166C78.9735 22.3166 79.2369 22.0531 79.2369 21.7144C79.2369 21.3757 78.9735 21.1122 78.6349 21.1122ZM81.7954 21.1122C81.4568 21.1122 81.1934 21.3757 81.1934 21.7144C81.1934 22.0531 81.4568 22.3166 81.7954 22.3166C82.134 22.3166 82.3974 22.0531 82.3974 21.7144C82.3974 21.3757 82.134 21.1122 81.7954 21.1122ZM88.7936 21.1122C88.455 21.1122 88.1916 21.3757 88.1916 21.7144C88.1916 22.0531 88.455 22.3166 88.7936 22.3166C89.1323 22.3166 89.3957 22.0531 89.3957 21.7144C89.3957 21.3757 89.1323 21.1122 88.7936 21.1122ZM91.9165 21.1122C91.5779 21.1122 91.3145 21.3757 91.3145 21.7144C91.3145 22.0531 91.5779 22.3166 91.9165 22.3166C92.2551 22.3166 92.5185 22.0531 92.5185 21.7144C92.5185 21.3757 92.2551 21.1122 91.9165 21.1122ZM95.077 21.1122C94.7384 21.1122 94.475 21.3757 94.475 21.7144C94.475 22.0531 94.7384 22.3166 95.077 22.3166C95.4156 22.3166 95.679 22.0531 95.679 21.7144C95.679 21.3757 95.4156 21.1122 95.077 21.1122ZM98.2375 21.1122C97.8989 21.1122 97.6355 21.3757 97.6355 21.7144C97.6355 22.0531 97.8989 22.3166 98.2375 22.3166C98.5761 22.3166 98.8395 22.0531 98.8395 21.7144C98.8395 21.3757 98.5761 21.1122 98.2375 21.1122ZM41.5367 21.1498C41.1981 21.1498 40.9347 21.4133 40.9347 21.752C40.9347 22.0531 41.1981 22.3542 41.5367 22.3542C41.8754 22.3542 42.1387 22.0908 42.1387 21.752C42.1387 21.4133 41.8754 21.1498 41.5367 21.1498ZM44.6596 21.338C44.4339 21.338 44.2834 21.5262 44.2834 21.7144C44.2834 21.9402 44.4715 22.0908 44.6596 22.0908C44.8854 22.0908 45.0359 21.9026 45.0359 21.7144C45.0359 21.5262 44.8854 21.338 44.6596 21.338ZM60.4245 21.338C60.1987 21.338 60.0482 21.5262 60.0482 21.7144C60.0482 21.9402 60.2363 22.0908 60.4245 22.0908C60.6126 22.0908 60.8007 21.9026 60.8007 21.7144C60.8007 21.5262 60.6126 21.338 60.4245 21.338ZM101.398 21.338C101.172 21.338 101.022 21.5262 101.022 21.7144C101.022 21.9402 101.21 22.0908 101.398 22.0908C101.624 22.0908 101.774 21.9026 101.774 21.7144C101.774 21.5262 101.586 21.338 101.398 21.338ZM39.9565 22.0155C39.6179 22.0155 39.3545 22.279 39.3545 22.6177C39.3545 22.9564 39.6179 23.2199 39.9565 23.2199C40.2951 23.2199 40.5585 22.9564 40.5585 22.6177C40.5585 22.279 40.2951 22.0155 39.9565 22.0155ZM43.0794 22.0155C42.7407 22.0155 42.4774 22.279 42.4774 22.6177C42.4774 22.9564 42.7407 23.2199 43.0794 23.2199C43.418 23.2199 43.6814 22.9564 43.6814 22.6177C43.6814 22.279 43.418 22.0155 43.0794 22.0155ZM52.5232 22.0155C52.1846 22.0155 51.9212 22.279 51.9212 22.6177C51.9212 22.9564 52.1846 23.2199 52.5232 23.2199C52.8618 23.2199 53.1252 22.9564 53.1252 22.6177C53.1252 22.279 52.8618 22.0155 52.5232 22.0155ZM62.0047 22.0155C61.6661 22.0155 61.4027 22.279 61.4027 22.6177C61.4027 22.9564 61.6661 23.2199 62.0047 23.2199C62.3433 23.2199 62.6067 22.9564 62.6067 22.6177C62.6067 22.279 62.3433 22.0155 62.0047 22.0155ZM70.7713 22.0155C70.4327 22.0155 70.1693 22.279 70.1693 22.6177C70.1693 22.9564 70.4327 23.2199 70.7713 23.2199C71.1099 23.2199 71.3733 22.9564 71.3733 22.6177C71.3733 22.279 71.1099 22.0155 70.7713 22.0155ZM73.8942 22.0155C73.5556 22.0155 73.2922 22.279 73.2922 22.6177C73.2922 22.9564 73.5556 23.2199 73.8942 23.2199C74.2328 23.2199 74.4962 22.9564 74.4962 22.6177C74.4962 22.279 74.2328 22.0155 73.8942 22.0155ZM77.0547 22.0155C76.716 22.0155 76.4527 22.279 76.4527 22.6177C76.4527 22.9564 76.716 23.2199 77.0547 23.2199C77.3933 23.2199 77.6567 22.9564 77.6567 22.6177C77.6567 22.279 77.3933 22.0155 77.0547 22.0155ZM80.2152 22.0155C79.8765 22.0155 79.6132 22.279 79.6132 22.6177C79.6132 22.9564 79.8765 23.2199 80.2152 23.2199C80.5538 23.2199 80.8172 22.9564 80.8172 22.6177C80.8172 22.279 80.5538 22.0155 80.2152 22.0155ZM83.3757 22.0155C83.037 22.0155 82.7737 22.279 82.7737 22.6177C82.7737 22.9564 83.037 23.2199 83.3757 23.2199C83.7143 23.2199 83.9777 22.9564 83.9777 22.6177C83.9777 22.279 83.7143 22.0155 83.3757 22.0155ZM90.3739 22.0155C90.0353 22.0155 89.7719 22.279 89.7719 22.6177C89.7719 22.9564 90.0353 23.2199 90.3739 23.2199C90.7125 23.2199 90.9759 22.9564 90.9759 22.6177C90.9759 22.279 90.7125 22.0155 90.3739 22.0155ZM93.4968 22.0155C93.1581 22.0155 92.8948 22.279 92.8948 22.6177C92.8948 22.9564 93.1581 23.2199 93.4968 23.2199C93.8354 23.2199 94.0988 22.9564 94.0988 22.6177C94.0988 22.279 93.8354 22.0155 93.4968 22.0155ZM96.6573 22.0155C96.3186 22.0155 96.0553 22.279 96.0553 22.6177C96.0553 22.9564 96.3186 23.2199 96.6573 23.2199C96.9959 23.2199 97.2593 22.9564 97.2593 22.6177C97.2593 22.279 96.9959 22.0155 96.6573 22.0155ZM99.8178 22.0155C99.4791 22.0155 99.2158 22.279 99.2158 22.6177C99.2158 22.9564 99.4791 23.2199 99.8178 23.2199C100.156 23.2199 100.42 22.9564 100.42 22.6177C100.42 22.279 100.156 22.0155 99.8178 22.0155ZM65.1652 22.0531C64.8266 22.0531 64.5632 22.3166 64.5632 22.6553C64.5632 22.9941 64.8266 23.2575 65.1652 23.2575C65.5038 23.2575 65.7672 22.9941 65.7672 22.6553C65.7672 22.3166 65.5038 22.0531 65.1652 22.0531ZM41.5367 22.9564C41.1981 22.9564 40.9347 23.2199 40.9347 23.5586C40.9347 23.8973 41.1981 24.1608 41.5367 24.1608C41.8754 24.1608 42.1387 23.8973 42.1387 23.5586C42.1387 23.2199 41.8754 22.9564 41.5367 22.9564ZM44.6596 22.9564C44.321 22.9564 44.0576 23.2199 44.0576 23.5586C44.0576 23.8973 44.321 24.1608 44.6596 24.1608C44.9982 24.1608 45.2616 23.8973 45.2616 23.5586C45.2616 23.2199 44.9982 22.9564 44.6596 22.9564ZM50.9806 22.9564C50.642 22.9564 50.3786 23.2199 50.3786 23.5586C50.3786 23.8973 50.642 24.1608 50.9806 24.1608C51.3192 24.1608 51.5826 23.8973 51.5826 23.5586C51.5826 23.2199 51.3192 22.9564 50.9806 22.9564ZM54.1035 22.9564C53.7648 22.9564 53.5015 23.2199 53.5015 23.5586C53.5015 23.8973 53.7648 24.1608 54.1035 24.1608C54.4421 24.1608 54.7055 23.8973 54.7055 23.5586C54.7431 23.2199 54.4421 22.9564 54.1035 22.9564ZM60.4245 22.9564C60.0858 22.9564 59.8225 23.2199 59.8225 23.5586C59.8225 23.8973 60.0858 24.1608 60.4245 24.1608C60.7631 24.1608 61.0265 23.8973 61.0265 23.5586C61.0265 23.2199 60.7631 22.9564 60.4245 22.9564ZM63.5849 22.9564C63.2463 22.9564 62.983 23.2199 62.983 23.5586C62.983 23.8973 63.2463 24.1608 63.5849 24.1608C63.9236 24.1608 64.1869 23.8973 64.1869 23.5586C64.1869 23.2199 63.9236 22.9564 63.5849 22.9564ZM72.3139 22.9564C71.9753 22.9564 71.7119 23.2199 71.7119 23.5586C71.7119 23.8973 71.9753 24.1608 72.3139 24.1608C72.6526 24.1608 72.9159 23.8973 72.9159 23.5586C72.9536 23.2199 72.6526 22.9564 72.3139 22.9564ZM81.7954 22.9564C81.4568 22.9564 81.1934 23.2199 81.1934 23.5586C81.1934 23.8973 81.4568 24.1608 81.7954 24.1608C82.134 24.1608 82.3974 23.8973 82.3974 23.5586C82.3974 23.2199 82.134 22.9564 81.7954 22.9564ZM88.7936 22.9564C88.455 22.9564 88.1916 23.2199 88.1916 23.5586C88.1916 23.8973 88.455 24.1608 88.7936 24.1608C89.1323 24.1608 89.3957 23.8973 89.3957 23.5586C89.3957 23.2199 89.1323 22.9564 88.7936 22.9564ZM91.9165 22.9564C91.5779 22.9564 91.3145 23.2199 91.3145 23.5586C91.3145 23.8973 91.5779 24.1608 91.9165 24.1608C92.2551 24.1608 92.5185 23.8973 92.5185 23.5586C92.5561 23.2199 92.2551 22.9564 91.9165 22.9564ZM98.2375 22.9564C97.8989 22.9564 97.6355 23.2199 97.6355 23.5586C97.6355 23.8973 97.8989 24.1608 98.2375 24.1608C98.5761 24.1608 98.8395 23.8973 98.8395 23.5586C98.8395 23.2199 98.5761 22.9564 98.2375 22.9564ZM101.398 22.9564C101.059 22.9564 100.796 23.2199 100.796 23.5586C100.758 23.8973 101.059 24.1608 101.398 24.1608C101.737 24.1608 102 23.8973 102 23.5586C102 23.2199 101.737 22.9564 101.398 22.9564ZM75.4744 23.1822C75.2487 23.1822 75.0982 23.3704 75.0982 23.5586C75.0982 23.7844 75.2863 23.935 75.4744 23.935C75.7002 23.935 75.8507 23.7468 75.8507 23.5586C75.8507 23.3328 75.7002 23.1822 75.4744 23.1822ZM78.6349 23.1822C78.4092 23.1822 78.2587 23.3704 78.2587 23.5586C78.2587 23.7844 78.4468 23.935 78.6349 23.935C78.8607 23.935 79.0112 23.7468 79.0112 23.5586C79.0112 23.3328 78.8607 23.1822 78.6349 23.1822ZM95.077 23.1822C94.8513 23.1822 94.7008 23.3704 94.7008 23.5586C94.7008 23.7844 94.8889 23.935 95.077 23.935C95.3028 23.935 95.4533 23.7468 95.4533 23.5586C95.4533 23.3328 95.3028 23.1822 95.077 23.1822ZM43.0794 23.8597C42.7407 23.8597 42.4774 24.1232 42.4774 24.4619C42.4774 24.8006 42.7407 25.0641 43.0794 25.0641C43.418 25.0641 43.6814 24.8006 43.6814 24.4619C43.6814 24.1232 43.418 23.8597 43.0794 23.8597ZM52.5232 23.8597C52.1846 23.8597 51.9212 24.1232 51.9212 24.4619C51.9212 24.8006 52.1846 25.0641 52.5232 25.0641C52.8618 25.0641 53.1252 24.8006 53.1252 24.4619C53.1628 24.1232 52.8618 23.8597 52.5232 23.8597ZM62.0047 23.8597C61.6661 23.8597 61.4027 24.1232 61.4027 24.4619C61.4027 24.8006 61.6661 25.0641 62.0047 25.0641C62.3433 25.0641 62.6067 24.8006 62.6067 24.4619C62.6067 24.1232 62.3433 23.8597 62.0047 23.8597ZM70.7713 23.8597C70.4327 23.8597 70.1693 24.1232 70.1693 24.4619C70.1693 24.8006 70.4327 25.0641 70.7713 25.0641C71.1099 25.0641 71.3733 24.8006 71.3733 24.4619C71.3733 24.1232 71.1099 23.8597 70.7713 23.8597ZM73.8942 23.8597C73.5556 23.8597 73.2922 24.1232 73.2922 24.4619C73.2922 24.8006 73.5556 25.0641 73.8942 25.0641C74.2328 25.0641 74.4962 24.8006 74.4962 24.4619C74.5338 24.1232 74.2328 23.8597 73.8942 23.8597ZM80.2152 23.8597C79.8765 23.8597 79.6132 24.1232 79.6132 24.4619C79.6132 24.8006 79.8765 25.0641 80.2152 25.0641C80.5538 25.0641 80.8172 24.8006 80.8172 24.4619C80.8172 24.1232 80.5538 23.8597 80.2152 23.8597ZM83.3757 23.8597C83.037 23.8597 82.7737 24.1232 82.7737 24.4619C82.7737 24.8006 83.037 25.0641 83.3757 25.0641C83.7143 25.0641 83.9777 24.8006 83.9777 24.4619C83.9777 24.1232 83.7143 23.8597 83.3757 23.8597ZM90.3739 23.8597C90.0353 23.8597 89.7719 24.1232 89.7719 24.4619C89.7719 24.8006 90.0353 25.0641 90.3739 25.0641C90.7125 25.0641 90.9759 24.8006 90.9759 24.4619C90.9759 24.1232 90.7125 23.8597 90.3739 23.8597ZM99.8178 23.8597C99.4791 23.8597 99.2158 24.1232 99.2158 24.4619C99.2158 24.8006 99.4791 25.0641 99.8178 25.0641C100.156 25.0641 100.42 24.8006 100.42 24.4619C100.42 24.1232 100.156 23.8597 99.8178 23.8597ZM46.2399 24.0855C46.0141 24.0855 45.8636 24.2737 45.8636 24.4619C45.8636 24.6877 46.0517 24.8383 46.2399 24.8383C46.4656 24.8383 46.6161 24.6501 46.6161 24.4619C46.6161 24.2361 46.428 24.0855 46.2399 24.0855ZM49.4004 24.0855C49.1746 24.0855 49.0241 24.2737 49.0241 24.4619C49.0241 24.6877 49.2122 24.8383 49.4004 24.8383C49.6261 24.8383 49.7766 24.6501 49.7766 24.4619C49.7766 24.2361 49.5885 24.0855 49.4004 24.0855ZM55.6837 24.0855C55.458 24.0855 55.3075 24.2737 55.3075 24.4619C55.3075 24.6877 55.4956 24.8383 55.6837 24.8383C55.9095 24.8383 56.06 24.6501 56.06 24.4619C56.06 24.2361 55.9095 24.0855 55.6837 24.0855ZM58.8442 24.0855C58.6185 24.0855 58.468 24.2737 58.468 24.4619C58.468 24.6877 58.6561 24.8383 58.8442 24.8383C59.07 24.8383 59.2205 24.6501 59.2205 24.4619C59.2205 24.2361 59.07 24.0855 58.8442 24.0855ZM44.6596 24.763C44.321 24.763 44.0576 25.0265 44.0576 25.3652C44.0576 25.7039 44.321 25.9674 44.6596 25.9674C44.9982 25.9674 45.2616 25.7039 45.2616 25.3652C45.2616 25.0265 44.9982 24.763 44.6596 24.763ZM50.9806 24.763C50.642 24.763 50.3786 25.0265 50.3786 25.3652C50.3786 25.7039 50.642 25.9674 50.9806 25.9674C51.3192 25.9674 51.5826 25.7039 51.5826 25.3652C51.5826 25.0265 51.3192 24.763 50.9806 24.763ZM54.1035 24.763C53.7648 24.763 53.5015 25.0265 53.5015 25.3652C53.5015 25.7039 53.7648 25.9674 54.1035 25.9674C54.4421 25.9674 54.7055 25.7039 54.7055 25.3652C54.7431 25.0265 54.4421 24.763 54.1035 24.763ZM60.4245 24.763C60.0858 24.763 59.8225 25.0265 59.8225 25.3652C59.8225 25.7039 60.0858 25.9674 60.4245 25.9674C60.7631 25.9674 61.0265 25.7039 61.0265 25.3652C61.0265 25.0265 60.7631 24.763 60.4245 24.763ZM72.3139 24.763C71.9753 24.763 71.7119 25.0265 71.7119 25.3652C71.7119 25.7039 71.9753 25.9674 72.3139 25.9674C72.6526 25.9674 72.9159 25.7039 72.9159 25.3652C72.9536 25.0265 72.6526 24.763 72.3139 24.763ZM81.7954 24.763C81.4568 24.763 81.1934 25.0265 81.1934 25.3652C81.1934 25.7039 81.4568 25.9674 81.7954 25.9674C82.134 25.9674 82.3974 25.7039 82.3974 25.3652C82.3974 25.0265 82.134 24.763 81.7954 24.763ZM88.7936 24.763C88.455 24.763 88.1916 25.0265 88.1916 25.3652C88.1916 25.7039 88.455 25.9674 88.7936 25.9674C89.1323 25.9674 89.3957 25.7039 89.3957 25.3652C89.3957 25.0265 89.1323 24.763 88.7936 24.763ZM91.9165 24.763C91.5779 24.763 91.3145 25.0265 91.3145 25.3652C91.3145 25.7039 91.5779 25.9674 91.9165 25.9674C92.2551 25.9674 92.5185 25.7039 92.5185 25.3652C92.5561 25.0265 92.2551 24.763 91.9165 24.763ZM98.2375 24.763C97.8989 24.763 97.6355 25.0265 97.6355 25.3652C97.6355 25.7039 97.8989 25.9674 98.2375 25.9674C98.5761 25.9674 98.8395 25.7039 98.8395 25.3652C98.8395 25.0265 98.5761 24.763 98.2375 24.763ZM101.398 24.763C101.059 24.763 100.796 25.0265 100.796 25.3652C100.796 25.7039 101.059 25.9674 101.398 25.9674C101.737 25.9674 102 25.7039 102 25.3652C102 25.0265 101.737 24.763 101.398 24.763ZM41.5367 24.8006C41.1981 24.8006 40.9347 25.0641 40.9347 25.4028C40.9347 25.7039 41.1981 26.005 41.5367 26.005C41.8754 26.005 42.1387 25.7416 42.1387 25.4028C42.1387 25.0641 41.8754 24.8006 41.5367 24.8006ZM63.5849 24.8006C63.2463 24.8006 62.983 25.0641 62.983 25.4028C62.9453 25.7039 63.2463 26.005 63.5849 26.005C63.9236 26.005 64.1869 25.7416 64.1869 25.4028C64.1869 25.0641 63.9236 24.8006 63.5849 24.8006ZM43.0794 25.6663C42.7407 25.6663 42.4774 25.9297 42.4774 26.2685C42.4774 26.6072 42.7407 26.8707 43.0794 26.8707C43.418 26.8707 43.6814 26.6072 43.6814 26.2685C43.6814 25.9297 43.418 25.6663 43.0794 25.6663ZM49.4004 25.6663C49.0617 25.6663 48.7984 25.9297 48.7984 26.2685C48.7984 26.6072 49.0617 26.8707 49.4004 26.8707C49.739 26.8707 50.0024 26.6072 50.0024 26.2685C50.0024 25.9297 49.739 25.6663 49.4004 25.6663ZM52.5232 25.6663C52.1846 25.6663 51.9212 25.9297 51.9212 26.2685C51.9212 26.6072 52.1846 26.8707 52.5232 26.8707C52.8618 26.8707 53.1252 26.6072 53.1252 26.2685C53.1628 25.9297 52.8618 25.6663 52.5232 25.6663ZM55.6837 25.6663C55.3451 25.6663 55.0817 25.9297 55.0817 26.2685C55.0817 26.6072 55.3451 26.8707 55.6837 26.8707C56.0223 26.8707 56.2857 26.6072 56.2857 26.2685C56.3233 25.9297 56.0223 25.6663 55.6837 25.6663ZM62.0047 25.6663C61.6661 25.6663 61.4027 25.9297 61.4027 26.2685C61.4027 26.6072 61.6661 26.8707 62.0047 26.8707C62.3433 26.8707 62.6067 26.6072 62.6067 26.2685C62.6067 25.9297 62.3433 25.6663 62.0047 25.6663ZM70.7713 25.6663C70.4327 25.6663 70.1693 25.9297 70.1693 26.2685C70.1693 26.6072 70.4327 26.8707 70.7713 26.8707C71.1099 26.8707 71.3733 26.6072 71.3733 26.2685C71.3733 25.9297 71.1099 25.6663 70.7713 25.6663ZM73.8942 25.6663C73.5556 25.6663 73.2922 25.9297 73.2922 26.2685C73.2922 26.6072 73.5556 26.8707 73.8942 26.8707C74.2328 26.8707 74.4962 26.6072 74.4962 26.2685C74.5338 25.9297 74.2328 25.6663 73.8942 25.6663ZM80.2152 25.6663C79.8765 25.6663 79.6132 25.9297 79.6132 26.2685C79.6132 26.6072 79.8765 26.8707 80.2152 26.8707C80.5538 26.8707 80.8172 26.6072 80.8172 26.2685C80.8172 25.9297 80.5538 25.6663 80.2152 25.6663ZM83.3757 25.6663C83.037 25.6663 82.7737 25.9297 82.7737 26.2685C82.7737 26.6072 83.037 26.8707 83.3757 26.8707C83.7143 26.8707 83.9777 26.6072 83.9777 26.2685C83.9777 25.9297 83.7143 25.6663 83.3757 25.6663ZM90.3739 25.6663C90.0353 25.6663 89.7719 25.9297 89.7719 26.2685C89.7719 26.6072 90.0353 26.8707 90.3739 26.8707C90.7125 26.8707 90.9759 26.6072 90.9759 26.2685C90.9759 25.9297 90.7125 25.6663 90.3739 25.6663ZM99.8178 25.6663C99.4791 25.6663 99.2158 25.9297 99.2158 26.2685C99.2158 26.6072 99.4791 26.8707 99.8178 26.8707C100.156 26.8707 100.42 26.6072 100.42 26.2685C100.42 25.9297 100.156 25.6663 99.8178 25.6663ZM46.2399 25.8921C46.0141 25.8921 45.8636 26.0803 45.8636 26.2685C45.8636 26.4943 46.0517 26.6448 46.2399 26.6448C46.4656 26.6448 46.6161 26.4567 46.6161 26.2685C46.6161 26.0803 46.428 25.8921 46.2399 25.8921ZM58.8442 25.8921C58.6185 25.8921 58.468 26.0803 58.468 26.2685C58.468 26.4943 58.6561 26.6448 58.8442 26.6448C59.07 26.6448 59.2205 26.4567 59.2205 26.2685C59.2205 26.0803 59.07 25.8921 58.8442 25.8921ZM44.6596 26.5696C44.321 26.5696 44.0576 26.833 44.0576 27.1718C44.0576 27.5105 44.321 27.7739 44.6596 27.7739C44.9982 27.7739 45.2616 27.5105 45.2616 27.1718C45.2616 26.8707 44.9982 26.5696 44.6596 26.5696ZM50.9806 26.5696C50.642 26.5696 50.3786 26.833 50.3786 27.1718C50.3786 27.5105 50.642 27.7739 50.9806 27.7739C51.3192 27.7739 51.5826 27.5105 51.5826 27.1718C51.5826 26.8707 51.3192 26.5696 50.9806 26.5696ZM54.1035 26.5696C53.7648 26.5696 53.5015 26.833 53.5015 27.1718C53.5015 27.5105 53.7648 27.7739 54.1035 27.7739C54.4421 27.7739 54.7055 27.5105 54.7055 27.1718C54.7431 26.8707 54.4421 26.5696 54.1035 26.5696ZM60.4245 26.5696C60.0858 26.5696 59.8225 26.833 59.8225 27.1718C59.8225 27.5105 60.0858 27.7739 60.4245 27.7739C60.7631 27.7739 61.0265 27.5105 61.0265 27.1718C61.0265 26.8707 60.7631 26.5696 60.4245 26.5696ZM72.3139 26.5696C71.9753 26.5696 71.7119 26.833 71.7119 27.1718C71.7119 27.5105 71.9753 27.7739 72.3139 27.7739C72.6526 27.7739 72.9159 27.5105 72.9159 27.1718C72.9536 26.8707 72.6526 26.5696 72.3139 26.5696ZM81.7954 26.5696C81.4568 26.5696 81.1934 26.833 81.1934 27.1718C81.1934 27.5105 81.4568 27.7739 81.7954 27.7739C82.134 27.7739 82.3974 27.5105 82.3974 27.1718C82.3974 26.8707 82.134 26.5696 81.7954 26.5696ZM88.7936 26.5696C88.455 26.5696 88.1916 26.833 88.1916 27.1718C88.1916 27.5105 88.455 27.7739 88.7936 27.7739C89.1323 27.7739 89.3957 27.5105 89.3957 27.1718C89.3957 26.8707 89.1323 26.5696 88.7936 26.5696ZM91.9165 26.5696C91.5779 26.5696 91.3145 26.833 91.3145 27.1718C91.3145 27.5105 91.5779 27.7739 91.9165 27.7739C92.2551 27.7739 92.5185 27.5105 92.5185 27.1718C92.5561 26.8707 92.2551 26.5696 91.9165 26.5696ZM98.2375 26.5696C97.8989 26.5696 97.6355 26.833 97.6355 27.1718C97.6355 27.5105 97.8989 27.7739 98.2375 27.7739C98.5761 27.7739 98.8395 27.5105 98.8395 27.1718C98.8395 26.8707 98.5761 26.5696 98.2375 26.5696ZM101.398 26.5696C101.059 26.5696 100.796 26.833 100.796 27.1718C100.796 27.5105 101.059 27.7739 101.398 27.7739C101.737 27.7739 102 27.5105 102 27.1718C102 26.8707 101.737 26.5696 101.398 26.5696ZM47.8201 26.7954C47.5944 26.7954 47.4439 26.9836 47.4439 27.1718C47.4439 27.3976 47.632 27.5481 47.8201 27.5481C48.0459 27.5481 48.1964 27.3599 48.1964 27.1718C48.1964 26.9836 48.0082 26.7954 47.8201 26.7954ZM57.264 26.7954C57.0382 26.7954 56.8877 26.9836 56.8877 27.1718C56.8877 27.3976 57.0758 27.5481 57.264 27.5481C57.4897 27.5481 57.6402 27.3599 57.6402 27.1718C57.6402 26.9836 57.4897 26.7954 57.264 26.7954ZM95.077 26.7954C94.8513 26.7954 94.7008 26.9836 94.7008 27.1718C94.7008 27.3976 94.8889 27.5481 95.077 27.5481C95.3028 27.5481 95.4533 27.3599 95.4533 27.1718C95.4533 26.9836 95.3028 26.7954 95.077 26.7954ZM75.4744 26.833C75.2487 26.833 75.0982 27.0212 75.0982 27.2094C75.0982 27.3976 75.2863 27.5858 75.4744 27.5858C75.7002 27.5858 75.8507 27.3976 75.8507 27.2094C75.8507 26.9836 75.6625 26.833 75.4744 26.833ZM78.6349 26.833C78.4092 26.833 78.2587 27.0212 78.2587 27.2094C78.2587 27.3976 78.4092 27.5858 78.6349 27.5858C78.8607 27.5858 79.0112 27.3976 79.0112 27.2094C79.0112 26.9836 78.823 26.833 78.6349 26.833ZM43.0794 27.4729C42.7407 27.4729 42.4774 27.7363 42.4774 28.075C42.4774 28.4138 42.7407 28.6772 43.0794 28.6772C43.418 28.6772 43.6814 28.4138 43.6814 28.075C43.6814 27.7363 43.418 27.4729 43.0794 27.4729ZM46.2399 27.4729C45.9012 27.4729 45.6379 27.7363 45.6379 28.075C45.6379 28.4138 45.9012 28.6772 46.2399 28.6772C46.5785 28.6772 46.8419 28.4138 46.8419 28.075C46.8419 27.7363 46.5785 27.4729 46.2399 27.4729ZM49.4004 27.4729C49.0617 27.4729 48.7984 27.7363 48.7984 28.075C48.7984 28.4138 49.0617 28.6772 49.4004 28.6772C49.739 28.6772 50.0024 28.4138 50.0024 28.075C50.0024 27.7363 49.739 27.4729 49.4004 27.4729ZM55.6837 27.4729C55.3451 27.4729 55.0817 27.7363 55.0817 28.075C55.0817 28.4138 55.3451 28.6772 55.6837 28.6772C56.0223 28.6772 56.2857 28.4138 56.2857 28.075C56.2857 27.7363 56.0223 27.4729 55.6837 27.4729ZM58.8442 27.4729C58.5056 27.4729 58.2422 27.7363 58.2422 28.075C58.2422 28.4138 58.5056 28.6772 58.8442 28.6772C59.1828 28.6772 59.4462 28.4138 59.4462 28.075C59.4462 27.7363 59.1828 27.4729 58.8442 27.4729ZM62.0047 27.4729C61.6661 27.4729 61.4027 27.7363 61.4027 28.075C61.4027 28.4138 61.6661 28.6772 62.0047 28.6772C62.3433 28.6772 62.6067 28.4138 62.6067 28.075C62.6067 27.7363 62.3433 27.4729 62.0047 27.4729ZM70.7713 27.4729C70.4327 27.4729 70.1693 27.7363 70.1693 28.075C70.1693 28.4138 70.4327 28.6772 70.7713 28.6772C71.1099 28.6772 71.3733 28.4138 71.3733 28.075C71.3733 27.7739 71.1099 27.4729 70.7713 27.4729ZM73.8942 27.4729C73.5556 27.4729 73.2922 27.7363 73.2922 28.075C73.2922 28.4138 73.5556 28.6772 73.8942 28.6772C74.2328 28.6772 74.4962 28.4138 74.4962 28.075C74.5338 27.7739 74.2328 27.4729 73.8942 27.4729ZM77.0547 27.4729C76.716 27.4729 76.4527 27.7363 76.4527 28.075C76.4527 28.4138 76.716 28.6772 77.0547 28.6772C77.3933 28.6772 77.6567 28.4138 77.6567 28.075C77.6567 27.7739 77.3933 27.4729 77.0547 27.4729ZM80.2152 27.4729C79.8765 27.4729 79.6132 27.7363 79.6132 28.075C79.6132 28.4138 79.8765 28.6772 80.2152 28.6772C80.5538 28.6772 80.8172 28.4138 80.8172 28.075C80.8172 27.7739 80.5538 27.4729 80.2152 27.4729ZM90.3739 27.4729C90.0353 27.4729 89.7719 27.7363 89.7719 28.075C89.7719 28.4138 90.0353 28.6772 90.3739 28.6772C90.7125 28.6772 90.9759 28.4138 90.9759 28.075C90.9759 27.7739 90.7125 27.4729 90.3739 27.4729ZM93.4968 27.4729C93.1581 27.4729 92.8948 27.7363 92.8948 28.075C92.8948 28.4138 93.1581 28.6772 93.4968 28.6772C93.8354 28.6772 94.0988 28.4138 94.0988 28.075C94.1364 27.7739 93.8354 27.4729 93.4968 27.4729ZM96.6573 27.4729C96.3186 27.4729 96.0553 27.7363 96.0553 28.075C96.0553 28.4138 96.3186 28.6772 96.6573 28.6772C96.9959 28.6772 97.2593 28.4138 97.2593 28.075C97.2593 27.7739 96.9959 27.4729 96.6573 27.4729ZM99.8178 27.4729C99.4791 27.4729 99.2158 27.7363 99.2158 28.075C99.2158 28.4138 99.4791 28.6772 99.8178 28.6772C100.156 28.6772 100.42 28.4138 100.42 28.075C100.42 27.7739 100.156 27.4729 99.8178 27.4729ZM52.5232 27.5105C52.1846 27.5105 51.9212 27.7739 51.9212 28.1127C51.9212 28.4514 52.1846 28.7149 52.5232 28.7149C52.8618 28.7149 53.1252 28.4514 53.1252 28.1127C53.1252 27.7739 52.8618 27.5105 52.5232 27.5105ZM83.3757 27.7363C83.1875 27.7363 82.9994 27.9245 82.9994 28.1127C82.9994 28.3009 83.1499 28.4891 83.3757 28.4891C83.6014 28.4891 83.7519 28.3009 83.7519 28.1127C83.7519 27.8869 83.5638 27.7363 83.3757 27.7363ZM44.6596 28.4138C44.321 28.4138 44.0576 28.6772 44.0576 29.016C44.0576 29.3547 44.321 29.6182 44.6596 29.6182C44.9982 29.6182 45.2616 29.3547 45.2616 29.016C45.2616 28.6772 44.9982 28.4138 44.6596 28.4138ZM47.8201 28.4138C47.4815 28.4138 47.2181 28.6772 47.2181 29.016C47.2181 29.3547 47.4815 29.6182 47.8201 29.6182C48.1587 29.6182 48.4221 29.3547 48.4221 29.016C48.4221 28.6772 48.1587 28.4138 47.8201 28.4138ZM50.9806 28.4138C50.642 28.4138 50.3786 28.6772 50.3786 29.016C50.3786 29.3547 50.642 29.6182 50.9806 29.6182C51.3192 29.6182 51.5826 29.3547 51.5826 29.016C51.5826 28.6772 51.3192 28.4138 50.9806 28.4138ZM54.1035 28.4138C53.7648 28.4138 53.5015 28.6772 53.5015 29.016C53.5015 29.3547 53.7648 29.6182 54.1035 29.6182C54.4421 29.6182 54.7055 29.3547 54.7055 29.016C54.7431 28.6772 54.4421 28.4138 54.1035 28.4138ZM57.264 28.4138C56.9253 28.4138 56.662 28.6772 56.662 29.016C56.662 29.3547 56.9253 29.6182 57.264 29.6182C57.6026 29.6182 57.866 29.3547 57.866 29.016C57.866 28.6772 57.6026 28.4138 57.264 28.4138ZM60.4245 28.4138C60.0858 28.4138 59.8225 28.6772 59.8225 29.016C59.8225 29.3547 60.0858 29.6182 60.4245 29.6182C60.7631 29.6182 61.0265 29.3547 61.0265 29.016C61.0265 28.6772 60.7631 28.4138 60.4245 28.4138ZM72.3139 28.4138C71.9753 28.4138 71.7119 28.6772 71.7119 29.016C71.7119 29.3547 71.9753 29.6182 72.3139 29.6182C72.6526 29.6182 72.9159 29.3547 72.9159 29.016C72.9536 28.6772 72.6526 28.4138 72.3139 28.4138ZM75.4744 28.4138C75.1358 28.4138 74.8724 28.6772 74.8724 29.016C74.8724 29.3547 75.1358 29.6182 75.4744 29.6182C75.813 29.6182 76.0764 29.3547 76.0764 29.016C76.114 28.6772 75.813 28.4138 75.4744 28.4138ZM78.6349 28.4138C78.2963 28.4138 78.0329 28.6772 78.0329 29.016C78.0329 29.3547 78.2963 29.6182 78.6349 29.6182C78.9735 29.6182 79.2369 29.3547 79.2369 29.016C79.2369 28.6772 78.9735 28.4138 78.6349 28.4138ZM81.7954 28.4138C81.4568 28.4138 81.1934 28.6772 81.1934 29.016C81.1558 29.3547 81.4568 29.6182 81.7954 29.6182C82.134 29.6182 82.3974 29.3547 82.3974 29.016C82.3974 28.6772 82.134 28.4138 81.7954 28.4138ZM88.7936 28.4138C88.455 28.4138 88.1916 28.6772 88.1916 29.016C88.1916 29.3547 88.455 29.6182 88.7936 29.6182C89.1323 29.6182 89.3957 29.3547 89.3957 29.016C89.3957 28.6772 89.1323 28.4138 88.7936 28.4138ZM91.9165 28.4138C91.5779 28.4138 91.3145 28.6772 91.3145 29.016C91.3145 29.3547 91.5779 29.6182 91.9165 29.6182C92.2551 29.6182 92.5185 29.3547 92.5185 29.016C92.5561 28.6772 92.2551 28.4138 91.9165 28.4138ZM95.077 28.4138C94.7384 28.4138 94.475 28.6772 94.475 29.016C94.475 29.3547 94.7384 29.6182 95.077 29.6182C95.4156 29.6182 95.679 29.3547 95.679 29.016C95.679 28.6772 95.4156 28.4138 95.077 28.4138ZM98.2375 28.4138C97.8989 28.4138 97.6355 28.6772 97.6355 29.016C97.6355 29.3547 97.8989 29.6182 98.2375 29.6182C98.5761 29.6182 98.8395 29.3547 98.8395 29.016C98.8395 28.6772 98.5761 28.4138 98.2375 28.4138ZM46.2399 29.3171C45.9012 29.3171 45.6379 29.5805 45.6379 29.9193C45.6379 30.258 45.9012 30.5214 46.2399 30.5214C46.5785 30.5214 46.8419 30.258 46.8419 29.9193C46.8419 29.5805 46.5785 29.3171 46.2399 29.3171ZM49.4004 29.3171C49.0617 29.3171 48.7984 29.5805 48.7984 29.9193C48.7984 30.258 49.0617 30.5214 49.4004 30.5214C49.739 30.5214 50.0024 30.258 50.0024 29.9193C50.0024 29.5805 49.739 29.3171 49.4004 29.3171ZM55.6837 29.3171C55.3451 29.3171 55.0817 29.5805 55.0817 29.9193C55.0817 30.258 55.3451 30.5214 55.6837 30.5214C56.0223 30.5214 56.2857 30.258 56.2857 29.9193C56.3233 29.5805 56.0223 29.3171 55.6837 29.3171ZM58.8442 29.3171C58.5056 29.3171 58.2422 29.5805 58.2422 29.9193C58.2422 30.258 58.5056 30.5214 58.8442 30.5214C59.1828 30.5214 59.4462 30.258 59.4462 29.9193C59.4462 29.5805 59.1828 29.3171 58.8442 29.3171ZM70.7713 29.3171C70.4327 29.3171 70.1693 29.5805 70.1693 29.9193C70.1693 30.258 70.4327 30.5214 70.7713 30.5214C71.1099 30.5214 71.3733 30.258 71.3733 29.9193C71.3733 29.5805 71.1099 29.3171 70.7713 29.3171ZM73.8942 29.3171C73.5556 29.3171 73.2922 29.5805 73.2922 29.9193C73.2922 30.258 73.5556 30.5214 73.8942 30.5214C74.2328 30.5214 74.4962 30.258 74.4962 29.9193C74.5338 29.5805 74.2328 29.3171 73.8942 29.3171ZM77.0547 29.3171C76.716 29.3171 76.4527 29.5805 76.4527 29.9193C76.4527 30.258 76.716 30.5214 77.0547 30.5214C77.3933 30.5214 77.6567 30.258 77.6567 29.9193C77.6567 29.5805 77.3933 29.3171 77.0547 29.3171ZM80.2152 29.3171C79.8765 29.3171 79.6132 29.5805 79.6132 29.9193C79.6132 30.258 79.8765 30.5214 80.2152 30.5214C80.5538 30.5214 80.8172 30.258 80.8172 29.9193C80.8172 29.5805 80.5538 29.3171 80.2152 29.3171ZM90.3739 29.3171C90.0353 29.3171 89.7719 29.5805 89.7719 29.9193C89.7719 30.258 90.0353 30.5214 90.3739 30.5214C90.7125 30.5214 90.9759 30.258 90.9759 29.9193C90.9759 29.5805 90.7125 29.3171 90.3739 29.3171ZM93.4968 29.3171C93.1581 29.3171 92.8948 29.5805 92.8948 29.9193C92.8948 30.258 93.1581 30.5214 93.4968 30.5214C93.8354 30.5214 94.0988 30.258 94.0988 29.9193C94.1364 29.5805 93.8354 29.3171 93.4968 29.3171ZM96.6573 29.3171C96.3186 29.3171 96.0553 29.5805 96.0553 29.9193C96.0553 30.258 96.3186 30.5214 96.6573 30.5214C96.9959 30.5214 97.2593 30.258 97.2593 29.9193C97.2593 29.5805 96.9959 29.3171 96.6573 29.3171ZM43.0794 29.5429C42.8536 29.5429 42.7031 29.7311 42.7031 29.9193C42.7031 30.1451 42.8912 30.2956 43.0794 30.2956C43.3051 30.2956 43.4556 30.1074 43.4556 29.9193C43.4556 29.6934 43.2675 29.5429 43.0794 29.5429ZM62.0047 29.5429C61.779 29.5429 61.6285 29.7311 61.6285 29.9193C61.6285 30.1451 61.779 30.2956 62.0047 30.2956C62.2305 30.2956 62.381 30.1074 62.381 29.9193C62.381 29.6934 62.1928 29.5429 62.0047 29.5429ZM99.8178 29.5429C99.592 29.5429 99.4415 29.7311 99.4415 29.9193C99.4415 30.1451 99.592 30.2956 99.8178 30.2956C100.044 30.2956 100.194 30.1074 100.194 29.9193C100.194 29.6934 100.006 29.5429 99.8178 29.5429ZM44.6596 30.2204C44.321 30.2204 44.0576 30.4838 44.0576 30.8225C44.0576 31.1613 44.321 31.4247 44.6596 31.4247C44.9982 31.4247 45.2616 31.1613 45.2616 30.8225C45.2616 30.4838 44.9982 30.2204 44.6596 30.2204ZM47.8201 30.2204C47.4815 30.2204 47.2181 30.4838 47.2181 30.8225C47.2181 31.1613 47.4815 31.4247 47.8201 31.4247C48.1587 31.4247 48.4221 31.1613 48.4221 30.8225C48.4221 30.4838 48.1587 30.2204 47.8201 30.2204ZM57.264 30.2204C56.9253 30.2204 56.662 30.4838 56.662 30.8225C56.662 31.1613 56.9253 31.4247 57.264 31.4247C57.6026 31.4247 57.866 31.1613 57.866 30.8225C57.866 30.4838 57.6026 30.2204 57.264 30.2204ZM60.4245 30.2204C60.0858 30.2204 59.8225 30.4838 59.8225 30.8225C59.8225 31.1613 60.0858 31.4247 60.4245 31.4247C60.7631 31.4247 61.0265 31.1613 61.0265 30.8225C61.0265 30.4838 60.7631 30.2204 60.4245 30.2204ZM72.3139 30.2204C71.9753 30.2204 71.7119 30.4838 71.7119 30.8225C71.7119 31.1613 71.9753 31.4247 72.3139 31.4247C72.6526 31.4247 72.9159 31.1613 72.9159 30.8225C72.9159 30.4838 72.6526 30.2204 72.3139 30.2204ZM88.7936 30.2204C88.455 30.2204 88.1916 30.4838 88.1916 30.8225C88.1916 31.1613 88.455 31.4247 88.7936 31.4247C89.1323 31.4247 89.3957 31.1613 89.3957 30.8225C89.3957 30.4838 89.1323 30.2204 88.7936 30.2204ZM91.9165 30.2204C91.5779 30.2204 91.3145 30.4838 91.3145 30.8225C91.3145 31.1613 91.5779 31.4247 91.9165 31.4247C92.2551 31.4247 92.5185 31.1613 92.5185 30.8225C92.5185 30.4838 92.2551 30.2204 91.9165 30.2204ZM75.4744 30.258C75.1358 30.258 74.8724 30.5214 74.8724 30.8602C74.8724 31.1989 75.1358 31.4624 75.4744 31.4624C75.813 31.4624 76.0764 31.1989 76.0764 30.8602C76.0764 30.5214 75.813 30.258 75.4744 30.258ZM78.6349 30.258C78.2963 30.258 78.0329 30.5214 78.0329 30.8602C78.0329 31.1989 78.2963 31.4624 78.6349 31.4624C78.9735 31.4624 79.2369 31.1989 79.2369 30.8602C79.2369 30.5214 78.9735 30.258 78.6349 30.258ZM95.077 30.258C94.7384 30.258 94.475 30.5214 94.475 30.8602C94.475 31.1989 94.7384 31.4624 95.077 31.4624C95.4156 31.4624 95.679 31.1989 95.679 30.8602C95.679 30.5214 95.4156 30.258 95.077 30.258ZM50.9806 30.4462C50.7548 30.4462 50.6044 30.6344 50.6044 30.8225C50.5667 31.0484 50.7548 31.1989 50.9806 31.1989C51.2063 31.1989 51.3568 31.0107 51.3568 30.8225C51.3568 30.5967 51.1687 30.4462 50.9806 30.4462ZM54.1035 30.4462C53.8777 30.4462 53.7272 30.6344 53.7272 30.8225C53.7272 31.0484 53.9153 31.1989 54.1035 31.1989C54.3292 31.1989 54.4797 31.0107 54.4797 30.8225C54.4797 30.5967 54.2916 30.4462 54.1035 30.4462ZM98.2375 30.4462C98.0118 30.4462 97.8613 30.6344 97.8613 30.8225C97.8613 31.0484 98.0118 31.1989 98.2375 31.1989C98.4633 31.1989 98.6138 31.0107 98.6138 30.8225C98.6138 30.5967 98.4256 30.4462 98.2375 30.4462ZM46.2399 31.1236C45.9012 31.1236 45.6379 31.3871 45.6379 31.7258C45.6379 32.0646 45.9012 32.328 46.2399 32.328C46.5785 32.328 46.8419 32.0646 46.8419 31.7258C46.8419 31.3871 46.5785 31.1236 46.2399 31.1236ZM49.4004 31.1236C49.0617 31.1236 48.7984 31.3871 48.7984 31.7258C48.7984 32.0646 49.0617 32.328 49.4004 32.328C49.739 32.328 50.0024 32.0646 50.0024 31.7258C50.0024 31.3871 49.739 31.1236 49.4004 31.1236ZM55.6837 31.1236C55.3451 31.1236 55.0817 31.3871 55.0817 31.7258C55.0817 32.0646 55.3451 32.328 55.6837 32.328C56.0223 32.328 56.2857 32.0646 56.2857 31.7258C56.3233 31.3871 56.0223 31.1236 55.6837 31.1236ZM58.8442 31.1236C58.5056 31.1236 58.2422 31.3871 58.2422 31.7258C58.2422 32.0646 58.5056 32.328 58.8442 32.328C59.1828 32.328 59.4462 32.0646 59.4462 31.7258C59.4462 31.3871 59.1828 31.1236 58.8442 31.1236ZM70.7713 31.1236C70.4327 31.1236 70.1693 31.3871 70.1693 31.7258C70.1693 32.0646 70.4327 32.328 70.7713 32.328C71.1099 32.328 71.3733 32.0646 71.3733 31.7258C71.3733 31.3871 71.1099 31.1236 70.7713 31.1236ZM73.8942 31.1236C73.5556 31.1236 73.2922 31.3871 73.2922 31.7258C73.2922 32.0646 73.5556 32.328 73.8942 32.328C74.2328 32.328 74.4962 32.0646 74.4962 31.7258C74.5338 31.3871 74.2328 31.1236 73.8942 31.1236ZM90.3739 31.1236C90.0353 31.1236 89.7719 31.3871 89.7719 31.7258C89.7719 32.0646 90.0353 32.328 90.3739 32.328C90.7125 32.328 90.9759 32.0646 90.9759 31.7258C90.9759 31.3871 90.7125 31.1236 90.3739 31.1236ZM96.6573 31.3495C96.4315 31.3495 96.281 31.5376 96.281 31.7258C96.281 31.9517 96.4691 32.1022 96.6573 32.1022C96.883 32.1022 97.0335 31.914 97.0335 31.7258C97.0335 31.5376 96.883 31.3495 96.6573 31.3495ZM77.0547 31.3871C76.8289 31.3871 76.6784 31.5753 76.6784 31.7635C76.6784 31.9517 76.8665 32.1398 77.0547 32.1398C77.2804 32.1398 77.4309 31.9517 77.4309 31.7635C77.4309 31.5753 77.2428 31.3871 77.0547 31.3871ZM93.4968 31.3871C93.271 31.3871 93.1205 31.5753 93.1205 31.7635C93.1205 31.9517 93.3086 32.1398 93.4968 32.1398C93.7225 32.1398 93.873 31.9517 93.873 31.7635C93.873 31.5753 93.6849 31.3871 93.4968 31.3871ZM44.6596 32.0269C44.321 32.0269 44.0576 32.2904 44.0576 32.6291C44.0576 32.9679 44.321 33.2313 44.6596 33.2313C44.9982 33.2313 45.2616 32.9679 45.2616 32.6291C45.2616 32.328 44.9982 32.0269 44.6596 32.0269ZM47.8201 32.0269C47.4815 32.0269 47.2181 32.2904 47.2181 32.6291C47.2181 32.9679 47.4815 33.2313 47.8201 33.2313C48.1587 33.2313 48.4221 32.9679 48.4221 32.6291C48.4221 32.328 48.1587 32.0269 47.8201 32.0269ZM57.264 32.0269C56.9253 32.0269 56.662 32.2904 56.662 32.6291C56.662 32.9679 56.9253 33.2313 57.264 33.2313C57.6026 33.2313 57.866 32.9679 57.866 32.6291C57.866 32.328 57.6026 32.0269 57.264 32.0269ZM60.4245 32.0269C60.0858 32.0269 59.8225 32.2904 59.8225 32.6291C59.8225 32.9679 60.0858 33.2313 60.4245 33.2313C60.7631 33.2313 61.0265 32.9679 61.0265 32.6291C61.0265 32.328 60.7631 32.0269 60.4245 32.0269ZM72.3139 32.0269C71.9753 32.0269 71.7119 32.2904 71.7119 32.6291C71.7119 32.9679 71.9753 33.2313 72.3139 33.2313C72.6526 33.2313 72.9159 32.9679 72.9159 32.6291C72.9536 32.328 72.6526 32.0269 72.3139 32.0269ZM88.7936 32.0269C88.455 32.0269 88.1916 32.2904 88.1916 32.6291C88.1916 32.9679 88.455 33.2313 88.7936 33.2313C89.1323 33.2313 89.3957 32.9679 89.3957 32.6291C89.3957 32.328 89.1323 32.0269 88.7936 32.0269ZM91.9165 32.0269C91.5779 32.0269 91.3145 32.2904 91.3145 32.6291C91.3145 32.9679 91.5779 33.2313 91.9165 33.2313C92.2551 33.2313 92.5185 32.9679 92.5185 32.6291C92.5561 32.328 92.2551 32.0269 91.9165 32.0269ZM46.2399 32.9679C45.9012 32.9679 45.6379 33.2313 45.6379 33.57C45.6379 33.9088 45.9012 34.1722 46.2399 34.1722C46.5785 34.1722 46.8419 33.9088 46.8419 33.57C46.8419 33.2313 46.5785 32.9679 46.2399 32.9679ZM49.4004 32.9679C49.0617 32.9679 48.7984 33.2313 48.7984 33.57C48.7607 33.9088 49.0617 34.1722 49.4004 34.1722C49.739 34.1722 50.0024 33.9088 50.0024 33.57C50.0024 33.2313 49.739 32.9679 49.4004 32.9679ZM55.6837 32.9679C55.3451 32.9679 55.0817 33.2313 55.0817 33.57C55.0817 33.9088 55.3451 34.1722 55.6837 34.1722C56.0223 34.1722 56.2857 33.9088 56.2857 33.57C56.2857 33.2313 56.0223 32.9679 55.6837 32.9679ZM58.8442 32.9679C58.5056 32.9679 58.2422 33.2313 58.2422 33.57C58.2422 33.9088 58.5056 34.1722 58.8442 34.1722C59.1828 34.1722 59.4462 33.9088 59.4462 33.57C59.4462 33.2313 59.1828 32.9679 58.8442 32.9679ZM70.7713 32.9679C70.4327 32.9679 70.1693 33.2313 70.1693 33.57C70.1693 33.9088 70.4327 34.1722 70.7713 34.1722C71.1099 34.1722 71.3733 33.9088 71.3733 33.57C71.3733 33.2313 71.1099 32.9679 70.7713 32.9679ZM73.8942 32.9679C73.5556 32.9679 73.2922 33.2313 73.2922 33.57C73.2922 33.9088 73.5556 34.1722 73.8942 34.1722C74.2328 34.1722 74.4962 33.9088 74.4962 33.57C74.5338 33.2313 74.2328 32.9679 73.8942 32.9679ZM90.3739 32.9679C90.0353 32.9679 89.7719 33.2313 89.7719 33.57C89.7719 33.9088 90.0353 34.1722 90.3739 34.1722C90.7125 34.1722 90.9759 33.9088 90.9759 33.57C90.9759 33.2313 90.7125 32.9679 90.3739 32.9679ZM47.8201 33.8711C47.4815 33.8711 47.2181 34.1346 47.2181 34.4733C47.2181 34.8121 47.4815 35.0755 47.8201 35.0755C48.1587 35.0755 48.4221 34.8121 48.4221 34.4733C48.4221 34.1346 48.1587 33.8711 47.8201 33.8711ZM57.264 33.8711C56.9253 33.8711 56.662 34.1346 56.662 34.4733C56.662 34.8121 56.9253 35.0755 57.264 35.0755C57.6026 35.0755 57.866 34.8121 57.866 34.4733C57.866 34.1346 57.6026 33.8711 57.264 33.8711ZM72.3139 33.8711C71.9753 33.8711 71.7119 34.1346 71.7119 34.4733C71.7119 34.8121 71.9753 35.0755 72.3139 35.0755C72.6526 35.0755 72.9159 34.8121 72.9159 34.4733C72.9536 34.1346 72.6526 33.8711 72.3139 33.8711ZM88.7936 33.8711C88.455 33.8711 88.1916 34.1346 88.1916 34.4733C88.1916 34.8121 88.455 35.0755 88.7936 35.0755C89.1323 35.0755 89.3957 34.8121 89.3957 34.4733C89.3957 34.1346 89.1323 33.8711 88.7936 33.8711ZM91.9165 33.8711C91.5779 33.8711 91.3145 34.1346 91.3145 34.4733C91.3145 34.8121 91.5779 35.0755 91.9165 35.0755C92.2551 35.0755 92.5185 34.8121 92.5185 34.4733C92.5561 34.1346 92.2551 33.8711 91.9165 33.8711ZM44.6596 34.097C44.4339 34.097 44.2834 34.2851 44.2834 34.4733C44.2834 34.6992 44.4339 34.8497 44.6596 34.8497C44.8854 34.8497 45.0359 34.6615 45.0359 34.4733C45.0359 34.2475 44.8477 34.097 44.6596 34.097ZM60.4245 34.097C60.2363 34.097 60.0482 34.2851 60.0482 34.4733C60.0482 34.6992 60.1987 34.8497 60.4245 34.8497C60.6502 34.8497 60.8007 34.6615 60.8007 34.4733C60.8007 34.2475 60.6126 34.097 60.4245 34.097ZM46.2399 34.7744C45.9012 34.7744 45.6379 35.0379 45.6379 35.3766C45.6379 35.7154 45.9012 35.9788 46.2399 35.9788C46.5785 35.9788 46.8419 35.7154 46.8419 35.3766C46.8419 35.0379 46.5785 34.7744 46.2399 34.7744ZM58.8442 34.7744C58.5056 34.7744 58.2422 35.0379 58.2422 35.3766C58.2422 35.7154 58.5056 35.9788 58.8442 35.9788C59.1828 35.9788 59.4462 35.7154 59.4462 35.3766C59.4462 35.0379 59.1828 34.7744 58.8442 34.7744ZM70.7713 34.7744C70.4327 34.7744 70.1693 35.0379 70.1693 35.3766C70.1693 35.7154 70.4327 35.9788 70.7713 35.9788C71.1099 35.9788 71.3733 35.7154 71.3733 35.3766C71.3733 35.0379 71.1099 34.7744 70.7713 34.7744ZM73.8942 34.7744C73.5556 34.7744 73.2922 35.0379 73.2922 35.3766C73.2922 35.7154 73.5556 35.9788 73.8942 35.9788C74.2328 35.9788 74.4962 35.7154 74.4962 35.3766C74.5338 35.0379 74.2328 34.7744 73.8942 34.7744ZM90.3739 34.7744C90.0353 34.7744 89.7719 35.0379 89.7719 35.3766C89.7719 35.7154 90.0353 35.9788 90.3739 35.9788C90.7125 35.9788 90.9759 35.7154 90.9759 35.3766C90.9759 35.0379 90.7125 34.7744 90.3739 34.7744ZM47.8201 35.7154C47.4815 35.7154 47.2181 35.9788 47.2181 36.3175C47.1805 36.6186 47.4815 36.9197 47.8201 36.9197C48.1587 36.9197 48.4221 36.6563 48.4221 36.3175C48.4221 35.9788 48.1587 35.7154 47.8201 35.7154ZM57.264 35.7154C56.9253 35.7154 56.662 35.9788 56.662 36.3175C56.662 36.6186 56.9253 36.9197 57.264 36.9197C57.6026 36.9197 57.866 36.6563 57.866 36.3175C57.866 35.9788 57.6026 35.7154 57.264 35.7154ZM72.3139 35.7154C71.9753 35.7154 71.7119 35.9788 71.7119 36.3175C71.7119 36.6186 71.9753 36.9197 72.3139 36.9197C72.6526 36.9197 72.9159 36.6563 72.9159 36.3175C72.9159 35.9788 72.6526 35.7154 72.3139 35.7154ZM88.7936 35.7154C88.455 35.7154 88.1916 35.9788 88.1916 36.3175C88.154 36.6186 88.455 36.9197 88.7936 36.9197C89.1323 36.9197 89.3957 36.6563 89.3957 36.3175C89.3957 35.9788 89.1323 35.7154 88.7936 35.7154ZM91.9165 35.7154C91.5779 35.7154 91.3145 35.9788 91.3145 36.3175C91.3145 36.6186 91.5779 36.9197 91.9165 36.9197C92.2551 36.9197 92.5185 36.6563 92.5185 36.3175C92.5185 35.9788 92.2551 35.7154 91.9165 35.7154ZM46.2399 36.8445C46.0141 36.8445 45.8636 37.0326 45.8636 37.2208C45.8636 37.409 46.0141 37.5972 46.2399 37.5972C46.4656 37.5972 46.6161 37.409 46.6161 37.2208C46.6161 36.995 46.428 36.8445 46.2399 36.8445ZM58.8442 36.8445C58.6185 36.8445 58.468 37.0326 58.468 37.2208C58.468 37.409 58.6185 37.5972 58.8442 37.5972C59.07 37.5972 59.2205 37.409 59.2205 37.2208C59.2205 36.995 59.0323 36.8445 58.8442 36.8445ZM70.7713 36.8445C70.5456 36.8445 70.3951 37.0326 70.3951 37.2208C70.3574 37.409 70.5456 37.5972 70.7713 37.5972C70.9971 37.5972 71.1476 37.409 71.1476 37.2208C71.1476 36.995 70.9594 36.8445 70.7713 36.8445ZM73.8942 36.8445C73.6684 36.8445 73.5179 37.0326 73.5179 37.2208C73.5179 37.409 73.7061 37.5972 73.8942 37.5972C74.1199 37.5972 74.2704 37.409 74.2704 37.2208C74.2704 36.995 74.0823 36.8445 73.8942 36.8445ZM90.3739 36.8445C90.1481 36.8445 89.9976 37.0326 89.9976 37.2208C89.96 37.409 90.1481 37.5972 90.3739 37.5972C90.5996 37.5972 90.7501 37.409 90.7501 37.2208C90.7501 36.995 90.562 36.8445 90.3739 36.8445Z" fill="#191D63"/>
</g>
<defs>
<clipPath id="clip0_1079_3102">
<rect width="64" height="20" fill="white" transform="translate(38 18)"/>
</clipPath>
</defs>
</svg>
